<?xml version="1.0" encoding="UTF-8"?>
<svg width="455px" height="455px" viewBox="0 0 455 455" version="1.1" xmlns="http://www.w3.org/2000/svg" xmlns:xlink="http://www.w3.org/1999/xlink">
    <title>Pattern07</title>
    <defs>
        <polygon id="path-1" points="-0.0003 0.7779 58.71395 0.7779 58.71395 58 -0.0003 58"></polygon>
        <polygon id="path-3" points="0.586866211 0 24.745 0 24.745 18.0735738 0.586866211 18.0735738"></polygon>
        <polygon id="path-5" points="0.314745896 0 11.459 0 11.459 5.00177378 0.314745896 5.00177378"></polygon>
        <polygon id="path-7" points="0.39355 0 36.1938 0 36.1938 31.71895 0.39355 31.71895"></polygon>
        <polygon id="path-9" points="0.6859 0 13.4829 0 13.4829 4.87252105 0.6859 4.87252105"></polygon>
        <polygon id="path-11" points="0.417124761 0.84485 63.027048 0.84485 63.027048 125 0.417124761 125"></polygon>
        <polygon id="path-13" points="0.7907 0.760224826 11.7127 0.760224826 11.7127 5 0.7907 5"></polygon>
        <polygon id="path-15" points="0.36075 0.683190337 24.598 0.683190337 24.598 18 0.36075 18"></polygon>
        <polygon id="path-17" points="0.573 0.760224826 11.495 0.760224826 11.495 5 0.573 5"></polygon>
        <polygon id="path-19" points="0.6887 0.388224826 40.1127 0.388224826 40.1127 18 0.6887 18"></polygon>
        <polygon id="path-21" points="0.54865 0.4049 36.22515 0.4049 36.22515 31 0.54865 31"></polygon>
        <polygon id="path-23" points="0.548 0.4957 24.78425 0.4957 24.78425 18 0.548 18"></polygon>
        <polygon id="path-25" points="0.148 0.925390337 11.1937315 0.925390337 11.1937315 5 0.148 5"></polygon>
        <polygon id="path-27" points="0.7222 0.5831 66.6902 0.5831 66.6902 31 0.7222 31"></polygon>
    </defs>
    <g id="Page-1" stroke="none" stroke-width="1" fill="none" fill-rule="evenodd">
        <g id="Pattern07">
            <polygon id="Fill-1" fill="#242424" points="0 454 455 454 455 0 0 0"></polygon>
            <polygon id="Fill-2" fill="#1D1B1C" points="0.9999 0.0004 0.9999 6.8564 8.3189 0.0004"></polygon>
            <g id="Group-287" transform="translate(1.000000, 0.000000)">
                <path d="M446.9424,0 L396.8844,50.491 C395.1184,52.266 395.1184,55.25 396.8844,57.024 C398.6514,58.799 401.3464,58.853 403.1124,57.079 L453.0004,6.857 L453.0004,0 L446.9424,0 Z" id="Fill-3" fill="#1D1B1C"></path>
                <g id="Group-7" transform="translate(0.000000, 396.000000)">
                    <mask id="mask-2" fill="white">
                        <use xlink:href="#path-1"></use>
                    </mask>
                    <g id="Clip-6"></g>
                    <path d="M57.3887,2.1084 L57.3887,2.1084 C55.6217,0.3344 52.2967,0.3344 50.5307,2.1084 L-0.0003,52.3964 L-0.0003,58.0004 L7.3187,58.0004 L57.3887,8.1234 C59.1557,6.3484 59.1557,3.8824 57.3887,2.1084" id="Fill-5" fill="#1D1B1C" mask="url(#mask-2)"></path>
                </g>
                <polygon id="Fill-8" fill="#1D1B1C" points="453 454 453 448.396 446.942 454"></polygon>
                <g id="Group-12" transform="translate(9.000000, 0.000000)">
                    <mask id="mask-4" fill="white">
                        <use xlink:href="#path-3"></use>
                    </mask>
                    <g id="Clip-11"></g>
                    <path d="M2,16.8457 C3,18.6197 6.633,18.4047 8.4,16.6307 L24.745,-0.0003 L11.949,-0.0003 L2.001,10.2037 C0.235,11.9787 0,15.0417 2,16.8157 L2,16.8457 Z" id="Fill-10" fill="#1D1B1C" mask="url(#mask-4)"></path>
                </g>
                <g id="Group-15" transform="translate(129.000000, 0.000000)">
                    <mask id="mask-6" fill="white">
                        <use xlink:href="#path-5"></use>
                    </mask>
                    <g id="Clip-14"></g>
                    <path d="M1,3.7739 C3,5.5479 5.998,5.3329 7.765,3.5589 L11.459,-0.0001 L0.414,-0.0001 C0.379,1.9999 0,2.7949 1,3.7149 L1,3.7739 Z" id="Fill-13" fill="#1D1B1C" mask="url(#mask-6)"></path>
                </g>
                <path d="M149.0049,72.0806 L190.5169,30.3876 C192.2839,28.6136 192.2839,25.7366 190.5169,23.9616 C188.7499,22.1866 185.8849,22.1866 184.1189,23.9616 L142.6069,65.6546 C140.8399,67.4296 140.8399,70.3066 142.6069,72.0806 C144.3739,73.8546 147.2379,73.8546 149.0049,72.0806" id="Fill-16" fill="#1D1B1C"></path>
                <path d="M17.4448,90.769 L7.4848,80.766 L17.6018,70.604 C19.3688,68.83 19.3688,65.953 17.6018,64.178 C17.5748,64.151 17.5468,64.129 17.5188,64.103 C17.4928,64.076 17.0108,64.047 16.9848,64.02 L-0.0002,47.424 L-0.0002,60.276 L7.0838,67.391 L-0.0002,74.506 L-0.0002,85.301 L-0.0002,87.025 L6.9268,93.982 L-0.0002,100.939 L-0.0002,113.791 L16.9848,97.195 C18.7508,95.42 19.2118,92.543 17.4448,90.769" id="Fill-18" fill="#1D1B1C"></path>
                <path d="M51.8672,317.4629 C50.1002,319.2369 50.1002,322.1139 51.8672,323.8899 L78.6012,350.7399 L78.6012,350.7399 C80.3682,352.5149 83.2332,352.5149 84.9992,350.7399 L94.9592,340.7359 L105.0762,350.8989 C106.8432,352.6729 109.7082,352.6729 111.4752,350.8989 C111.5012,350.8709 111.5242,350.8419 111.5502,350.8159 C111.5762,350.7889 111.6052,350.7669 111.6322,350.7399 L138.3672,323.8899 C140.1332,322.1139 140.1332,319.2369 138.3672,317.4629 C136.5992,315.6889 133.7352,315.6889 131.9682,317.4629 L108.2762,341.2589 L98.1592,331.0979 C97.8832,330.8199 97.5792,330.5859 97.2582,330.3959 C96.9372,330.2049 96.5972,330.0579 96.2472,329.9539 C95.9682,329.8709 95.6812,329.8159 95.3932,329.7869 C95.2492,329.7739 95.1042,329.7669 94.9592,329.7669 C94.8152,329.7669 94.6702,329.7739 94.5262,329.7869 C93.5162,329.8849 92.5342,330.3209 91.7602,331.0979 L81.8002,341.1009 L58.2652,317.4629 C56.4982,315.6889 53.6342,315.6889 51.8672,317.4629" id="Fill-20" fill="#1D1B1C"></path>
                <path d="M137.0601,30.1133 L166.8291,0.0003 L154.0321,0.0003 L130.6621,23.6873 C128.8951,25.4623 128.8951,28.3393 130.6621,30.1133 C132.4291,31.8883 135.2931,31.8883 137.0601,30.1133" id="Fill-22" fill="#1D1B1C"></path>
                <path d="M250.5596,17.146 C252.3266,18.92 255.1906,18.92 256.9576,17.146 C258.7246,15.372 258.7246,12.279 256.9576,10.504 L246.7126,0 L235.7906,0 C235.7906,2 236.2326,2.541 237.1156,3.428 L250.5596,17.146 Z" id="Fill-24" fill="#1D1B1C"></path>
                <path d="M317.2593,23.9619 L303.8163,37.4639 C302.0493,39.2379 302.0493,42.1159 303.8163,43.8899 C305.5823,45.6649 308.4473,45.6649 310.2143,43.8899 L323.6573,30.3879 C325.4243,28.6129 325.4243,25.7359 323.6573,23.9619 C321.8903,22.1869 319.0263,22.1869 317.2593,23.9619" id="Fill-26" fill="#1D1B1C"></path>
                <path d="M423.5454,50.4136 L343.6104,130.6976 C341.8434,132.4716 341.8434,135.3486 343.6104,137.1226 C345.3774,138.8976 348.2414,138.8976 350.0084,137.1226 L429.9434,56.8396 C431.7104,55.0656 431.7104,52.1886 429.9434,50.4136 C428.1764,48.6396 425.3124,48.6396 423.5454,50.4136" id="Fill-28" fill="#1D1B1C"></path>
                <path d="M290.3721,50.7061 L290.3721,50.7061 C288.6051,52.4801 288.6051,55.3571 290.3721,57.1321 L303.8161,70.6341 C303.8271,70.6451 303.8381,70.6541 303.8501,70.6651 C303.8601,70.6761 303.8701,70.6881 303.8801,70.6991 C305.6471,72.4741 308.5121,72.4741 310.2791,70.6991 L349.8271,30.9791 C351.5941,29.2041 351.5941,26.3271 349.8271,24.5531 C348.0601,22.7781 345.1951,22.7781 343.4291,24.5531 L307.0801,61.0601 L296.7701,50.7061 C295.0031,48.9321 292.1391,48.9321 290.3721,50.7061" id="Fill-30" fill="#1D1B1C"></path>
                <path d="M283.6968,64.0962 L283.5678,63.9662 C281.8008,62.1922 278.9358,62.1922 277.1698,63.9662 C276.8578,64.2792 276.6048,64.6272 276.4028,64.9962 L250.4298,91.0822 C248.6628,92.8572 248.6628,95.7342 250.4298,97.5092 C252.1968,99.2832 255.0608,99.2832 256.8278,97.5092 L280.4978,73.7362 L303.9268,97.2662 C305.6938,99.0412 308.5588,99.0412 310.3248,97.2662 C310.5458,97.0452 310.7388,96.8072 310.9038,96.5552 L349.8088,57.4812 C351.5748,55.7062 351.5748,52.8292 349.8088,51.0552 C348.0418,49.2802 345.1768,49.2802 343.4098,51.0552 L307.0608,87.5622 L283.6968,64.0962 Z" id="Fill-32" fill="#1D1B1C"></path>
                <path d="M77.8271,163.8867 C79.5941,165.6607 82.4581,165.6607 84.2251,163.8867 L97.6691,150.3847 C97.7111,150.3427 97.7471,150.2967 97.7871,150.2537 C97.8301,150.2127 97.8761,150.1767 97.9181,150.1337 C99.6851,148.3597 99.6851,145.4827 97.9181,143.7077 L61.0271,106.6557 L71.2711,96.3657 C73.0381,94.5917 73.0381,91.7147 71.2711,89.9397 L71.2711,89.9397 C69.5041,88.1657 66.6391,88.1657 64.8731,89.9397 L51.2151,103.4427 C49.4481,105.2167 49.0001,108.1187 51.0001,109.8927 L51.0001,109.9997 L51.4301,109.9997 C51.4311,109.9997 51.4311,109.9357 51.4311,109.9357 L88.3211,146.9537 L77.8271,157.4767 C76.0601,159.2517 76.0601,162.1117 77.8271,163.8867" id="Fill-34" fill="#1D1B1C"></path>
                <path d="M237.5977,57.4292 C239.3647,59.2032 242.2287,59.2032 243.9957,57.4292 C245.7627,55.6542 245.7627,52.7772 243.9957,51.0032 L230.5517,37.5002 C228.7847,35.7262 225.9207,35.7262 224.1537,37.5002 C224.1307,37.5242 224.1107,37.5502 224.0877,37.5742 C224.0637,37.5962 224.0387,37.6172 224.0147,37.6402 L147.9347,114.0522 L137.6897,103.7622 C137.6707,103.7432 137.6497,103.7272 137.6307,103.7092 C137.6117,103.6892 137.5967,103.6682 137.5767,103.6492 C135.8097,101.8742 132.9457,101.8742 131.1787,103.6492 L117.7347,117.1512 C115.9687,118.9262 115.9687,121.8032 117.7347,123.5772 C119.5017,125.3522 122.3667,125.3522 124.1337,123.5772 L134.3777,113.2882 L144.7347,123.6902 L144.7357,123.6912 C145.0667,124.0242 145.4367,124.2942 145.8307,124.5022 C146.0437,124.6152 146.2647,124.8632 146.4897,124.9392 C148.0667,125.4712 149.9527,125.0002 151.2087,124.0002 L150.9997,124.0002 L150.9997,123.6902 L227.2857,47.1392 L237.5977,57.4292 Z" id="Fill-36" fill="#1D1B1C"></path>
                <path d="M230.4507,90.7002 C228.6837,88.9262 225.8197,88.9262 224.0527,90.7002 L134.5967,180.5462 L124.8247,170.7312 C123.0577,168.9572 120.1937,168.9572 118.4267,170.7312 C116.6597,172.5062 116.6597,175.3832 118.4267,177.1582 L131.3967,190.1842 L131.3977,190.1852 C133.1647,191.9592 136.0287,191.9592 137.7957,190.1852 L230.4507,97.1262 C232.2177,95.3522 232.2177,92.4752 230.4507,90.7002" id="Fill-38" fill="#1D1B1C"></path>
                <path d="M131.311,164.2173 L131.311,164.2173 C133.078,165.9913 135.942,165.9913 137.709,164.2173 L151.153,150.7153 C152.92,148.9403 152.92,146.0633 151.153,144.2883 L137.709,130.7863 C135.942,129.0123 133.078,129.0123 131.311,130.7863 C129.544,132.5613 129.544,135.4383 131.311,137.2123 L141.556,147.5023 L131.311,157.7913 C129.544,159.5653 129.544,162.4423 131.311,164.2173" id="Fill-40" fill="#1D1B1C"></path>
                <path d="M91.7861,223.8652 L91.7861,223.8652 C90.0191,225.6392 90.0191,228.5162 91.7861,230.2912 L105.2301,243.7942 C106.9961,245.5682 109.8611,245.5682 111.6281,243.7942 C113.3951,242.0192 113.3951,239.1422 111.6281,237.3672 L98.1841,223.8652 C96.4171,222.0912 93.5531,222.0912 91.7861,223.8652" id="Fill-42" fill="#1D1B1C"></path>
                <path d="M77.5366,297.6357 L77.5366,297.6357 C79.3036,299.4107 82.1676,299.4107 83.9346,297.6357 L97.3786,284.1337 C97.3866,284.1257 97.3936,284.1157 97.4016,284.1077 C97.4106,284.0997 97.4196,284.0927 97.4276,284.0837 C99.1946,282.3097 99.1946,279.4327 97.4276,277.6577 L83.9846,264.1567 C82.2176,262.3807 79.3526,262.3807 77.5856,264.1567 C75.8196,265.9307 75.8196,268.8077 77.5856,270.5817 L87.8306,280.8707 L77.5366,291.2097 C75.7696,292.9847 75.7696,295.8617 77.5366,297.6357" id="Fill-44" fill="#1D1B1C"></path>
                <path d="M64.979,304.1992 C63.212,305.9732 63.212,308.8512 64.979,310.6262 L78.422,324.1282 L78.423,324.1282 C80.189,325.9022 83.054,325.9022 84.821,324.1282 L95.146,313.7582 L105.391,324.0472 C107.158,325.8212 110.022,325.8212 111.789,324.0472 C113.556,322.2722 113.556,319.3952 111.789,317.6212 L98.345,304.1182 C96.579,302.3442 93.714,302.3442 91.947,304.1182 C91.934,304.1322 91.922,304.1472 91.909,304.1612 C91.895,304.1752 91.88,304.1852 91.867,304.1992 L81.622,314.4892 L71.377,304.1992 C69.61,302.4252 66.746,302.4252 64.979,304.1992" id="Fill-46" fill="#1D1B1C"></path>
                <path d="M105.3872,378.2744 C106.1992,379.0904 107.2442,379.5274 108.3082,379.5924 C109.6762,379.7954 111.1172,379.3734 112.1712,378.3154 L165.2442,325.0104 C167.0112,323.2364 167.0112,320.3594 165.2442,318.5844 C163.4772,316.8094 160.6132,316.8094 158.8462,318.5844 L108.7992,368.8494 L98.3412,358.3464 C96.5742,356.5724 93.7102,356.5724 91.9432,358.3464 L78.5002,371.8484 L78.4992,371.8484 C77.6162,372.7364 77.1752,373.8984 77.1752,375.0614 C77.1752,375.7884 77.3472,376.5154 77.6922,377.1744 C77.8992,377.5704 78.1682,377.9424 78.4992,378.2744 L78.5002,378.2744 L101.4802,401.3554 L91.0182,411.8624 C89.2512,413.6364 89.2512,416.5134 91.0182,418.2884 C92.7852,420.0634 95.6502,420.0634 97.4162,418.2884 L110.8602,404.7864 C111.8432,403.7984 112.2772,402.4704 112.1662,401.1804 C112.1822,399.9984 111.7422,398.8104 110.8442,397.9084 L88.0972,375.0614 L95.1422,367.9854 L105.3872,378.2744 Z" id="Fill-48" fill="#1D1B1C"></path>
                <path d="M191.4824,237.6797 C189.7154,235.9057 186.8514,235.9057 185.0844,237.6797 L121.2634,301.7787 L110.9694,291.4397 C109.2024,289.6647 106.3374,289.6647 104.5714,291.4397 L104.5704,291.4397 C102.8044,293.2137 102.8044,296.0907 104.5704,297.8657 L118.0144,311.3677 C119.5044,312.8647 121.7734,313.0937 123.5074,312.0667 C123.9164,311.8557 124.3004,311.5797 124.6424,311.2367 L191.4824,244.1057 C193.2494,242.3307 193.2494,239.4537 191.4824,237.6797" id="Fill-50" fill="#1D1B1C"></path>
                <path d="M84.2661,237.542 C83.0141,236.881 81.5191,236.855 80.2451,237.455 C79.7811,237.673 79.3461,237.969 78.9631,238.354 L65.5191,251.855 C63.7521,253.63 63.7521,256.507 65.5191,258.281 C67.2861,260.056 70.1511,260.056 71.9171,258.281 L82.1621,247.992 L117.9121,283.898 C119.6801,285.673 122.5441,285.673 124.3111,283.898 L137.7541,270.396 C139.5211,268.622 139.5211,265.745 137.7541,263.97 C135.9881,262.195 133.1231,262.195 131.3561,263.97 L121.1121,274.26 L85.3611,238.354 C85.0301,238.021 84.6601,237.75 84.2661,237.542" id="Fill-52" fill="#1D1B1C"></path>
                <path d="M11.437,311.7041 L11.437,311.7041 C13.204,313.4781 16.068,313.4781 17.835,311.7041 L44.403,285.0191 C44.769,284.6531 45.054,284.2371 45.268,283.7961 C46.196,282.0741 45.937,279.8781 44.489,278.4231 L34.244,268.1331 L111.085,190.9571 C112.852,189.1831 112.852,186.3061 111.085,184.5311 C109.318,182.7571 106.454,182.7571 104.687,184.5311 L24.647,264.9201 C22.88,266.6941 22.88,269.5711 24.647,271.3471 L34.934,281.6791 L11.437,305.2781 C9.67,307.0531 9.67,309.9301 11.437,311.7041" id="Fill-54" fill="#1D1B1C"></path>
                <path d="M230.21,63.938 C228.443,62.164 225.579,62.164 223.812,63.938 C222.045,65.712 222.045,68.589 223.812,70.364 L237.255,83.866 C239.022,85.641 241.887,85.641 243.653,83.866 C243.659,83.861 243.663,83.855 243.668,83.85 C243.674,83.844 243.68,83.84 243.685,83.834 L310.279,16.951 C312.045,15.176 312.045,12.299 310.279,10.524 C308.512,8.75 305.648,8.75 303.88,10.524 L240.454,74.227 L230.21,63.938 Z" id="Fill-56" fill="#1D1B1C"></path>
                <path d="M210.9326,77.5234 L158.0496,130.6374 C156.2826,132.4114 156.2826,135.2884 158.0496,137.0634 C159.8166,138.8374 162.6816,138.8374 164.4476,137.0634 L217.3306,83.9494 C219.0976,82.1754 219.0976,79.2984 217.3306,77.5234 C215.5636,75.7494 212.6996,75.7494 210.9326,77.5234" id="Fill-58" fill="#1D1B1C"></path>
                <path d="M24.1367,244.2744 C25.9037,246.0484 28.7677,246.0484 30.5347,244.2744 L123.2387,151.1664 C123.4907,150.9134 123.7017,150.6364 123.8827,150.3454 C123.8847,150.3434 123.8877,150.3404 123.8907,150.3384 C125.6577,148.5634 125.6577,145.6864 123.8907,143.9124 L100.6877,120.6084 L124.3757,96.8164 C126.1427,95.0424 126.1427,92.1654 124.3757,90.3904 C124.3747,90.3894 124.3727,90.3884 124.3717,90.3864 C124.3697,90.3854 124.3687,90.3834 124.3677,90.3824 L110.9237,76.8794 C109.1577,75.1054 106.2927,75.1054 104.5257,76.8794 C102.7587,78.6544 102.7587,81.5314 104.5257,83.3064 L114.7787,93.6044 L91.0907,117.3954 C89.3237,119.1704 89.3237,122.0464 91.0907,123.8214 L114.3797,147.2114 L24.1367,237.8484 C22.3697,239.6234 22.3697,242.5004 24.1367,244.2744" id="Fill-60" fill="#1D1B1C"></path>
                <path d="M97.7627,90.666 L97.7627,90.666 C97.7357,90.639 97.7057,90.616 97.6787,90.589 C97.6517,90.561 97.6287,90.531 97.6017,90.504 L87.3547,80.212 L97.5987,69.923 C99.3667,68.149 99.3667,65.272 97.5987,63.497 C95.8327,61.723 92.9677,61.723 91.2007,63.497 L77.7577,76.999 C75.9907,78.774 75.9907,81.651 77.7577,83.426 C77.7577,83.426 77.7587,83.426 77.7587,83.427 L77.7597,83.428 L88.1657,93.879 L77.9207,104.168 C76.1547,105.943 76.1547,108.82 77.9207,110.594 C79.6877,112.369 82.5527,112.369 84.3187,110.594 L97.7627,97.092 C99.5297,95.317 99.5297,92.44 97.7627,90.666" id="Fill-62" fill="#1D1B1C"></path>
                <path d="M9.3569,201.0801 C9.3569,202.2441 9.7979,203.4071 10.6819,204.2951 L24.1259,217.7971 C25.8919,219.5721 28.7569,219.5721 30.5239,217.7971 C32.2909,216.0231 32.2909,213.1461 30.5239,211.3711 L20.2769,201.0801 L27.4299,193.8951 L37.6769,204.1871 C37.8989,204.4101 38.1379,204.6041 38.3899,204.7711 C40.1469,205.9441 42.5399,205.7531 44.0889,204.1971 L70.4719,177.7001 C70.5849,177.6071 70.6939,177.5081 70.7989,177.4031 L70.7999,177.4031 C72.5659,175.6281 72.5659,172.7511 70.7999,170.9761 L60.5239,160.6571 L70.7199,150.4171 C72.4869,148.6421 72.4869,145.7651 70.7199,143.9911 C68.9529,142.2161 66.0889,142.2161 64.3219,143.9911 L50.8779,157.4931 C49.1109,159.2671 49.1109,162.1441 50.8779,163.9191 C51.0629,164.1041 51.2609,164.2661 51.4669,164.4121 L61.1869,174.1741 L40.8879,194.5601 L30.6309,184.2591 C28.8639,182.4841 25.9999,182.4841 24.2329,184.2591 C24.2229,184.2691 24.2139,184.2811 24.2039,184.2911 C24.1779,184.3161 24.1499,184.3371 24.1259,184.3621 L10.6819,197.8651 C9.7979,198.7521 9.3569,199.9161 9.3569,201.0801" id="Fill-64" fill="#1D1B1C"></path>
                <path d="M23.0586,161.2881 C23.0726,161.4331 23.0936,161.5781 23.1206,161.7211 C23.1886,162.0741 23.3036,162.4181 23.4556,162.7501 C23.6736,163.2251 23.9726,163.6741 24.3626,164.0661 L24.3636,164.0661 L37.8066,177.5681 C39.5736,179.3431 42.4376,179.3431 44.2046,177.5681 C45.9716,175.7931 45.9716,172.9161 44.2046,171.1421 L33.9606,160.8531 L57.5206,137.1901 C57.9636,136.7451 58.2956,136.2301 58.5166,135.6811 C59.1796,134.0391 58.8486,132.0881 57.5226,130.7571 L44.0796,117.2551 C42.3126,115.4801 39.4476,115.4801 37.6816,117.2551 C35.9136,119.0291 35.9136,121.9071 37.6816,123.6811 L47.9276,133.9721 L24.3626,157.6401 C23.3696,158.6381 22.9346,159.9851 23.0586,161.2881" id="Fill-66" fill="#1D1B1C"></path>
                <path d="M250.6704,43.7783 L250.6704,43.7783 C250.7474,43.8553 250.8254,43.9273 250.9064,43.9973 C250.9304,44.0193 250.9564,44.0393 250.9814,44.0603 C251.1394,44.1923 251.3044,44.3143 251.4754,44.4223 C251.5704,44.4813 251.6674,44.5373 251.7664,44.5893 C253.4734,45.4903 255.6334,45.2203 257.0684,43.7783 L257.0694,43.7783 L283.7154,17.0153 C285.4824,15.2413 285.4824,12.3643 283.7154,10.5903 C281.9484,8.8153 279.0844,8.8153 277.3174,10.5903 L253.8694,34.1393 L230.3114,10.4783 C228.5444,8.7033 225.6794,8.7033 223.9134,10.4783 C222.1464,12.2523 222.1464,15.1293 223.9134,16.9033 L250.6704,43.7783 Z" id="Fill-68" fill="#1D1B1C"></path>
                <path d="M330.8252,17.4824 C331.1162,17.7134 331.4282,17.9064 331.7542,18.0574 C332.0842,18.2094 332.4272,18.3254 332.7792,18.3934 C332.9212,18.4214 333.0652,18.4414 333.2092,18.4564 C333.7862,18.5114 334.3712,18.3824 334.9312,18.2164 C335.6302,18.0084 336.4532,17.0004 337.0062,17.0004 L336.0002,17.0004 L336.0002,17.0864 L353.4852,0.0004 L340.6882,0.0004 L333.6432,7.0764 L326.5972,0.0004 L313.8012,0.0004 L330.4442,16.9304 C330.5652,17.0524 330.6942,17.3784 330.8252,17.4824" id="Fill-70" fill="#1D1B1C"></path>
                <path d="M383.7002,70.6343 C385.4672,72.4083 388.3312,72.4083 390.0982,70.6343 C391.8652,68.8603 391.8652,65.9833 390.0982,64.2083 L363.3402,37.3343 C361.5742,35.5593 358.7092,35.5593 356.9422,37.3343 C355.1762,39.1083 355.1762,41.9853 356.9422,43.7593 L383.7002,70.6343 Z" id="Fill-72" fill="#1D1B1C"></path>
                <path d="M390.3574,17.146 L390.3574,17.146 C392.1244,15.372 392.1244,12.279 390.3574,10.504 L380.1124,0 L367.3164,0 L383.9594,16.931 C385.7264,18.705 388.5904,18.92 390.3574,17.146" id="Fill-74" fill="#1D1B1C"></path>
                <path d="M383.7002,43.8901 L383.7002,43.8901 C384.2522,44.4451 384.9112,44.8261 385.6112,45.0341 C386.0312,45.1591 386.4652,45.2211 386.8992,45.2211 C387.1882,45.2211 387.4782,45.1931 387.7632,45.1381 C388.0482,45.0821 388.3292,44.9991 388.6012,44.8881 C389.1462,44.6661 389.6572,44.3331 390.0982,43.8901 L390.0982,43.8901 L430.1702,3.4281 C431.0542,2.5411 431.4952,2.0001 431.4952,0.0001 L420.5732,0.0001 L386.8992,34.0361 L363.3402,10.4821 C361.5742,8.7071 358.7092,8.7611 356.9422,10.5361 C355.1762,12.3101 355.1762,15.2141 356.9422,16.9891 L383.7002,43.8901 Z" id="Fill-76" fill="#1D1B1C"></path>
                <path d="M270.2715,3.2983 L273.3415,0.0003 L262.5545,0.0003 C262.5865,2.0003 263.0225,2.3363 263.8735,3.1903 C265.6405,4.9653 268.5045,5.0723 270.2715,3.2983" id="Fill-78" fill="#1D1B1C"></path>
                <path d="M296.8999,3.2983 C297.7499,2.4443 298.1869,2.0003 298.2189,0.0003 L287.4319,0.0003 L290.5019,3.1903 C292.2689,4.9653 295.1329,5.0723 296.8999,3.2983" id="Fill-80" fill="#1D1B1C"></path>
                <path d="M151.2148,223.9854 L151.2148,223.9854 C149.4478,222.2114 146.5838,222.2114 144.8168,223.9854 L134.7018,234.1444 L124.5868,223.9854 C122.8198,222.2114 119.9558,222.2114 118.1888,223.9854 C116.4218,225.7594 116.4218,228.6364 118.1888,230.4114 L128.3038,240.5704 L118.1888,250.7294 C116.4218,252.5044 116.4218,255.3814 118.1888,257.1554 C119.9558,258.9304 122.8198,258.9304 124.5868,257.1554 L134.7018,246.9974 L144.8168,257.1554 C146.5838,258.9304 149.4478,258.9304 151.2148,257.1554 C152.9818,255.3814 152.9818,252.5044 151.2148,250.7294 L141.0998,240.5704 L151.2148,230.4114 C152.9818,228.6364 152.9818,225.7594 151.2148,223.9854" id="Fill-82" fill="#1D1B1C"></path>
                <path d="M197,17 L197.457,17 L197.426,17 C199.193,19 201.896,19 203.663,17 L203,17 L203,16.993 L220.344,0 L207.548,0 L200.595,6.983 L193.643,0 L180.846,0 L197,16.993 L197,17 Z" id="Fill-84" fill="#1D1B1C"></path>
                <g id="Group-88" transform="translate(49.000000, 0.000000)">
                    <mask id="mask-8" fill="white">
                        <use xlink:href="#path-7"></use>
                    </mask>
                    <g id="Clip-87"></g>
                    <path d="M1.7188,30.3877 C3.4858,32.1627 6.3498,32.1627 8.1168,30.3877 L34.8748,3.2987 C35.7248,2.4447 36.1618,1.9997 36.1938,-0.0003 L25.1478,-0.0003 L1.7188,23.7467 C-0.0482,25.5207 -0.0482,28.6137 1.7188,30.3877" id="Fill-86" fill="#1D1B1C" mask="url(#mask-8)"></path>
                </g>
                <path d="M10.8813,43.1694 C10.9823,43.2944 11.0893,43.4164 11.2053,43.5324 C12.9713,45.3074 15.8363,45.3074 17.6033,43.5324 L30.7193,30.3584 C32.4863,28.5844 32.4863,25.7074 30.7193,23.9334 C28.9523,22.1584 26.0883,22.1584 24.3213,23.9334 L14.4043,33.8934 L3.7283,23.6324 C2.8273,22.7284 1.0003,22.2874 0.0003,22.3054 L0.0003,33.2034 L10.0593,42.8444 C10.1753,42.9604 10.7563,43.0684 10.8813,43.1694" id="Fill-89" fill="#1D1B1C"></path>
                <path d="M3.6592,425.126 L0.0002,421.913 L0.0002,432.883 C1.0002,432.883 2.5452,432.439 3.4292,431.552 C5.1962,429.777 5.4262,426.9 3.6592,425.126" id="Fill-91" fill="#1D1B1C"></path>
                <path d="M43.9453,358.1221 L43.9453,358.1221 C42.1783,356.3481 38.8533,356.3481 37.0873,358.1221 L0.0003,394.9081 L0.0003,407.7611 L43.4853,364.5491 C45.2523,362.7741 45.7123,359.8961 43.9453,358.1221" id="Fill-93" fill="#1D1B1C"></path>
                <path d="M24.5283,83.6538 L24.5283,83.6538 C26.2953,85.4288 29.1593,85.4288 30.9263,83.6538 L44.0433,70.4808 C45.1503,69.3678 45.5633,67.8228 45.2823,66.3868 C45.1193,65.5188 44.7053,64.6898 44.0363,64.0178 L30.9203,50.8448 C29.1533,49.0708 26.2883,49.0708 24.5223,50.8448 C22.7553,52.6188 22.7553,55.4968 24.5223,57.2708 L34.4603,67.2528 L24.5283,77.2278 C22.7613,79.0028 22.7613,81.8798 24.5283,83.6538" id="Fill-95" fill="#1D1B1C"></path>
                <path d="M30.9736,110.4028 L94.1236,46.9778 L144.1766,97.2488 C145.9436,99.0228 148.8076,99.0228 150.5746,97.2488 C150.5826,97.2398 150.5886,97.2318 150.5966,97.2238 C150.6046,97.2158 150.6126,97.2098 150.6206,97.2018 L216.9696,30.5638 C218.7366,28.7898 218.7366,25.9128 216.9696,24.1378 L216.9696,24.1378 C215.2026,22.3628 212.3376,22.3628 210.5716,24.1378 L147.3756,87.6098 L97.3226,37.3388 L97.3026,37.3178 C95.5356,35.5428 92.6706,35.5428 90.9036,37.3178 C90.7846,37.4378 90.6736,37.5638 90.5706,37.6938 L24.5756,103.9768 C22.8086,105.7508 22.8086,108.6278 24.5756,110.4028 C26.3426,112.1768 29.2066,112.1768 30.9736,110.4028" id="Fill-97" fill="#1D1B1C"></path>
                <path d="M129.2925,58.7085 L129.2925,58.7085 C131.0595,60.4825 133.9235,60.4825 135.6905,58.7085 L135.6915,58.7085 L177.2025,17.0155 C178.9695,15.2415 178.9695,12.3645 177.2025,10.5895 C175.4365,8.8145 172.5715,8.8145 170.8045,10.5895 L132.4915,49.0695 L95.5185,11.9345 C93.7515,10.1605 90.8865,10.1605 89.1205,11.9345 C87.3535,13.7095 87.3535,16.5865 89.1205,18.3605 L129.2925,58.7085 Z" id="Fill-99" fill="#1D1B1C"></path>
                <path d="M83.9829,23.9404 C82.2159,22.1664 79.3519,22.1664 77.5849,23.9404 L54.1559,47.4714 L44.2129,37.4854 C42.4459,35.7114 39.5819,35.7114 37.8149,37.4854 C36.0479,39.2604 36.0479,42.1374 37.8149,43.9114 L50.9309,57.0854 C52.0349,58.1944 53.5689,58.6104 54.9949,58.3324 C55.8719,58.1744 56.7119,57.7574 57.3889,57.0764 L83.9829,30.3664 C85.7499,28.5914 85.7499,25.7144 83.9829,23.9404" id="Fill-101" fill="#1D1B1C"></path>
                <path d="M17.4448,177.4409 L17.4448,177.4409 C19.2118,175.6659 18.7508,172.7889 16.9848,171.0149 L-0.0002,154.4189 L-0.0002,167.2709 L6.9268,174.2279 L-0.0002,181.1849 L-0.0002,194.0369 L16.9818,177.4429 C16.9828,177.4419 17.4438,177.4409 17.4448,177.4409" id="Fill-103" fill="#1D1B1C"></path>
                <path d="M13.8887,151.6641 C15.0447,151.6641 16.2047,151.2201 17.0867,150.3331 L30.1017,137.2621 C30.7307,136.6301 31.1317,135.8571 31.3127,135.0451 C31.6397,133.5771 31.2387,131.9781 30.1017,130.8361 L16.9857,117.6631 C15.2187,115.8881 12.3537,115.8881 10.5877,117.6631 C8.8207,119.4371 8.8207,122.3141 10.5877,124.0891 L20.5037,134.0481 L13.8867,140.6941 L3.5107,130.7351 C2.6647,129.8861 0.9997,129.4471 -0.0003,129.4101 L-0.0003,140.5211 L10.2297,150.3331 C11.1127,151.2201 12.7287,151.6641 13.8887,151.6641" id="Fill-105" fill="#1D1B1C"></path>
                <path d="M17.4448,357.9902 L17.4448,357.9902 C15.6778,356.2162 12.3528,356.2162 10.5858,357.9902 L-0.0002,368.1602 L-0.0002,381.0112 L16.9848,364.4162 C18.7508,362.6412 19.2118,359.7642 17.4448,357.9902" id="Fill-107" fill="#1D1B1C"></path>
                <path d="M30.7607,351.3066 L30.7607,351.3066 C32.5277,349.5326 32.5277,346.6556 30.7607,344.8806 L3.5357,317.9986 C2.6837,317.1436 0.9997,316.7046 -0.0003,316.6746 L-0.0003,327.7616 L23.9027,351.3066 C25.6687,353.0806 28.9937,353.0806 30.7607,351.3066" id="Fill-109" fill="#1D1B1C"></path>
                <path d="M3.9282,291 L3.8032,291 C2.9692,290 1.0002,290.309 0.0002,290.263 L0.0002,301.031 L3.4682,297.718 C5.2352,295.943 5.6952,293 3.9282,291" id="Fill-111" fill="#1D1B1C"></path>
                <path d="M17.313,257.1523 C19.08,255.3783 19.08,252.5013 17.313,250.7253 L7.396,240.7653 L17.313,230.8053 C19.08,229.0313 19.08,226.1533 17.313,224.3793 C17.279,224.3453 17.242,224.3173 17.208,224.2843 C17.175,224.2493 17.146,224.2123 17.113,224.1783 L3.536,211.0053 C2.684,210.1493 1,209.7103 0,209.6803 L0,220.7683 L6.795,227.5923 L0,234.4173 L0,236.2253 L0,247.1143 L10.454,257.1523 C12.221,258.9263 15.546,258.9263 17.313,257.1523" id="Fill-113" fill="#1D1B1C"></path>
                <path d="M151.2173,197.2388 C149.4503,195.4648 146.5863,195.4648 144.8193,197.2388 L134.7013,207.4008 L124.7843,197.4398 C123.0183,195.6658 120.1533,195.6658 118.3863,197.4398 L105.2703,210.6138 C103.5043,212.3878 103.5043,215.2648 105.2703,217.0398 C107.0373,218.8138 109.9023,218.8138 111.6683,217.0398 L121.5863,207.0788 L131.5033,217.0398 C133.2693,218.8138 136.1343,218.8138 137.9013,217.0398 C137.9343,217.0058 137.9633,216.9678 137.9963,216.9338 C138.0303,216.9018 138.0673,216.8718 138.1013,216.8388 L151.2173,203.6648 C152.9843,201.8908 152.9843,199.0138 151.2173,197.2388" id="Fill-115" fill="#1D1B1C"></path>
                <path d="M217.5493,217.1914 L217.5493,217.1914 C219.3163,215.4164 219.3163,212.5394 217.5493,210.7654 L180.7253,173.7814 L204.1453,150.2594 C205.9123,148.4844 205.9123,145.6084 204.1453,143.8334 C202.3783,142.0584 199.5143,142.0584 197.7473,143.8334 L171.4193,170.2754 C170.4013,171.2984 169.9733,172.6864 170.1283,174.0184 C170.1063,175.2094 170.5443,176.4074 171.4493,177.3164 L211.1513,217.1914 C212.9183,218.9654 215.7823,218.9654 217.5493,217.1914" id="Fill-117" fill="#1D1B1C"></path>
                <path d="M243.1055,103.646 C241.3385,102.376 238.8675,102.534 237.2805,104.127 L210.9525,130.57 C209.3055,132.225 209.1955,134.836 210.6195,136.62 C210.7905,136.886 210.9895,137.138 211.2215,137.371 L221.1385,147.331 L197.8795,170.691 C196.1125,172.466 196.1125,175.343 197.8795,177.118 C199.6465,178.892 202.5105,178.892 204.2775,177.118 L230.6055,150.675 C230.6275,150.653 230.6465,150.628 230.6675,150.606 C230.6895,150.584 230.7135,150.566 230.7355,150.544 C232.5025,148.77 232.5025,145.893 230.7355,144.118 L220.4975,133.836 L240.5495,113.696 L250.7885,123.979 C252.5545,125.753 255.4195,125.753 257.1865,123.979 C257.2105,123.954 257.2315,123.927 257.2555,123.901 C257.2805,123.877 257.3075,123.857 257.3325,123.832 L283.6605,97.389 C285.4265,95.615 285.4265,92.738 283.6605,90.963 C281.8935,89.188 279.0285,89.188 277.2615,90.963 L253.9865,114.339 L244.0695,104.379 C243.7755,104.084 243.4495,103.843 243.1055,103.646" id="Fill-119" fill="#1D1B1C"></path>
                <path d="M217.7593,244.1504 L217.7593,244.1504 C219.5263,242.3764 219.5263,239.4994 217.7593,237.7244 L191.1393,210.9884 C189.3723,209.2144 186.5083,209.2144 184.7413,210.9884 C182.9743,212.7634 182.9743,215.6404 184.7413,217.4144 L208.1623,240.9374 L144.8493,304.5264 C143.0823,306.3004 143.0823,309.1774 144.8493,310.9524 C146.6153,312.7264 149.4803,312.7264 151.2473,310.9524 L217.7593,244.1514 L217.7593,244.1504 Z" id="Fill-121" fill="#1D1B1C"></path>
                <path d="M177.6475,197.438 L164.5315,184.265 C162.7645,182.49 159.8995,182.49 158.1335,184.265 C156.3665,186.039 156.3665,188.916 158.1335,190.69 L168.0505,200.651 L158.1335,210.611 C156.3665,212.386 156.3665,215.263 158.1335,217.037 L158.1335,217.038 L168.0125,226.959 L158.0955,236.92 C156.3285,238.694 156.3285,241.571 158.0955,243.346 C159.8625,245.12 162.7265,245.12 164.4935,243.346 L177.1435,230.641 C177.3185,230.51 177.4885,230.37 177.6475,230.211 C179.4145,228.436 179.4145,225.559 177.6475,223.784 L167.7305,213.824 L177.6475,203.864 C179.4145,202.089 179.4145,199.212 177.6475,197.438" id="Fill-123" fill="#1D1B1C"></path>
                <path d="M24.2969,324.4922 C24.3489,324.5442 24.4049,324.5902 24.4599,324.6392 C24.5089,324.6942 24.5549,324.7512 24.6069,324.8032 L61.3189,361.6762 L11.4189,411.7932 C9.6519,413.5672 9.6519,416.4442 11.4189,418.2192 C13.1859,419.9932 16.0499,419.9932 17.8179,418.2192 L70.7709,365.0352 C71.9119,363.8882 72.3109,362.2842 71.9789,360.8122 C71.8439,359.8752 71.4229,358.9712 70.7049,358.2502 L33.8939,321.2782 L70.2199,284.7942 C70.5579,284.4552 70.8289,284.0762 71.0379,283.6732 C72.2869,281.8982 72.1249,279.4302 70.5439,277.8432 L57.8479,265.0912 C56.0809,263.3162 53.2159,263.3162 51.4499,265.0912 C49.6829,266.8652 49.6829,269.7422 51.4499,271.5172 L61.0469,281.1562 L24.2969,318.0652 C22.5299,319.8402 22.5299,322.7172 24.2969,324.4922" id="Fill-125" fill="#1D1B1C"></path>
                <path d="M3.9624,351 C5.7294,349 5.2694,346.418 3.5024,344.644 L0.0004,341.659 L0.0004,352.463 C1.0004,352.425 2.9944,352 3.8374,351 L3.9624,351 Z" id="Fill-127" fill="#1D1B1C"></path>
                <path d="M17.4448,284.4346 C19.2118,282.6606 18.7508,279.7836 16.9848,278.0086 L-0.0002,261.4136 L-0.0002,274.2646 L10.5858,284.4346 C12.3528,286.2096 15.6778,286.2096 17.4448,284.4346" id="Fill-129" fill="#1D1B1C"></path>
                <path d="M43.9038,17.1172 L47.4498,13.5552 C47.4838,13.5232 47.5198,13.2802 47.5518,13.2472 L60.5288,0.0002 L47.7338,0.0002 L47.7218,0.0002 L37.5058,10.4752 C35.7388,12.2502 35.7388,15.2352 37.5058,17.0092 C39.2728,18.7842 42.1368,18.8912 43.9038,17.1172" id="Fill-131" fill="#1D1B1C"></path>
                <path d="M115.5342,15.1353 L117.4772,17.0873 C119.2442,18.8613 122.1092,18.8613 123.8752,17.0873 C125.6422,15.3123 125.1792,12.4353 123.4112,10.6603 L121.0002,8.7043 L121.0002,8.6453 L113.6902,0.0003 L100.8922,0.0003 L115.5282,14.9143 C115.5302,14.9163 115.5322,15.1333 115.5342,15.1353" id="Fill-133" fill="#1D1B1C"></path>
                <path d="M451,83.8901 L451,83.0001 L450.411,83.0001 L453,87.0251 L453,85.3011 L453,74.5061 L450.483,77.5081 C448.717,79.2831 449,82.1161 451,83.8901" id="Fill-135" fill="#1D1B1C"></path>
                <path d="M403.3779,104.3589 C401.6109,102.5849 398.7469,102.5849 396.9799,104.3589 L343.7489,157.8219 C341.9819,159.5969 341.9819,162.4739 343.7489,164.2479 C345.5159,166.0229 348.3799,166.0229 350.1469,164.2479 L403.3779,110.7849 C405.1449,109.0109 405.1449,106.1339 403.3779,104.3589" id="Fill-137" fill="#1D1B1C"></path>
                <path d="M317.1763,104.1475 L306.9413,114.4275 L296.8253,104.2685 C295.0593,102.4945 292.1943,102.4945 290.4273,104.2685 L253.9043,140.9515 L243.7863,130.7905 C242.0193,129.0165 239.1553,129.0165 237.3883,130.7905 C235.6213,132.5655 235.6213,135.4425 237.3883,137.2165 L250.7043,150.5905 C252.4713,152.3655 255.3363,152.3655 257.1023,150.5905 C257.1323,150.5615 257.1573,150.5295 257.1853,150.4995 C257.2163,150.4705 257.2483,150.4445 257.2783,150.4155 L293.6273,113.9075 L303.7413,124.0665 C305.5093,125.8415 308.3733,125.8415 310.1403,124.0665 C310.1593,124.0465 310.1763,124.0245 310.1963,124.0045 C310.2163,123.9845 310.2383,123.9685 310.2583,123.9485 L323.5743,110.5735 C325.3413,108.7995 325.3413,105.9225 323.5743,104.1475 C321.8073,102.3735 318.9433,102.3735 317.1763,104.1475" id="Fill-139" fill="#1D1B1C"></path>
                <path d="M323.3467,130.9053 C321.5797,129.1313 318.7157,129.1313 316.9487,130.9053 C315.1817,132.6793 315.1817,135.5563 316.9487,137.3313 L330.2627,150.7033 C332.0297,152.4783 334.8937,152.4783 336.6607,150.7033 C338.4277,148.9283 338.4277,146.0513 336.6607,144.2773 L323.3467,130.9053 Z" id="Fill-141" fill="#1D1B1C"></path>
                <path d="M224.6772,224.4014 C222.9102,226.1754 222.9102,229.0524 224.6772,230.8274 C226.4442,232.6014 229.3082,232.6014 231.0752,230.8274 L244.3912,217.4534 C245.2872,216.5534 245.7272,215.3704 245.71448,214.1914 C245.71448,213.0284 245.2732,211.8654 244.3892,210.9784 L220.6832,187.1694 L243.9402,163.8114 C245.7062,162.0364 245.7062,159.1594 243.9402,157.3854 C242.1732,155.6104 239.3082,155.6104 237.5412,157.3854 L211.0862,183.9554 C210.8102,184.2334 210.5772,184.5374 210.3872,184.8594 C210.1982,185.1824 210.0512,185.5244 209.9482,185.8754 C209.8642,186.1564 209.8092,186.4434 209.7812,186.7334 C209.7682,186.8784 209.7612,187.0234 209.7612,187.1694 C209.7612,187.3144 209.7682,187.4594 209.7812,187.6044 C209.8782,188.6184 210.3132,189.6054 211.0862,190.3814 L234.8182,214.2164 L224.6772,224.4014 Z" id="Fill-143" fill="#1D1B1C"></path>
                <path d="M225.0464,257.7217 L225.0464,257.7217 C226.8134,259.4967 229.6774,259.4967 231.4444,257.7217 L271.1704,217.8237 C272.9034,216.0827 272.9314,213.2817 271.2624,211.5007 C271.1134,211.2877 270.9484,211.0817 270.7584,210.8917 L260.8414,200.9317 L297.3134,164.3007 C299.0804,162.5267 299.0804,159.6497 297.3134,157.8747 C295.5464,156.0997 292.6814,156.0997 290.9154,157.8747 L251.2444,197.7187 L251.1904,197.7727 C249.4224,199.5477 249.4224,202.4247 251.1904,204.1997 C251.3864,204.3967 251.5994,204.5687 251.8194,204.7227 L261.6184,214.5637 L225.0464,251.2957 C223.2794,253.0707 223.2794,255.9477 225.0464,257.7217" id="Fill-145" fill="#1D1B1C"></path>
                <path d="M363.0166,96.7949 L376.3326,83.4199 C378.0996,81.6459 378.0996,78.7689 376.3326,76.9949 C374.5656,75.2199 371.7016,75.2199 369.9346,76.9949 L356.6186,90.3689 C354.8516,92.1429 354.8516,95.0209 356.6186,96.7949 C358.3846,98.5689 361.2496,98.5689 363.0166,96.7949" id="Fill-147" fill="#1D1B1C"></path>
                <path d="M363.3872,64.1938 C361.6202,62.4198 358.7562,62.4198 356.9892,64.1938 L330.7272,90.5698 C330.6072,90.6688 330.4902,90.7738 330.3782,90.8858 C328.6112,92.6608 328.6112,95.5378 330.3782,97.3128 L330.3942,97.3288 L330.3952,97.3298 L330.3962,97.3298 L340.5262,107.5048 L330.4092,117.6668 C328.6422,119.4408 328.6422,122.3178 330.4092,124.0918 C332.1762,125.8668 335.0402,125.8668 336.8072,124.0918 L350.1232,110.7178 C351.8902,108.9438 351.8902,106.0668 350.1232,104.2918 C350.1182,104.2868 350.1122,104.2818 350.1072,104.2768 C350.1022,104.2718 350.0972,104.2658 350.0922,104.2608 L339.9922,94.1168 L363.3872,70.6198 C365.1542,68.8458 365.1542,65.9678 363.3872,64.1938" id="Fill-149" fill="#1D1B1C"></path>
                <path d="M436.7319,37.1694 L436.7319,37.1694 C434.9649,38.9434 434.7949,41.8204 436.5619,43.5954 L452.9999,60.2764 L452.9999,47.4244 L442.9599,37.1694 C441.1929,35.3954 438.4989,35.3954 436.7319,37.1694" id="Fill-151" fill="#1D1B1C"></path>
                <path d="M436.7319,124.0459 L436.7319,124.0459 C438.4989,125.8199 441.1929,125.8199 442.9599,124.0459 L452.9999,113.7909 L452.9999,100.9389 L436.5619,117.6199 C434.7949,119.3949 434.9649,122.2719 436.7319,124.0459" id="Fill-153" fill="#1D1B1C"></path>
                <path d="M450.21,24 C448.443,26 448.273,28.468 450.04,30.243 L453,33.203 L453,22.305 C452,22.322 451.179,22 450.314,24 L450.21,24 Z" id="Fill-155" fill="#1D1B1C"></path>
                <path d="M430.625,425.582 C430.504,425.461 430.377,425.35 430.247,425.245 C430.143,425.114 430.032,424.987 429.912,424.866 C428.145,423.091 425.28,423.091 423.513,424.866 L400.084,448.397 L390.326,438.596 C388.559,436.821 385.694,436.821 383.927,438.596 C382.161,440.37 382.161,442.836 383.927,444.61 L393.686,454 L395.56,454 L406.483,454 L426.712,434.094 L436.957,444.588 C438.724,446.362 441.588,446.466 443.355,444.691 C445.122,442.916 445.122,440.091 443.355,438.316 L430.625,425.582 Z" id="Fill-157" fill="#1D1B1C"></path>
                <g id="Group-161" transform="translate(393.000000, 0.000000)">
                    <mask id="mask-10" fill="white">
                        <use xlink:href="#path-9"></use>
                    </mask>
                    <g id="Clip-160"></g>
                    <path d="M3.7769,3.5239 C3.8139,3.5639 3.8469,3.6059 3.8849,3.6439 C5.6519,5.4189 8.5169,5.2039 10.2829,3.4289 L13.4829,-0.0001 L2.5599,-0.0001 L0.6859,-0.0001 L3.6569,3.1999 C3.6959,3.2389 3.7369,3.4869 3.7769,3.5239" id="Fill-159" fill="#1D1B1C" mask="url(#mask-10)"></path>
                </g>
                <path d="M436.6978,418.0498 L436.6978,418.0498 C436.8188,418.1708 436.9458,418.2818 437.0758,418.3868 C437.1798,418.5178 437.2908,418.6458 437.4108,418.7668 L449.9708,431.5518 C450.8548,432.4398 451.9998,432.8828 452.9998,432.8828 L452.9998,421.9128 L445.9548,414.8368 L452.9998,407.7608 L452.9998,394.9078 L436.5278,411.6238 C434.7608,413.3988 434.9308,416.2758 436.6978,418.0498" id="Fill-162" fill="#1D1B1C"></path>
                <path d="M443.1001,97.0625 C444.8671,95.2885 444.8671,92.4115 443.1001,90.6365 C441.3331,88.8615 438.4691,88.8615 436.7021,90.6365 L410.0351,117.3855 C408.2681,119.1595 408.0001,122.0695 410.0001,123.8435 L410.0001,123.9995 L410.1731,123.9995 L453.0001,167.2705 L453.0001,154.4185 L419.4961,120.5985 L443.1001,97.0625 Z" id="Fill-164" fill="#1D1B1C"></path>
                <path d="M403.2832,130.627 C401.5162,128.853 398.6522,128.853 396.8852,130.627 L346.8542,180.876 L297.2312,131.037 C296.3942,130.195 295.3092,129.758 294.2122,129.714 C292.8702,129.542 291.4672,129.969 290.4372,131.004 L237.5742,184.097 C235.8062,185.872 235.8062,188.749 237.5742,190.523 C239.3402,192.298 242.2052,192.298 243.9712,190.523 L293.8182,140.46 L343.6552,190.515 L343.6552,190.515 C344.5382,191.402 345.6972,191.846 346.8542,191.846 C348.0122,191.846 349.1702,191.402 350.0542,190.515 L350.0542,190.515 L403.2832,137.053 C405.0502,135.279 405.0502,132.401 403.2832,130.627" id="Fill-166" fill="#1D1B1C"></path>
                <path d="M416.7241,97.3809 L443.3571,70.6319 C445.1231,68.8579 445.1231,65.9809 443.3571,64.2059 C441.5901,62.4319 438.7251,62.4319 436.9581,64.2059 L410.3261,90.9549 C408.5591,92.7289 408.5591,95.6059 410.3261,97.3809 C412.0931,99.1549 414.9571,99.1549 416.7241,97.3809" id="Fill-168" fill="#1D1B1C"></path>
                <path d="M436.7397,204.2837 C438.5067,206.0577 441.2007,206.0577 442.9677,204.2837 L452.9997,194.0367 L452.9997,181.1847 L436.5697,197.8577 C434.8027,199.6327 434.9727,202.5097 436.7397,204.2837" id="Fill-170" fill="#1D1B1C"></path>
                <path d="M449.8237,137.1602 L452.9997,140.5212 L452.9997,129.4102 C451.9997,129.3702 450.6577,129.8072 449.7367,130.7332 C447.9697,132.5082 448.0567,135.3852 449.8237,137.1602" id="Fill-172" fill="#1D1B1C"></path>
                <path d="M449.8481,217.4312 L453.0001,220.7682 L453.0001,209.6802 C452.0001,209.6472 450.6781,210.0862 449.7631,211.0052 C447.9961,212.7802 448.0811,215.6572 449.8481,217.4312" id="Fill-174" fill="#1D1B1C"></path>
                <path d="M416.9712,144.3882 C415.2042,142.6142 412.3402,142.6142 410.5732,144.3882 L397.4572,157.5612 C397.4542,157.5632 397.4532,157.5662 397.4502,157.5682 C397.4492,157.5702 397.4472,157.5722 397.4442,157.5742 C395.6782,159.3482 395.6782,162.2252 397.4442,164.0002 L410.5602,177.1732 C412.3272,178.9482 415.1922,178.9482 416.9592,177.1732 C417.0412,177.0912 417.1162,177.0032 417.1902,176.9162 L426.8512,167.2132 L436.7682,177.1732 C438.5352,178.9482 441.3992,178.9482 443.1662,177.1732 C444.9332,175.3992 444.9332,172.5212 443.1662,170.7472 L430.0502,157.5742 C428.2842,155.7992 425.4192,155.7992 423.6522,157.5742 C423.6352,157.5912 423.6212,157.6102 423.6042,157.6272 C423.5872,157.6442 423.5682,157.6582 423.5512,157.6752 L413.7472,167.5222 L407.0422,160.7872 L416.9712,150.8142 C418.7382,149.0402 418.7382,146.1622 416.9712,144.3882" id="Fill-176" fill="#1D1B1C"></path>
                <path d="M390.1797,171.2969 L390.1797,171.2969 C388.4127,169.5219 385.5477,169.5219 383.7817,171.2969 L370.6647,184.4699 C370.6517,184.4839 370.6407,184.4979 370.6277,184.5109 C370.6147,184.5249 370.5997,184.5359 370.5867,184.5489 C368.8197,186.3229 368.8197,189.1999 370.5867,190.9749 L380.5147,200.9469 L370.6077,210.8979 C369.9307,211.5769 369.5157,212.4179 369.3577,213.2969 C369.0607,214.7429 369.4687,216.3069 370.5867,217.4299 L383.7027,230.6039 C385.4697,232.3779 388.3337,232.3779 390.1007,230.6039 C391.8677,228.8289 391.8677,225.9519 390.1007,224.1769 L380.1407,214.1739 L390.1217,204.1509 C391.8877,202.3759 391.8877,199.4989 390.1217,197.7249 C390.0607,197.6629 389.9947,197.6089 389.9317,197.5519 L380.1837,187.7619 L390.1797,177.7229 C391.9467,175.9479 391.9467,173.0709 390.1797,171.2969" id="Fill-178" fill="#1D1B1C"></path>
                <path d="M363.748,197.8433 C361.981,196.0693 359.117,196.0693 357.35,197.8433 L347.433,207.8033 L311.091,171.3023 C310.708,170.9183 310.272,170.6223 309.809,170.4053 C309.6,170.3063 309.384,170.2243 309.165,170.1603 C307.629,169.7073 305.904,170.0863 304.692,171.3023 L277.788,198.3243 C276.021,200.0983 276.021,202.9753 277.788,204.7503 L287.749,214.7553 L277.816,224.7313 C276.05,226.5053 276.05,229.3833 277.816,231.1573 C279.583,232.9313 282.448,232.9313 284.215,231.1573 L297.331,217.9843 C298.767,216.5413 299.036,214.3693 298.136,212.6543 C297.926,212.2383 297.649,211.8453 297.303,211.4973 L287.385,201.5373 L307.892,180.9423 L344.234,217.4423 C344.676,217.8863 345.186,218.2183 345.73,218.4413 C346.003,218.5513 346.284,218.6353 346.569,218.6903 C346.854,218.7453 347.144,218.7733 347.433,218.7733 C347.867,218.7733 348.301,218.7113 348.721,218.5863 C349.421,218.3783 350.08,217.9973 350.632,217.4423 L350.632,217.4423 L363.748,204.2693 C365.515,202.4943 365.515,199.6173 363.748,197.8433" id="Fill-180" fill="#1D1B1C"></path>
                <path d="M337.1719,224.5361 C335.4039,222.7611 332.5429,222.7611 330.7749,224.5361 L307.5599,247.8521 L297.6419,237.8911 C295.8749,236.1171 293.0099,236.1171 291.2429,237.8911 C289.4769,239.6661 289.4769,242.5431 291.2429,244.3171 L304.3589,257.4911 C304.5799,257.7131 304.8179,257.9071 305.0689,258.0731 C305.1509,258.1281 305.2359,258.1741 305.3199,258.2231 C305.3649,258.2481 305.4089,258.2781 305.4549,258.3021 C305.5539,258.3541 305.6559,258.3981 305.7579,258.4431 C305.7909,258.4581 305.8229,258.4751 305.8559,258.4891 C305.9279,258.5181 306.0019,258.5401 306.0739,258.5651 C306.1399,258.5891 306.2049,258.6151 306.2709,258.6351 C306.2949,258.6411 306.3189,258.6451 306.3429,258.6521 C307.8639,259.0771 309.5619,258.6911 310.7569,257.4911 C310.7599,257.4881 310.7619,257.4851 310.7649,257.4831 L333.9729,234.1731 L343.8909,244.1341 C344.7739,245.0201 345.9319,245.4671 347.0889,245.4651 C348.2479,245.4671 349.4049,245.0201 350.2879,244.1341 C352.0549,242.3591 352.0549,239.4841 350.2879,237.7101 L337.1719,224.5361 Z" id="Fill-182" fill="#1D1B1C"></path>
                <path d="M336.9624,250.7715 C335.1944,248.9965 332.3334,248.9965 330.5654,250.7715 C328.7984,252.5455 328.5994,255.4205 330.3664,257.1955 L343.2834,270.3685 L343.2834,270.3695 C344.2834,271.2555 345.5234,271.5175 346.6814,271.515511 C347.8384,271.5175 349.0964,271.0005 349.9794,270.0005 L350.0284,270.0005 L350.0544,270.0005 L363.1834,257.0105 C364.9494,255.2365 364.9564,252.4515 363.1894,250.6765 C361.4224,248.9025 358.5604,248.9485 356.7944,250.7225 L346.8774,260.7085 L336.9624,250.7715 Z" id="Fill-184" fill="#1D1B1C"></path>
                <path d="M383.8389,358.0537 C382.0719,359.8277 382.0719,362.7027 383.8389,364.4777 L396.9549,377.6517 C397.8379,378.5377 398.9959,378.9847 400.1539,378.982707 C401.3119,378.9847 402.4689,378.5377 403.3519,377.6517 C405.1189,375.8757 405.1189,373.0017 403.3519,371.2267 L390.2359,358.0537 C388.4679,356.2787 385.6069,356.2787 383.8389,358.0537" id="Fill-186" fill="#1D1B1C"></path>
                <path d="M283.897,330.4141 L270.781,317.2411 C269.014,315.4661 266.151,315.4661 264.384,317.2411 C262.617,319.0161 262.617,321.8911 264.384,323.6651 L277.501,336.8391 C278.383,337.7261 279.541,338.1721 280.699,338.170107 C281.856,338.1721 283.015,337.7261 283.897,336.8391 C285.665,335.0631 285.665,332.1891 283.897,330.4141" id="Fill-188" fill="#1D1B1C"></path>
                <path d="M330.2329,417.916 C331.1149,418.803 332.2739,419.249 333.4309,419.247007 C334.5889,419.249 335.7469,418.803 336.6289,417.916 C338.3969,416.141 338.3969,413.267 336.6289,411.491 L323.5129,398.318 C321.7459,396.543 318.8839,396.543 317.1169,398.318 C315.3489,400.093 315.3489,402.968 317.1169,404.742 L330.2329,417.916 Z" id="Fill-190" fill="#1D1B1C"></path>
                <path d="M267.4722,351.454107 C268.6302,351.4561 269.7882,351.0101 270.6702,350.1231 C272.4382,348.3481 272.4382,345.4741 270.6702,343.6981 L257.5542,330.5251 C255.7872,328.7501 252.9252,328.7501 251.1582,330.5251 C249.3902,332.3001 249.3902,335.1751 251.1582,336.9491 L264.2742,350.1231 C265.1562,351.0101 266.3142,351.4561 267.4722,351.454107" id="Fill-192" fill="#1D1B1C"></path>
                <path d="M244.3042,343.833 C242.5372,342.058 239.6752,342.058 237.9082,343.833 C236.1402,345.607 236.1402,348.482 237.9082,350.258 L251.0232,363.431 C251.9062,364.317 253.0642,364.764 254.2222,364.762007 C255.3802,364.764 256.5382,364.317 257.4202,363.431 C259.1882,361.656 259.1882,358.781 257.4202,357.006 L244.3042,343.833 Z" id="Fill-194" fill="#1D1B1C"></path>
                <path d="M297.3906,323.8213 L334.0866,286.9663 L344.1666,297.0903 C344.5296,297.4543 344.9396,297.7393 345.3766,297.9553 C347.0906,298.8843 349.2756,298.6253 350.7246,297.1703 L360.6426,287.2093 L370.5586,297.1683 C371.4416,298.0543 372.5996,298.5013 373.7576,298.4993 C374.9156,298.5013 376.0736,298.0543 376.9556,297.1683 C378.7236,295.3933 378.8036,292.5183 377.0356,290.7433 L363.9996,277.5713 L363.9996,277.7753 C361.9996,276.0003 359.4326,276.0003 357.6646,278.0003 L357.5536,278.0003 L357.4976,278.0003 L347.5126,287.7873 L337.4606,277.5983 C336.4426,276.5753 335.0526,276.0923 333.7256,276.2493 C332.6276,276.2923 331.5386,276.7033 330.7006,277.5443 L290.9946,317.4093 C289.2276,319.1833 289.2266,322.0533 290.9936,323.8283 C292.7606,325.6023 295.6236,325.5953 297.3906,323.8213" id="Fill-196" fill="#1D1B1C"></path>
                <path d="M297.5356,297.1182 C297.5636,297.0902 297.5876,297.0582 297.6146,297.0302 C297.7226,296.9392 297.8296,296.8452 297.9316,296.7422 L323.8856,270.6762 C325.6516,268.9012 325.6516,266.0242 323.8856,264.2502 C322.1186,262.4752 319.2536,262.4752 317.4866,264.2502 L294.3476,287.4902 L284.4196,277.5182 C282.6526,275.7442 279.7876,275.7442 278.0216,277.5182 C276.2546,279.2932 276.2546,282.1702 278.0216,283.9442 L291.1376,297.1182 C292.9046,298.8922 295.7686,298.8922 297.5356,297.1182" id="Fill-198" fill="#1D1B1C"></path>
                <path d="M284.1694,304.1162 L271.0534,290.9432 C270.9934,290.8832 270.9294,290.8302 270.8664,290.7732 C270.8104,290.7112 270.7574,290.6462 270.6974,290.5862 C268.9314,288.8112 266.0664,288.8112 264.2994,290.5862 L197.9634,357.2112 C196.1974,358.9852 196.1974,361.8622 197.9634,363.6372 C199.7314,365.4112 202.5954,365.4112 204.3624,363.6372 L267.4984,300.2252 L277.7714,310.5422 C279.5384,312.3172 282.4024,312.3172 284.1694,310.5422 C285.9364,308.7672 285.9364,305.8902 284.1694,304.1162" id="Fill-200" fill="#1D1B1C"></path>
                <path d="M303.5146,230.0273 C305.2816,231.8013 308.1456,231.8013 309.9126,230.0273 L323.0286,216.8533 C323.0366,216.8453 323.0436,216.8363 323.0516,216.8283 C323.0596,216.8203 323.0686,216.8133 323.0766,216.8053 C324.8446,215.0303 324.8446,212.1533 323.0766,210.3793 L309.9606,197.2053 C308.1946,195.4313 305.3296,195.4313 303.5626,197.2053 C301.7966,198.9803 301.7966,201.8573 303.5626,203.6313 L313.4796,213.5913 L303.5146,223.6013 C301.7476,225.3753 301.7476,228.2523 303.5146,230.0273" id="Fill-202" fill="#1D1B1C"></path>
                <path d="M410.2012,277.7441 L373.9502,314.1531 L364.0092,304.1691 L363.9982,304.1591 C362.2312,302.3841 359.3692,302.3841 357.6022,304.1591 C357.5412,304.2201 357.4882,304.2851 357.4312,304.3481 L317.7412,344.2121 C315.9742,345.9861 315.9742,348.8631 317.7412,350.6381 C319.5082,352.4121 322.3722,352.4121 324.1392,350.6381 L360.8112,313.8071 L370.7182,323.7571 C371.6012,324.6431 372.7592,325.0901 373.9162,325.0881 C374.0702,325.0881 374.2222,325.0791 374.3752,325.0631 C375.4012,324.9761 376.4042,324.5401 377.1902,323.7521 L416.5992,284.1701 C418.3662,282.3951 418.3662,279.5181 416.5992,277.7441 C414.8322,275.9701 411.9682,275.9701 410.2012,277.7441" id="Fill-204" fill="#1D1B1C"></path>
                <path d="M310.814,337.2549 L337.053,310.9009 C338.82,309.1259 338.82,306.2489 337.053,304.4749 C335.287,302.6999 332.422,302.6999 330.655,304.4749 L304.416,330.8279 C302.649,332.6029 302.649,335.4809 304.416,337.2549 C306.183,339.0289 309.047,339.0289 310.814,337.2549" id="Fill-206" fill="#1D1B1C"></path>
                <path d="M310.814,391.3066 L363.711,338.1786 C365.478,336.4036 365.478,333.5266 363.711,331.7516 C361.944,329.9776 359.08,329.9776 357.313,331.7516 L304.416,384.8796 C302.649,386.6546 302.649,389.5316 304.416,391.3066 C306.183,393.0806 309.047,393.0806 310.814,391.3066" id="Fill-208" fill="#1D1B1C"></path>
                <path d="M416.6997,250.8965 C414.9327,249.1215 412.0677,249.1195 410.3007,250.8945 L386.8577,274.4395 L376.9077,264.4455 C375.1397,262.6695 372.2787,262.6695 370.5107,264.4455 C368.7437,266.2205 368.7437,269.0945 370.5107,270.8705 L383.2807,283.6955 C383.3907,283.8355 383.5077,283.9735 383.6367,284.1035 C385.4027,285.8755 388.2687,285.8755 390.0357,284.1005 L413.5017,260.5335 L423.4197,270.4945 C424.3017,271.3805 425.4597,271.8235 426.6177,271.8255 C427.7737,271.8255 428.9307,271.3825 429.8157,270.4945 C431.5837,268.7195 431.5807,265.8425 429.8157,264.0705 L416.6997,250.8965 Z" id="Fill-210" fill="#1D1B1C"></path>
                <path d="M211.5132,291.3037 L198.3972,304.4767 C196.6302,306.2507 196.6302,309.1277 198.3972,310.9027 C198.4062,310.9107 198.4162,310.9187 198.4252,310.9277 C198.4332,310.9367 198.4412,310.9467 198.4502,310.9547 L211.5662,324.1287 C213.3322,325.9037 216.1972,325.9037 217.9642,324.1287 C219.7312,322.3547 219.7312,319.4777 217.9642,317.7017 L207.9942,307.6897 L217.9112,297.7297 C219.6782,295.9547 219.6782,293.0777 217.9112,291.3037 C216.1442,289.5287 213.2802,289.5287 211.5132,291.3037" id="Fill-212" fill="#1D1B1C"></path>
                <path d="M190.5044,371.1289 L190.5044,371.1289 C188.7374,369.3549 185.8734,369.3549 184.1064,371.1289 L171.0974,384.1939 L170.9904,384.3029 C169.2234,386.0769 169.2234,388.9539 170.9904,390.7289 C171.2704,391.0109 171.5814,391.2419 171.9084,391.4349 L197.8554,417.4949 C199.6224,419.2699 202.4864,419.2699 204.2534,417.4949 C204.2874,417.4599 204.3174,417.4229 204.3504,417.3879 C204.3844,417.3549 204.4214,417.3249 204.4564,417.2909 L231.6284,390.0009 C233.3944,388.2269 233.3944,385.3499 231.6284,383.5749 C229.8604,381.8009 226.9964,381.8009 225.2294,383.5749 L201.0544,407.8559 L180.6944,387.4069 L190.5044,377.5559 C192.2714,375.7799 192.2714,372.9029 190.5044,371.1289" id="Fill-214" fill="#1D1B1C"></path>
                <path d="M224.6616,310.8662 C226.4286,312.6402 229.2926,312.6402 231.0596,310.8662 L270.9796,270.7722 C272.7456,268.9982 272.7456,266.1212 270.9796,264.3462 C269.2126,262.5722 266.3486,262.5722 264.5806,264.3462 L224.6616,304.4402 C222.8946,306.2152 222.8946,309.0922 224.6616,310.8662" id="Fill-216" fill="#1D1B1C"></path>
                <path d="M225.0039,284.1992 L225.0039,284.1992 C226.7709,285.9742 229.6349,285.9742 231.4019,284.1992 L267.9269,247.5152 L290.8629,270.5512 C292.6289,272.3252 295.4939,272.3252 297.2609,270.5512 C299.0279,268.7762 299.0279,265.8992 297.2609,264.1252 L271.2009,237.9512 C271.1859,237.9352 271.1689,237.9232 271.1529,237.9082 C271.1439,237.8982 271.1349,237.8862 271.1259,237.8772 C269.3589,236.1022 266.4939,236.1022 264.7269,237.8772 L225.0039,277.7732 C223.2369,279.5482 223.2369,282.4252 225.0039,284.1992" id="Fill-218" fill="#1D1B1C"></path>
                <path d="M416.5049,224.2227 C414.7379,222.4487 411.8739,222.4487 410.1069,224.2227 L386.9139,247.5177 L363.4069,223.9087 C361.6409,222.1337 358.7759,222.1337 357.0089,223.9087 C355.2419,225.6827 355.2419,228.5607 357.0089,230.3347 L383.5409,256.9827 C383.7759,257.2177 384.0309,257.4197 384.2989,257.5927 C386.0679,258.8777 388.5499,258.7257 390.1429,257.1257 L416.5049,230.6487 C418.2719,228.8737 418.2719,225.9967 416.5049,224.2227" id="Fill-220" fill="#1D1B1C"></path>
                <path d="M436.7583,277.4668 L397.0503,317.3488 C396.1513,318.2508 395.7123,319.4398 395.7283,320.6228 C395.6843,321.8398 396.1203,323.0708 397.0453,323.9998 L423.8093,350.8808 C425.5763,352.6548 428.4413,352.6548 430.2073,350.8808 C431.9743,349.1068 431.9743,346.2288 430.2073,344.4538 L406.5323,320.6768 L443.1563,283.8938 C444.9233,282.1188 444.9233,279.2418 443.1563,277.4668 C441.3893,275.6928 438.5253,275.6928 436.7583,277.4668" id="Fill-222" fill="#1D1B1C"></path>
                <path d="M436.8682,391.1299 C438.6352,392.9049 441.3292,392.9049 443.0962,391.1299 L453.0002,381.0119 L453.0002,368.1599 L436.6982,384.7039 C434.9312,386.4789 435.1012,389.3559 436.8682,391.1299" id="Fill-224" fill="#1D1B1C"></path>
                <path d="M443.1279,358.2275 L443.1279,358.2275 C441.3609,356.4535 438.4959,356.4535 436.7299,358.2275 L410.1309,384.9415 C408.3639,386.7155 408.3639,389.5925 410.1309,391.3675 C410.3589,391.5965 410.6069,391.7945 410.8659,391.9645 L420.2529,401.3925 L396.8979,424.8485 C395.1309,426.6235 395.1309,429.4995 396.8979,431.2745 C398.6649,433.0485 401.5289,433.0485 403.2959,431.2745 L429.8949,404.5605 C431.6609,402.7865 431.6609,399.9095 429.8949,398.1345 C429.7199,397.9595 429.5329,397.8065 429.3399,397.6665 L419.7989,388.0835 L443.1279,364.6535 C444.8949,362.8785 444.8949,360.0015 443.1279,358.2275" id="Fill-226" fill="#1D1B1C"></path>
                <path d="M350.2002,404.6211 L373.5792,381.1401 L393.7482,401.3961 L370.3682,424.8771 C368.6012,426.6521 368.6012,429.5291 370.3682,431.3041 C372.1352,433.0781 375.0002,433.0781 376.7662,431.3041 L403.3452,404.6091 L403.3652,404.5891 C405.1322,402.8141 405.1322,399.9371 403.3652,398.1631 C403.2472,398.0441 403.1232,397.9341 402.9952,397.8321 L377.1282,371.8511 C377.0252,371.7241 376.9162,371.6001 376.7982,371.4801 C375.0322,369.7061 372.1672,369.7061 370.4002,371.4801 L343.8022,398.1951 C342.0352,399.9701 342.0352,402.8471 343.8022,404.6211 C345.5692,406.3951 348.4332,406.3951 350.2002,404.6211" id="Fill-228" fill="#1D1B1C"></path>
                <path d="M450.0181,318 C448.2511,319 448.0811,322.651 449.8481,324.426 L453.0001,327.762 L453.0001,316.675 C452.0001,316.642 451.0371,317 450.1221,318 L450.0181,318 Z" id="Fill-230" fill="#1D1B1C"></path>
                <path d="M423.5176,318.1318 C422.6346,319.0198 422.1926,320.1818 422.1926,321.3448 C422.1926,321.4898 422.1996,321.6358 422.2136,321.7798 C422.2266,321.9248 422.2476,322.0698 422.2756,322.2128 C422.3586,322.6428 422.5026,323.0628 422.7096,323.4578 C422.9166,323.8538 423.1866,324.2258 423.5176,324.5578 L449.8136,351.1398 C450.7376,352.0678 451.9996,352.5048 452.9996,352.4628 L452.9996,341.6588 L432.7746,321.3448 L452.9996,301.0308 L452.9996,290.2628 C451.9996,290.2108 450.7116,290.6488 449.7796,291.5838 L423.5176,318.1318 Z" id="Fill-232" fill="#1D1B1C"></path>
                <path d="M443.3003,230.6045 C445.0673,228.8305 445.0673,225.9535 443.3003,224.1785 C441.5333,222.4035 438.6693,222.4035 436.9023,224.1785 L423.3863,237.7535 L423.3853,237.7535 C422.8333,238.3085 422.4543,238.9705 422.2473,239.6725 C422.1643,239.9545 422.1093,240.2415 422.0813,240.5315 C422.0673,240.6755 422.0603,240.8215 422.061206,240.9665 C422.061206,241.1125 422.0673,241.2575 422.0813,241.4025 C422.1783,242.4165 422.4423,243.4035 423.2163,244.1795 L453.0003,274.2645 L453.0003,261.4135 L432.8133,240.9665 L443.3003,230.6045 Z" id="Fill-234" fill="#1D1B1C"></path>
                <path d="M450.2183,244 L450.3223,244 L453.0003,247.114 L453.0003,236.226 L453.0003,234.417 L450.0483,237.563 C448.2813,239.338 448.4513,241 450.2183,244" id="Fill-236" fill="#1D1B1C"></path>
                <path d="M409.8521,364.0684 C411.6191,365.8424 414.4831,365.8424 416.2501,364.0684 C418.0171,362.2944 418.0171,359.4164 416.2501,357.6424 L390.3241,331.6034 C390.3141,331.5924 390.3061,331.5824 390.2961,331.5714 C388.5291,329.7974 385.6651,329.7974 383.8971,331.5714 L330.8211,384.8804 C329.0541,386.6544 329.0541,389.5314 330.8211,391.3064 C332.5871,393.0814 335.4521,393.0814 337.2191,391.3064 L387.0951,341.2124 L409.8521,364.0684 Z" id="Fill-238" fill="#1D1B1C"></path>
                <path d="M37.563,437.7246 L20.949,453.9996 L33.745,453.9996 L43.961,444.1506 C45.728,442.3756 45.728,439.4986 43.961,437.7246 C42.194,435.9506 39.33,435.9506 37.563,437.7246" id="Fill-240" fill="#1D1B1C"></path>
                <path d="M50.8403,431.2266 L50.8403,431.2266 C52.6073,433.0006 55.4713,433.0006 57.2383,431.2266 L83.7983,404.5506 C85.5653,402.7766 85.5653,399.8996 83.7983,398.1246 L83.7983,398.1246 L70.4823,384.7506 C68.7153,382.9766 65.8503,382.9766 64.0843,384.7506 C62.3173,386.5256 62.3173,389.4026 64.0843,391.1766 L74.2013,401.3376 L50.8403,424.8006 C49.0733,426.5756 49.0733,429.4526 50.8403,431.2266" id="Fill-242" fill="#1D1B1C"></path>
                <path d="M137.4077,424.5869 C137.3587,424.5379 137.3047,424.4949 137.2547,424.4479 C137.2077,424.3969 137.1647,424.3439 137.1157,424.2939 L124.3857,411.5089 C124.3257,411.4479 124.2617,411.3949 124.1987,411.3389 C124.1417,411.2749 124.0887,411.2109 124.0287,411.1499 C122.2617,409.3759 119.3977,409.3759 117.6307,411.1499 L103.9747,424.8649 C102.2087,426.6399 102.2087,429.5169 103.9747,431.2909 C105.7417,433.0659 108.6067,433.0659 110.3727,431.2909 L120.8297,420.7889 L127.8107,427.8009 L117.3537,438.3029 C115.5867,440.0769 115.5867,442.9539 117.3537,444.7289 C119.1207,446.5029 121.9857,446.5029 123.7517,444.7289 L137.4077,431.0139 C139.1747,429.2389 139.1747,426.3619 137.4077,424.5869" id="Fill-244" fill="#1D1B1C"></path>
                <g id="Group-248" transform="translate(116.000000, 329.000000)">
                    <mask id="mask-12" fill="white">
                        <use xlink:href="#path-11"></use>
                    </mask>
                    <g id="Clip-247"></g>
                    <path d="M47,102.3281 C49,100.5541 49.193,97.6771 47.426,95.9021 L11.143,59.2471 L61.675,8.6021 C63.442,6.8281 63.495,3.9501 61.728,2.1761 C59.961,0.4011 57.124,0.4011 55.356,2.1761 L2.296,55.4811 C2.236,55.5421 2.189,55.6061 2.134,55.6691 C1.997,55.7781 1.867,55.8921 1.741,56.0191 C-0.025,57.7941 -0.024,60.6711 1.743,62.4451 L38.254,99.1151 L14.732,122.3281 C13.882,123.1821 13.446,124.0001 13.414,125.0001 L24.459,125.0001 L47,102.1641 L47,102.3281 Z" id="Fill-246" fill="#1D1B1C" mask="url(#mask-12)"></path>
                </g>
                <g id="Group-251" transform="translate(235.000000, 449.000000)">
                    <mask id="mask-14" fill="white">
                        <use xlink:href="#path-13"></use>
                    </mask>
                    <g id="Clip-250"></g>
                    <path d="M2.1157,2.1982 C1.2327,3.0862 0.7907,4.0002 0.7907,5.0002 L11.7127,5.0002 L8.5137,1.9922 C6.7467,0.2182 3.8827,0.4242 2.1157,2.1982" id="Fill-249" fill="#1D1B1C" mask="url(#mask-14)"></path>
                </g>
                <path d="M377.6914,398.8271 C375.9514,397.0261 373.0874,396.9821 371.2944,398.7301 L333.6454,435.4171 L296.6404,398.2511 C294.8744,396.4761 292.0094,396.4761 290.2424,398.2511 C288.4754,400.0251 288.4754,402.9021 290.2424,404.6781 L330.3104,444.9201 C330.3214,444.9311 330.3334,444.9391 330.3444,444.9501 C330.3464,444.9531 330.3484,444.9561 330.3514,444.9591 C332.0904,446.7601 334.9554,446.8031 336.7484,445.0561 L377.5944,405.2531 C379.3884,403.5051 379.4314,400.6291 377.6914,398.8271" id="Fill-252" fill="#1D1B1C"></path>
                <path d="M291.1387,377.0322 C292.9057,378.8072 295.7707,378.8072 297.5367,377.0322 L310.9807,363.5302 C312.7477,361.7562 312.7477,358.8792 310.9807,357.1042 C310.9747,357.0982 310.9687,357.0942 310.9627,357.0882 C310.9567,357.0822 310.9527,357.0762 310.9467,357.0702 L297.8307,343.8962 C296.0627,342.1222 293.2017,342.1222 291.4337,343.8962 C289.6667,345.6722 289.6667,348.5462 291.4337,350.3212 L301.3847,360.3162 L291.1387,370.6062 C289.3717,372.3812 289.3717,375.2582 291.1387,377.0322" id="Fill-254" fill="#1D1B1C"></path>
                <path d="M283.8447,357.4844 L283.8447,357.4844 C282.0777,355.7104 279.2137,355.7104 277.4467,357.4844 L264.4017,370.5864 C264.2407,370.7094 264.0847,370.8384 263.9387,370.9864 C262.1717,372.7604 262.1717,375.6374 263.9387,377.4124 L274.1507,387.6694 L264.6467,397.2144 C264.3957,397.3804 264.1587,397.5744 263.9387,397.7964 C262.1717,399.5704 262.1717,402.4474 263.9387,404.2214 L277.3817,417.7234 C279.1487,419.4984 282.0127,419.4984 283.7807,417.7234 C285.5467,415.9494 285.5467,413.0724 283.7807,411.2974 L273.6007,401.0744 L283.3167,391.3154 C283.4767,391.1924 283.6337,391.0614 283.7807,390.9154 C284.1367,390.5564 284.4177,390.1514 284.6307,389.7214 C285.5517,388.0014 285.2907,385.8104 283.8447,384.3584 C283.5787,384.0914 283.2857,383.8694 282.9777,383.6824 L273.5677,374.2324 L283.8447,363.9104 C285.6117,362.1354 285.6117,359.2584 283.8447,357.4844" id="Fill-256" fill="#1D1B1C"></path>
                <path d="M257.0874,384.4883 L230.5884,357.8753 C228.8214,356.1003 225.9574,356.1003 224.1904,357.8753 C224.0294,358.0363 223.8874,358.2113 223.7554,358.3893 L197.6224,384.6353 C195.8564,386.4103 195.8564,389.2883 197.6224,391.0623 C199.3894,392.8373 202.2544,392.8373 204.0214,391.0623 L227.4284,367.5523 L247.4894,387.7023 L237.2454,397.9913 C236.0304,399.2113 235.6504,400.9523 236.1064,402.4983 C236.3134,403.2003 236.6934,403.8623 237.2454,404.4173 L237.2454,404.4173 L250.6894,417.9193 C252.4554,419.6933 255.3204,419.6933 257.0874,417.9193 C258.8544,416.1443 258.8544,413.2673 257.0874,411.4933 L246.8424,401.2043 L257.0874,390.9153 C258.8544,389.1403 258.8544,386.2633 257.0874,384.4883" id="Fill-258" fill="#1D1B1C"></path>
                <path d="M230.3936,411.4277 C228.6256,409.6537 225.7646,409.6537 223.9966,411.4277 L201.2266,434.2967 L154.3036,387.1697 L204.0986,337.1567 C204.1106,337.1457 204.1206,337.1317 204.1326,337.1197 C204.1446,337.1087 204.1576,337.0977 204.1696,337.0857 C205.9366,335.3117 205.9366,332.4347 204.1696,330.6597 L181.8946,308.2867 L218.6406,271.3817 C220.4066,269.6077 220.4066,266.7307 218.6406,264.9557 C216.8726,263.1817 214.0086,263.1817 212.2416,264.9557 L172.1646,305.2077 C170.3976,306.9837 170.3976,309.8607 172.1646,311.6347 C172.4806,311.9527 172.8336,312.2107 173.2086,312.4147 L194.5726,333.8727 L144.7056,383.9567 C143.9326,384.7347 143.4976,385.7217 143.4006,386.7357 C143.3306,387.4707 143.4396,388.2177 143.7256,388.9097 C143.9456,389.4467 144.2716,389.9487 144.7056,390.3837 C144.7066,390.3847 144.7076,390.3857 144.7086,390.3867 L198.0256,443.9367 C199.7936,445.7107 202.6576,445.7137 204.4246,443.9387 L227.1976,421.0677 L250.6896,444.6617 C252.4566,446.4367 255.3216,446.4397 257.0886,444.6637 C258.8556,442.8887 258.8536,440.0117 257.0866,438.2377 L230.3936,411.4277 Z" id="Fill-260" fill="#1D1B1C"></path>
                <g id="Group-264" transform="translate(302.000000, 436.000000)">
                    <mask id="mask-16" fill="white">
                        <use xlink:href="#path-15"></use>
                    </mask>
                    <g id="Clip-263"></g>
                    <path d="M1.686,2.2373 L1.686,2.2373 C-0.081,4.0113 -0.081,6.4773 1.686,8.2523 L11.801,18.0003 L24.598,18.0003 L8.084,1.8263 C6.317,0.0513 3.453,0.4633 1.686,2.2373" id="Fill-262" fill="#1D1B1C" mask="url(#mask-16)"></path>
                </g>
                <g id="Group-267" transform="translate(420.000000, 449.000000)">
                    <mask id="mask-18" fill="white">
                        <use xlink:href="#path-17"></use>
                    </mask>
                    <g id="Clip-266"></g>
                    <path d="M3.772,2.1982 L0.573,5.0002 L11.495,5.0002 C11.495,4.0002 11.054,2.8802 10.17,1.9922 C8.403,0.2182 5.539,0.4242 3.772,2.1982" id="Fill-265" fill="#1D1B1C" mask="url(#mask-18)"></path>
                </g>
                <g id="Group-270" transform="translate(340.000000, 436.000000)">
                    <mask id="mask-20" fill="white">
                        <use xlink:href="#path-19"></use>
                    </mask>
                    <g id="Clip-269"></g>
                    <path d="M17.2017,1.8262 L0.6887,18.0002 L13.4847,18.0002 L20.4007,11.0542 L27.3167,18.0002 L40.1127,18.0002 L23.5997,1.6202 C21.8327,-0.1538 18.9687,0.0522 17.2017,1.8262" id="Fill-268" fill="#1D1B1C" mask="url(#mask-20)"></path>
                </g>
                <g id="Group-273" transform="translate(262.000000, 423.000000)">
                    <mask id="mask-22" fill="white">
                        <use xlink:href="#path-21"></use>
                    </mask>
                    <g id="Clip-272"></g>
                    <path d="M34.8999,1.7354 C33.1329,-0.0386 30.2689,-0.0386 28.5019,1.7354 L18.3869,11.8944 L8.2719,1.7354 C6.5049,-0.0386 3.6399,-0.0386 1.8739,1.7354 C0.1069,3.5094 0.1069,6.3864 1.8739,8.1614 L11.9879,18.3204 L1.8739,28.0684 C0.9569,28.9884 0.5209,30.0004 0.5549,31.0004 L11.3409,31.0004 L18.3869,23.9234 L25.4319,31.0004 L36.2189,31.0004 C36.2529,30.0004 35.8169,28.9884 34.8999,28.0684 L24.7849,18.1144 L34.8999,8.0584 C36.6669,6.2844 36.6669,3.5094 34.8999,1.7354" id="Fill-271" fill="#1D1B1C" mask="url(#mask-22)"></path>
                </g>
                <path d="M429.8633,183.9385 L429.8633,183.9385 C428.0963,182.1635 425.2323,182.1635 423.4653,183.9385 L413.3503,194.0975 L403.2353,183.9385 C401.4683,182.1635 398.6033,182.1635 396.8373,183.9385 C395.0703,185.7125 395.0703,188.5895 396.8373,190.3645 L406.9513,200.5235 L396.8373,210.6825 C395.0703,212.4575 395.0703,215.3345 396.8373,217.1085 C398.6033,218.8835 401.4683,218.8835 403.2353,217.1085 L413.3503,206.9495 L423.4653,217.1085 C425.2323,218.8835 428.0963,218.8835 429.8633,217.1085 C431.6303,215.3345 431.6303,212.4575 429.8633,210.6825 L419.7483,200.5235 L429.8633,190.3645 C431.6303,188.5895 431.6303,185.7125 429.8633,183.9385" id="Fill-274" fill="#1D1B1C"></path>
                <g id="Group-278" transform="translate(207.000000, 436.000000)">
                    <mask id="mask-24" fill="white">
                        <use xlink:href="#path-23"></use>
                    </mask>
                    <g id="Clip-277"></g>
                    <path d="M17.061,1.8262 L0.548,18.0002 L13.344,18.0002 L23.459,8.2522 C25.226,6.4772 25.226,3.6002 23.459,1.8262 C21.692,0.0522 18.828,0.0522 17.061,1.8262" id="Fill-276" fill="#1D1B1C" mask="url(#mask-24)"></path>
                </g>
                <path d="M175.9414,437.333 C175.7284,437.221 175.5074,437.126 175.2824,437.05 C173.7054,436.518 171.8944,436.471 170.6384,437.732 L154.0324,454 L166.8284,454 L173.8374,446.961 L180.8464,454 L193.6424,454 L177.0364,437.732 C176.7054,437.4 176.3354,437.541 175.9414,437.333" id="Fill-279" fill="#1D1B1C"></path>
                <g id="Group-283" transform="translate(74.000000, 449.000000)">
                    <mask id="mask-26" fill="white">
                        <use xlink:href="#path-25"></use>
                    </mask>
                    <g id="Clip-282"></g>
                    <path d="M9,2.4795 C7,0.7055 4.806,0.2935 3.039,2.0685 L0.148,5.0005 L11.193,5.0005 C11.228,4.0005 10,3.2355 9,2.3155 L9,2.4795 Z" id="Fill-281" fill="#1D1B1C" mask="url(#mask-26)"></path>
                </g>
                <g id="Group-286" transform="translate(47.000000, 423.000000)">
                    <mask id="mask-28" fill="white">
                        <use xlink:href="#path-27"></use>
                    </mask>
                    <g id="Clip-285"></g>
                    <path d="M36.9102,1.9131 C36.0262,1.0251 34.8672,0.5831 33.7122,0.5831 C32.5782,0.5831 31.4422,1.0061 30.5672,1.8581 L30.4552,1.9711 L3.3622,29.1831 C3.3202,29.2221 3.2762,28.8461 3.2352,28.8871 L0.7222,31.0001 L0.7342,31.0001 L13.5292,31.0001 L33.7122,10.7311 L53.8922,31.0001 L66.6902,31.0001 L64.1462,28.8561 L36.9102,1.9131 Z" id="Fill-284" fill="#1D1B1C" mask="url(#mask-28)"></path>
                </g>
            </g>
        </g>
    </g>
</svg>