<?xml version="1.0" encoding="UTF-8"?>
<svg width="454px" height="455px" viewBox="0 0 454 455" version="1.1" xmlns="http://www.w3.org/2000/svg" xmlns:xlink="http://www.w3.org/1999/xlink">
    <title>Pattern05</title>
    <defs>
        <polygon id="path-1" points="0 0.457 13.6059 0.457 13.6059 39.9706 0 39.9706"></polygon>
        <polygon id="path-3" points="0.7955 0.8995 32.543 0.8995 32.543 28.1135 0.7955 28.1135"></polygon>
        <polygon id="path-5" points="0.9519 0.457 64.4489 0.457 64.4489 76.2548 0.9519 76.2548"></polygon>
        <polygon id="path-7" points="0.2009 0.457 63.7339 0.457 63.7339 130.6803 0.2009 130.6803"></polygon>
        <polygon id="path-9" points="0.2321 0.457 104.5421 0.457 104.5421 112.5403 0.2321 112.5403"></polygon>
        <polygon id="path-11" points="0.1033 0.457 27.3163 0.457 27.3163 21.8295 0.1033 21.8295"></polygon>
        <polygon id="path-13" points="0.3855 0.457 27.5985 0.457 27.5985 21.8295 0.3855 21.8295"></polygon>
        <polygon id="path-15" points="0.6697 0.457 27.8897 0.457 27.8897 21.8295 0.6697 21.8295"></polygon>
        <polygon id="path-17" points="0.5115 0.457 9.5815 0.457 9.5815 58.1127 0.5115 58.1127"></polygon>
        <polygon id="path-19" points="0.3699 0.457 45.7229 0.457 45.7229 76.2548 0.3699 76.2548"></polygon>
        <polygon id="path-21" points="0.6785 0.457 100.4575 0.457 100.4575 76.2548 0.6785 76.2548"></polygon>
        <polygon id="path-23" points="0.8022 0.457 28.0152 0.457 28.0152 18.598 0.8022 18.598"></polygon>
        <polygon id="path-25" points="0.1469 0.457 45.3079 0.457 45.3079 58.1109 0.1469 58.1109"></polygon>
        <polygon id="path-27" points="0 0.4663 195.0238 0.4663 195.0238 236.3093 0 236.3093"></polygon>
        <polygon id="path-29" points="0.6525 0.457 50.543 0.457 50.543 21.829 0.6525 21.829"></polygon>
        <polygon id="path-31" points="0.5117 0.4664 68.543 0.4664 68.543 27.6794 0.5117 27.6794"></polygon>
        <polygon id="path-33" points="0.8028 0.457 159.543 0.457 159.543 148.8208 0.8028 148.8208"></polygon>
        <polygon id="path-35" points="0.2364 0.095 231.543 0.095 231.543 154.306 0.2364 154.306"></polygon>
        <polygon id="path-37" points="0.4539 0.8907 212.543 0.8907 212.543 28.1047 0.4539 28.1047"></polygon>
        <polygon id="path-39" points="0.9352 0.1583 14.543 0.1583 14.543 6 0.9352 6"></polygon>
        <polygon id="path-41" points="0.6692 0.6524 209.3012 0.6524 209.3012 173 0.6692 173"></polygon>
        <polygon id="path-43" points="0 0.0411 453.543 0.0411 453.543 390.0901 0 390.0901"></polygon>
        <polygon id="path-45" points="0.9362 0.319 14.543 0.319 14.543 44.799 0.9362 44.799"></polygon>
        <polygon id="path-47" points="0.9597 0.457 118.8827 0.457 118.8827 76.2546 0.9597 76.2546"></polygon>
        <polygon id="path-49" points="0.1115 0.5214 27.4565 0.5214 27.4565 88 0.1115 88"></polygon>
        <polygon id="path-51" points="0.6771 0.4511 27.8901 0.4511 27.8901 97 0.6771 97"></polygon>
        <polygon id="path-53" points="0 0.6087 104.5904 0.6087 104.5904 136.6717 0 136.6717"></polygon>
        <polygon id="path-55" points="0 0.7508 86.3442 0.7508 86.3442 27.9628 0 27.9628"></polygon>
        <polygon id="path-57" points="0 0.0335 68.6479 0.0335 68.6479 27.2465 0 27.2465"></polygon>
        <polygon id="path-59" points="0.8115 0.8761 46.1655 0.8761 46.1655 43 0.8115 43"></polygon>
        <polygon id="path-61" points="0.2357 0.3232 27.4487 0.3232 27.4487 23 0.2357 23"></polygon>
        <polygon id="path-63" points="0 0.0467 213.2973 0.0467 213.2973 172.3937 0 172.3937"></polygon>
    </defs>
    <g id="Page-1" stroke="none" stroke-width="1" fill="none" fill-rule="evenodd">
        <g id="Pattern05">
            <polygon id="Fill-1" fill="#242424" points="0 454.543 453.543 454.543 453.543 1 0 1"></polygon>
            <g id="Group-112" transform="translate(0.000000, 0.543000)">
                <g id="Group-4">
                    <mask id="mask-2" fill="white">
                        <use xlink:href="#path-1"></use>
                    </mask>
                    <g id="Clip-3"></g>
                    <path d="M9.0709,39.9706 C11.5759,39.9706 13.6059,37.9406 13.6059,35.4356 L13.6059,0.4566 L4.5359,0.4566 L4.5359,30.8996 L-0.0001,30.8996 L-0.0001,39.9706 L9.0709,39.9706 Z" id="Fill-2" fill="#1D1B1C" mask="url(#mask-2)"></path>
                </g>
                <g id="Group-7" transform="translate(421.000000, 30.000000)">
                    <mask id="mask-4" fill="white">
                        <use xlink:href="#path-3"></use>
                    </mask>
                    <g id="Clip-6"></g>
                    <path d="M0.7955,5.4355 L0.7955,5.4355 C0.7955,5.4405 0.7965,5.4465 0.7965,5.4525 L0.7965,23.5765 C0.7965,26.0815 2.8245,28.1135 5.3305,28.1135 L32.5435,28.1135 L32.5435,19.0415 L9.8645,19.0415 L9.8645,9.9705 L32.5435,9.9705 L32.5435,0.8995 L5.3305,0.8995 C2.8255,0.8995 0.7955,2.9305 0.7955,5.4355" id="Fill-5" fill="#1D1B1C" mask="url(#mask-4)"></path>
                </g>
                <g id="Group-10" transform="translate(185.000000, 0.000000)">
                    <mask id="mask-6" fill="white">
                        <use xlink:href="#path-5"></use>
                    </mask>
                    <g id="Clip-9"></g>
                    <path d="M5.4889,76.2548 L59.9149,76.2548 C62.4179,76.2548 64.4489,74.2228 64.4489,71.7168 L64.4489,0.4568 L55.3779,0.4568 L55.3779,67.1828 L10.0239,67.1828 L10.0239,17.2948 C10.0239,14.7898 7.9919,12.7568 5.4889,12.7568 C4.8649,12.7568 4.2669,12.8848 3.7229,13.1128 C3.5889,13.1708 3.4539,13.2338 3.3259,13.3048 L3.0029,13.4998 C2.9649,13.5258 2.9259,13.5508 2.8869,13.5798 C2.8489,13.6018 2.8109,13.6308 2.7719,13.6598 L2.5189,13.8648 C2.4359,13.9348 2.3559,14.0088 2.2799,14.0858 C2.2029,14.1618 2.1299,14.2418 2.0589,14.3258 C2.0049,14.3898 1.9499,14.4538 1.8989,14.5208 C1.8569,14.5778 1.8159,14.6328 1.7739,14.6928 C1.7449,14.7318 1.7189,14.7698 1.6939,14.8088 C1.6239,14.9138 1.5589,15.0228 1.4989,15.1318 C1.4279,15.2598 1.3649,15.3938 1.3069,15.5288 C1.0799,16.0728 0.9519,16.6678 0.9519,17.2948 L0.9519,71.7168 C0.9519,74.2228 2.9839,76.2548 5.4889,76.2548" id="Fill-8" fill="#1D1B1C" mask="url(#mask-6)"></path>
                </g>
                <g id="Group-13" transform="translate(222.000000, 0.000000)">
                    <mask id="mask-8" fill="white">
                        <use xlink:href="#path-7"></use>
                    </mask>
                    <g id="Clip-12"></g>
                    <path d="M27.4489,89.8613 C27.4489,87.3563 25.4179,85.3273 22.9149,85.3273 L22.9079,85.3273 L4.7709,85.3273 L4.5369,85.3333 C4.3829,85.3383 4.2299,85.3553 4.0799,85.3783 C4.0179,85.3873 3.9569,85.3953 3.8969,85.4073 C3.8649,85.4103 3.8339,85.4163 3.8019,85.4263 C3.5389,85.4803 3.2829,85.5573 3.0399,85.6563 C2.9599,85.6883 2.8799,85.7233 2.7999,85.7623 C2.7289,85.7943 2.6589,85.8293 2.5919,85.8673 C2.5529,85.8873 2.5179,85.9063 2.4829,85.9283 C2.4089,85.9703 2.3359,86.0153 2.2619,86.0633 C2.0859,86.1753 1.9199,86.2993 1.7619,86.4403 C1.7119,86.4823 1.6609,86.5303 1.6089,86.5813 C1.5609,86.6263 1.5129,86.6743 1.4659,86.7223 C1.4179,86.7733 1.3699,86.8243 1.3209,86.8793 C1.2759,86.9333 1.2279,86.9873 1.1869,87.0423 C1.1169,87.1283 1.0529,87.2153 0.9919,87.3043 C0.9719,87.3303 0.9529,87.3593 0.9369,87.3843 C0.9119,87.4233 0.8869,87.4613 0.8639,87.5033 C0.8379,87.5413 0.8159,87.5833 0.7939,87.6213 C0.7899,87.6283 0.7869,87.6313 0.7839,87.6373 C0.7519,87.6923 0.7229,87.7493 0.6939,87.8073 C0.6659,87.8613 0.6389,87.9163 0.6139,87.9703 C0.6079,87.9803 0.6039,87.9893 0.6039,87.9963 C0.5819,88.0443 0.5589,88.0893 0.5409,88.1393 C0.5119,88.2073 0.4859,88.2743 0.4639,88.3413 C0.4229,88.4533 0.3869,88.5623 0.3579,88.6743 C0.3389,88.7513 0.3199,88.8313 0.3029,88.9073 C0.2879,88.9753 0.2749,89.0393 0.2649,89.1063 C0.2559,89.1603 0.2459,89.2183 0.2399,89.2723 C0.2299,89.3303 0.2229,89.3913 0.2199,89.4513 C0.2139,89.5093 0.2109,89.5703 0.2079,89.6283 C0.2049,89.7043 0.2009,89.7843 0.2009,89.8613 C0.2009,90.0403 0.2179,90.2163 0.2359,90.3923 L0.2359,126.1433 C0.2359,128.6483 2.2679,130.6803 4.7709,130.6803 L59.1959,130.6803 C61.7019,130.6803 63.7339,128.6483 63.7339,126.1433 L63.7339,0.4563 L54.6619,0.4563 L54.6619,121.6093 L9.3079,121.6093 L9.3079,94.3963 L18.3779,94.3963 L18.3779,108.0053 C18.3779,110.5073 20.4089,112.5403 22.9149,112.5403 C22.9249,112.5403 22.9339,112.5363 22.9439,112.5363 L41.0549,112.5363 C42.3099,112.5363 43.4429,112.0313 44.2619,111.2083 C45.0809,110.3893 45.5909,109.2533 45.5909,108.0023 L45.5909,0.4563 L36.5209,0.4563 L36.5209,103.4673 L27.4489,103.4673 L27.4489,89.8613 Z" id="Fill-11" fill="#1D1B1C" mask="url(#mask-8)"></path>
                </g>
                <g id="Group-16" transform="translate(349.000000, 0.000000)">
                    <mask id="mask-10" fill="white">
                        <use xlink:href="#path-9"></use>
                    </mask>
                    <g id="Clip-15"></g>
                    <path d="M80.9821,110.6943 C81.0631,110.5853 81.1401,110.4713 81.2111,110.3543 C81.1391,110.4713 81.0631,110.5853 80.9821,110.6943 M0.4361,109.3493 L1.5591,111.2083 C2.0721,111.7203 2.7091,112.1113 3.4191,112.3313 C3.5591,112.3763 3.7041,112.4153 3.8511,112.4443 C4.1481,112.5053 4.4531,112.5363 4.7661,112.5363 L22.8721,112.5363 C22.8841,112.5363 22.8941,112.5403 22.9041,112.5403 C23.5311,112.5403 24.1261,112.4113 24.6691,112.1813 C24.7501,112.1493 24.8271,112.1143 24.9041,112.0723 C24.9521,112.0503 24.9971,112.0273 25.0411,112.0023 C25.1251,111.9603 25.2081,111.9123 25.2911,111.8583 C25.3551,111.8233 25.4161,111.7813 25.4761,111.7363 C25.5051,111.7173 25.5341,111.6983 25.5631,111.6753 C25.7291,111.5573 25.8861,111.4263 26.0331,111.2853 C26.1031,111.2183 26.1731,111.1483 26.2381,111.0773 C26.2481,111.0683 26.2571,111.0613 26.2631,111.0513 C26.3311,110.9783 26.3981,110.9013 26.4561,110.8243 C26.4811,110.7923 26.5061,110.7603 26.5291,110.7283 C26.5611,110.6903 26.5901,110.6483 26.6161,110.6103 C26.6351,110.5883 26.6511,110.5623 26.6671,110.5403 C26.6891,110.5073 26.7091,110.4793 26.7241,110.4503 C26.7371,110.4343 26.7471,110.4183 26.7561,110.4023 C26.7891,110.3543 26.8171,110.3063 26.8391,110.2583 C26.8461,110.2453 26.8521,110.2323 26.8621,110.2193 C26.8811,110.1883 26.8971,110.1523 26.9171,110.1173 C26.9391,110.0823 26.9581,110.0473 26.9741,110.0083 C27.0151,109.9283 27.0541,109.8453 27.0861,109.7653 C27.1211,109.6823 27.1571,109.5953 27.1821,109.5123 C27.2161,109.4093 27.2511,109.3053 27.2791,109.1983 L27.2791,109.1993 C27.2511,109.3053 27.2161,109.4093 27.1821,109.5123 L27.1851,109.5093 C27.2051,109.4513 27.2231,109.3913 27.2431,109.3333 C27.2551,109.2853 27.2711,109.2403 27.2811,109.1933 C27.2831,109.1873 27.2841,109.1813 27.2861,109.1763 L27.2851,109.1763 C27.2991,109.1283 27.3111,109.0783 27.3231,109.0293 C27.3111,109.0783 27.2991,109.1273 27.2861,109.1763 C27.2981,109.1263 27.3151,109.0763 27.3261,109.0263 C27.3331,109.0073 27.3361,108.9853 27.3381,108.9653 C27.3481,108.9303 27.3551,108.8953 27.3611,108.8603 C27.3681,108.8313 27.3741,108.8053 27.3781,108.7773 C27.3861,108.7153 27.3961,108.6523 27.4061,108.5883 C27.4131,108.5363 27.4191,108.4853 27.4251,108.4343 C27.4381,108.2933 27.4441,108.1493 27.4441,108.0023 C27.4441,107.9763 27.4381,107.9513 27.4381,107.9253 L27.4381,94.3963 L54.6541,94.3963 L54.6541,108.0053 C54.6541,110.5073 56.6831,112.5403 59.1881,112.5403 C59.1981,112.5403 59.2081,112.5363 59.2201,112.5363 L77.3201,112.5363 C77.3261,112.5363 77.3301,112.5403 77.3361,112.5403 C77.4411,112.5403 77.5461,112.5363 77.6521,112.5273 C77.7291,112.5243 77.8061,112.5173 77.8821,112.5073 C77.9021,112.5053 77.9181,112.5013 77.9371,112.5013 C78.0041,112.4913 78.0721,112.4793 78.1391,112.4663 C78.2481,112.4503 78.3561,112.4243 78.4621,112.3963 C78.4651,112.3923 78.4651,112.3923 78.4681,112.3963 C78.6611,112.3443 78.8491,112.2783 79.0331,112.2053 L79.0321,112.2053 C78.9541,112.2363 78.8761,112.2673 78.7941,112.2953 C78.8281,112.2843 78.8621,112.2763 78.8941,112.2643 C78.9611,112.2393 79.0281,112.2133 79.0951,112.1813 C79.1631,112.1523 79.2301,112.1203 79.2971,112.0913 C79.2971,112.0893 79.2971,112.0893 79.3001,112.0913 C79.5631,111.9643 79.8121,111.8133 80.0451,111.6373 C80.1031,111.5923 80.1611,111.5443 80.2181,111.5033 C80.2901,111.4453 80.3561,111.3873 80.4231,111.3233 C80.4501,111.2993 80.4741,111.2713 80.5011,111.2453 C80.5131,111.2333 80.5261,111.2213 80.5391,111.2083 C80.5871,111.1593 80.6341,111.1103 80.6821,111.0593 C80.6801,111.0623 80.6761,111.0653 80.6731,111.0683 C80.6771,111.0643 80.6811,111.0613 80.6841,111.0573 C80.6841,111.0583 80.6831,111.0583 80.6821,111.0593 C80.6911,111.0503 80.7001,111.0423 80.7091,111.0323 C80.7401,111.0003 80.7691,110.9653 80.7981,110.9303 C80.9201,110.7893 81.0281,110.6423 81.1301,110.4853 C81.1721,110.4213 81.2131,110.3543 81.2551,110.2833 C81.2751,110.2483 81.2941,110.2133 81.3131,110.1783 C81.3451,110.1243 81.3711,110.0723 81.3961,110.0183 C81.4381,109.9353 81.4761,109.8513 81.5111,109.7683 C81.5371,109.6983 81.5661,109.6313 81.5911,109.5603 C81.6171,109.4933 81.6431,109.4233 81.6661,109.3493 C81.6791,109.3043 81.6901,109.2573 81.7031,109.2113 C81.7071,109.1973 81.7111,109.1823 81.7141,109.1683 C81.8151,108.7963 81.8701,108.4063 81.8701,108.0023 L81.8701,76.2553 L90.9391,76.2553 L90.9391,107.9923 C90.9391,107.9963 90.9361,107.9993 90.9361,108.0023 C90.9361,108.4723 91.0091,108.9273 91.1401,109.3523 C91.2751,109.7783 91.4701,110.1753 91.7131,110.5403 C91.7641,110.6163 91.8161,110.6903 91.8741,110.7603 C91.9151,110.8183 91.9601,110.8723 92.0071,110.9273 C92.0331,110.9593 92.0621,110.9913 92.0901,111.0233 C92.1351,111.0743 92.1801,111.1223 92.2281,111.1703 C92.2801,111.2243 92.3311,111.2763 92.3851,111.3233 C92.4141,111.3523 92.4431,111.3783 92.4711,111.4013 C92.4981,111.4263 92.5231,111.4483 92.5511,111.4713 C92.6061,111.5193 92.6641,111.5643 92.7211,111.6093 C92.7241,111.6113 92.7241,111.6113 92.7281,111.6153 C92.7821,111.6563 92.8391,111.6983 92.8971,111.7363 C93.0221,111.8233 93.1501,111.9023 93.2811,111.9733 C93.3261,111.9993 93.3711,112.0253 93.4161,112.0473 C93.4481,112.0633 93.4831,112.0793 93.5151,112.0983 C93.5281,112.1043 93.5411,112.1113 93.5561,112.1173 C93.6041,112.1393 93.6521,112.1593 93.7041,112.1813 C93.7611,112.2073 93.8191,112.2293 93.8791,112.2523 C93.8991,112.2583 93.9181,112.2643 93.9371,112.2713 C93.9791,112.2903 94.0241,112.3033 94.0721,112.3193 C94.1031,112.3293 94.1351,112.3343 94.1671,112.3433 C94.1351,112.3343 94.1031,112.3263 94.0721,112.3163 C94.2121,112.3613 94.3551,112.3993 94.5021,112.4313 C94.5171,112.4353 94.5331,112.4403 94.5481,112.4443 C94.5711,112.4503 94.5931,112.4533 94.6121,112.4563 C94.6571,112.4663 94.6991,112.4763 94.7401,112.4793 L94.7891,112.4883 C94.8591,112.4983 94.9291,112.5073 95.0031,112.5143 C95.0401,112.5183 95.0781,112.5173 95.1151,112.5203 C95.2331,112.5293 95.3531,112.5363 95.4731,112.5363 C95.4241,112.5363 95.3761,112.5333 95.3271,112.5313 C95.3761,112.5333 95.4231,112.5403 95.4731,112.5403 C95.4761,112.5403 95.4831,112.5363 95.4861,112.5363 L104.5421,112.5363 L104.5421,103.4673 L100.0071,103.4673 L100.0071,71.7203 C100.0071,71.4073 99.9751,71.1033 99.9151,70.8053 C99.8861,70.6583 99.8471,70.5143 99.8021,70.3733 C99.7801,70.2993 99.7581,70.2293 99.7321,70.1623 C99.6561,69.9513 99.5661,69.7523 99.4611,69.5573 C99.3901,69.4293 99.3131,69.3043 99.2331,69.1833 C99.1121,69.0043 98.9771,68.8313 98.8301,68.6713 C98.7791,68.6163 98.7311,68.5653 98.6791,68.5143 C98.5771,68.4113 98.4681,68.3123 98.3561,68.2193 C98.3021,68.1753 98.2451,68.1303 98.1871,68.0853 C97.9531,67.9093 97.7041,67.7593 97.4381,67.6313 C97.1751,67.5033 96.8971,67.4013 96.6061,67.3273 C96.2451,67.2343 95.8641,67.1833 95.4731,67.1833 C95.4661,67.1833 95.4581,67.1863 95.4511,67.1863 L77.3581,67.1863 C77.3481,67.1863 77.3421,67.1833 77.3361,67.1833 C77.1081,67.1833 76.8841,67.1993 76.6671,67.2343 C76.5451,67.2503 76.4261,67.2723 76.3081,67.3013 C76.2001,67.3273 76.0901,67.3563 75.9851,67.3873 C74.1391,67.9603 72.7941,69.6853 72.7941,71.7203 C72.7941,71.7463 72.7981,71.7723 72.7981,71.8003 L72.7981,103.4673 L63.7231,103.4673 L63.7231,89.8613 C63.7231,88.6073 63.2131,87.4743 62.3951,86.6553 C61.5761,85.8363 60.4431,85.3273 59.1881,85.3273 L22.9041,85.3273 C22.3761,85.3273 21.8701,85.4163 21.3961,85.5833 C21.1631,85.6663 20.9361,85.7683 20.7181,85.8873 C20.5741,85.9643 20.4361,86.0533 20.3021,86.1463 C20.1001,86.2873 19.9121,86.4443 19.7391,86.6163 C19.6211,86.7283 19.5081,86.8503 19.4061,86.9753 C18.7561,87.7593 18.3701,88.7673 18.3701,89.8613 L18.3701,103.4673 L9.3001,103.4673 L9.3001,0.4563 L0.2321,0.4563 L0.2321,108.0023 L0.3251,108.9173 C0.3531,109.0643 0.3911,109.2083 0.4361,109.3493" id="Fill-14" fill="#1D1B1C" mask="url(#mask-10)"></path>
                </g>
                <g id="Group-19" transform="translate(77.000000, 0.000000)">
                    <mask id="mask-12" fill="white">
                        <use xlink:href="#path-11"></use>
                    </mask>
                    <g id="Clip-18"></g>
                    <path d="M4.6383,21.8295 L22.7793,21.8295 C25.2843,21.8295 27.3163,19.7975 27.3163,17.2945 C27.3163,16.9235 27.2653,16.5685 27.1823,16.2255 L27.1823,0.4565 L18.1133,0.4565 L18.1133,12.7575 L9.1723,12.7575 L9.1723,0.4565 L0.1033,0.4565 L0.1033,17.2945 C0.1033,19.7975 2.1323,21.8295 4.6383,21.8295" id="Fill-17" fill="#1D1B1C" mask="url(#mask-12)"></path>
                </g>
                <g id="Group-22" transform="translate(113.000000, 0.000000)">
                    <mask id="mask-14" fill="white">
                        <use xlink:href="#path-13"></use>
                    </mask>
                    <g id="Clip-21"></g>
                    <path d="M4.9225,21.8295 L23.0635,21.8295 C25.5685,21.8295 27.5985,19.7975 27.5985,17.2945 L27.5985,0.4565 L18.5285,0.4565 L18.5285,12.7575 L9.4575,12.7575 L9.4575,0.4565 L0.3855,0.4565 L0.3855,17.2915 L0.3855,17.2945 C0.3855,19.7975 2.4175,21.8295 4.9225,21.8295" id="Fill-20" fill="#1D1B1C" mask="url(#mask-14)"></path>
                </g>
                <g id="Group-25" transform="translate(149.000000, 0.000000)">
                    <mask id="mask-16" fill="white">
                        <use xlink:href="#path-15"></use>
                    </mask>
                    <g id="Clip-24"></g>
                    <path d="M5.2047,21.8295 L23.3457,21.8295 L23.3487,21.8295 C23.4987,21.8295 23.6487,21.8235 23.7967,21.8075 L23.8157,21.8075 C23.8897,21.7975 23.9667,21.7875 24.0397,21.7785 C24.0497,21.7745 24.0587,21.7715 24.0677,21.7715 C24.1167,21.7655 24.1607,21.7555 24.2057,21.7465 C24.2507,21.7395 24.2957,21.7265 24.3437,21.7175 C24.3787,21.7105 24.4137,21.7045 24.4487,21.6915 C24.4837,21.6825 24.5187,21.6755 24.5587,21.6625 C24.6287,21.6435 24.6987,21.6245 24.7667,21.6015 C24.8337,21.5795 24.9037,21.5545 24.9707,21.5285 C25.0577,21.4965 25.1467,21.4585 25.2327,21.4195 C25.3257,21.3745 25.4227,21.3295 25.5117,21.2825 C25.5177,21.2755 25.5237,21.2725 25.5337,21.2695 C25.7837,21.1355 26.0167,20.9755 26.2347,20.7925 C26.2347,20.7895 26.2347,20.7895 26.2377,20.7925 C26.3507,20.6995 26.4587,20.6035 26.5607,20.5015 C26.6387,20.4245 26.7117,20.3445 26.7817,20.2615 C26.8167,20.2215 26.8467,20.1775 26.8797,20.1365 C26.9047,20.1045 26.9307,20.0725 26.9547,20.0405 C27.0347,19.9355 27.1107,19.8275 27.1827,19.7145 C27.1937,19.6955 27.2057,19.6765 27.2177,19.6565 C27.2597,19.5895 27.3047,19.5245 27.3427,19.4545 C27.4127,19.3275 27.4757,19.1955 27.5337,19.0585 C27.7617,18.5175 27.8897,17.9185 27.8897,17.2945 L27.8897,0.4565 L18.8167,0.4565 L18.8167,12.7575 L9.7517,12.7575 L9.7517,0.4565 L0.6837,0.4565 L0.6837,17.0585 C0.6767,17.1385 0.6697,17.2145 0.6697,17.2945 C0.6697,19.7975 2.6987,21.8295 5.2047,21.8295" id="Fill-23" fill="#1D1B1C" mask="url(#mask-16)"></path>
                </g>
                <g id="Group-28" transform="translate(385.000000, 0.000000)">
                    <mask id="mask-18" fill="white">
                        <use xlink:href="#path-17"></use>
                    </mask>
                    <g id="Clip-27"></g>
                    <path d="M5.0465,58.1127 C7.5515,58.1127 9.5815,56.0817 9.5815,53.5767 L9.5815,0.4567 L0.5115,0.4567 L0.5115,53.5767 C0.5115,56.0817 2.5415,58.1127 5.0465,58.1127" id="Fill-26" fill="#1D1B1C" mask="url(#mask-18)"></path>
                </g>
                <g id="Group-31" transform="translate(367.000000, 0.000000)">
                    <mask id="mask-20" fill="white">
                        <use xlink:href="#path-19"></use>
                    </mask>
                    <g id="Clip-30"></g>
                    <path d="M4.9039,76.2548 L41.1819,76.2548 L41.1879,76.2548 C43.6939,76.2548 45.7229,74.2228 45.7229,71.7208 L45.7229,35.4358 C45.7229,32.9298 43.6939,30.9008 41.1879,30.9008 C38.6829,30.9008 36.6539,32.9298 36.6539,35.4358 L36.6539,67.1828 L9.4379,67.1828 L9.4379,0.4568 L0.3699,0.4568 L0.3699,71.5508 C0.3699,71.5828 0.3729,71.6118 0.3729,71.6438 C0.3729,71.6698 0.3699,71.6948 0.3699,71.7168 C0.3699,74.2228 2.4009,76.2548 4.9039,76.2548" id="Fill-29" fill="#1D1B1C" mask="url(#mask-20)"></path>
                </g>
                <g id="Group-34" transform="translate(22.000000, 0.000000)">
                    <mask id="mask-22" fill="white">
                        <use xlink:href="#path-21"></use>
                    </mask>
                    <g id="Clip-33"></g>
                    <path d="M5.2125,76.2548 L95.9225,76.2548 L97.2705,76.0498 C97.4105,76.0048 97.5515,75.9538 97.6865,75.8968 L99.1295,74.9268 C99.4365,74.6168 99.6985,74.2648 99.9095,73.8808 C99.9805,73.7528 100.0445,73.6218 100.1025,73.4838 C100.3295,72.9398 100.4575,72.3448 100.4575,71.7168 L100.4575,53.5768 L100.1025,51.8098 C100.0445,51.6758 99.9805,51.5448 99.9095,51.4138 C99.6985,51.0288 99.4365,50.6768 99.1295,50.3698 C98.6135,49.8588 97.9805,49.4678 97.2705,49.2468 C97.1425,49.2058 97.0105,49.1708 96.8765,49.1448 C96.5685,49.0778 96.2495,49.0428 95.9225,49.0428 L27.8915,49.0428 L27.8915,0.4568 L18.8185,0.4568 L18.8185,53.5798 C18.8185,56.0818 20.8515,58.1138 23.3535,58.1138 C23.3625,58.1138 23.3725,58.1108 23.3825,58.1108 L91.3855,58.1108 L91.3855,67.1828 L9.7465,67.1828 L9.7465,0.4568 L0.6785,0.4568 L0.6785,71.7168 C0.6785,74.2228 2.7065,76.2548 5.2125,76.2548" id="Fill-32" fill="#1D1B1C" mask="url(#mask-22)"></path>
                </g>
                <g id="Group-37" transform="translate(294.000000, 0.000000)">
                    <mask id="mask-24" fill="white">
                        <use xlink:href="#path-23"></use>
                    </mask>
                    <g id="Clip-36"></g>
                    <path d="M1.3502,16.226 L1.4912,16.463 L1.7042,16.777 L1.9102,17.029 C1.9802,17.113 2.0542,17.193 2.1302,17.269 C2.1952,17.333 2.2622,17.394 2.3292,17.455 C2.3902,17.509 2.4512,17.56 2.5152,17.612 C2.5282,17.622 2.5432,17.634 2.5562,17.644 C2.6232,17.695 2.6912,17.743 2.7582,17.791 C2.8312,17.842 2.9082,17.893 2.9882,17.941 C3.0722,17.989 3.1552,18.038 3.2412,18.082 C3.3282,18.127 3.4132,18.168 3.5032,18.21 C3.5642,18.239 3.6282,18.261 3.6922,18.287 C3.7532,18.312 3.8142,18.335 3.8742,18.354 C3.9772,18.39 4.0792,18.421 4.1852,18.45 C4.2492,18.466 4.3162,18.482 4.3832,18.495 C4.4602,18.514 4.5372,18.527 4.6172,18.54 C4.6942,18.553 4.7742,18.562 4.8542,18.572 C5.0142,18.588 5.1732,18.598 5.3372,18.598 L23.4812,18.598 C25.9872,18.598 28.0152,16.569 28.0152,14.063 L28.0152,0.456 L18.9442,0.456 L18.9442,9.529 L9.8742,9.529 L9.8742,0.456 L0.8022,0.456 L0.8022,14.063 C0.8022,14.687 0.9312,15.286 1.1582,15.83 C1.2152,15.964 1.2802,16.095 1.3502,16.226" id="Fill-35" fill="#1D1B1C" mask="url(#mask-24)"></path>
                </g>
                <g id="Group-40" transform="translate(186.000000, 0.000000)">
                    <mask id="mask-26" fill="white">
                        <use xlink:href="#path-25"></use>
                    </mask>
                    <g id="Clip-39"></g>
                    <path d="M4.4889,3.6889 L18.0949,3.6889 L18.0949,53.5769 C18.0949,54.2009 18.2229,54.7989 18.4509,55.3429 C18.5089,55.4779 18.5729,55.6089 18.6429,55.7399 L18.7839,55.9769 L18.9979,56.2899 L19.2029,56.5429 C19.2729,56.6269 19.3459,56.7059 19.4239,56.7829 C19.4879,56.8469 19.5549,56.9079 19.6219,56.9689 C19.6889,57.0289 19.7599,57.0869 19.8299,57.1449 C19.8999,57.1989 19.9739,57.2529 20.0509,57.3049 C20.1249,57.3559 20.2009,57.4069 20.2779,57.4549 C20.3549,57.4999 20.4349,57.5439 20.5179,57.5889 C20.5979,57.6309 20.6809,57.6729 20.7639,57.7109 C20.8379,57.7429 20.9119,57.7749 20.9879,57.8039 C21.0849,57.8419 21.1829,57.8769 21.2799,57.9059 C21.4239,57.9509 21.5679,57.9889 21.7149,58.0179 C22.0099,58.0789 22.3159,58.1109 22.6299,58.1109 L40.7709,58.1109 C41.0849,58.1109 41.3879,58.0789 41.6859,58.0179 C41.8339,57.9889 41.9769,57.9509 42.1179,57.9059 C42.8289,57.6889 43.4659,57.2979 43.9799,56.7829 C44.0569,56.7059 44.1309,56.6269 44.2009,56.5429 C44.3609,56.3609 44.5089,56.1619 44.6359,55.9509 C44.6809,55.8839 44.7229,55.8139 44.7609,55.7399 C44.8319,55.6089 44.8959,55.4779 44.9529,55.3429 C45.1799,54.7989 45.3079,54.2039 45.3079,53.5769 L45.3079,0.4569 L36.2359,0.4569 L36.2359,49.0429 L27.1649,49.0429 L27.1649,0.4569 L0.1469,0.4569 C0.7069,2.3259 2.4379,3.6889 4.4889,3.6889" id="Fill-38" fill="#1D1B1C" mask="url(#mask-26)"></path>
                </g>
                <g id="Group-43" transform="translate(0.000000, 103.000000)">
                    <mask id="mask-28" fill="white">
                        <use xlink:href="#path-27"></use>
                    </mask>
                    <g id="Clip-42"></g>
                    <path d="M185.9528,18.6083 L154.2048,18.6083 C151.6998,18.6083 149.6698,20.6393 149.6698,23.1443 L149.6698,41.2853 C149.6698,43.7903 151.6998,45.8213 154.2048,45.8213 L185.9528,45.8213 L185.9528,142.3683 L176.8838,142.3683 L176.8838,59.4273 C176.8838,56.9223 174.8528,54.8923 172.3488,54.8923 L172.3478,54.8923 L154.2048,54.8923 C151.6998,54.8923 149.6698,56.9223 149.6698,59.4273 L149.6698,142.3683 L140.5328,142.3683 L140.5328,23.8863 C140.5728,23.6443 140.5988,23.3973 140.5988,23.1443 C140.5988,20.6393 138.5678,18.6083 136.0628,18.6083 L135.9978,18.6083 L135.9968,18.6083 L117.9218,18.6083 C115.4168,18.6083 113.3868,20.6393 113.3868,23.1443 L113.3868,227.2383 L86.9118,227.2383 L86.9118,223.3573 C86.9118,220.8513 84.8838,218.8193 82.3778,218.8193 L49.8908,218.8193 L49.8908,209.7493 L82.3468,209.7493 C84.8508,209.7493 86.8828,207.7183 86.8828,205.2133 C86.8828,205.1833 86.8788,205.1543 86.8778,205.1253 C86.8788,205.0873 86.8838,205.0513 86.8838,205.0143 L86.8838,187.0723 C86.8838,184.5663 84.8508,182.5383 82.3458,182.5383 L49.8908,182.5383 L49.8908,150.1353 C49.8908,147.6303 47.8588,145.6003 45.3538,145.6003 L13.6068,145.6003 L13.6068,136.5293 L58.9608,136.5293 L58.9608,168.9313 C58.9608,171.4363 60.9908,173.4663 63.4958,173.4663 L95.5188,173.4663 L95.5188,213.6313 C95.5188,216.1363 97.5498,218.1683 100.0558,218.1683 C102.5598,218.1683 104.5908,216.1363 104.5908,213.6313 L104.5908,168.9313 C104.5908,166.4263 102.5598,164.3963 100.0558,164.3963 L68.0318,164.3963 L68.0318,131.9943 C68.0318,129.4893 66.0008,127.4593 63.4958,127.4593 L9.0708,127.4593 C6.5658,127.4593 4.5358,129.4893 4.5358,131.9943 L4.5358,131.9983 L4.5358,150.1323 L4.5358,150.1353 C4.5358,152.6403 6.5658,154.6713 9.0708,154.6713 L40.8188,154.6713 L40.8188,187.0723 C40.8188,187.5803 40.9068,188.0673 41.0608,188.5243 C41.4228,189.5933 42.1698,190.4843 43.1408,191.0283 C43.7958,191.3953 44.5508,191.6073 45.3538,191.6073 C45.3608,191.6073 45.3658,191.6063 45.3728,191.6063 L77.8108,191.6063 L77.8108,200.6783 L45.3538,200.6783 C42.8488,200.6783 40.8188,202.7093 40.8188,205.2133 L40.8188,223.2993 C40.8188,223.3193 40.8158,223.3373 40.8158,223.3573 C40.8158,225.8593 42.8488,227.8913 45.3538,227.8913 L77.8408,227.8913 L77.8408,231.7733 C77.8408,232.3963 77.9688,232.9953 78.1948,233.5393 C78.2528,233.6733 78.3168,233.8043 78.3878,233.9363 C78.5988,234.3203 78.8608,234.6713 79.1688,234.9793 C79.6828,235.4943 80.3198,235.8843 81.0308,236.1023 C81.1718,236.1473 81.3148,236.1853 81.4628,236.2143 C81.7568,236.2753 82.0638,236.3093 82.3778,236.3093 L117.7248,236.3093 C117.7518,236.3093 117.7778,236.3033 117.8048,236.3033 C117.8448,236.3043 117.8828,236.3093 117.9218,236.3093 C120.4268,236.3093 122.4568,234.2783 122.4568,231.7733 L122.4568,27.6793 L131.4618,27.6793 L131.4618,146.9033 C131.4618,149.4083 133.4928,151.4383 135.9978,151.4383 C136.0088,151.4383 136.0188,151.4373 136.0298,151.4373 C136.0408,151.4373 136.0528,151.4383 136.0628,151.4383 L154.2048,151.4383 C156.7098,151.4383 158.7398,149.4083 158.7398,146.9033 L158.7398,63.9623 L167.8128,63.9623 L167.8128,146.8683 C167.8128,146.8793 167.8108,146.8913 167.8108,146.9033 C167.8108,149.4083 169.8418,151.4383 172.3468,151.4383 L190.4878,151.4383 C192.9928,151.4383 195.0238,149.4083 195.0238,146.9033 L195.0238,41.2853 C195.0238,38.7803 192.9928,36.7503 190.4878,36.7503 L158.7398,36.7503 L158.7398,27.6793 L190.4878,27.6793 C192.9928,27.6793 195.0238,25.6493 195.0238,23.1443 L195.0238,5.0023 C195.0238,2.4973 192.9928,0.4663 190.4878,0.4663 L-0.0002,0.4663 L-0.0002,9.5373 L185.9528,9.5373 L185.9528,18.6083 Z" id="Fill-41" fill="#1D1B1C" mask="url(#mask-28)"></path>
                </g>
                <g id="Group-46" transform="translate(403.000000, 0.000000)">
                    <mask id="mask-30" fill="white">
                        <use xlink:href="#path-29"></use>
                    </mask>
                    <g id="Clip-45"></g>
                    <path d="M37.1285,0.457 L36.9385,0.457 L36.9385,12.757 L9.7245,12.757 L9.7245,3.686 L23.3305,3.686 C25.3815,3.686 27.1115,2.325 27.6735,0.457 L0.8465,0.457 L0.6525,0.457 L0.6525,17.292 C0.6525,19.797 2.6845,21.828 5.1885,21.828 L5.1895,21.828 L41.4495,21.828 C41.4575,21.828 41.4655,21.829 41.4735,21.829 C43.9785,21.829 46.0085,19.798 46.0085,17.293 L46.0085,3.686 L50.5435,3.686 L50.5435,0.457 L37.1285,0.457 Z" id="Fill-44" fill="#1D1B1C" mask="url(#mask-30)"></path>
                </g>
                <g id="Group-49" transform="translate(385.000000, 103.000000)">
                    <mask id="mask-32" fill="white">
                        <use xlink:href="#path-31"></use>
                    </mask>
                    <g id="Clip-48"></g>
                    <path d="M9.5817,5.0024 C9.5817,2.4974 7.5517,0.4664 5.0467,0.4664 C2.5417,0.4664 0.5117,2.4974 0.5117,5.0024 L0.5117,23.1444 C0.5117,25.6484 2.5417,27.6794 5.0467,27.6794 L68.5437,27.6794 L68.5437,18.6084 L9.5817,18.6084 L9.5817,5.0024 Z" id="Fill-47" fill="#1D1B1C" mask="url(#mask-32)"></path>
                </g>
                <g id="Group-52" transform="translate(294.000000, 0.000000)">
                    <mask id="mask-34" fill="white">
                        <use xlink:href="#path-33"></use>
                    </mask>
                    <g id="Clip-51"></g>
                    <path d="M25.2448,28.0278 C25.3768,28.0848 25.5058,28.1478 25.6358,28.2168 C25.5058,28.1478 25.3758,28.0848 25.2438,28.0278 L25.2448,28.0278 Z M82.4388,126.2198 C82.4398,126.1948 82.4428,126.1708 82.4428,126.1448 C82.4428,123.9518 80.8878,122.1238 78.8198,121.7008 C78.5238,121.6408 78.2178,121.6088 77.9038,121.6088 C77.8978,121.6088 77.8928,121.6098 77.8888,121.6098 C77.1548,121.6118 76.4648,121.7918 75.8528,122.1038 C76.4648,121.7918 77.1548,121.6108 77.8878,121.6088 L46.1528,121.6088 L46.1528,68.4888 C46.1528,68.0178 46.0828,67.5668 45.9478,67.1378 C45.8618,66.8568 45.7468,66.5848 45.6058,66.3258 C45.4658,66.0698 45.3028,65.8258 45.1198,65.6018 C44.6558,65.0428 44.0628,64.5978 43.3858,64.3098 C43.1128,64.1948 42.8288,64.1048 42.5308,64.0438 C42.2358,63.9858 41.9318,63.9538 41.6188,63.9538 L9.8778,63.9538 L9.8778,36.7418 L18.9338,36.7418 L18.9338,50.3478 C18.9338,52.8498 20.9668,54.8818 23.4718,54.8818 L41.6218,54.8818 C44.1278,54.8818 46.1568,52.8498 46.1568,50.3478 C46.1568,50.3288 46.1528,50.3098 46.1528,50.2898 L46.1528,0.4568 L37.0848,0.4568 L37.0848,45.8098 L28.0068,45.8098 L28.0068,32.3928 C28.0098,32.3318 28.0158,32.2678 28.0158,32.2038 C28.0158,32.1268 28.0128,32.0468 28.0098,31.9698 C28.0068,31.9128 28.0028,31.8548 27.9968,31.7978 C27.9898,31.7308 27.9838,31.6628 27.9738,31.5988 C27.9678,31.5478 27.9618,31.4968 27.9518,31.4448 C27.9418,31.3818 27.9298,31.3208 27.9168,31.2598 C27.9068,31.2058 27.8938,31.1508 27.8778,31.0998 C27.8618,31.0288 27.8428,30.9628 27.8198,30.8948 C27.8078,30.8498 27.7948,30.8088 27.7788,30.7638 C27.7568,30.6838 27.7278,30.6068 27.6958,30.5338 C27.6768,30.4828 27.6538,30.4308 27.6318,30.3798 C27.5988,30.3058 27.5638,30.2358 27.5288,30.1658 C27.5008,30.1048 27.4688,30.0468 27.4358,29.9858 C27.3728,29.8708 27.3028,29.7588 27.2278,29.6508 C27.1998,29.6118 27.1738,29.5698 27.1418,29.5318 C27.1198,29.4968 27.0948,29.4648 27.0648,29.4298 C27.0108,29.3588 26.9568,29.2888 26.8958,29.2218 C26.8958,29.2178 26.8918,29.2178 26.8898,29.2148 C26.8598,29.1798 26.8288,29.1448 26.7968,29.1128 C26.7798,29.0928 26.7618,29.0708 26.7388,29.0518 C26.7038,29.0138 26.6658,28.9748 26.6268,28.9398 C26.6108,28.9208 26.5958,28.9048 26.5758,28.8918 C26.5308,28.8498 26.4888,28.8118 26.4438,28.7738 C26.3958,28.7318 26.3488,28.6908 26.2978,28.6518 C26.2458,28.6068 26.1918,28.5688 26.1378,28.5298 C26.0898,28.4948 26.0378,28.4598 25.9898,28.4278 C25.8298,28.3188 25.6638,28.2228 25.4908,28.1398 C25.4328,28.1108 25.3758,28.0818 25.3148,28.0568 C25.2898,28.0438 25.2638,28.0338 25.2378,28.0248 C25.2318,28.0248 25.2278,28.0218 25.2248,28.0178 C25.1958,28.0058 25.1648,27.9928 25.1358,27.9828 C25.0748,27.9578 25.0148,27.9348 24.9528,27.9158 C24.8918,27.8938 24.8348,27.8738 24.7738,27.8588 C24.7168,27.8388 24.6558,27.8228 24.5988,27.8098 C24.5758,27.8008 24.5538,27.7978 24.5338,27.7948 C24.4858,27.7808 24.4348,27.7718 24.3868,27.7618 C24.0898,27.7018 23.7848,27.6698 23.4718,27.6698 L5.3438,27.6698 L5.3378,27.6698 L3.4878,28.0668 L3.4658,28.0758 L3.2988,28.1558 C3.2578,28.1748 3.2188,28.1948 3.1808,28.2168 L2.9878,28.3258 C2.9368,28.3578 2.8898,28.3858 2.8418,28.4218 L2.7488,28.4858 L2.5028,28.6708 L2.4158,28.7418 C2.3738,28.7738 2.3328,28.8088 2.2908,28.8468 L2.1338,28.9978 C2.0828,29.0488 2.0318,29.1028 1.9838,29.1538 C1.9328,29.2088 1.8878,29.2658 1.8398,29.3208 C1.7988,29.3688 1.7568,29.4198 1.7218,29.4708 C1.7148,29.4778 1.7088,29.4838 1.7048,29.4898 C1.6698,29.5348 1.6388,29.5798 1.6088,29.6248 C1.5988,29.6408 1.5868,29.6528 1.5768,29.6698 C1.5678,29.6858 1.5558,29.7018 1.5458,29.7208 C1.5188,29.7588 1.4938,29.8008 1.4688,29.8418 C1.4658,29.8458 1.4628,29.8488 1.4588,29.8548 C1.4488,29.8708 1.4398,29.8868 1.4328,29.9028 C1.4208,29.9248 1.4078,29.9478 1.3908,29.9738 C1.3788,29.9958 1.3658,30.0178 1.3528,30.0438 C1.3518,30.0458 1.3508,30.0478 1.3498,30.0488 C1.3388,30.0708 1.3248,30.0918 1.3148,30.1138 C1.3078,30.1238 1.3028,30.1328 1.2988,30.1468 C1.2928,30.1588 1.2858,30.1718 1.2798,30.1848 C1.2668,30.2008 1.2608,30.2198 1.2508,30.2388 C1.2348,30.2678 1.2228,30.2998 1.2098,30.3318 C1.1868,30.3768 1.1678,30.4248 1.1478,30.4688 C1.1228,30.5268 1.0998,30.5848 1.0808,30.6418 L1.0778,30.6458 C1.0528,30.7158 1.0298,30.7858 1.0078,30.8568 C0.9848,30.9268 0.9668,30.9978 0.9468,31.0708 C0.9278,31.1448 0.9118,31.2178 0.8958,31.2918 C0.8828,31.3528 0.8698,31.4168 0.8598,31.4808 C0.8508,31.5448 0.8418,31.6088 0.8348,31.6728 C0.8288,31.7148 0.8248,31.7558 0.8218,31.7978 C0.8088,31.9318 0.8028,32.0668 0.8028,32.2038 C0.8028,32.2328 0.8068,32.2608 0.8068,32.2898 L0.8068,68.4888 C0.8068,68.9588 0.8768,69.4098 1.0108,69.8358 C1.0558,69.9798 1.1068,70.1178 1.1648,70.2548 C1.3908,70.7958 1.7238,71.2858 2.1338,71.6948 C2.1978,71.7588 2.2658,71.8198 2.3328,71.8808 C2.3928,71.9348 2.4538,71.9858 2.5178,72.0378 C2.5308,72.0468 2.5468,72.0598 2.5588,72.0698 C2.6268,72.1208 2.6938,72.1688 2.7618,72.2168 C2.8348,72.2678 2.9118,72.3188 2.9918,72.3668 C3.0328,72.3928 3.0748,72.4148 3.1168,72.4378 C3.1578,72.4628 3.1998,72.4858 3.2448,72.5078 C3.3308,72.5558 3.4178,72.5978 3.5068,72.6358 C3.5678,72.6648 3.6318,72.6868 3.6958,72.7128 C3.7948,72.7548 3.8938,72.7898 3.9928,72.8188 C4.1378,72.8628 4.2808,72.9018 4.4288,72.9298 C4.7238,72.9908 5.0298,73.0228 5.3438,73.0228 L37.0848,73.0228 L37.0848,126.1468 C37.0848,128.6488 39.1128,130.6808 41.6188,130.6808 L73.3688,130.6808 L73.3688,144.2858 C73.3688,146.7908 75.3988,148.8208 77.9038,148.8208 C77.9228,148.8208 77.9398,148.8188 77.9578,148.8188 C77.9758,148.8188 77.9938,148.8208 78.0128,148.8208 L159.5438,148.8208 L159.5438,139.7508 L82.4388,139.7508 L82.4388,126.2198 Z" id="Fill-50" fill="#1D1B1C" mask="url(#mask-34)"></path>
                </g>
                <g id="Group-55" transform="translate(222.000000, 82.000000)">
                    <mask id="mask-36" fill="white">
                        <use xlink:href="#path-35"></use>
                    </mask>
                    <g id="Clip-54"></g>
                    <path d="M136.3014,62.287 C136.3014,60.25 134.9584,58.527 133.1104,57.954 C132.6834,57.822 132.2304,57.75 131.7604,57.75 L101.0904,57.75 L101.0904,4.63 C101.0904,2.125 99.0594,0.095 96.5544,0.095 L78.4124,0.095 C75.9074,0.095 73.8774,2.125 73.8774,4.63 L73.8774,57.75 L4.7724,57.75 C2.2674,57.75 0.2364,59.781 0.2364,62.286 L0.2364,115.271 C0.2364,116.394 0.6464,117.419 1.3224,118.211 C2.1544,119.186 3.3894,119.807 4.7714,119.807 L181.6554,119.807 L181.6554,127.982 L4.7714,127.982 C4.4574,127.982 4.1504,128.015 3.8564,128.076 C3.7084,128.104 3.5654,128.142 3.4204,128.187 C2.7134,128.408 2.0764,128.799 1.5654,129.31 C1.2574,129.618 0.9954,129.97 0.7834,130.354 C0.7134,130.485 0.6504,130.616 0.5924,130.75 L0.2364,132.517 L0.2364,149.765 C0.2364,152.267 2.2664,154.3 4.7714,154.3 L204.2084,154.3 C204.2494,154.301 204.2894,154.306 204.3304,154.306 C206.5444,154.306 208.3854,152.719 208.7834,150.621 C208.8364,150.344 208.8674,150.058 208.8674,149.765 C208.8674,149.758 208.8654,149.751 208.8654,149.744 L208.8654,121.246 L231.5434,121.246 L231.5434,112.175 L204.3304,112.175 C201.8254,112.175 199.7954,114.206 199.7954,116.711 L199.7954,145.227 L9.3064,145.227 L9.3064,137.051 L186.1894,137.051 C187.4404,137.051 188.5754,136.546 189.3954,135.724 C190.2174,134.904 190.7234,133.768 190.7234,132.517 L190.7234,115.272 C190.7234,112.766 188.6954,110.735 186.1894,110.735 L9.3074,110.735 L9.3074,66.821 L78.4124,66.821 C80.9174,66.821 82.9474,64.79 82.9474,62.286 L82.9474,9.165 L92.0194,9.165 L92.0194,62.286 C92.0194,64.79 94.0494,66.821 96.5544,66.821 L127.2304,66.821 L127.2304,80.427 L127.2304,80.429 C127.2304,82.934 129.2614,84.964 131.7664,84.964 C131.7764,84.964 131.7864,84.963 131.7964,84.963 L231.5434,84.963 L231.5434,75.892 L136.3014,75.892 L136.3014,62.287 Z" id="Fill-53" fill="#1D1B1C" mask="url(#mask-36)"></path>
                </g>
                <g id="Group-58" transform="translate(241.000000, 157.000000)">
                    <mask id="mask-38" fill="white">
                        <use xlink:href="#path-37"></use>
                    </mask>
                    <g id="Clip-57"></g>
                    <path d="M99.1539,5.4267 L99.1539,5.4267 L99.1539,5.4257 C99.1539,2.9207 97.1239,0.8907 94.6189,0.8907 L4.9899,0.8907 C2.4849,0.8907 0.4539,2.9207 0.4539,5.4257 L0.4539,5.4267 L0.4539,5.4267 L0.4539,23.5687 L0.4539,23.5687 L0.4539,23.5697 C0.4539,26.0737 2.4849,28.1047 4.9899,28.1047 L75.3409,28.1047 C77.8449,28.1047 79.8759,26.0737 79.8759,23.5697 C79.8759,21.0647 77.8449,19.0337 75.3409,19.0337 L9.5249,19.0337 L9.5249,9.9617 L90.0829,9.9617 L90.0829,23.5687 L90.0829,23.5687 L90.0829,23.5697 C90.0829,26.0737 92.1139,28.1047 94.6189,28.1047 L212.5439,28.1047 L212.5439,19.0337 L99.1539,19.0337 L99.1539,5.4267 Z" id="Fill-56" fill="#1D1B1C" mask="url(#mask-38)"></path>
                </g>
                <path d="M426.3307,430.0165 L412.7247,430.0165 L412.7247,268.0435 C412.7247,267.7305 412.6917,267.4245 412.6317,267.1295 C412.5707,266.8345 412.4817,266.5495 412.3677,266.2785 C412.0807,265.6005 411.6337,265.0065 411.0737,264.5435 C410.8497,264.3595 410.6067,264.1955 410.3507,264.0555 C410.0937,263.9155 409.8207,263.8005 409.5377,263.7125 C409.1107,263.5795 408.6577,263.5085 408.1877,263.5085 L353.7647,263.5085 C351.2597,263.5085 349.2277,265.5385 349.2277,268.0435 C349.2277,268.2195 349.2407,268.3935 349.2607,268.5645 L349.2607,285.6675 C349.2407,285.8385 349.2277,286.0115 349.2277,286.1875 C349.2277,287.4435 349.7387,288.5795 350.5637,289.4015 C351.3867,290.2375 352.5297,290.7565 353.7957,290.7565 C353.9767,290.7565 354.1537,290.7445 354.3287,290.7225 L385.5117,290.7225 L385.5117,453.9995 L394.5817,453.9995 L394.5817,286.1875 C394.5817,283.6825 392.5517,281.6525 390.0467,281.6525 L358.3317,281.6525 L358.3317,272.5795 L403.6527,272.5795 L403.6527,434.5535 C403.6527,437.0585 405.6847,439.0885 408.1877,439.0885 C408.1957,439.0885 408.2037,439.0875 408.2117,439.0875 L421.7957,439.0875 L421.7957,448.1585 L408.1887,448.1585 C405.6847,448.1585 403.6527,450.1885 403.6527,452.6935 L403.6527,453.9995 L403.8467,453.9995 L430.6737,453.9995 C430.7977,453.5855 430.8657,453.1485 430.8657,452.6935 L430.8657,434.5515 C430.8657,432.0465 428.8357,430.0165 426.3307,430.0165" id="Fill-59" fill="#1D1B1C"></path>
                <g id="Group-63" transform="translate(439.000000, 448.000000)">
                    <mask id="mask-40" fill="white">
                        <use xlink:href="#path-39"></use>
                    </mask>
                    <g id="Clip-62"></g>
                    <path d="M0.9352,4.6933 C0.9352,4.7103 0.9372,4.7243 0.9382,4.7413 L0.9382,6.0003 L1.1282,6.0003 L14.5432,6.0003 L14.5432,0.1583 L5.4702,0.1583 C2.9652,0.1583 0.9352,2.1883 0.9352,4.6933" id="Fill-61" fill="#1D1B1C" mask="url(#mask-40)"></path>
                </g>
                <g id="Group-66" transform="translate(149.000000, 281.000000)">
                    <mask id="mask-42" fill="white">
                        <use xlink:href="#path-41"></use>
                    </mask>
                    <g id="Clip-65"></g>
                    <path d="M204.7662,36.9384 L204.7642,36.9384 L204.7622,36.9384 L173.0042,36.9384 L173.0042,6.0044 C173.0522,5.7394 173.0812,5.4664 173.0812,5.1874 C173.0812,2.6824 171.0512,0.6524 168.5462,0.6524 L5.2712,0.6524 C2.7662,0.6524 0.7352,2.6824 0.7352,5.1874 L0.7352,22.5854 C0.6952,22.8294 0.6692,23.0764 0.6692,23.3314 C0.6692,25.8354 2.7002,27.8664 5.2042,27.8664 L77.8372,27.8664 C80.3422,27.8664 82.3732,25.8354 82.3732,23.3314 C82.3732,20.8264 80.3422,18.7954 77.8372,18.7954 L9.8062,18.7954 L9.8062,9.7224 L163.9332,9.7224 L163.9332,41.4724 C163.9332,43.6674 165.4932,45.4984 167.5652,45.9174 C167.8602,45.9774 168.1652,46.0094 168.4792,46.0094 L200.2302,46.0094 L200.2302,173.0004 L209.3012,173.0004 L209.3012,41.4744 C209.3012,38.9694 207.2712,36.9384 204.7662,36.9384" id="Fill-64" fill="#1D1B1C" mask="url(#mask-42)"></path>
                </g>
                <path d="M299.3385,426.787 L299.3385,426.787 L281.1965,426.787 C278.6925,426.787 276.6615,428.818 276.6615,431.323 L276.6615,454 L285.7325,454 L285.7325,435.858 L294.8035,435.858 L294.8035,454 L303.8735,454 L303.8735,431.323 C303.8735,428.818 301.8435,426.787 299.3385,426.787" id="Fill-67" fill="#1D1B1C"></path>
                <path d="M335.6227,336.079 L303.8687,336.079 L303.8687,304.331 C303.8687,301.826 301.8377,299.795 299.3327,299.795 C299.3107,299.795 299.2907,299.799 299.2687,299.799 C299.2477,299.799 299.2267,299.795 299.2057,299.795 L244.9937,299.795 C244.9887,299.795 244.9837,299.795 244.9787,299.795 C242.4747,299.795 240.4437,301.825 240.4437,304.33 L240.4437,304.331 L240.4437,321.167 L208.7627,321.167 C206.2577,321.167 204.2267,323.197 204.2267,325.702 L204.2267,343.844 C204.2267,346.349 206.2577,348.379 208.7627,348.379 L263.0557,348.379 C263.3687,348.379 263.6747,348.348 263.9697,348.287 C264.2647,348.226 264.5497,348.138 264.8207,348.023 C265.4987,347.736 266.0927,347.289 266.5557,346.728 C266.7397,346.505 266.9037,346.263 267.0437,346.006 C267.1837,345.749 267.2987,345.476 267.3867,345.192 C267.5187,344.767 267.5907,344.313 267.5907,343.844 L267.5907,327.008 L276.6617,327.008 L276.6617,358.756 C276.6617,361.261 278.6917,363.291 281.1967,363.291 L312.9447,363.291 L312.9447,390.504 L303.8737,390.504 L303.8737,376.897 C303.8737,374.392 301.8437,372.362 299.3387,372.362 C299.3157,372.362 299.2947,372.365 299.2717,372.365 C299.2497,372.365 299.2277,372.362 299.2057,372.362 L281.0627,372.362 C278.5597,372.362 276.5277,374.392 276.5277,376.897 C276.5277,377.268 276.5777,377.627 276.6617,377.972 L276.6617,413.182 C276.6617,414.59 277.3047,415.849 278.3117,416.681 C278.7607,417.051 279.2797,417.336 279.8487,417.513 C280.1327,417.601 280.4287,417.662 280.7327,417.693 C280.8857,417.709 281.0407,417.717 281.1967,417.717 L312.9447,417.717 L312.9447,454 L322.0167,454 L322.0167,413.182 C322.0167,410.676 319.9847,408.645 317.4797,408.645 L285.7317,408.645 L285.7317,381.433 L294.8037,381.433 L294.8037,395.039 C294.8037,397.544 296.8337,399.575 299.3387,399.575 L317.4797,399.575 C319.9847,399.575 322.0167,397.544 322.0167,395.039 L322.0167,358.756 C322.0167,356.251 319.9847,354.221 317.4797,354.221 L285.7317,354.221 L285.7317,322.473 C285.7317,319.968 283.7017,317.937 281.1967,317.937 L263.0557,317.937 C260.5507,317.937 258.5197,319.968 258.5197,322.473 L258.5197,339.308 L213.2977,339.308 L213.2977,330.237 L244.9787,330.237 C247.4837,330.237 249.5157,328.207 249.5157,325.702 L249.5157,308.866 L294.7977,308.866 L294.7977,340.614 C294.7977,343.119 296.8277,345.149 299.3327,345.149 L299.3357,345.149 L299.3387,345.149 L331.0827,345.149 L331.0827,454 L340.1537,454 L340.1537,340.689 C340.1537,340.664 340.1577,340.64 340.1577,340.614 C340.1577,338.109 338.1277,336.079 335.6227,336.079" id="Fill-69" fill="#1D1B1C"></path>
                <g id="Group-73" transform="translate(0.000000, 49.000000)">
                    <mask id="mask-44" fill="white">
                        <use xlink:href="#path-43"></use>
                    </mask>
                    <g id="Clip-72"></g>
                    <path d="M449.0084,367.4101 C449.0084,364.9051 446.9784,362.8751 444.4734,362.8751 L444.4724,362.8751 L430.8654,362.8751 L430.8654,353.8041 L444.4724,353.8041 C446.3144,353.8041 447.8964,352.7051 448.6064,351.1281 C449.0494,350.4281 449.3104,349.5991 449.3104,348.7091 L449.3104,330.5671 C449.3104,328.0621 447.2794,326.0321 444.7744,326.0321 C444.7234,326.0321 444.6734,326.0381 444.6234,326.0401 C444.5724,326.0381 444.5234,326.0321 444.4724,326.0321 L430.8654,326.0321 L430.8654,317.0041 L443.6324,317.0041 C443.9044,317.0551 444.1854,317.0851 444.4724,317.0851 C446.9774,317.0851 449.0084,315.0551 449.0084,312.5501 L449.0084,294.4081 C449.0084,291.9031 446.9774,289.8721 444.4724,289.8721 L430.8654,289.8721 L430.8654,280.8021 L444.4724,280.8021 C446.9774,280.8021 449.0084,278.7701 449.0084,276.2651 L449.0084,258.1241 C449.0084,255.6191 446.9774,253.5891 444.4724,253.5891 L430.8654,253.5891 L430.8654,244.5171 L444.4724,244.5171 C446.9774,244.5171 449.0084,242.4871 449.0084,239.9821 L449.0084,221.8411 C449.0084,219.3361 446.9774,217.3061 444.4724,217.3061 L430.8674,217.3061 L430.8674,200.9051 C430.8674,200.8421 430.8674,200.7771 430.8614,200.7141 C430.7614,198.2981 428.7714,196.3681 426.3294,196.3681 L213.1644,196.3681 L213.1644,40.8711 C213.1644,40.8681 213.1654,40.8641 213.1654,40.8601 C213.1654,40.4691 213.1114,40.0921 213.0174,39.7301 C212.8624,39.1231 212.5864,38.5671 212.2134,38.0871 C212.0964,37.9361 211.9724,37.7901 211.8364,37.6551 C211.6174,37.4351 211.3744,37.2411 211.1134,37.0701 C211.0904,37.0551 211.0664,37.0411 211.0424,37.0271 C210.9344,36.9581 210.8234,36.8931 210.7094,36.8341 C210.6594,36.8081 210.6084,36.7851 210.5574,36.7611 C210.4664,36.7181 210.3744,36.6781 210.2794,36.6411 C210.2164,36.6161 210.1524,36.5931 210.0864,36.5701 C210.0014,36.5411 209.9144,36.5151 209.8274,36.4921 C209.7554,36.4721 209.6834,36.4521 209.6094,36.4351 C209.5234,36.4171 209.4364,36.4031 209.3494,36.3891 C209.2724,36.3771 209.1964,36.3621 209.1184,36.3541 C209.0184,36.3431 208.9154,36.3401 208.8134,36.3361 C208.7514,36.3331 208.6924,36.3251 208.6294,36.3251 L13.6064,36.3251 L13.6064,4.5781 C13.6064,4.5771 13.6074,4.5771 13.6074,4.5761 C13.6074,2.7521 12.5274,1.1851 10.9764,0.4651 C10.3964,0.1961 9.7524,0.0411 9.0714,0.0411 C9.0694,0.0411 9.0684,0.0411 9.0664,0.0411 L-0.0006,0.0411 L-0.0006,9.1141 L4.5354,9.1141 L4.5354,40.8601 C4.5354,43.3651 6.5664,45.3961 9.0714,45.3961 L204.0964,45.3961 L204.0964,200.9021 C204.0964,203.4081 206.1244,205.4401 208.6304,205.4401 L421.7954,205.4401 L421.7954,221.8401 C421.7954,222.0591 421.8164,222.2731 421.8464,222.4841 C421.9024,222.8761 422.0024,223.2541 422.1524,223.6061 C422.3814,224.1491 422.7134,224.6391 423.1234,225.0501 C423.9464,225.8691 425.0784,226.3781 426.3294,226.3781 C426.3394,226.3781 426.3494,226.3761 426.3584,226.3761 L439.9374,226.3761 L439.9374,235.4471 L426.3304,235.4471 C423.8254,235.4471 421.7954,237.4771 421.7954,239.9821 L421.7954,258.1241 C421.7954,260.6291 423.8254,262.6601 426.3304,262.6601 L439.9374,262.6601 L439.9374,271.7301 L426.3304,271.7301 C423.8254,271.7301 421.7954,273.7611 421.7954,276.2651 L421.7954,294.4081 C421.7954,296.9131 423.8254,298.9431 426.3304,298.9431 L439.9374,298.9431 L439.9374,307.9331 L426.3304,307.9331 C423.8254,307.9331 421.7954,309.9641 421.7954,312.4691 L421.7954,330.5671 L421.7954,330.6101 C421.7954,333.1151 423.8254,335.1451 426.3304,335.1451 C426.5304,335.1451 426.7274,335.1281 426.9204,335.1031 L440.2384,335.1031 L440.2384,344.7331 L426.3304,344.7331 C423.8254,344.7331 421.7954,346.7641 421.7954,349.2681 L421.7954,367.4101 C421.7954,369.9151 423.8254,371.9461 426.3304,371.9461 L439.9384,371.9461 L439.9384,385.4271 C439.9364,385.4701 439.9314,385.5121 439.9314,385.5561 C439.9314,388.0571 441.9634,390.0901 444.4654,390.0901 L453.5434,390.0901 L453.5434,381.0171 L449.0084,381.0171 L449.0084,367.4101 Z" id="Fill-71" fill="#1D1B1C" mask="url(#mask-44)"></path>
                </g>
                <g id="Group-76" transform="translate(439.000000, 212.000000)">
                    <mask id="mask-46" fill="white">
                        <use xlink:href="#path-45"></use>
                    </mask>
                    <g id="Clip-75"></g>
                    <path d="M0.9362,4.853 L0.9362,40.265 C0.9362,41.516 1.4452,42.651 2.2642,43.471 C3.0862,44.293 4.2192,44.799 5.4742,44.799 C7.9762,44.799 10.0082,42.77 10.0082,40.265 L10.0082,9.388 L14.5432,9.388 L14.5432,0.319 L5.4742,0.319 C2.9682,0.319 0.9362,2.348 0.9362,4.853" id="Fill-74" fill="#1D1B1C" mask="url(#mask-46)"></path>
                </g>
                <path d="M371.9039,299.7958 L340.1559,299.7958 L340.1559,268.0798 C340.1559,268.0738 340.1549,268.0678 340.1549,268.0628 C340.1549,268.0558 340.1559,268.0498 340.1559,268.0438 C340.1559,265.5388 338.1259,263.5088 335.6209,263.5088 L135.9979,263.5088 C133.4929,263.5088 131.4619,265.5388 131.4619,268.0438 L131.4619,268.0448 L131.4619,325.7018 C131.4619,328.2068 133.4929,330.2368 135.9979,330.2368 C136.0079,330.2368 136.0179,330.2358 136.0299,330.2358 C136.0409,330.2358 136.0509,330.2368 136.0619,330.2368 L186.0219,330.2368 L186.0219,339.3088 L154.2709,339.3088 C151.7659,339.3088 149.7349,341.3388 149.7349,343.8438 L149.7349,379.3858 C149.6959,379.6278 149.6699,379.8748 149.6699,380.1278 C149.6699,382.6328 151.6999,384.6628 154.2049,384.6628 L154.2709,384.6628 L172.3459,384.6628 C174.8509,384.6628 176.8829,382.6328 176.8829,380.1278 L176.8829,366.5218 L222.2359,366.5218 L222.2359,417.5138 C222.2359,417.5478 222.2409,417.5808 222.2419,417.6148 C222.2409,417.6498 222.2359,417.6828 222.2359,417.7168 C222.2359,420.2218 224.2669,422.2518 226.7719,422.2518 L244.9139,422.2518 C247.4189,422.2518 249.4489,420.2218 249.4489,417.7168 L249.4489,366.5218 L258.5199,366.5218 L258.5199,453.9998 L267.5909,453.9998 L267.5909,361.9858 C267.5909,359.4818 265.5599,357.4508 263.0549,357.4508 L244.9139,357.4508 C242.4089,357.4508 240.3779,359.4818 240.3779,361.9858 C240.3779,362.0208 240.3829,362.0538 240.3829,362.0878 C240.3829,362.1218 240.3779,362.1548 240.3779,362.1898 L240.3779,413.1818 L231.3069,413.1818 L231.3069,361.9858 C231.3069,359.4818 229.2769,357.4508 226.7719,357.4508 L172.3459,357.4508 C169.8419,357.4508 167.8109,359.4818 167.8109,361.9858 L167.8109,375.5928 L158.8059,375.5928 L158.8059,348.3788 L190.6199,348.3788 C193.1249,348.3788 195.1559,346.3488 195.1559,343.8438 C195.1559,343.5978 195.1309,343.3578 195.0919,343.1208 L195.0919,326.4248 C195.1309,326.1898 195.1559,325.9488 195.1559,325.7018 C195.1559,323.1968 193.1249,321.1668 190.6199,321.1668 L190.5569,321.1668 L140.5329,321.1668 L140.5329,272.5788 L331.0859,272.5788 L331.0859,304.2958 C331.0859,306.0348 332.0659,307.5438 333.5039,308.3048 C334.1509,308.6618 334.8959,308.8658 335.6879,308.8658 L367.3689,308.8658 L367.3689,453.9998 L376.4389,453.9998 L376.4389,304.3308 C376.4389,301.8258 374.4089,299.7958 371.9039,299.7958" id="Fill-77" fill="#1D1B1C"></path>
                <g id="Group-81" transform="translate(58.000000, 0.000000)">
                    <mask id="mask-48" fill="white">
                        <use xlink:href="#path-47"></use>
                    </mask>
                    <g id="Clip-80"></g>
                    <path d="M5.4977,39.9736 C5.5067,39.9736 5.5137,39.9706 5.5227,39.9706 L73.5287,39.9706 L73.5287,71.7176 C73.5287,74.2236 75.5587,76.2546 78.0627,76.2546 L114.3457,76.2546 C116.8517,76.2546 118.8827,74.2236 118.8827,71.7176 L118.8827,53.5766 C118.8827,51.0716 116.8517,49.0426 114.3457,49.0426 L100.7387,49.0426 L100.7387,39.9706 L114.3457,39.9706 C116.8517,39.9706 118.8827,37.9416 118.8827,35.4356 C118.8827,34.1816 118.3737,33.0486 117.5557,32.2296 C116.7317,31.4106 115.5967,30.9016 114.3457,30.9016 L96.2047,30.9016 C93.6987,30.9016 91.6697,32.9306 91.6697,35.4356 L91.6697,53.5766 C91.6697,54.8276 92.1787,55.9636 92.9977,56.7836 C93.8167,57.6056 94.9497,58.1106 96.2047,58.1106 L109.8107,58.1106 L109.8107,67.1826 L82.5987,67.1826 L82.5987,35.4356 C82.5987,34.1816 82.0927,33.0486 81.2697,32.2296 C80.4507,31.4106 79.3147,30.9016 78.0627,30.9016 L10.0317,30.9016 L10.0317,0.4566 L0.9597,0.4566 L0.9597,35.4356 C0.9597,37.9416 2.9917,39.9736 5.4977,39.9736" id="Fill-79" fill="#1D1B1C" mask="url(#mask-48)"></path>
                </g>
                <path d="M11.6051,448.9326 C10.8811,448.4446 10.0081,448.1586 9.0691,448.1586 L0.0001,448.1586 L0.0001,453.9996 L4.5361,453.9996 L13.6061,453.9996 L13.6061,452.6956 C13.6061,451.1286 12.8121,449.7476 11.6051,448.9326" id="Fill-82" fill="#1D1B1C"></path>
                <g id="Group-86" transform="translate(95.000000, 366.000000)">
                    <mask id="mask-50" fill="white">
                        <use xlink:href="#path-49"></use>
                    </mask>
                    <g id="Clip-85"></g>
                    <path d="M22.9215,0.5214 L22.9215,0.5214 L4.7795,0.5214 C4.7575,0.5214 4.7355,0.5244 4.7135,0.5254 C4.6925,0.5244 4.6695,0.5214 4.6485,0.5214 C2.1435,0.5214 0.1115,2.5524 0.1115,5.0574 L0.1115,50.4114 L0.1115,88.0004 L9.1835,88.0004 L9.1835,50.4114 L9.1835,9.5924 L18.3865,9.5924 L18.3865,50.4114 L18.3865,88.0004 L27.4565,88.0004 L27.4565,50.4114 L27.4565,5.0574 C27.4565,2.5524 25.4265,0.5214 22.9215,0.5214" id="Fill-84" fill="#1D1B1C" mask="url(#mask-50)"></path>
                </g>
                <path d="M154.2164,411.8759 L154.2164,411.8759 L154.2104,411.8759 L154.2044,411.8759 L136.0634,411.8759 C133.5584,411.8759 131.5284,413.9059 131.5284,416.4109 L131.5284,453.9999 L140.5984,453.9999 L140.5984,420.9469 L149.6814,420.9469 L149.6814,453.9999 L158.7524,453.9999 L158.7524,416.4109 C158.7524,413.9059 156.7214,411.8759 154.2164,411.8759" id="Fill-87" fill="#1D1B1C"></path>
                <path d="M81.6383,398.2695 L63.4953,398.2695 C60.9913,398.2695 58.9603,400.3005 58.9603,402.8045 L58.9603,453.9995 L68.0323,453.9995 L68.0323,407.3405 L77.1023,407.3405 L77.1023,416.4115 L77.1023,453.9995 L86.1733,453.9995 L86.1733,416.4115 L86.1733,403.0705 C86.1733,403.0255 86.1673,402.9825 86.1663,402.9375 C86.1673,402.8935 86.1733,402.8495 86.1733,402.8045 C86.1733,400.3005 84.1433,398.2695 81.6383,398.2695" id="Fill-89" fill="#1D1B1C"></path>
                <g id="Group-93" transform="translate(22.000000, 357.000000)">
                    <mask id="mask-52" fill="white">
                        <use xlink:href="#path-51"></use>
                    </mask>
                    <g id="Clip-92"></g>
                    <path d="M23.3541,0.4511 L5.2121,0.4511 C2.7081,0.4511 0.6771,2.4811 0.6771,4.9861 L0.6771,97.0001 L9.7491,97.0001 L9.7491,9.5211 L18.8191,9.5211 L18.8191,95.6961 L18.8191,97.0001 L27.8901,97.0001 L27.8901,95.6961 L27.8901,4.9861 C27.8901,2.4811 25.8591,0.4511 23.3541,0.4511" id="Fill-91" fill="#1D1B1C" mask="url(#mask-52)"></path>
                </g>
                <g id="Group-96" transform="translate(0.000000, 121.000000)">
                    <mask id="mask-54" fill="white">
                        <use xlink:href="#path-53"></use>
                    </mask>
                    <g id="Clip-95"></g>
                    <path d="M77.2164,131.5097 C77.1884,131.7147 77.1684,131.9227 77.1684,132.1357 C77.1684,134.6407 79.1984,136.6717 81.7034,136.6717 L99.8454,136.6717 C100.2124,136.6717 100.5684,136.6227 100.9104,136.5407 C103.0054,136.1407 104.5904,134.3007 104.5904,132.0877 L104.5904,77.7107 C104.5904,75.2057 102.5604,73.1757 100.0554,73.1757 L86.3444,73.1757 L86.3444,64.1047 L100.0554,64.1047 C102.5604,64.1047 104.5904,62.0737 104.5904,59.5697 L104.5904,5.1437 C104.5904,2.6387 102.5604,0.6087 100.0554,0.6087 L100.0544,0.6087 L-0.0006,0.6087 L-0.0006,9.6797 L95.5194,9.6797 L95.5194,55.0337 L81.9124,55.0337 C81.8954,55.0337 81.8784,55.0357 81.8614,55.0357 C81.8434,55.0357 81.8254,55.0337 81.8084,55.0337 C79.3034,55.0337 77.2734,57.0647 77.2734,59.5697 L77.2734,77.7107 C77.2734,80.2157 79.3034,82.2467 81.8084,82.2467 C81.8254,82.2467 81.8434,82.2437 81.8614,82.2437 C81.8784,82.2437 81.8954,82.2467 81.9124,82.2467 L95.5194,82.2467 L95.5194,127.6007 L86.2874,127.6007 L86.2874,95.8527 C86.2874,93.3477 84.2564,91.3177 81.7524,91.3177 L-0.0006,91.3177 L-0.0006,100.3877 L77.2164,100.3877 L77.2164,131.5097 Z" id="Fill-94" fill="#1D1B1C" mask="url(#mask-54)"></path>
                </g>
                <g id="Group-99" transform="translate(0.000000, 139.000000)">
                    <mask id="mask-56" fill="white">
                        <use xlink:href="#path-55"></use>
                    </mask>
                    <g id="Clip-98"></g>
                    <path d="M81.8082,27.9628 C84.3132,27.9628 86.3442,25.9318 86.3442,23.4268 L86.3442,5.2858 C86.3442,2.7808 84.3132,0.7508 81.8082,0.7508 L-0.0008,0.7508 L-0.0008,9.8208 L77.2732,9.8208 L77.2732,18.8918 L-0.0008,18.8918 L-0.0008,27.9628 L81.8082,27.9628 Z" id="Fill-97" fill="#1D1B1C" mask="url(#mask-56)"></path>
                </g>
                <g id="Group-102" transform="translate(0.000000, 176.000000)">
                    <mask id="mask-58" fill="white">
                        <use xlink:href="#path-57"></use>
                    </mask>
                    <g id="Clip-101"></g>
                    <path d="M64.1119,27.2465 C66.6169,27.2465 68.6479,25.2155 68.6479,22.7105 L68.6479,4.5695 C68.6479,2.0645 66.6169,0.0335 64.1119,0.0335 L-0.0001,0.0335 L-0.0001,9.1045 L59.5769,9.1045 L59.5769,18.1755 L-0.0001,18.1755 L-0.0001,27.2465 L64.1119,27.2465 Z" id="Fill-100" fill="#1D1B1C" mask="url(#mask-58)"></path>
                </g>
                <g id="Group-105" transform="translate(167.000000, 411.000000)">
                    <mask id="mask-60" fill="white">
                        <use xlink:href="#path-59"></use>
                    </mask>
                    <g id="Clip-104"></g>
                    <path d="M41.6295,37.1591 L28.1555,37.1591 L28.1555,5.4111 C28.1555,2.9061 26.1245,0.8761 23.6195,0.8761 C23.5985,0.8761 23.5765,0.8791 23.5545,0.8801 C23.5315,0.8791 23.5105,0.8761 23.4875,0.8761 L5.3525,0.8761 L5.3465,0.8761 C2.8415,0.8761 0.8115,2.9061 0.8115,5.4111 C0.8115,5.4511 0.8165,5.4891 0.8165,5.5291 L0.8165,43.0001 L9.8885,43.0001 L9.8885,9.9471 L19.0845,9.9471 L19.0845,40.6261 C19.0015,40.9701 18.9525,41.3261 18.9525,41.6951 C18.9525,42.1491 19.0215,42.5871 19.1455,43.0001 L45.9735,43.0001 L46.1655,43.0001 L46.1655,41.6951 C46.1655,39.1901 44.1355,37.1591 41.6295,37.1591" id="Fill-103" fill="#1D1B1C" mask="url(#mask-60)"></path>
                </g>
                <g id="Group-108" transform="translate(222.000000, 431.000000)">
                    <mask id="mask-62" fill="white">
                        <use xlink:href="#path-61"></use>
                    </mask>
                    <g id="Clip-107"></g>
                    <path d="M22.9137,0.3232 L22.9137,0.3232 L4.7717,0.3232 C2.2677,0.3232 0.2357,2.3532 0.2357,4.8582 L0.2357,21.6952 L0.2357,23.0002 L9.3077,23.0002 L9.3077,21.6952 L9.3077,9.3932 L18.3777,9.3932 L18.3777,21.6952 L18.3777,23.0002 L27.4487,23.0002 L27.4487,21.6952 L27.4487,4.8582 C27.4487,2.3532 25.4187,0.3232 22.9137,0.3232" id="Fill-106" fill="#1D1B1C" mask="url(#mask-62)"></path>
                </g>
                <g id="Group-111" transform="translate(0.000000, 268.000000)">
                    <mask id="mask-64" fill="white">
                        <use xlink:href="#path-63"></use>
                    </mask>
                    <g id="Clip-110"></g>
                    <path d="M208.7623,107.5927 L208.7623,107.5927 L190.6193,107.5927 C188.1153,107.5927 186.0843,109.6227 186.0843,112.1277 L186.0843,125.7327 L140.5983,125.7327 L140.5983,84.9167 C140.5983,84.8967 140.5953,84.8777 140.5953,84.8577 C140.5833,83.8697 140.2533,82.9617 139.7063,82.2227 C139.5733,82.0407 139.4293,81.8657 139.2703,81.7067 C138.4483,80.8877 137.3153,80.3787 136.0643,80.3787 C136.0593,80.3787 136.0543,80.3797 136.0493,80.3797 L81.6383,80.3797 L81.6373,80.3797 C79.1333,80.3797 77.1023,82.4107 77.1023,84.9157 L77.1023,84.9167 L77.1023,112.1277 L68.0323,112.1277 L68.0323,76.4967 C68.0323,73.9917 66.0003,71.9617 63.4953,71.9617 L31.7483,71.9617 L31.7483,4.5827 C31.7483,2.0777 29.7173,0.0467 27.2123,0.0467 L9.0893,0.0467 C9.0833,0.0467 9.0773,0.0467 9.0723,0.0467 C6.5673,0.0467 4.5343,2.0777 4.5343,4.5837 L4.5343,162.0177 L-0.0007,162.0177 L-0.0007,171.0897 L5.8853,171.0897 L9.1463,171.0897 C10.3973,171.0897 11.5303,170.5807 12.3523,169.7617 C12.9893,169.1217 13.4403,168.2927 13.6073,167.3647 L13.6073,165.7417 L13.6073,9.1177 L22.6773,9.1177 L22.6773,76.4967 C22.6773,79.0017 24.7073,81.0317 27.2123,81.0317 L58.9603,81.0317 L58.9603,116.6627 C58.9603,119.1677 60.9913,121.1987 63.4953,121.1987 L81.6383,121.1987 C84.1433,121.1987 86.1733,119.1677 86.1733,116.6627 L86.1733,89.4507 L131.5273,89.4507 L131.5273,130.2707 C131.5273,132.7767 133.5583,134.8047 136.0643,134.8047 L190.4903,134.8047 C190.5103,134.8047 190.5313,134.8017 190.5513,134.8017 C190.5753,134.8017 190.5973,134.8047 190.6193,134.8047 C193.1243,134.8047 195.1563,132.7747 195.1563,130.2697 L195.1563,116.6627 L204.2263,116.6627 L204.2263,167.8587 C204.2263,170.3637 206.2573,172.3937 208.7623,172.3937 C211.2673,172.3937 213.2973,170.3637 213.2973,167.8587 L213.2973,112.1277 C213.2973,109.6227 211.2673,107.5927 208.7623,107.5927" id="Fill-109" fill="#1D1B1C" mask="url(#mask-64)"></path>
                </g>
            </g>
        </g>
    </g>
</svg>