<?xml version="1.0" encoding="UTF-8"?>
<svg width="454px" height="456px" viewBox="0 0 454 456" version="1.1" xmlns="http://www.w3.org/2000/svg" xmlns:xlink="http://www.w3.org/1999/xlink">
    <title>Pattern12</title>
    <defs>
        <polygon id="path-1" points="0 0.457 6.4319 0.457 6.4319 6.8885 0 6.8885"></polygon>
        <polygon id="path-3" points="0.01835 0.457 130.0626 0.457 130.0626 58.41485 0.01835 58.41485"></polygon>
        <polygon id="path-5" points="0.7001 0.457 13.3361 0.457 13.3361 4.89565 0.7001 4.89565"></polygon>
        <polygon id="path-7" points="0.81425 0.457 224.3505 0.457 224.3505 112.51915 0.81425 112.51915"></polygon>
        <polygon id="path-9" points="0.4574 0.457 13.4084 0.457 13.4084 5.09045 0.4574 5.09045"></polygon>
        <polygon id="path-11" points="0.2541 0.457 38.1902347 0.457 38.1902347 18.50255 0.2541 18.50255"></polygon>
        <polygon id="path-13" points="0.6056 0.457 40.4556 0.457 40.4556 18.4975624 0.6056 18.4975624"></polygon>
        <polygon id="path-15" points="0.6542 0.457 39.9842 0.457 39.9842 18.24275 0.6542 18.24275"></polygon>
        <polygon id="path-17" points="0.765123961 0.457 51.7718 0.457 51.7718 45.0672 0.765123961 45.0672"></polygon>
        <polygon id="path-19" points="0 0.457 124.64175 0.457 124.64175 71.36725 0 71.36725"></polygon>
        <polygon id="path-21" points="0 0.8412 113.56375 0.8412 113.56375 76.72245 0 76.72245"></polygon>
        <polygon id="path-23" points="0 0.2447 17.93075 0.2447 17.93075 38.0627 0 38.0627"></polygon>
        <polygon id="path-25" points="0.122340151 0.822878268 31.543 0.822878268 31.543 52.3559 0.122340151 52.3559"></polygon>
        <polygon id="path-27" points="0.58035 0.37945 58.543 0.37945 58.543 130.2897 0.58035 130.2897"></polygon>
        <polygon id="path-29" points="0.72635 0.8367 18.543 0.8367 18.543 40.2287 0.72635 40.2287"></polygon>
        <polygon id="path-31" points="0.680149894 0.457 18.543 0.457 18.543 33.5415 0.680149894 33.5415"></polygon>
        <polygon id="path-33" points="0.05845 0.836297714 71.543 0.836297714 71.543 129.9052 0.05845 129.9052"></polygon>
        <polygon id="path-35" points="0.74505 0.1754 45.543 0.1754 45.543 91.0640415 0.74505 91.0640415"></polygon>
        <polygon id="path-37" points="0.64285 0.0534 18.543 0.0534 18.543 39.0734 0.64285 39.0734"></polygon>
        <polygon id="path-39" points="0 0.786094328 59.47905 0.786094328 59.47905 46.9999 0 46.9999"></polygon>
        <polygon id="path-41" points="0.56545 0.06285 170.1897 0.06285 170.1897 98 0.56545 98"></polygon>
        <polygon id="path-43" points="0.6269 0.15125 40.0829 0.15125 40.0829 18 0.6269 18"></polygon>
        <polygon id="path-45" points="0.3055 0.7254 129.907956 0.7254 129.907956 99 0.3055 99"></polygon>
        <polygon id="path-47" points="0.1454 0.602 6.543 0.602 6.543 7 0.1454 7"></polygon>
    </defs>
    <g id="Page-1" stroke="none" stroke-width="1" fill="none" fill-rule="evenodd">
        <g id="Pattern12">
            <polygon id="Fill-1" fill="#242424" points="0 454.543 453.543 454.543 453.543 1 0 1"></polygon>
            <g id="Group-128" transform="translate(0.000000, 0.543000)">
                <path d="M36.061,123.4116 C36.079,123.4296 36.094,123.4496 36.112,123.4676 C37.883,125.2386 40.755,125.2386 42.526,123.4676 L82.08,83.9136 C82.645,83.3486 83.028,82.6696 83.233,81.9506 C83.818,80.3456 83.471,78.4766 82.183,77.1886 L69.422,64.4276 C67.65,62.6566 64.779,62.6566 63.008,64.4276 C63.005,64.4306 63.002,64.4336 62.999,64.4366 C62.997,64.4396 62.994,64.4416 62.991,64.4446 L40.081,87.3536 L0,47.2726 L0,60.1006 L36.862,96.9636 C36.864,96.9656 36.867,96.9666 36.869,96.9686 C36.871,96.9706 36.872,96.9736 36.874,96.9746 C38.645,98.7456 41.517,98.7456 43.288,96.9746 L66.215,74.0486 L72.666,80.4996 L39.319,113.8466 L0,74.5276 L0,87.3556 L36.005,123.3606 C36.023,123.3786 36.042,123.3936 36.061,123.4116" id="Fill-2" fill="#1D1B1C"></path>
                <path d="M3.2641,137.0561 L3.2641,137.0561 C5.0351,135.2851 5.0351,132.4131 3.2641,130.6421 L0.0001,127.3781 L0.0001,129.3161 L0.0001,140.3201 L3.2641,137.0561 Z" id="Fill-4" fill="#1D1B1C"></path>
                <path d="M3.2934,163.9775 C3.3034,163.9675 3.3144,163.9585 3.3254,163.9485 C5.0964,162.1775 5.0964,159.3055 3.3254,157.5345 L0.0004,154.2085 L0.0004,165.2705 L0.0004,167.2735 L3.2644,164.0105 C3.2744,163.9995 3.2834,163.9885 3.2934,163.9775" id="Fill-6" fill="#1D1B1C"></path>
                <path d="M29.5253,350.7949 C29.7053,350.6619 29.8803,350.5189 30.0433,350.3559 L40.3133,340.0859 L63.8333,363.6059 L63.8363,363.6079 C64.3343,364.1069 64.9213,364.4599 65.5443,364.6769 C67.1373,365.2339 68.9773,364.8809 70.2503,363.6079 C70.2553,363.6029 70.2603,363.5969 70.2653,363.5909 L83.4833,350.3739 C85.2543,348.6019 85.2573,345.7309 83.4853,343.9589 L43.5623,304.0349 C42.6773,303.1499 41.5143,302.7069 40.3533,302.7049 C39.1923,302.7069 38.0313,303.1479 37.1443,304.0349 C37.1393,304.0399 37.1353,304.0449 37.1303,304.0499 L26.8753,314.3069 L20.2103,307.6419 L43.5433,284.3089 C45.3133,282.5389 45.3133,279.6659 43.5413,277.8939 C43.5213,277.8739 43.5003,277.8569 43.4793,277.8379 C43.4613,277.8189 43.4453,277.7979 43.4263,277.7789 L33.1553,267.5079 L43.2773,257.3859 C45.0493,255.6139 45.0493,252.7449 43.2773,250.9729 L29.7213,237.4169 C28.8353,236.5299 27.6763,236.0869 26.5153,236.088893 C26.0783,236.088893 25.6393,236.1519 25.2163,236.2789 C24.5143,236.4859 23.8543,236.8669 23.3003,237.4199 L0.0003,260.7209 L0.0003,271.8029 L0.0003,273.8319 L7.0033,280.8339 L0.0003,287.8369 L0.0003,300.6649 L16.6243,284.0409 C18.3953,282.2699 18.3953,279.3989 16.6243,277.6269 C16.6103,277.6139 16.5963,277.6029 16.5823,277.5899 C16.5693,277.5759 16.5583,277.5619 16.5453,277.5479 L6.2733,267.2759 L26.5143,247.0349 L33.6593,254.1789 L23.5493,264.2889 C23.5453,264.2939 23.5393,264.2969 23.5353,264.3019 C23.5303,264.3059 23.5263,264.3119 23.5223,264.3159 L23.4723,264.3659 C22.5853,265.2529 22.1413,266.4119 22.1413,267.5749 C22.1413,268.7329 22.5853,269.8969 23.4693,270.7809 C23.6913,271.0029 23.9303,271.1959 24.1823,271.3629 L33.9213,281.1019 L10.5883,304.4329 C9.7023,305.3199 9.2603,306.4809 9.2603,307.6399 C9.2633,308.7999 9.7043,309.9619 10.5883,310.8459 L23.6603,323.9169 C23.6633,323.9199 23.6663,323.9229 23.6693,323.9269 C24.5323,324.7899 25.6573,325.2289 26.7883,325.2509 C26.8173,325.2519 26.8473,325.2549 26.8763,325.2549 C28.0343,325.2549 29.1953,324.8139 30.0823,323.9269 C30.0833,323.9269 30.0833,323.9259 30.0833,323.9259 L40.3533,313.6559 L73.8643,347.1679 L67.0443,353.9879 L43.5203,330.4649 L43.4943,330.4389 C41.7233,328.6679 38.8523,328.6679 37.0803,330.4389 C36.9483,330.5709 36.8293,330.7109 36.7173,330.8539 L26.5853,340.9859 L0.0003,314.3999 L0.0003,327.2289 L23.3503,350.5789 C25.0453,352.2739 27.7433,352.3419 29.5253,350.7949" id="Fill-8" fill="#1D1B1C"></path>
                <path d="M0.9233,192.2094 C1.7803,192.0434 2.5993,191.6284 3.2643,190.9644 L3.2643,190.9634 L30.2843,163.9434 C30.2913,163.9374 30.2973,163.9294 30.3043,163.9214 C30.3113,163.9144 30.3193,163.9084 30.3273,163.9014 C32.0983,162.1294 32.0963,159.2584 30.3273,157.4884 L19.3093,146.4714 L29.4063,136.3754 C29.4183,136.3634 29.4273,136.3504 29.4393,136.3384 C29.4443,136.3324 29.4513,136.3284 29.4573,136.3224 C31.2283,134.5514 31.2283,131.6794 29.4573,129.9084 L0.0003,100.4514 L0.0003,113.2794 L19.8363,133.1154 L9.6883,143.2624 C7.9173,145.0344 7.9193,147.9054 9.6883,149.6754 L20.7063,160.6934 L0.0563,181.3424 L0.0003,181.2864 L0.0003,192.2904 C0.0193,192.2904 0.0383,192.2924 0.0563,192.2924 C0.3473,192.2924 0.6373,192.2654 0.9233,192.2094" id="Fill-10" fill="#1D1B1C"></path>
                <path d="M2.872,243.5605 L83.001,163.4315 C84.772,161.6605 84.772,158.7895 83.001,157.0175 C82.808,156.8245 82.599,156.6565 82.383,156.5055 C82.231,156.2885 82.063,156.0805 81.87,155.8865 L72.315,146.3325 L108.865,109.7835 C110.636,108.0125 110.636,105.1405 108.865,103.3695 C108.788,103.2915 108.706,103.2225 108.625,103.1525 C108.555,103.0715 108.486,102.9905 108.409,102.9135 L95.648,90.1525 L95.647,90.1515 C94.762,89.2665 93.601,88.8235 92.44,88.8235 C91.28,88.8235 90.119,89.2665 89.233,90.1515 L89.233,90.1525 L36.26,143.1255 C34.489,144.8965 34.489,147.7685 36.26,149.5395 L36.26,149.5395 L46.945,160.2245 L0,207.1695 L0,218.3275 L0,218.3685 C1.072,218.3075 2.126,217.8715 2.946,217.0525 C2.953,217.0455 2.959,217.0375 2.966,217.0295 C2.974,217.0225 2.982,217.0165 2.989,217.0095 L56.566,163.4315 C57.341,162.6565 57.777,161.6715 57.874,160.6595 C57.888,160.5155 57.895,160.3705 57.895,160.2245 C57.895,160.0795 57.888,159.9345 57.874,159.7895 C57.846,159.5005 57.791,159.2135 57.708,158.9335 C57.5,158.2325 57.12,157.5715 56.566,157.0175 L45.881,146.3325 L92.44,99.7725 L99.244,106.5765 L62.694,143.1255 C62.251,143.5685 61.919,144.0795 61.698,144.6255 C61.532,145.0355 61.428,145.4645 61.387,145.8975 C61.359,146.1865 61.359,146.4775 61.387,146.7675 C61.428,147.2005 61.532,147.6295 61.698,148.0395 C61.919,148.5845 62.251,149.0965 62.694,149.5395 L73.38,160.2245 L0,233.6045 L0,244.8885 L0,244.8885 C1.04,244.8085 2.061,244.3725 2.857,243.5775 C2.862,243.5715 2.867,243.5655 2.872,243.5605" id="Fill-12" fill="#1D1B1C"></path>
                <g id="Group-16">
                    <mask id="mask-2" fill="white">
                        <use xlink:href="#path-1"></use>
                    </mask>
                    <g id="Clip-15"></g>
                    <polygon id="Fill-14" fill="#1D1B1C" mask="url(#mask-2)" points="-0.0001 0.4565 -0.0001 6.8885 6.4319 0.4565"></polygon>
                </g>
                <g id="Group-19" transform="translate(115.000000, 0.000000)">
                    <mask id="mask-4" fill="white">
                        <use xlink:href="#path-3"></use>
                    </mask>
                    <g id="Clip-18"></g>
                    <path d="M15.1166,3.8276 C15.1386,3.8496 15.1636,3.8696 15.1866,3.8906 C15.2086,3.9136 15.2276,3.9386 15.2506,3.9606 L24.8046,13.5156 L1.3466,36.9736 C-0.4244,38.7446 -0.4244,41.6166 1.3466,43.3876 C1.3526,43.3926 1.3596,43.3976 1.3656,43.4036 C1.3706,43.4096 1.3756,43.4156 1.3816,43.4216 L15.0456,57.0866 C16.8176,58.8576 19.6886,58.8576 21.4596,57.0866 C21.6246,56.9216 21.7686,56.7446 21.9026,56.5636 C21.9746,56.4996 22.0476,56.4386 22.1166,56.3706 L58.3656,20.1216 L82.1116,43.8686 L82.1126,43.8686 C82.4956,44.2526 82.9326,44.5476 83.3966,44.7656 C83.5486,44.8356 83.7036,44.8986 83.8616,44.9526 C84.1756,45.0606 84.4996,45.1336 84.8266,45.1696 C84.9906,45.1876 85.1546,45.1976 85.3196,45.1976 C85.8636,45.1976 86.4076,45.0996 86.9236,44.9056 C87.0956,44.8406 87.2636,44.7646 87.4286,44.6786 C87.8236,44.4706 88.1946,44.2006 88.5266,43.8686 L128.7336,3.6606 L128.7346,3.6606 C129.0106,3.3836 129.2446,3.0806 129.4346,2.7586 C129.6246,2.4356 129.7716,2.0956 129.8756,1.7446 C129.9586,1.4646 130.0136,1.1776 130.0416,0.8886 C130.0556,0.7446 130.0626,0.6006 130.0626,0.4566 L119.1106,0.4566 L85.3196,34.2476 L61.5726,10.5006 C61.2406,10.1686 60.8686,9.8986 60.4736,9.6906 C60.2606,9.5786 60.0386,9.4846 59.8136,9.4086 C58.2326,8.8776 56.4176,9.2416 55.1586,10.5006 L18.2226,47.4356 L10.9686,40.1806 L34.4256,16.7236 C34.4256,16.7226 34.4256,16.7226 34.4256,16.7226 C35.3116,15.8366 35.7546,14.6766 35.7546,13.5156 C35.7546,12.8676 35.6116,12.2216 35.3356,11.6216 C35.1846,11.2946 34.9926,10.9826 34.7616,10.6906 C34.6576,10.5586 34.5476,10.4306 34.4256,10.3076 L24.7376,0.6196 L24.9016,0.4566 L24.5746,0.4566 L13.9356,0.4566 L13.7956,0.4566 C13.7526,1.6716 14.1896,2.8996 15.1166,3.8276" id="Fill-17" fill="#1D1B1C" mask="url(#mask-4)"></path>
                </g>
                <g id="Group-22" transform="translate(153.000000, 0.000000)">
                    <mask id="mask-6" fill="white">
                        <use xlink:href="#path-5"></use>
                    </mask>
                    <g id="Clip-21"></g>
                    <path d="M3.6581,3.3984 C3.7091,3.4544 3.7561,3.5134 3.8111,3.5674 C5.5821,5.3384 8.4541,5.3384 10.2251,3.5674 L13.3361,0.4564 L11.2111,0.4564 L0.7001,0.4564 L3.4891,3.2454 C3.5431,3.2994 3.6011,3.3474 3.6581,3.3984" id="Fill-20" fill="#1D1B1C" mask="url(#mask-6)"></path>
                </g>
                <path d="M119.5497,126.8823 L130.1057,137.4383 L130.1067,137.4393 C131.8777,139.2103 134.7497,139.2103 136.5207,137.4393 L173.4947,100.4653 L180.3617,107.3323 L132.8027,154.8913 L121.9287,144.0173 C121.9237,144.0123 121.9177,144.0073 121.9117,144.0023 C121.9057,143.9963 121.9017,143.9893 121.8957,143.9843 C120.1247,142.2133 117.2527,142.2133 115.4817,143.9843 L105.9267,153.5383 L99.4107,147.0223 L119.5497,126.8823 Z M102.5947,163.0343 C102.6157,163.0553 102.6387,163.0733 102.6607,163.0933 C102.6817,163.1153 102.6987,163.1383 102.7197,163.1593 L102.7207,163.1593 C104.4917,164.9313 107.3627,164.9313 109.1337,163.1593 L118.6887,153.6053 L129.5937,164.5103 L129.5967,164.5133 C130.8897,165.8063 132.7667,166.1503 134.3747,165.5563 C134.9707,165.3373 135.5317,164.9913 136.0107,164.5133 C136.0117,164.5113 136.0127,164.5103 136.0147,164.5083 L188.3577,112.1653 L189.9847,110.5383 C190.8697,109.6533 191.3107,108.4923 191.3137,107.3323 C191.3137,106.1733 190.8717,105.0123 189.9847,104.1253 L176.7027,90.8433 C176.0367,90.1773 175.2167,89.7633 174.3597,89.5973 C172.9307,89.3213 171.3947,89.7363 170.2877,90.8433 L133.3137,127.8183 L122.7937,117.2993 C122.7877,117.2923 122.7807,117.2873 122.7747,117.2813 C122.7687,117.2753 122.7627,117.2673 122.7567,117.2613 C120.9857,115.4903 118.1137,115.4903 116.3427,117.2613 L89.8037,143.8003 C88.3597,145.2453 88.0937,147.4223 89.0057,149.1363 C89.2167,149.5453 89.4907,149.9303 89.8337,150.2733 L102.5947,163.0343 Z" id="Fill-23" fill="#1D1B1C"></path>
                <path d="M60.7123,294.7549 L70.5913,284.8759 C72.3603,283.1069 72.3603,280.2329 70.5913,278.4629 L68.1723,276.0449 L59.6133,267.4849 L93.6913,233.4069 L104.6693,244.3849 C106.0753,245.7909 108.1773,246.0759 109.8713,245.2459 C110.3083,245.0319 110.7193,244.7479 111.0833,244.3839 L121.0933,234.3739 L127.4413,240.7209 L107.6963,260.4669 L98.1423,250.9129 L98.1413,250.9119 C97.7173,250.4889 97.2313,250.1699 96.7123,249.9489 C96.6883,249.9389 96.6653,249.9249 96.6413,249.9159 C96.6123,249.9039 96.5823,249.8959 96.5533,249.8849 C94.9333,249.2659 93.0323,249.6049 91.7273,250.9099 L77.5423,265.0949 C75.7723,266.8649 75.7723,269.7389 77.5443,271.5099 C77.8083,271.7749 78.0993,271.9939 78.4053,272.1799 L87.1933,280.9679 L76.9383,291.2229 L76.9363,291.2249 C75.1663,292.9949 75.1663,295.8679 76.9383,297.6399 L78.9593,299.6609 L126.8653,347.5679 L117.3693,357.0639 C116.0973,358.8339 116.2583,361.3159 117.8513,362.9089 L128.1213,373.1789 L122.2203,379.0809 L101.7673,358.6279 L109.9703,350.4249 C111.7413,348.6529 111.7393,345.7819 109.9673,344.0099 L60.7123,294.7549 Z M92.1463,361.8319 L119.0143,388.6989 C119.2353,388.9209 119.4753,389.1159 119.7273,389.2809 C119.8513,389.3649 119.9803,389.4399 120.1133,389.5089 C120.1793,389.5439 120.2453,389.5769 120.3133,389.6089 C120.5143,389.7019 120.7203,389.7809 120.9303,389.8419 C121.3493,389.9659 121.7833,390.0299 122.2203,390.027001 C122.2933,390.027001 122.3653,390.027001 122.4373,390.0229 C122.5463,390.0189 122.6503,390.0089 122.7583,389.9959 L122.7633,389.9959 C122.8703,389.9839 122.9783,389.9659 123.0853,389.9459 C123.2293,389.9189 123.3703,389.8829 123.5103,389.8419 C123.6523,389.7989 123.7913,389.7519 123.9263,389.6969 C124.4713,389.4729 124.9833,389.1429 125.4263,388.6989 L137.7403,376.3859 C139.5123,374.6139 139.5123,371.7449 137.7403,369.9729 L127.5133,359.7449 L136.4863,350.7719 C138.2563,349.0019 138.2583,346.1299 136.4863,344.3589 L86.5593,294.4309 L96.8163,284.1739 C97.7033,283.2869 98.1453,282.1269 98.1453,280.9679 C98.1423,279.8069 97.7013,278.6469 96.8163,277.7619 C96.8133,277.7579 96.8093,277.7549 96.8053,277.7519 L87.2603,268.2069 L94.9343,260.5329 L104.4883,270.0879 L104.4883,270.0879 L104.4883,270.0879 C106.2603,271.8589 109.1313,271.8589 110.9033,270.0879 L137.0633,243.9279 C138.5873,242.4029 138.7963,240.0639 137.6963,238.3129 C137.5183,238.0289 137.3103,237.7599 137.0643,237.5139 L124.3023,224.7529 C123.4173,223.8679 122.2543,223.4239 121.0933,223.4219 C119.9323,223.4239 118.7723,223.8649 117.8843,224.7529 L107.8763,234.7619 L96.8993,223.7849 L96.8993,223.7849 C96.8933,223.7789 96.8873,223.7749 96.8823,223.7699 C96.7763,223.6649 96.6673,223.5659 96.5543,223.4739 C96.4923,223.4229 96.4263,223.3789 96.3623,223.3329 C96.3043,223.2899 96.2473,223.2429 96.1873,223.2039 C96.1353,223.1689 96.0803,223.1409 96.0263,223.1089 C95.9513,223.0639 95.8773,223.0159 95.8003,222.9749 C95.7803,222.9649 95.7593,222.9569 95.7403,222.9469 C94.0383,222.0849 91.9073,222.3619 90.4843,223.7849 L49.9913,264.2779 C48.9903,265.2789 48.5563,266.6319 48.6873,267.9389 C48.7873,268.9439 49.2213,269.9219 49.9913,270.6929 L60.9673,281.6699 L51.0913,291.5469 C49.3193,293.3179 49.3213,296.1899 51.0933,297.9609 L100.3483,347.2159 L92.1463,355.4189 C90.3743,357.1909 90.3743,360.0599 92.1463,361.8319 L92.1463,361.8319 Z" id="Fill-25" fill="#1D1B1C"></path>
                <path d="M92.7245,179.5698 L102.2785,189.1238 C104.0505,190.8948 106.9215,190.8948 108.6925,189.1238 L118.2475,179.5698 L129.6035,190.9258 C129.6055,190.9278 129.6085,190.9308 129.6105,190.9338 C130.5995,191.9218 131.9295,192.3568 133.2205,192.2418 C134.2435,192.1518 135.2415,191.7158 136.0245,190.9328 C136.0285,190.9288 136.0315,190.9248 136.0355,190.9218 L280.3065,46.6498 L287.1445,53.4878 L132.8665,207.7658 L122.4355,197.3358 C120.6645,195.5648 117.7935,195.5648 116.0215,197.3358 C116.0195,197.3388 116.0175,197.3408 116.0155,197.3438 C116.0135,197.3458 116.0105,197.3478 116.0075,197.3508 L106.4535,206.9048 L96.8985,197.3508 C96.4555,196.9078 95.9445,196.5758 95.3985,196.3538 C95.1255,196.2438 94.8445,196.1608 94.5575,196.1048 C94.2725,196.0498 93.9825,196.0218 93.6915,196.0218 C93.2565,196.0218 92.8215,196.0838 92.4005,196.2088 C91.6995,196.4168 91.0385,196.7968 90.4845,197.3508 L53.2815,234.5538 L45.5115,226.7828 L92.7245,179.5698 Z M35.8905,229.9898 L50.0745,244.1748 L50.0745,244.1748 C50.9605,245.0608 52.1205,245.5028 53.2815,245.5028 C54.4425,245.5028 55.6035,245.0608 56.4885,244.1748 L56.4895,244.1748 L93.6915,206.9718 L103.2465,216.5258 C105.0175,218.2968 107.8895,218.2968 109.6605,216.5258 L119.2295,206.9568 L129.6585,217.3858 C131.4295,219.1578 134.3015,219.1578 136.0725,217.3858 L136.0725,217.3858 C136.0995,217.3598 136.1225,217.3298 136.1485,217.3018 C136.1725,217.2788 136.1985,217.2588 136.2225,217.2358 L296.7655,56.6918 C298.5375,54.9198 298.5375,52.0508 296.7655,50.2788 L283.5155,37.0278 C282.6305,36.1438 281.4675,35.6997933 280.3085,35.6997933 C279.1485,35.6997933 277.9895,36.1418 277.1025,37.0278 L132.8185,181.3128 L121.4545,169.9488 C121.0115,169.5058 120.4995,169.1738 119.9535,168.9518 C119.6815,168.8408 119.3995,168.7578 119.1135,168.7028 C118.8275,168.6478 118.5375,168.6198 118.2475,168.6198 C117.8115,168.6198 117.3765,168.6828 116.9555,168.8068 C116.2545,169.0148 115.5935,169.3948 115.0405,169.9488 L115.0395,169.9488 L105.4855,179.5028 L95.9315,169.9488 C94.1605,168.1768 91.2885,168.1768 89.5175,169.9488 L35.8905,223.5758 C35.0045,224.4618 34.5615,225.6218 34.5615,226.7828 C34.5615,227.9438 35.0045,229.1048 35.8905,229.9898 Z" id="Fill-27" fill="#1D1B1C"></path>
                <g id="Group-31" transform="translate(74.000000, 0.000000)">
                    <mask id="mask-8" fill="white">
                        <use xlink:href="#path-7"></use>
                    </mask>
                    <g id="Clip-30"></g>
                    <path d="M126.0595,60.9419 L102.5725,37.4549 C102.2405,37.1229 101.8695,36.8529 101.4745,36.6449 C101.4645,36.6399 101.4555,36.6369 101.4455,36.6319 C100.7945,36.2959 100.0805,36.1269 99.3655,36.1269 C98.2045,36.1269 97.0435,36.5689 96.1585,37.4549 L59.3235,74.2889 L22.7645,37.7299 C22.6475,37.5799 22.5255,37.4339 22.3875,37.2959 C20.6165,35.5249 17.7455,35.5249 15.9735,37.2959 L15.9455,37.3249 L15.9455,37.3249 L3.2125,50.0579 C3.0295,50.2409 2.8705,50.4379 2.7255,50.6409 C2.5215,50.7859 2.3255,50.9449 2.1425,51.1279 C0.3715,52.8989 0.3715,55.7709 2.1425,57.5419 L55.7905,111.1909 C57.5615,112.9619 60.4335,112.9619 62.2055,111.1909 C62.2605,111.1339 62.3095,111.0739 62.3625,111.0159 C62.4205,110.9629 62.4805,110.9149 62.5365,110.8589 L99.5535,73.8409 L122.9115,97.1979 C123.2435,97.5299 123.6145,97.7999 124.0095,98.0079 C124.2235,98.1199 124.4435,98.2139 124.6695,98.2909 C126.2505,98.8219 128.0655,98.4579 129.3255,97.1979 C129.3255,97.1979 129.3255,97.1979 129.3265,97.1979 L222.7615,3.7629 C222.8065,3.7169 222.8455,3.6689 222.8885,3.6219 C222.9355,3.5789 222.9845,3.5389 223.0305,3.4939 C223.8725,2.6509 224.3085,1.5599 224.3505,0.4569 L224.0845,0.4569 L213.2385,0.4569 L126.1185,87.5769 L102.7605,64.2199 L102.7605,64.2199 C100.9895,62.4489 98.1185,62.4489 96.3465,64.2199 L58.9975,101.5689 L11.7635,54.3349 L19.1525,46.9459 L56.1165,83.9099 C57.8875,85.6809 60.7595,85.6809 62.5305,83.9099 L99.3655,47.0759 L122.7415,70.4519 C122.7595,70.4709 122.7805,70.4859 122.7995,70.5049 C122.8175,70.5239 122.8335,70.5449 122.8525,70.5629 C124.6235,72.3339 127.4955,72.3339 129.2665,70.5629 L195.8015,4.0279 C196.4025,3.4269 196.7945,2.6979 196.9875,1.9289 C197.1445,1.4519 197.2225,0.9549 197.2175,0.4569 L186.2165,0.4569 L186.3805,0.6209 L126.0595,60.9419 Z" id="Fill-29" fill="#1D1B1C" mask="url(#mask-8)"></path>
                </g>
                <g id="Group-34" transform="translate(420.000000, 0.000000)">
                    <mask id="mask-10" fill="white">
                        <use xlink:href="#path-9"></use>
                    </mask>
                    <g id="Clip-33"></g>
                    <path d="M3.6884,3.7622 C5.4594,5.5332 8.3314,5.5332 10.1024,3.7622 L13.4084,0.4562 L11.4624,0.4562 L0.4574,0.4562 L3.2634,3.2632 C3.3934,3.4362 3.5314,3.6052 3.6884,3.7622" id="Fill-32" fill="#1D1B1C" mask="url(#mask-10)"></path>
                </g>
                <path d="M307.0404,19.9174 L330.5274,43.4044 L330.5274,43.4044 C332.2984,45.1764 335.1704,45.1764 336.9414,43.4044 L360.0954,20.2514 L383.7124,43.8684 C385.4834,45.6404 388.3544,45.6404 390.1264,43.8684 L413.2084,20.7864 L420.4014,27.9794 L387.1714,61.2094 L363.5544,37.5914 C362.7794,36.8164 361.7944,36.3804 360.7824,36.2844 C359.4814,36.1594 358.1374,36.5954 357.1404,37.5914 L333.6604,61.0714 L299.7734,27.1854 L307.0404,19.9174 Z M289.8404,24.3224 C288.3874,26.1034 288.4914,28.7314 290.1524,30.3924 L330.4534,70.6934 C332.1134,72.3534 334.7414,72.4574 336.5224,71.0044 C336.6424,70.9074 336.7564,70.8034 336.8674,70.6924 L360.3474,47.2124 L383.8284,70.6924 C383.9394,70.8044 384.0544,70.9084 384.1744,71.0054 C385.9554,72.5864 388.6794,72.5284 390.3864,70.8224 L430.0224,31.1864 C431.7934,29.4154 431.7934,26.5434 430.0224,24.7714 C430.0004,24.7504 429.9774,24.7314 429.9544,24.7104 C429.9334,24.6884 429.9154,24.6644 429.8934,24.6424 L416.4154,11.1654 L416.4154,11.1654 C415.8624,10.6114 415.2014,10.2304 414.4994,10.0234 C414.0794,9.8984 413.6444,9.8364 413.2084,9.8364 C412.9184,9.8364 412.6284,9.8644 412.3424,9.9194 C412.0564,9.9754 411.7754,10.0584 411.5014,10.1684 C410.9564,10.3904 410.4444,10.7224 410.0014,11.1654 L386.9194,34.2474 L363.3024,10.6304 C362.5274,9.8554 361.5414,9.4194 360.5294,9.3224 C359.2284,9.1984 357.8844,9.6344 356.8884,10.6304 L333.7344,33.7834 L310.3054,10.3544 C308.8114,8.8604 306.5374,8.6324 304.7984,9.6584 C304.3764,9.8704 303.9804,10.1484 303.6294,10.5004 L290.1524,23.9774 C290.0414,24.0884 289.9374,24.2034 289.8404,24.3224 L289.8404,24.3224 Z" id="Fill-35" fill="#1D1B1C"></path>
                <g id="Group-39" transform="translate(367.000000, 0.000000)">
                    <mask id="mask-12" fill="white">
                        <use xlink:href="#path-11"></use>
                    </mask>
                    <g id="Clip-38"></g>
                    <path d="M23.3861,17.1743 L36.8631,3.6973 C37.7571,2.8033 38.1991,1.6293 38.1902347,0.4563 L27.2081,0.4563 L27.2421,0.4903 L20.1791,7.5533 L13.0821,0.4563 L0.2541,0.4563 L16.9721,17.1743 C18.7431,18.9453 21.6151,18.9453 23.3861,17.1743" id="Fill-37" fill="#1D1B1C" mask="url(#mask-12)"></path>
                </g>
                <g id="Group-42" transform="translate(313.000000, 0.000000)">
                    <mask id="mask-14" fill="white">
                        <use xlink:href="#path-13"></use>
                    </mask>
                    <g id="Clip-41"></g>
                    <path d="M17.3236,17.1743 C17.6986,17.5493 18.1256,17.8413 18.5796,18.0573 C18.7116,18.1203 18.8466,18.1743 18.9836,18.2233 C20.5876,18.8063 22.4516,18.4613 23.7376,17.1743 L23.7386,17.1733 L40.4556,0.4563 L27.6276,0.4563 L20.5306,7.5533 L13.4336,0.4563 L0.6056,0.4563 L17.3236,17.1743 Z" id="Fill-40" fill="#1D1B1C" mask="url(#mask-14)"></path>
                </g>
                <g id="Group-45" transform="translate(180.000000, 0.000000)">
                    <mask id="mask-16" fill="white">
                        <use xlink:href="#path-15"></use>
                    </mask>
                    <g id="Clip-44"></g>
                    <path d="M17.1122,16.9145 L17.1122,16.9145 C18.8832,18.6855 21.7552,18.6855 23.5262,16.9145 L39.9842,0.4565 L27.1562,0.4565 L20.3192,7.2935 L13.4822,0.4565 L0.6542,0.4565 L17.1122,16.9145 Z" id="Fill-43" fill="#1D1B1C" mask="url(#mask-16)"></path>
                </g>
                <g id="Group-48" transform="translate(8.000000, 0.000000)">
                    <mask id="mask-18" fill="white">
                        <use xlink:href="#path-17"></use>
                    </mask>
                    <g id="Clip-47"></g>
                    <path d="M2.1288,17.0512 L28.8158,43.7382 L28.8168,43.7382 C29.1488,44.0712 29.5198,44.3412 29.9148,44.5482 C30.0458,44.6172 30.1808,44.6792 30.3168,44.7352 C30.7268,44.9012 31.1548,45.0052 31.5888,45.0462 C31.8778,45.0742 32.1698,45.0742 32.4588,45.0462 C32.8918,45.0052 33.3208,44.9012 33.7308,44.7352 C33.8668,44.6792 34.0008,44.6172 34.1328,44.5482 C34.5278,44.3412 34.8988,44.0712 35.2308,43.7382 L47.9918,30.9772 C48.5458,30.4242 48.9258,29.7632 49.1338,29.0612 C49.2578,28.6412 49.3208,28.2052 49.3208,27.7702 C49.3208,27.4802 49.2928,27.1902 49.2368,26.9042 C49.1818,26.6182 49.0988,26.3372 48.9878,26.0642 C48.7668,25.5172 48.4348,25.0062 47.9918,24.5632 L37.8298,14.4012 L47.5098,4.7202 C47.5148,4.7152 47.5198,4.7082 47.5258,4.7032 L51.7718,0.4562 L38.9448,0.4562 L28.3338,11.0682 C28.3128,11.0892 28.2958,11.1122 28.2748,11.1342 C28.2528,11.1552 28.2298,11.1722 28.2088,11.1942 C26.4368,12.9652 26.4368,15.8362 28.2088,17.6082 L38.3708,27.7702 L32.0238,34.1172 L11.6418,13.7362 L24.9218,0.4562 L12.0938,0.4562 L2.0898,10.4612 C0.9468,11.6032 0.5458,13.2022 0.8778,14.6702 C1.0388,15.5422 1.4548,16.3772 2.1288,17.0512" id="Fill-46" fill="#1D1B1C" mask="url(#mask-18)"></path>
                </g>
                <g id="Group-51">
                    <mask id="mask-20" fill="white">
                        <use xlink:href="#path-19"></use>
                    </mask>
                    <g id="Clip-50"></g>
                    <path d="M4.3305,37.874 L36.4955,70.039 C38.2665,71.81 41.1385,71.81 42.9095,70.039 C42.9445,70.004 42.9735,69.967 43.0065,69.931 C43.0415,69.898 43.0795,69.869 43.1135,69.834 L82.7845,30.164 L82.7845,30.164 C83.4135,29.534 83.8195,28.766 84.0015,27.957 C84.0535,27.726 84.0875,27.491 84.1025,27.256 C84.1105,27.138 84.1135,27.02 84.1125,26.902 C84.1085,26.549 84.0625,26.195 83.9765,25.851 C83.8905,25.505 83.7625,25.168 83.5935,24.848 C83.3865,24.453 83.1165,24.082 82.7845,23.75 L82.7845,23.749 L82.7845,23.749 L72.8725,13.837 L79.8345,6.875 L103.4515,30.492 C105.2235,32.263 108.0945,32.263 109.8665,30.492 C109.9815,30.376 110.0895,30.255 110.1895,30.13 C110.3145,30.029 110.4355,29.922 110.5525,29.806 L123.2425,17.116 L123.3135,17.044 C125.0845,15.273 125.0845,12.402 123.3135,10.63 C123.0835,10.401 122.8345,10.203 122.5735,10.032 L121.2895,8.749 L112.9975,0.457 L100.1685,0.457 L113.6215,13.909 L106.6595,20.871 L86.2445,0.457 L84.3705,0.457 L73.4245,0.457 L63.2505,10.63 C61.4795,12.402 61.4795,15.273 63.2505,17.044 C63.3115,17.105 63.3755,17.158 63.4385,17.214 C63.4955,17.277 63.5485,17.342 63.6085,17.402 L73.1635,26.957 L39.7025,60.417 L10.7445,31.46 C10.7395,31.455 10.7345,31.451 10.7295,31.446 L-0.0005,20.716 L-0.0005,33.541 L4.3165,37.858 C4.3215,37.863 4.3255,37.869 4.3305,37.874" id="Fill-49" fill="#1D1B1C" mask="url(#mask-20)"></path>
                </g>
                <g id="Group-54" transform="translate(0.000000, 340.000000)">
                    <mask id="mask-22" fill="white">
                        <use xlink:href="#path-21"></use>
                    </mask>
                    <g id="Clip-53"></g>
                    <path d="M25.2055,62.2392 C25.2055,62.2392 25.2055,62.2402 25.2055,62.2402 C25.2065,62.2402 25.2075,62.2412 25.2075,62.2412 C26.9785,64.0132 29.8515,64.0132 31.6225,62.2412 L41.8925,51.9712 L65.2135,75.2942 C65.4555,75.5352 65.7195,75.7412 65.9965,75.9172 C67.7645,77.1402 70.2055,76.9682 71.7785,75.3942 L82.0485,65.1242 L92.3185,75.3942 C94.0905,77.1652 96.9615,77.1652 98.7325,75.3942 L112.2095,61.9172 C112.2145,61.9132 112.2175,61.9082 112.2225,61.9042 C112.2265,61.9002 112.2305,61.8962 112.2355,61.8922 C114.0065,60.1212 114.0065,57.2492 112.2355,55.4782 L85.3865,28.6292 C84.2785,27.5212 82.7405,27.1072 81.3095,27.3852 C80.4375,27.5452 79.6035,27.9612 78.9285,28.6362 L68.6585,38.9062 L45.1905,15.4372 C43.4185,13.6662 40.5475,13.6662 38.7765,15.4372 C38.6355,15.5782 38.5105,15.7272 38.3925,15.8802 L28.5105,25.7622 L4.9175,2.1702 L4.9175,2.1692 C4.2535,1.5052 3.4345,1.0902 2.5775,0.9242 C2.2915,0.8682 2.0005,0.8412 1.7105,0.8412 C1.2755,0.8412 0.8405,0.9032 0.4195,1.0282 C0.2775,1.0702 0.1385,1.1192 -0.0005,1.1752 L-0.0005,13.5012 L1.7105,11.7902 L25.3035,35.3832 L25.4015,35.4812 C27.1725,37.2532 30.0445,37.2532 31.8155,35.4812 C32.0835,35.2142 32.3055,34.9192 32.4925,34.6082 L42.0125,25.0882 L65.4515,48.5272 C65.8945,48.9702 66.4065,49.3022 66.9525,49.5232 C67.2255,49.6342 67.5065,49.7172 67.7925,49.7722 C67.9355,49.8002 68.0795,49.8212 68.2245,49.8352 C68.3685,49.8482 68.5135,49.8552 68.6585,49.8552 C69.0935,49.8552 69.5295,49.7932 69.9505,49.6692 C70.3005,49.5652 70.6415,49.4182 70.9635,49.2272 C71.2855,49.0372 71.5885,48.8042 71.8655,48.5272 L82.1605,38.2322 L102.6145,58.6852 L95.5255,65.7732 L85.2555,55.5032 C83.4845,53.7322 80.6135,53.7322 78.8415,55.5032 L68.5465,65.7982 L45.0995,42.3512 L45.0995,42.3502 C44.5455,41.7972 43.8845,41.4162 43.1835,41.2092 C42.7625,41.0842 42.3275,41.0222 41.8925,41.0222 C41.6015,41.0222 41.3115,41.0502 41.0255,41.1052 C40.7395,41.1602 40.4585,41.2432 40.1855,41.3542 C39.6395,41.5752 39.1275,41.9082 38.6845,42.3502 L28.4145,52.6202 L4.8615,29.0682 L4.8615,29.0672 C4.5295,28.7352 4.1585,28.4662 3.7635,28.2582 C3.4715,28.1042 3.1665,27.9852 2.8535,27.9002 C1.9155,27.6442 0.9125,27.6962 -0.0005,28.0532 L-0.0005,40.3432 L1.6545,38.6882 L25.2055,62.2392 Z" id="Fill-52" fill="#1D1B1C" mask="url(#mask-22)"></path>
                </g>
                <g id="Group-57" transform="translate(0.000000, 394.000000)">
                    <mask id="mask-24" fill="white">
                        <use xlink:href="#path-23"></use>
                    </mask>
                    <g id="Clip-56"></g>
                    <path d="M16.6025,23.2617 C18.3735,21.4907 18.3735,18.6187 16.6025,16.8477 L16.6015,16.8457 L16.5995,16.8447 L-0.0005,0.2447 L-0.0005,13.0737 L6.9815,20.0547 L-0.0005,27.0357 L-0.0005,38.0627 C1.1335,38.0427 2.2605,37.6037 3.1255,36.7387 L16.6025,23.2617 Z" id="Fill-55" fill="#1D1B1C" mask="url(#mask-24)"></path>
                </g>
                <g id="Group-60" transform="translate(422.000000, 35.000000)">
                    <mask id="mask-26" fill="white">
                        <use xlink:href="#path-25"></use>
                    </mask>
                    <g id="Clip-59"></g>
                    <path d="M19.8881,1.1679 C18.2431,0.4869 16.2801,0.8139 14.9441,2.1499 L1.4671,15.6269 C0.6581,16.4369 0.2221,17.4749 0.1521,18.5339 C0.0001,19.8609 0.4301,21.2419 1.4481,22.2609 L31.5431,52.3559 L31.5431,39.5279 L10.9691,18.9529 L18.1821,11.7399 L31.5431,25.1009 L31.5431,12.2729 L21.4601,2.1889 C20.9981,1.7279 20.4601,1.3889 19.8881,1.1679" id="Fill-58" fill="#1D1B1C" mask="url(#mask-26)"></path>
                </g>
                <g id="Group-63" transform="translate(395.000000, 62.000000)">
                    <mask id="mask-28" fill="white">
                        <use xlink:href="#path-27"></use>
                    </mask>
                    <g id="Clip-62"></g>
                    <path d="M21.8476,1.7607 C21.8306,1.7437 21.8166,1.7247 21.7996,1.7077 C20.0286,-0.0633 17.1576,-0.0633 15.3856,1.7077 L1.9086,15.1847 C0.1376,16.9557 0.1376,19.8277 1.9086,21.5987 C2.0006,21.6907 2.0976,21.7747 2.1946,21.8577 L52.1856,71.8487 L41.9776,82.0567 L41.9156,82.1187 C40.1446,83.8897 40.1446,86.7617 41.9156,88.5327 C42.1296,88.7467 42.3596,88.9327 42.6016,89.0947 L52.2476,98.7407 L41.9166,109.0727 L41.9156,109.0737 C40.1446,110.8437 40.1446,113.7157 41.9156,115.4877 L55.3926,128.9647 C56.2646,129.8357 57.4016,130.2757 58.5436,130.2897 L58.5436,119.2857 L51.5366,112.2797 L58.5436,105.2737 L58.5436,103.2707 L58.5436,92.2087 L51.5986,85.2637 L58.5436,78.3197 L58.5436,67.3167 L58.5436,65.3777 L11.5436,18.3787 L18.5926,11.3287 L58.5436,51.2797 L58.5436,38.4517 L21.9006,1.8077 C21.8836,1.7917 21.8646,1.7777 21.8476,1.7607" id="Fill-61" fill="#1D1B1C" mask="url(#mask-28)"></path>
                </g>
                <path d="M356.4867,144.6601 C354.7147,146.4321 354.7147,149.3061 356.4867,151.0771 L366.3407,160.9311 L359.1637,168.1091 L349.3087,158.2551 C347.5377,156.4831 344.6657,156.4811 342.8937,158.2521 L332.3017,168.8451 L271.9027,108.4441 L279.9577,100.3891 L330.3747,150.8061 C332.1437,152.5751 335.0177,152.5751 336.7867,150.8061 L360.3017,127.2911 L367.0787,134.0681 L356.4867,144.6601 Z M376.8037,130.9691 L363.3267,117.4921 C362.7387,116.9031 362.0277,116.5101 361.2787,116.3121 L361.2697,116.3121 C359.8417,116.0391 358.3107,116.4531 357.2037,117.5591 L333.5807,141.1821 L283.1647,90.7661 C281.3957,88.9971 278.5217,88.9971 276.7497,90.7681 C276.6947,90.8241 276.6457,90.8841 276.5927,90.9421 C276.5357,90.9941 276.4757,91.0421 276.4207,91.0981 L262.9437,104.5751 C262.8317,104.6871 262.7267,104.8031 262.6297,104.9231 C262.5097,105.0201 262.3937,105.1251 262.2817,105.2371 C260.5097,107.0081 260.5097,109.8821 262.2797,111.6511 L329.1997,178.5721 C330.9697,180.3411 333.8427,180.3411 335.6147,178.5701 L346.1027,168.0821 L355.9597,177.9381 C357.7287,179.7081 360.5997,179.7101 362.3717,177.9381 L376.1727,164.1381 C377.9417,162.3681 377.9417,159.4951 376.1727,157.7251 L366.3157,147.8691 L376.8037,137.3811 C378.5757,135.6091 378.5727,132.7381 376.8037,130.9691 L376.8037,130.9691 Z" id="Fill-64" fill="#1D1B1C"></path>
                <path d="M357.2773,91.103 C357.2463,91.134 357.2203,91.168 357.1903,91.2 C357.1583,91.23 357.1243,91.256 357.0933,91.288 L333.7483,114.632 L299.7313,80.615 L307.0023,73.344 L330.4223,96.763 C330.8643,97.206 331.3763,97.538 331.9223,97.759 C332.1953,97.87 332.4763,97.953 332.7623,98.008 C332.9053,98.036 333.0493,98.057 333.1943,98.071 C333.3393,98.084 333.4843,98.091 333.6293,98.091 C334.0643,98.091 334.4993,98.029 334.9203,97.905 C335.2713,97.801 335.6113,97.654 335.9333,97.463 C336.2553,97.273 336.5593,97.04 336.8363,96.763 L360.3603,73.238 L394.0683,106.946 L386.8013,114.213 L363.6923,91.103 C361.9203,89.332 359.0483,89.332 357.2773,91.103 M390.0183,123.844 C390.0833,123.779 390.1413,123.709 390.2013,123.641 L403.5093,110.333 C403.7553,110.087 403.9633,109.819 404.1403,109.537 C405.4023,107.766 405.2443,105.293 403.6553,103.704 L363.5883,63.638 C361.9053,61.954 359.2303,61.874 357.4473,63.391 C357.2833,63.515 357.1233,63.647 356.9733,63.797 L333.6293,87.142 L310.2103,63.723 L310.2103,63.723 C308.4383,61.952 305.5673,61.952 303.7963,63.723 L290.3193,77.2 C290.2833,77.235 290.2533,77.273 290.2193,77.31 C290.1833,77.343 290.1453,77.373 290.1103,77.408 C288.3393,79.179 288.3393,82.051 290.1103,83.822 L330.5413,124.253 C332.3123,126.024 335.1843,126.024 336.9553,124.253 L360.4853,100.724 L383.6043,123.844 C385.3753,125.615 388.2473,125.615 390.0183,123.844" id="Fill-66" fill="#1D1B1C"></path>
                <path d="M177.4047,358.1548 C177.2027,357.7878 176.9487,357.4408 176.6377,357.1288 C174.8657,355.3578 171.9947,355.3578 170.2237,357.1288 L170.0937,357.2588 L159.9537,367.3988 L152.9847,360.4298 L162.2237,351.1898 C162.5937,350.9878 162.9427,350.7328 163.2557,350.4198 C164.1767,349.4978 164.6147,348.2788 164.5767,347.0708 C164.6077,345.8708 164.1697,344.6608 163.2547,343.7458 C162.9427,343.4338 162.5957,343.1808 162.2287,342.9788 L115.8957,296.6458 L149.6317,262.9108 L156.6947,269.9738 L133.0217,293.6468 C132.6377,294.0298 132.3417,294.4668 132.1247,294.9308 C132.0267,295.1408 131.9457,295.3578 131.8807,295.5768 C131.4287,297.1158 131.8067,298.8458 133.0207,300.0608 L133.0217,300.0608 L197.0077,364.0468 L197.0077,364.0478 C198.2257,365.2648 199.9637,365.6458 201.5067,365.1888 C202.2077,364.9818 202.8687,364.6008 203.4227,364.0478 L203.4227,364.0468 L253.7207,313.7488 L313.6997,373.7288 L306.8257,380.6028 L256.8647,330.6428 C256.8617,330.6388 256.8597,330.6348 256.8557,330.6318 C256.5017,330.2778 256.1017,329.9978 255.6767,329.7848 C255.0407,329.4658 254.3447,329.3018 253.6477,329.3018 C252.4887,329.3018 251.3257,329.7458 250.4407,330.6308 C250.4347,330.6368 250.4297,330.6428 250.4247,330.6488 L200.1617,380.9118 L177.4047,358.1548 Z M200.8667,391.8068 C201.0637,391.7758 201.2597,391.7318 201.4527,391.6748 C202.1547,391.4668 202.8147,391.0868 203.3687,390.5328 L253.6497,340.2518 L303.6197,390.2218 C305.3917,391.9938 308.2607,391.9938 310.0327,390.2218 L323.3197,376.9358 C325.0917,375.1638 325.0927,372.2918 323.3217,370.5208 L256.9277,304.1268 C256.0437,303.2418 254.8807,302.7988 253.7217,302.7988 C253.2187,302.7988 252.7177,302.8868 252.2377,303.0538 C251.6087,303.2708 251.0157,303.6258 250.5127,304.1288 L200.2147,354.4258 L142.6417,296.8538 L166.1817,273.3138 C166.2037,273.2918 166.2227,273.2668 166.2447,273.2438 C166.2677,273.2218 166.2927,273.2028 166.3157,273.1808 C168.0867,271.4098 168.0867,268.5378 166.3157,266.7668 L152.8387,253.2898 C151.0667,251.5188 148.1957,251.5188 146.4247,253.2898 L146.4237,253.2898 L106.2747,293.4388 C104.5037,295.2108 104.5037,298.0818 106.2747,299.8528 L106.2747,299.8538 L153.5037,347.0818 L143.3627,357.2228 C143.0307,357.5548 142.7607,357.9258 142.5537,358.3208 C141.8617,359.6368 141.8617,361.2228 142.5537,362.5388 C142.7607,362.9338 143.0307,363.3048 143.3627,363.6368 L156.7457,377.0198 L156.7467,377.0198 L156.8407,377.1138 C158.6117,378.8848 161.4827,378.8848 163.2547,377.1138 C163.5157,376.8528 163.7337,376.5648 163.9177,376.2628 L173.3007,366.8798 L196.9537,390.5318 L196.9537,390.5328 L196.9547,390.5328 C198.0197,391.5988 199.4837,392.0228 200.8667,391.8068 L200.8667,391.8068 Z" id="Fill-68" fill="#1D1B1C"></path>
                <path d="M153.8354,227.1553 L227.0534,153.9373 L234.1164,161.0003 L170.9254,224.1913 C170.9194,224.1973 170.9134,224.2013 170.9074,224.2073 C170.1224,224.9923 169.6874,225.9933 169.5994,227.0193 C169.4864,228.3083 169.9214,229.6353 170.9084,230.6223 C170.9154,230.6293 170.9234,230.6353 170.9304,230.6423 L234.2494,293.9603 L227.4444,300.7643 L153.8354,227.1553 Z M224.2364,310.3853 C226.0074,312.1573 228.8814,312.1573 230.6534,310.3853 L243.8704,297.1693 C245.6414,295.3973 245.6394,292.5263 243.8674,290.7543 L242.6004,289.4873 L180.5294,227.4153 L243.7364,164.2083 L243.7374,164.2073 L243.7374,164.2073 C245.5084,162.4363 245.5084,159.5643 243.7374,157.7933 L230.2604,144.3163 C228.4894,142.5453 225.6174,142.5453 223.8464,144.3163 C223.8394,144.3233 223.8334,144.3313 223.8264,144.3383 C223.8184,144.3453 223.8114,144.3513 223.8044,144.3593 L144.2294,223.9333 C144.2244,223.9383 144.2184,223.9433 144.2134,223.9473 C142.5524,225.6083 142.4494,228.2373 143.9024,230.0183 C143.9994,230.1363 144.1034,230.2523 144.2134,230.3633 C144.2144,230.3633 144.2144,230.3633 144.2144,230.3633 L224.2244,310.3723 C224.2284,310.3773 224.2314,310.3823 224.2364,310.3853 L224.2364,310.3853 Z" id="Fill-70" fill="#1D1B1C"></path>
                <path d="M200.2162,327.9931 L169.2522,297.0291 L176.5002,289.7801 L207.4652,320.7441 L200.2162,327.9931 Z M173.2932,280.1591 C173.2622,280.1901 173.2352,280.2241 173.2052,280.2561 C173.1732,280.2861 173.1392,280.3131 173.1082,280.3451 L159.6312,293.8221 C157.8592,295.5931 157.8592,298.4651 159.6312,300.2361 L197.0092,337.6141 L197.0092,337.6151 C198.7802,339.3861 201.6522,339.3861 203.4232,337.6151 L216.9002,324.1371 C216.9312,324.1061 216.9582,324.0721 216.9882,324.0401 C217.0202,324.0101 217.0542,323.9831 217.0862,323.9511 C218.8572,322.1811 218.8572,319.3081 217.0862,317.5371 L179.7072,280.1591 C177.9362,278.3881 175.0642,278.3881 173.2932,280.1591 L173.2932,280.1591 Z" id="Fill-72" fill="#1D1B1C"></path>
                <path d="M250.4501,197.874 C250.4341,197.89 250.4211,197.907 250.4061,197.923 C250.3891,197.939 250.3721,197.952 250.3561,197.968 C248.5851,199.739 248.5851,202.611 250.3561,204.382 L260.6271,214.652 L253.7491,221.53 L243.4781,211.26 C242.5931,210.375 241.4321,209.932 240.2711,209.932 C239.1111,209.932 237.9501,210.375 237.0641,211.26 L213.9361,234.388 L206.8731,227.325 L253.6571,180.541 L260.7201,187.604 L250.4501,197.874 Z M270.3411,190.811 C270.6181,190.534 270.8511,190.23 271.0421,189.909 C271.2321,189.586 271.3791,189.246 271.4831,188.895 C271.9391,187.353 271.5591,185.615 270.3411,184.397 L256.8641,170.92 C255.0931,169.148 252.2211,169.148 250.4501,170.92 C250.4291,170.941 250.4121,170.963 250.3921,170.984 C250.3701,171.005 250.3471,171.023 250.3261,171.044 L197.2521,224.118 C195.4811,225.889 195.4811,228.761 197.2521,230.532 L210.7291,244.009 C212.5001,245.78 215.3721,245.78 217.1431,244.009 C217.1681,243.984 217.1891,243.957 217.2131,243.932 C217.2391,243.908 217.2651,243.887 217.2901,243.862 L240.2711,220.881 L249.9521,230.562 C249.9531,230.563 249.9531,230.564 249.9541,230.565 C250.1081,230.791 250.2841,231.004 250.4861,231.206 C252.2581,232.978 255.1271,232.978 256.8991,231.206 L256.9341,231.17 C256.9411,231.163 256.9491,231.158 256.9551,231.151 C256.9621,231.145 256.9681,231.137 256.9741,231.13 L270.2261,217.878 C270.2331,217.872 270.2411,217.866 270.2471,217.859 C272.0181,216.088 272.0181,213.216 270.2471,211.445 L259.9771,201.175 L270.3411,190.811 Z" id="Fill-74" fill="#1D1B1C"></path>
                <path d="M241.0375,247.0688 L251.3075,257.3388 C251.3075,257.3388 251.3075,257.3388 251.3075,257.3388 C252.1935,258.2248 253.3535,258.6678 254.5145,258.6678 C255.6755,258.6678 256.8355,258.2248 257.7215,257.3388 L280.5185,234.5418 L280.5195,234.5438 L287.3215,241.3448 L287.3215,241.3448 L264.5295,264.1378 C264.5275,264.1388 264.5255,264.1408 264.5245,264.1418 C264.5155,264.1508 264.5085,264.1598 264.5005,264.1688 C264.4095,264.2608 264.3235,264.3568 264.2415,264.4548 C264.2095,264.4928 264.1815,264.5318 264.1505,264.5708 C264.0945,264.6438 264.0395,264.7168 263.9875,264.7928 C263.9585,264.8358 263.9305,264.8798 263.9015,264.9228 C263.8535,264.9998 263.8075,265.0778 263.7645,265.1568 C263.7415,265.1988 263.7165,265.2398 263.6955,265.2828 C263.6445,265.3808 263.5995,265.4808 263.5565,265.5808 C263.5465,265.6058 263.5345,265.6288 263.5245,265.6528 C263.4755,265.7758 263.4325,265.8998 263.3945,266.0248 C263.3805,266.0708 263.3695,266.1188 263.3565,266.1658 C263.3345,266.2468 263.3145,266.3278 263.2965,266.4098 C263.2855,266.4668 263.2745,266.5238 263.2655,266.5798 C263.2525,266.6538 263.2425,266.7278 263.2325,266.8018 C263.2255,266.8618 263.2185,266.9218 263.2135,266.9818 C263.2075,267.0568 263.2045,267.1318 263.2025,267.2068 C263.2015,267.2538 263.1965,267.3008 263.1965,267.3488 C263.1965,267.3578 263.1975,267.3668 263.1975,267.3758 C263.1985,267.5228 263.2085,267.6688 263.2235,267.8138 C263.2285,267.8648 263.2355,267.9158 263.2425,267.9668 C263.2605,268.0958 263.2825,268.2238 263.3115,268.3508 C263.3175,268.3768 263.3215,268.4028 263.3275,268.4288 C263.3635,268.5778 263.4105,268.7238 263.4625,268.8688 C263.4765,268.9098 263.4915,268.9498 263.5075,268.9908 C263.5645,269.1388 263.6275,269.2858 263.7015,269.4288 C263.9115,269.8348 264.1845,270.2158 264.5245,270.5558 C264.5275,270.5588 264.5315,270.5618 264.5345,270.5648 L276.7765,282.8078 C278.5485,284.5788 281.4205,284.5818 283.1915,282.8098 L305.9875,260.0138 L313.0505,267.0758 L279.8375,300.2888 L233.8275,254.2788 L241.0375,247.0688 Z M283.0445,309.9098 C283.0695,309.8848 283.0905,309.8578 283.1145,309.8328 C283.1395,309.8088 283.1665,309.7878 283.1915,309.7628 L322.6715,270.2828 C324.4425,268.5118 324.4425,265.6398 322.6715,263.8688 L309.1945,250.3918 C308.8325,250.0298 308.4235,249.7458 307.9885,249.5318 C307.8455,249.4618 307.6985,249.4018 307.5505,249.3468 C307.4935,249.3258 307.4345,249.3088 307.3755,249.2898 C307.2865,249.2608 307.1955,249.2328 307.1045,249.2098 C307.0325,249.1908 306.9595,249.1748 306.8875,249.1598 C306.8075,249.1438 306.7285,249.1308 306.6485,249.1188 C306.5715,249.1068 306.4935,249.0958 306.4145,249.0878 C306.3315,249.0798 306.2485,249.0768 306.1645,249.0738 C306.1055,249.0708 306.0465,249.0638 305.9865,249.0638 C305.8445,249.0638 305.7025,249.0718 305.5605,249.0858 C305.5315,249.0888 305.5025,249.0918 305.4735,249.0948 C305.3715,249.1068 305.2715,249.1218 305.1715,249.1398 C305.1385,249.1458 305.1055,249.1508 305.0725,249.1578 C304.9465,249.1838 304.8205,249.2138 304.6965,249.2508 C304.3615,249.3488 304.0375,249.4928 303.7295,249.6708 C303.3905,249.8648 303.0695,250.1028 302.7805,250.3918 L279.9835,273.1888 L274.1445,267.3498 L295.3635,246.1318 C295.3645,246.1308 295.3645,246.1308 295.3655,246.1308 L295.3655,246.1298 L296.9415,244.5528 C298.7125,242.7818 298.7125,239.9108 296.9415,238.1388 L296.9315,238.1308 L283.8795,225.0778 C283.8545,225.0528 283.8275,225.0268 283.8005,225.0038 C283.7965,224.9998 283.7925,224.9978 283.7895,224.9938 C283.7665,224.9708 283.7475,224.9448 283.7245,224.9218 C281.9535,223.1508 279.0815,223.1508 277.3105,224.9218 L254.5145,247.7178 L244.2445,237.4478 L244.2445,237.4478 C243.6905,236.8948 243.0305,236.5138 242.3295,236.3058 C242.2235,236.2748 242.1175,236.2478 242.0105,236.2248 C241.7975,236.1778 241.5805,236.1468 241.3635,236.1308 C241.2555,236.1238 241.1465,236.1198 241.0375,236.1198 C240.7475,236.1198 240.4565,236.1468 240.1715,236.2028 C239.8855,236.2578 239.6035,236.3408 239.3305,236.4518 C238.7845,236.6728 238.2735,237.0048 237.8305,237.4478 L224.3535,250.9248 C224.3285,250.9498 224.3075,250.9768 224.2835,251.0018 C224.2585,251.0268 224.2315,251.0468 224.2065,251.0718 C222.4345,252.8428 222.4345,255.7148 224.2065,257.4858 L276.6305,309.9098 C278.4015,311.6808 281.2735,311.6808 283.0445,309.9098 L283.0445,309.9098 Z" id="Fill-76" fill="#1D1B1C"></path>
                <path d="M400.2636,367.5473 L393.2536,360.5373 L426.7926,326.9993 L433.8026,334.0083 L400.2636,367.5473 Z M423.6266,317.3353 L383.5786,357.3823 C382.7476,358.2133 382.3086,359.2863 382.2546,360.3723 C382.2526,360.4243 382.2496,360.4813 382.2526,360.5373 C382.2496,360.5533 382.2496,360.5713 382.2496,360.5893 C382.2496,360.6303 382.2496,360.6663 382.2546,360.7023 C382.3086,361.7883 382.7476,362.8613 383.5806,363.6933 L396.4956,376.6083 C396.6456,376.8233 396.8136,377.0303 397.0056,377.2223 C398.7746,378.9923 401.6466,378.9943 403.4176,377.2223 L403.4706,377.1703 L443.4666,337.1743 C444.5046,336.1353 444.9346,334.7143 444.7516,333.3643 C444.7496,333.3483 444.7496,333.3343 444.7466,333.3183 C444.5976,332.4183 444.1746,331.5513 443.4796,330.8573 L430.4866,317.8633 C430.3516,317.6803 430.2066,317.5023 430.0416,317.3373 C428.2696,315.5653 425.3956,315.5653 423.6266,317.3353 L423.6266,317.3353 Z" id="Fill-78" fill="#1D1B1C"></path>
                <path d="M380.3803,280.4907 L373.1933,287.6777 L362.9233,277.4077 C362.0383,276.5217 360.8773,276.0787 359.7163,276.0787 C358.5563,276.0787 357.3953,276.5217 356.5093,277.4077 L306.5643,327.3527 L299.5603,320.3477 L349.6683,270.2407 C349.7043,270.2037 349.7343,270.1647 349.7693,270.1287 C349.8083,270.0917 349.8503,270.0587 349.8883,270.0207 C351.6603,268.2487 351.6603,265.3757 349.8903,263.6057 L286.8463,200.5617 L295.8953,191.5117 C295.8973,191.5107 295.8993,191.5087 295.9013,191.5067 C296.7403,190.6677 297.1763,189.5807 297.2203,188.4817 C297.2233,188.4207 297.2303,188.3607 297.2303,188.2997 C297.2303,187.9067 297.1743,187.5147 297.0733,187.1327 C297.0713,187.1257 297.0703,187.1197 297.0683,187.1137 C297.0323,186.9777 296.9883,186.8447 296.9393,186.7117 C296.9343,186.6977 296.9293,186.6827 296.9243,186.6697 C296.8773,186.5467 296.8233,186.4257 296.7643,186.3067 C296.7543,186.2847 296.7453,186.2627 296.7343,186.2407 C296.6773,186.1307 296.6143,186.0227 296.5483,185.9157 C296.5313,185.8877 296.5173,185.8607 296.5003,185.8337 C296.4323,185.7297 296.3583,185.6297 296.2803,185.5307 C296.2603,185.5037 296.2433,185.4757 296.2223,185.4497 C296.1223,185.3267 296.0163,185.2077 295.9013,185.0937 L295.9013,185.0927 L245.5773,134.7687 L252.6393,127.7067 L312.9743,188.0417 L303.6723,197.3437 C303.6683,197.3477 303.6633,197.3507 303.6593,197.3557 C303.0463,197.9687 302.6503,198.7147 302.4613,199.5007 C302.3773,199.8497 302.3303,200.2057 302.3303,200.5637 C302.3303,201.7217 302.7733,202.8857 303.6583,203.7697 C303.6623,203.7747 303.6673,203.7777 303.6723,203.7827 L380.3803,280.4907 Z M322.6063,191.2567 C322.6943,191.1687 322.7783,191.0757 322.8583,190.9837 C324.3713,189.2027 324.2873,186.5257 322.6043,184.8427 L255.8493,118.0877 C255.8493,118.0867 255.8483,118.0857 255.8473,118.0847 C254.3073,116.5447 251.9353,116.3457 250.1773,117.4847 C249.9143,117.6547 249.6643,117.8537 249.4343,118.0847 L249.4333,118.0847 L235.9563,131.5617 L235.9563,131.5617 C234.5173,133.0007 234.2473,135.1667 235.1473,136.8787 C235.1983,136.9767 235.2543,137.0737 235.3143,137.1697 C235.4213,137.3417 235.5433,137.5057 235.6753,137.6647 C235.6953,137.6897 235.7163,137.7157 235.7373,137.7397 C235.8073,137.8207 235.8803,137.8997 235.9563,137.9757 L235.9563,137.9767 L286.2793,188.2987 L277.2223,197.3547 C275.4533,199.1247 275.4533,201.9977 277.2253,203.7697 L340.2673,266.8127 L289.9393,317.1407 C288.1683,318.9127 288.1683,321.7837 289.9393,323.5547 C289.9393,323.5557 289.9403,323.5557 289.9403,323.5557 L303.3573,336.9727 L303.3573,336.9727 C303.3583,336.9737 303.3583,336.9737 303.3583,336.9737 L303.4163,337.0327 C305.1873,338.8037 308.0593,338.8037 309.8303,337.0327 C310.0373,336.8247 310.2173,336.6027 310.3763,336.3687 L359.7163,287.0287 L369.9863,297.2987 C370.7613,298.0737 371.7473,298.5087 372.7593,298.6057 C372.9033,298.6197 373.0483,298.6267 373.1933,298.6267 C373.3393,298.6267 373.4843,298.6197 373.6293,298.6057 C373.9183,298.5777 374.2043,298.5227 374.4853,298.4397 C375.1863,298.2327 375.8473,297.8517 376.4013,297.2987 L376.4013,297.2977 L389.8783,283.8217 C389.8993,283.8007 389.9163,283.7777 389.9363,283.7567 C389.9583,283.7357 389.9803,283.7187 390.0013,283.6977 C391.7723,281.9267 391.7723,279.0547 390.0013,277.2837 L313.2793,200.5617 L322.3333,191.5077 C322.4253,191.4287 322.5183,191.3447 322.6063,191.2567 L322.6063,191.2567 Z" id="Fill-80" fill="#1D1B1C"></path>
                <path d="M423.6308,263.9389 L423.6308,263.9389 C421.8598,265.7099 421.8598,268.5819 423.6308,270.3529 L433.9018,280.6249 L373.5688,340.9579 L363.5748,330.9639 C363.4848,330.8559 363.3908,330.7499 363.2898,330.6489 C361.5188,328.8769 358.6468,328.8769 356.8758,330.6489 L333.3678,354.1559 L326.2558,347.0439 L359.7888,313.5109 L370.2588,323.9809 C371.7098,325.4319 373.8998,325.6919 375.6178,324.7649 C376.0218,324.5559 376.4018,324.2829 376.7408,323.9439 L416.9708,283.7139 C418.7418,281.9419 418.7418,279.0709 416.9708,277.2999 C416.9678,277.2969 416.9648,277.2949 416.9628,277.2919 C416.9598,277.2899 416.9578,277.2869 416.9548,277.2839 L406.6848,267.0139 L416.9548,256.7439 C418.7258,254.9729 418.7258,252.1019 416.9548,250.3299 L416.9548,250.3299 L403.4778,236.8539 L403.4778,236.8529 C401.7068,235.0819 398.8348,235.0819 397.0638,236.8529 L386.7938,247.1229 L379.7898,240.1189 L390.0598,229.8489 C390.6128,229.2949 390.9938,228.6339 391.2008,227.9329 C391.3258,227.5129 391.3878,227.0769 391.3878,226.6419 C391.3878,226.3519 391.3598,226.0619 391.3048,225.7759 C391.2498,225.4899 391.1668,225.2089 391.0558,224.9359 C390.8348,224.3889 390.5028,223.8779 390.0598,223.4349 L376.5828,209.9579 C374.8118,208.1869 371.9398,208.1869 370.1688,209.9579 L359.8988,220.2279 L339.9388,200.2679 L339.9388,200.2669 L346.5598,193.6469 L356.8298,203.9169 C358.6008,205.6879 361.4728,205.6879 363.2438,203.9169 C363.2458,203.9139 363.2478,203.9109 363.2508,203.9089 C363.2688,203.8909 363.2898,203.8759 363.3078,203.8569 L373.6338,193.5309 L433.8368,253.7329 L423.6308,263.9389 Z M443.5218,257.0039 L443.5218,257.0039 C444.4228,256.1019 444.8628,254.9159 444.8468,253.7339 C444.8638,252.5519 444.4238,251.3639 443.5218,250.4619 C443.3028,250.2439 443.0678,250.0519 442.8198,249.8879 L376.8938,183.9619 C375.9848,183.0529 374.7858,182.6139 373.5938,182.636967 C372.4278,182.6339 371.2608,183.0759 370.3708,183.9659 L360.0388,194.2979 L349.7668,184.0249 C347.9958,182.2539 345.1238,182.2539 343.3528,184.0249 C343.3468,184.0309 343.3408,184.0379 343.3358,184.0439 C343.3238,184.0549 343.3128,184.0639 343.3018,184.0749 L330.3178,197.0589 L330.3178,197.0599 L330.3178,197.0599 C328.5468,198.8319 328.5468,201.7029 330.3178,203.4749 L332.0218,205.1789 L332.0218,205.1799 L332.0228,205.1799 L356.6858,229.8419 C356.6878,229.8439 356.6898,229.8469 356.6918,229.8489 C358.4628,231.6199 361.3348,231.6199 363.1058,229.8489 L363.1058,229.8489 L363.1058,229.8489 L373.3758,219.5789 L380.4388,226.6419 L370.1688,236.9119 L370.1688,236.9119 C368.3978,238.6829 368.3978,241.5549 370.1688,243.3259 C370.1708,243.3279 370.1728,243.3299 370.1748,243.3329 L383.5808,256.7369 C383.5828,256.7399 383.5848,256.7419 383.5868,256.7439 C383.5888,256.7469 383.5918,256.7489 383.5938,256.7509 L383.6458,256.8029 C385.4168,258.5739 388.2888,258.5739 390.0598,256.8029 C390.2668,256.5959 390.4468,256.3729 390.6058,256.1399 L400.2708,246.4739 L407.3338,253.5369 L397.0638,263.8069 C395.2928,265.5789 395.2928,268.4499 397.0638,270.2209 C397.0658,270.2239 397.0688,270.2259 397.0708,270.2279 L407.3498,280.5069 L373.4808,314.3759 L363.1958,304.0899 C363.1618,304.0559 363.1258,304.0269 363.0908,303.9949 C363.0588,303.9599 363.0298,303.9239 362.9958,303.8899 C361.2248,302.1189 358.3538,302.1189 356.5818,303.8899 L316.6348,343.8369 C314.8638,345.6079 314.8638,348.4799 316.6348,350.2519 L330.1118,363.7289 C330.1208,363.7369 330.1298,363.7439 330.1378,363.7519 C330.1468,363.7599 330.1528,363.7689 330.1608,363.7769 C331.9328,365.5479 334.8038,365.5479 336.5748,363.7769 L360.0678,340.2849 L370.3598,350.5779 L370.3608,350.5779 L370.3608,350.5789 C372.1328,352.3499 375.0048,352.3499 376.7758,350.5789 L443.5238,283.8319 C445.2948,282.0609 445.2948,279.1889 443.5238,277.4179 L443.5228,277.4179 L443.5218,277.4159 L433.2518,267.1459 L442.8198,257.5779 C443.0678,257.4129 443.3028,257.2219 443.5218,257.0039 L443.5218,257.0039 Z" id="Fill-82" fill="#1D1B1C"></path>
                <g id="Group-86" transform="translate(435.000000, 287.000000)">
                    <mask id="mask-30" fill="white">
                        <use xlink:href="#path-29"></use>
                    </mask>
                    <g id="Clip-85"></g>
                    <path d="M2.0546,17.3257 L2.0546,17.3257 C0.2836,19.0967 0.2836,21.9687 2.0546,23.7397 L18.5436,40.2287 L18.5436,27.4007 L11.6756,20.5327 L18.5436,13.6647 L18.5436,0.8367 L2.0546,17.3257 Z" id="Fill-84" fill="#1D1B1C" mask="url(#mask-30)"></path>
                </g>
                <path d="M448.868998,267.2764 C448.868,268.4374 449.311,269.5994 450.197,270.4854 L453.543,273.8314 L453.543,271.8024 L453.543,260.7204 L450.197,264.0674 C449.311,264.9534 448.868,266.1144 448.868998,267.2764" id="Fill-87" fill="#1D1B1C"></path>
                <g id="Group-91" transform="translate(435.000000, 0.000000)">
                    <mask id="mask-32" fill="white">
                        <use xlink:href="#path-31"></use>
                    </mask>
                    <g id="Clip-90"></g>
                    <path d="M18.5434,0.4565 L12.1454,0.4565 L2.0084,10.5935 C0.2364,12.3655 0.2384,15.2365 2.0084,17.0065 L18.5434,33.5415 L18.5434,20.7165 L11.6294,13.8025 L18.5434,6.8885 L18.5434,0.4565 Z" id="Fill-89" fill="#1D1B1C" mask="url(#mask-32)"></path>
                </g>
                <g id="Group-94" transform="translate(382.000000, 115.000000)">
                    <mask id="mask-34" fill="white">
                        <use xlink:href="#path-33"></use>
                    </mask>
                    <g id="Clip-93"></g>
                    <path d="M37.9867,59.1362 L48.2367,48.8862 C49.5557,47.5672 49.8907,45.6382 49.2447,44.0072 C49.2397,43.9962 49.2367,43.9842 49.2327,43.9732 C49.2037,43.9022 49.1677,43.8322 49.1347,43.7622 C49.1047,43.6982 49.0787,43.6332 49.0457,43.5712 C49.0337,43.5482 49.0197,43.5282 49.0077,43.5062 C48.8047,43.1352 48.5497,42.7862 48.2367,42.4722 L38.0047,32.2402 L47.9667,22.2782 C48.2497,21.9952 48.4897,21.6822 48.6797,21.3522 C48.6817,21.3502 48.6847,21.3472 48.6867,21.3412 C49.8497,19.5802 49.6547,17.1912 48.1057,15.6412 L34.6327,2.1682 C34.6307,2.1672 34.6297,2.1652 34.6287,2.1632 C34.3117,1.8472 33.9597,1.5902 33.5857,1.3862 C33.5667,1.3772 33.5497,1.3642 33.5307,1.3542 C33.5137,1.3452 33.4957,1.3392 33.4777,1.3302 C32.9657,1.0692 32.4157,0.9092 31.8567,0.8562 C31.4487,0.8172 31.0387,0.836297714 30.6347,0.9072 C30.6087,0.9112 30.5817,0.9132 30.5547,0.9182 C29.6977,1.0842 28.8787,1.4992 28.2147,2.1632 L1.3867,28.9912 C-0.3843,30.7622 -0.3843,33.6342 1.3867,35.4052 C1.4787,35.4972 1.5747,35.5812 1.6727,35.6632 L11.6757,45.6672 L1.4067,55.9362 C0.7257,56.6172 0.3047,57.4632 0.1487,58.3482 C0.0067,59.6622 0.4407,61.0292 1.4497,62.0382 L67.9817,128.5702 C67.9837,128.5722 67.9847,128.5742 67.9867,128.5752 C68.3887,128.9782 68.8497,129.2842 69.3397,129.5042 C69.5057,129.5782 69.6747,129.6392 69.8467,129.6942 C69.8817,129.7042 69.9167,129.7122 69.9517,129.7222 C70.0947,129.7632 70.2387,129.7982 70.3847,129.8252 C70.4157,129.8312 70.4467,129.8352 70.4777,129.8402 C70.6327,129.8662 70.7887,129.8832 70.9457,129.8912 C70.9677,129.8932 70.9887,129.8942 71.0097,129.8952 C71.0717,129.8982 71.1327,129.9052 71.1947,129.9052 C71.3107,129.9052 71.4267,129.8972 71.5437,129.8882 L71.5437,129.8872 L71.5437,118.6042 L71.1947,118.9532 L11.2047,58.9632 L21.2967,48.8712 C23.0657,47.1022 23.0677,44.2312 21.2967,42.4592 C21.2957,42.4582 21.2947,42.4582 21.2937,42.4572 C21.2927,42.4562 21.2927,42.4552 21.2917,42.4542 L11.0217,32.1842 L31.4207,11.7862 L38.5277,18.8922 L28.8857,28.5342 C28.6977,28.6722 28.5167,28.8262 28.3467,28.9962 C28.1567,29.1862 27.9867,29.3872 27.8407,29.6022 C26.5957,31.3712 26.7627,33.8292 28.3447,35.4102 L38.6137,45.6802 L28.3447,55.9492 C26.5737,57.7202 26.5737,60.5922 28.3447,62.3642 C28.4647,62.4832 28.5897,62.5932 28.7177,62.6962 L68.0747,102.0532 C69.0267,103.0052 70.2967,103.4402 71.5437,103.3682 L71.5437,103.3272 L71.5437,92.1702 L71.2817,92.4312 L37.9867,59.1362 Z" id="Fill-92" fill="#1D1B1C" mask="url(#mask-34)"></path>
                </g>
                <g id="Group-97" transform="translate(408.000000, 341.000000)">
                    <mask id="mask-36" fill="white">
                        <use xlink:href="#path-35"></use>
                    </mask>
                    <g id="Clip-96"></g>
                    <path d="M44.0473,1.1694 L44.0473,1.1694 L2.0733,43.1434 C0.3023,44.9144 0.3023,47.7864 2.0733,49.5574 C2.0793,49.5634 2.0863,49.5684 2.0913,49.5744 C2.1093,49.5924 2.1253,49.6124 2.1433,49.6304 L42.2503,89.7374 C42.9153,90.4024 43.7353,90.8174 44.5943,90.9834 C44.9073,91.0444 45.2253,91.0684 45.5433,91.0640415 L45.5433,80.0354 L45.4603,80.1194 L11.6933,46.3524 L45.5433,12.5014 L45.5433,0.1754 C44.9993,0.3964 44.4883,0.7284 44.0473,1.1694" id="Fill-95" fill="#1D1B1C" mask="url(#mask-36)"></path>
                </g>
                <g id="Group-100" transform="translate(435.000000, 368.000000)">
                    <mask id="mask-38" fill="white">
                        <use xlink:href="#path-37"></use>
                    </mask>
                    <g id="Clip-99"></g>
                    <path d="M16.9911,1.0674 L1.9711,16.0874 C0.2001,17.8584 0.2001,20.7304 1.9711,22.5014 L1.9711,22.5014 L18.5431,39.0734 L18.5431,26.2454 L11.5921,19.2944 L18.5431,12.3434 L18.5431,0.0534 C18.3891,0.1134 18.2371,0.1804 18.0891,0.2574 C17.6941,0.4654 17.3231,0.7354 16.9911,1.0674" id="Fill-98" fill="#1D1B1C" mask="url(#mask-38)"></path>
                </g>
                <g id="Group-103" transform="translate(0.000000, 407.000000)">
                    <mask id="mask-40" fill="white">
                        <use xlink:href="#path-39"></use>
                    </mask>
                    <g id="Clip-102"></g>
                    <path d="M58.1508,15.3569 C58.0688,15.2749 57.9828,15.2009 57.8968,15.1269 C57.8218,15.0409 57.7488,14.9539 57.6668,14.8729 L44.9168,2.1229 C44.9128,2.1179 44.9088,2.1139 44.9048,2.1089 C44.2148,1.4189 43.3568,1.0029 42.4608,0.8509 C41.0608,0.6129 39.5718,1.0299 38.4908,2.1109 L38.4898,2.1119 L-0.0002,40.6019 L-0.0002,46.9999 L6.4318,46.9999 L41.6988,11.7329 L48.5298,18.5639 L20.0938,46.9999 L32.9218,46.9999 L58.1508,21.7709 C59.9218,19.9999 59.9218,17.1279 58.1508,15.3569" id="Fill-101" fill="#1D1B1C" mask="url(#mask-40)"></path>
                </g>
                <path d="M176.7021,437.2197 L176.7021,437.2197 C174.9311,435.4487 172.0591,435.4487 170.2881,437.2197 L160.0181,447.4897 L150.1411,437.6137 C150.1191,437.5907 150.0941,437.5717 150.0711,437.5497 C150.0491,437.5267 150.0301,437.5017 150.0081,437.4797 C148.2371,435.7087 145.3651,435.7087 143.5941,437.4797 L130.1171,450.9567 C129.2731,451.8007 128.8361,452.8947 128.7961,453.9997 L128.9361,453.9997 L139.5741,453.9997 L139.9011,453.9997 L146.8011,447.1007 L153.7001,453.9997 L164.2111,453.9997 L166.3361,453.9997 L173.4951,446.8407 L180.6541,453.9997 L193.4821,453.9997 L176.7021,437.2197 Z" id="Fill-104" fill="#1D1B1C"></path>
                <path d="M230.2983,383.8906 C230.2983,383.8906 230.2973,383.8896 230.2963,383.8886 L230.2953,383.8876 L230.2943,383.8876 C228.5233,382.1156 225.6523,382.1156 223.8803,383.8876 L200.1613,407.6066 L176.5443,383.9896 C176.1013,383.5466 175.5893,383.2146 175.0433,382.9936 C174.7703,382.8826 174.4883,382.7996 174.2033,382.7446 C173.6313,382.6336 173.0423,382.6336 172.4703,382.7446 C172.1843,382.7996 171.9033,382.8826 171.6303,382.9936 C171.0843,383.2146 170.5723,383.5466 170.1303,383.9896 L159.8603,394.2596 L149.4933,383.8926 L149.4933,383.8926 C148.9403,383.3396 148.2783,382.9586 147.5773,382.7516 C147.1563,382.6266 146.7213,382.5646 146.2863,382.5646 C145.9963,382.5646 145.7063,382.5926 145.4203,382.6476 C145.1343,382.7036 144.8523,382.7866 144.5793,382.8966 C144.0333,383.1186 143.5223,383.4506 143.0793,383.8926 L103.0663,423.9066 C101.2953,425.6776 101.2953,428.5486 103.0663,430.3206 C103.0823,430.3366 103.1003,430.3496 103.1163,430.3656 C103.1323,430.3826 103.1463,430.4006 103.1623,430.4166 L116.6393,443.8936 C118.4103,445.6646 121.2823,445.6646 123.0533,443.8936 L146.8003,420.1466 L157.0663,430.4116 C157.0683,430.4136 157.0693,430.4156 157.0713,430.4176 C157.7253,431.0716 158.5293,431.4816 159.3733,431.6526 C160.0223,431.7846 160.6933,431.7686 161.3373,431.6146 C162.1243,431.4266 162.8713,431.0306 163.4843,430.4176 L173.3363,420.5656 L173.3373,420.5646 L196.7023,443.9306 C196.7093,443.9366 196.7153,443.9446 196.7213,443.9516 C197.7393,444.9686 199.1193,445.3976 200.4453,445.2456 C201.4283,445.1346 202.3823,444.7036 203.1363,443.9506 C203.1413,443.9456 203.1443,443.9406 203.1493,443.9356 L226.6513,420.4346 L260.2163,453.9996 L271.2173,453.9996 C271.2043,452.8576 270.7643,451.7186 269.8913,450.8456 L230.4813,411.4356 L229.8593,410.8136 C228.0873,409.0416 225.2163,409.0436 223.4463,410.8136 L199.9303,434.3296 L176.5443,410.9436 C174.7733,409.1726 171.9023,409.1726 170.1313,410.9426 L170.1303,410.9426 L160.2773,420.7946 L150.0073,410.5256 C149.6163,410.1336 149.1693,409.8346 148.6943,409.6156 C148.2443,409.4096 147.7683,409.2766 147.2853,409.2236 C147.1243,409.2056 146.9633,409.1966 146.8003,409.1966 C145.6403,409.1966 144.4793,409.6406 143.5933,410.5256 L119.8463,434.2726 L112.6873,427.1136 L146.2863,393.5146 L156.5563,403.7846 C156.5723,403.8006 156.5903,403.8136 156.6073,403.8296 C156.6233,403.8466 156.6363,403.8646 156.6523,403.8806 C158.4233,405.6516 161.2963,405.6516 163.0673,403.8806 L173.3373,393.6106 L196.9543,417.2276 C198.7253,418.9986 201.5963,418.9986 203.3683,417.2276 C203.3953,417.2006 203.4183,417.1706 203.4453,417.1416 C203.4733,417.1156 203.5033,417.0926 203.5303,417.0656 L227.0873,393.5086 L287.4093,453.8296 L287.2383,453.9996 L298.0853,453.9996 L298.3503,453.9996 C298.3963,452.7836 297.9593,451.5516 297.0303,450.6226 L230.2983,383.8906 Z" id="Fill-106" fill="#1D1B1C"></path>
                <path d="M117.851,356.4961 C117.672,356.6751 117.512,356.8621 117.369,357.0641 L118.419,356.0141 C118.218,356.1571 118.03,356.3171 117.851,356.4961" id="Fill-108" fill="#1D1B1C"></path>
                <g id="Group-112" transform="translate(235.000000, 356.000000)">
                    <mask id="mask-42" fill="white">
                        <use xlink:href="#path-41"></use>
                    </mask>
                    <g id="Clip-111"></g>
                    <path d="M128.8217,54.7851 C127.0507,53.0141 124.1787,53.0141 122.4077,54.7851 L98.7957,78.3971 L21.7897,1.3911 C20.0187,-0.3799 17.1467,-0.3799 15.3757,1.3911 C15.3747,1.3921 15.3747,1.3931 15.3737,1.3941 C15.3727,1.3951 15.3717,1.3961 15.3707,1.3961 L1.8937,14.8741 C0.1227,16.6451 0.1227,19.5161 1.8937,21.2871 L1.8937,21.2881 L1.8937,21.2881 L78.6057,98.0001 L91.4337,98.0001 L11.5147,18.0811 L18.5827,11.0131 L95.4587,87.8891 C96.7447,89.1741 98.6087,89.5221 100.2127,88.9401 C100.9597,88.7421 101.6667,88.3541 102.2517,87.7691 L125.6147,64.4061 L159.2087,98.0001 L170.1897,98.0001 C170.1817,96.8501 169.7397,95.7031 168.8637,94.8271 L128.8217,54.7851 Z" id="Fill-110" fill="#1D1B1C" mask="url(#mask-42)"></path>
                </g>
                <g id="Group-115" transform="translate(340.000000, 436.000000)">
                    <mask id="mask-44" fill="white">
                        <use xlink:href="#path-43"></use>
                    </mask>
                    <g id="Clip-114"></g>
                    <path d="M23.5619,1.4795 L23.5619,1.4795 C21.7909,-0.2915 18.9189,-0.2915 17.1479,1.4795 L0.6269,18.0005 L13.4559,18.0005 L20.3549,11.1005 L27.2539,18.0005 L40.0829,18.0005 L23.5619,1.4795 Z" id="Fill-113" fill="#1D1B1C" mask="url(#mask-44)"></path>
                </g>
                <path d="M243.7343,450.79 L230.2573,437.313 C229.8143,436.87 229.3023,436.538 228.7563,436.317 C228.4843,436.206 228.2023,436.123 227.9163,436.067 C227.3443,435.957 226.7553,435.957 226.1843,436.067 C225.7553,436.15 225.3363,436.296 224.9413,436.503 C224.5463,436.711 224.1753,436.981 223.8433,437.313 L207.1563,454 L219.9843,454 L227.0503,446.934 L234.1133,453.997 L234.1103,454 L245.0623,454 L245.0623,453.997 C245.0623,452.836 244.6203,451.676 243.7343,450.79" id="Fill-116" fill="#1D1B1C"></path>
                <path d="M83.0888,450.8496 C83.0728,450.8326 83.0588,450.8136 83.0418,450.7976 C81.2708,449.0256 78.3988,449.0256 76.6278,450.7976 L73.4248,453.9996 L84.3698,453.9996 L86.2448,453.9996 L83.1418,450.8966 C83.1248,450.8806 83.1058,450.8666 83.0888,450.8496" id="Fill-118" fill="#1D1B1C"></path>
                <path d="M79.9716,422.852 C78.8356,422.852 77.6966,423.274 76.8196,424.126 L76.7076,424.238 L49.0956,451.85 L46.9456,454 L59.7716,454 L79.9716,433.803 L100.1686,454 L112.9976,454 L83.1786,424.18 C82.2916,423.294 81.1296,422.852 79.9716,422.852" id="Fill-120" fill="#1D1B1C"></path>
                <g id="Group-124" transform="translate(315.000000, 355.000000)">
                    <mask id="mask-46" fill="white">
                        <use xlink:href="#path-45"></use>
                    </mask>
                    <g id="Clip-123"></g>
                    <path d="M111.9325,92.6474 L48.4685,29.1844 C46.6975,27.4124 43.8265,27.4124 42.0545,29.1844 C42.0475,29.1904 42.0425,29.1984 42.0355,29.2054 C42.0285,29.2124 42.0205,29.2184 42.0135,29.2254 L18.5495,52.6894 L11.2735,45.4144 L45.0125,11.6754 L118.9585,85.6214 L111.9325,92.6474 Z M128.5765,82.4114 L48.2195,2.0544 C46.4485,0.2824 43.5765,0.2824 41.8055,2.0544 L1.6345,42.2254 C-0.1375,43.9964 -0.1375,46.8684 1.6345,48.6394 C1.7485,48.7544 1.8695,48.8614 1.9935,48.9614 L15.0015,61.9694 C15.1015,62.0934 15.2085,62.2144 15.3235,62.3294 C17.0945,64.1004 19.9665,64.1004 21.7375,62.3294 L21.7555,62.3114 L21.7555,62.3114 C21.7565,62.3104 21.7565,62.3104 21.7575,62.3094 L45.2625,38.8054 L105.4565,99.0004 L116.4625,99.0004 L118.4085,99.0004 L128.5795,88.8284 C130.2415,87.1674 130.3435,84.5374 128.8885,82.7554 C128.7915,82.6374 128.6875,82.5224 128.5765,82.4114 L128.5765,82.4114 Z" id="Fill-122" fill="#1D1B1C" mask="url(#mask-46)"></path>
                </g>
                <g id="Group-127" transform="translate(447.000000, 447.000000)">
                    <mask id="mask-48" fill="white">
                        <use xlink:href="#path-47"></use>
                    </mask>
                    <g id="Clip-126"></g>
                    <polygon id="Fill-125" fill="#1D1B1C" mask="url(#mask-48)" points="6.5434 7 6.5434 0.602 0.1454 7"></polygon>
                </g>
            </g>
        </g>
    </g>
</svg>