<?xml version="1.0" encoding="UTF-8"?>
<svg width="454px" height="456px" viewBox="0 0 454 456" version="1.1" xmlns="http://www.w3.org/2000/svg" xmlns:xlink="http://www.w3.org/1999/xlink">
    <title>Pattern11</title>
    <defs>
        <polygon id="path-1" points="0.5354 0.457 9.6044 0.457 9.6044 128.7871 0.5354 128.7871"></polygon>
        <polygon id="path-3" points="0.7481 0.8123 32.543 0.8123 32.543 39.0208 0.7481 39.0208"></polygon>
        <polygon id="path-5" points="0.0549 0.457 9.1259 0.457 9.1259 5.8589 0.0549 5.8589"></polygon>
        <polygon id="path-7" points="0.8186 0.457 9.8896 0.457 9.8896 78.2216 0.8186 78.2216"></polygon>
        <polygon id="path-9" points="0.7478 0.457 9.8188 0.457 9.8188 128.7871 0.7478 128.7871"></polygon>
        <polygon id="path-11" points="0.0141 0.47695 73.95135 0.47695 73.95135 68 0.0141 68"></polygon>
        <polygon id="path-13" points="0.588420405 0.457 13.1496 0.457 13.1496 6.60605 0.588420405 6.60605"></polygon>
        <polygon id="path-15" points="0.58635 0.457 38.8426 0.457 38.8426 32.29845 0.58635 32.29845"></polygon>
        <polygon id="path-17" points="0.5593 0.457 9.6303 0.457 9.6303 58.3696 0.5593 58.3696"></polygon>
        <polygon id="path-19" points="0.90325 0.457 72.9275 0.457 72.9275 66.06655 0.90325 66.06655"></polygon>
        <polygon id="path-21" points="0 0.88075 13.60615 0.88075 13.60615 20.901 0 20.901"></polygon>
        <polygon id="path-23" points="0 0.64045 13.60615 0.64045 13.60615 20.6607 0 20.6607"></polygon>
        <polygon id="path-25" points="0 0.14195 13.60615 0.14195 13.60615 20.1622 0 20.1622"></polygon>
        <polygon id="path-27" points="0.68895 0.3344 32.543 0.3344 32.543 38.60265 0.68895 38.60265"></polygon>
        <polygon id="path-29" points="0.799 0.9082 9.87 0.9082 9.87 36 0.799 36"></polygon>
        <polygon id="path-31" points="0.0832 0.457 9.1542 0.457 9.1542 132.7104 0.0832 132.7104"></polygon>
        <polygon id="path-33" points="0.0231 0.457 9.0941 0.457 9.0941 114.9507 0.0231 114.9507"></polygon>
        <polygon id="path-35" points="0.799 0.457 9.87 0.457 9.87 96.5161 0.799 96.5161"></polygon>
        <polygon id="path-37" points="0.5749 0.457 9.6469 0.457 9.6469 78.2216 0.5749 78.2216"></polygon>
        <polygon id="path-39" points="0.6905 0.0659 32.543 0.0659 32.543 38.3329 0.6905 38.3329"></polygon>
        <polygon id="path-41" points="0.5596 0.0475 50.543 0.0475 50.543 269.6125 0.5596 269.6125"></polygon>
        <polygon id="path-43" points="0.68895 0.0732 32.543 0.0732 32.543 38.34145 0.68895 38.34145"></polygon>
        <polygon id="path-45" points="0.68895 0.8329 32.543 0.8329 32.543 39.10115 0.68895 39.10115"></polygon>
        <polygon id="path-47" points="0 0.6709 49.9369 0.6709 49.9369 262.2399 0 262.2399"></polygon>
        <polygon id="path-49" points="0.8151 0.4111 12.543 0.4111 12.543 18.5536 0.8151 18.5536"></polygon>
        <polygon id="path-51" points="0.34215 0.457 62.0079 0.457 62.0079 191.8113 0.34215 191.8113"></polygon>
        <polygon id="path-53" points="0.8359 0.457 65.8689 0.457 65.8689 133.46 0.8359 133.46"></polygon>
        <polygon id="path-55" points="0.1423 0.457 154.3238 0.457 154.3238 195.8855 0.1423 195.8855"></polygon>
        <polygon id="path-57" points="0.5197 0.457 154.70095 0.457 154.70095 210.8113 0.5197 210.8113"></polygon>
        <polygon id="path-59" points="0.3312 0.52285 154.51195 0.52285 154.51195 182 0.3312 182"></polygon>
        <polygon id="path-61" points="0.4533 0.457 28.7073 0.457 28.7073 22.2982 0.4533 22.2982"></polygon>
        <polygon id="path-63" points="0.1428 0.457 9.2108 0.457 9.2108 170.4594 0.1428 170.4594"></polygon>
        <polygon id="path-65" points="0.1426 0.1198 61.8076 0.1198 61.8076 97 0.1426 97"></polygon>
        <polygon id="path-67" points="0.5354 0.5758 64.1254 0.5758 64.1254 149 0.5354 149"></polygon>
        <polygon id="path-69" points="0.9719 0.6875 10.0439 0.6875 10.0439 71 0.9719 71"></polygon>
        <polygon id="path-71" points="0.8821 0.6604 214.0161 0.6604 214.0161 133 0.8821 133"></polygon>
    </defs>
    <g id="Page-1" stroke="none" stroke-width="1" fill="none" fill-rule="evenodd">
        <g id="Pattern11">
            <polygon id="Fill-1" fill="#242424" points="0 454.543 453.543 454.543 453.543 1 0 1"></polygon>
            <g id="Group-250" transform="translate(0.000000, 0.543000)">
                <path d="M58.9888,247.5249 C59.0048,247.6109 59.0238,247.7009 59.0468,247.7869 C59.0558,247.8259 59.0658,247.8639 59.0748,247.9059 C59.0878,247.9509 59.1008,247.9949 59.1168,248.0399 C59.1358,248.1039 59.1578,248.1679 59.1808,248.2319 C59.1998,248.2869 59.2228,248.3439 59.2448,248.3989 C59.2708,248.4659 59.2998,248.5329 59.3308,248.5999 C59.3598,248.6639 59.3918,248.7279 59.4238,248.7889 C59.5328,248.9909 59.6518,249.1859 59.7888,249.3709 C59.8338,249.4319 59.8788,249.4929 59.9298,249.5539 C60.0258,249.6719 60.1278,249.7869 60.2398,249.8959 C60.2618,249.9219 60.2878,249.9469 60.3168,249.9729 L112.8358,302.4949 C114.6048,304.2639 117.4788,304.2639 119.2478,302.4949 C121.0208,300.7219 121.0208,297.8509 119.2478,296.0789 L67.9808,244.8119 L67.9808,84.8719 C67.4788,82.9139 65.7058,81.4669 63.5908,81.4669 L63.2548,81.4669 C61.2068,81.4669 59.4718,82.8309 58.9118,84.7029 L58.9118,246.6899 C58.9118,246.9109 58.9278,247.1279 58.9598,247.3419 C58.9668,247.4029 58.9758,247.4639 58.9888,247.5249" id="Fill-2" fill="#1D1B1C"></path>
                <path d="M102.9859,421.4385 L155.5039,368.9175 C155.5329,368.8915 155.5589,368.8655 155.5809,368.8405 C155.6929,368.7315 155.7959,368.6165 155.8909,368.4975 C155.9429,368.4375 155.9869,368.3755 156.0319,368.3155 C156.1699,368.1295 156.2879,367.9345 156.3969,367.7325 C156.4289,367.6715 156.4609,367.6075 156.4899,367.5435 C156.5219,367.4775 156.5499,367.4095 156.5759,367.3425 C156.5989,367.2885 156.6209,367.2305 156.6399,367.1765 C156.6629,367.1125 156.6849,367.0485 156.7039,366.9835 C156.7199,366.9395 156.7329,366.8945 156.7459,366.8495 C156.7559,366.8085 156.7649,366.7695 156.7749,366.7315 C156.7969,366.6455 156.8159,366.5555 156.8319,366.4685 C156.8449,366.4085 156.8549,366.3475 156.8609,366.2865 C156.8929,366.0725 156.9089,365.8545 156.9089,365.6335 L156.9089,176.9975 C156.9089,174.4945 154.8799,172.4625 152.3749,172.4625 C149.8689,172.4625 147.8399,174.4945 147.8399,176.9975 L147.8399,363.7555 L96.5729,415.0225 C94.7999,416.7955 94.7999,419.6655 96.5729,421.4385 C98.3419,423.2085 101.2159,423.2085 102.9859,421.4385" id="Fill-4" fill="#1D1B1C"></path>
                <g id="Group-8" transform="translate(4.000000, 0.000000)">
                    <mask id="mask-2" fill="white">
                        <use xlink:href="#path-1"></use>
                    </mask>
                    <g id="Clip-7"></g>
                    <path d="M5.0694,128.7871 C7.5754,128.7871 9.6044,126.7581 9.6044,124.2521 L9.6044,0.4561 L0.5354,0.4561 L0.5354,124.2521 C0.5354,126.7581 2.5644,128.7871 5.0694,128.7871" id="Fill-6" fill="#1D1B1C" mask="url(#mask-2)"></path>
                </g>
                <path d="M13.6065,142.3916 C13.6065,141.2326 13.1615,140.0716 12.2785,139.1846 C10.5055,137.4156 7.6355,137.4156 5.8625,139.1846 L0.0005,145.0476 L0.0005,157.8786 L12.2785,145.6006 C13.1615,144.7146 13.6065,143.5536 13.6065,142.3916" id="Fill-9" fill="#1D1B1C"></path>
                <path d="M0.0001,223.812 L0.0001,236.641 L30.4671,206.172 C30.8961,205.746 31.2191,205.253 31.4401,204.732 C31.4661,204.665 31.4951,204.598 31.5201,204.53 L31.5201,204.527 C31.5451,204.457 31.5681,204.386 31.5901,204.316 C31.6131,204.246 31.6321,204.172 31.6511,204.102 C31.6931,203.954 31.7221,203.804 31.7441,203.657 C31.7571,203.57 31.7671,203.484 31.7761,203.401 C31.7891,203.257 31.7951,203.113 31.7951,202.965 L31.7951,0.457 L22.7271,0.457 L22.7271,201.087 L0.0001,223.812 Z" id="Fill-11" fill="#1D1B1C"></path>
                <g id="Group-15" transform="translate(421.000000, 223.000000)">
                    <mask id="mask-4" fill="white">
                        <use xlink:href="#path-3"></use>
                    </mask>
                    <g id="Clip-14"></g>
                    <path d="M0.7481,34.4873 C0.7481,35.6453 1.1931,36.8073 2.0761,37.6933 C3.8491,39.4633 6.7191,39.4633 8.4921,37.6933 L32.5431,13.6413 L32.5431,0.8123 L2.0761,31.2773 C1.1931,32.1643 0.7481,33.3253 0.7481,34.4873" id="Fill-13" fill="#1D1B1C" mask="url(#mask-4)"></path>
                </g>
                <g id="Group-18" transform="translate(77.000000, 0.000000)">
                    <mask id="mask-6" fill="white">
                        <use xlink:href="#path-5"></use>
                    </mask>
                    <g id="Clip-17"></g>
                    <path d="M4.5909,5.8589 L4.5909,5.8589 C7.0949,5.8589 9.1259,3.8289 9.1259,1.3239 L9.1259,0.4569 L0.0549,0.4569 L0.0549,1.3239 C0.0549,3.8289 2.0859,5.8589 4.5909,5.8589" id="Fill-16" fill="#1D1B1C" mask="url(#mask-6)"></path>
                </g>
                <g id="Group-21" transform="translate(40.000000, 0.000000)">
                    <mask id="mask-8" fill="white">
                        <use xlink:href="#path-7"></use>
                    </mask>
                    <g id="Clip-20"></g>
                    <path d="M5.3546,78.2216 L5.3546,78.2216 C7.8596,78.2216 9.8896,76.1916 9.8896,73.6866 L9.8896,0.4566 L0.8186,0.4566 L0.8186,73.6866 C0.8186,76.1916 2.8496,78.2216 5.3546,78.2216" id="Fill-19" fill="#1D1B1C" mask="url(#mask-8)"></path>
                </g>
                <path d="M426.2838,363.4038 L426.2838,363.4038 C423.7788,363.4038 421.7478,365.4338 421.7478,367.9398 L421.7478,453.9998 L430.8188,453.9998 L430.8188,367.9398 C430.8188,365.4338 428.7888,363.4038 426.2838,363.4038" id="Fill-22" fill="#1D1B1C"></path>
                <g id="Group-26" transform="translate(421.000000, 0.000000)">
                    <mask id="mask-10" fill="white">
                        <use xlink:href="#path-9"></use>
                    </mask>
                    <g id="Clip-25"></g>
                    <path d="M5.2838,128.7871 L5.2838,128.7871 C7.7888,128.7871 9.8188,126.7561 9.8188,124.2511 L9.8188,0.4561 L0.7478,0.4561 L0.7478,124.2511 C0.7478,126.7561 2.7788,128.7871 5.2838,128.7871" id="Fill-24" fill="#1D1B1C" mask="url(#mask-10)"></path>
                </g>
                <path d="M284.6456,114.2251 L356.8686,42.0021 C358.6406,40.2301 358.6406,37.3591 356.8686,35.5881 C355.0976,33.8161 352.2266,33.8161 350.4546,35.5881 L278.2316,107.8111 C276.4606,109.5821 276.4606,112.4541 278.2316,114.2251 C280.0026,115.9961 282.8746,115.9961 284.6456,114.2251" id="Fill-27" fill="#1D1B1C"></path>
                <path d="M350.6973,335.811 L259.9143,426.594 C258.1433,428.365 258.1433,431.237 259.9143,433.008 C261.6853,434.779 264.5573,434.779 266.3283,433.008 L357.1113,342.225 C358.8833,340.454 358.8833,337.582 357.1113,335.811 C355.3403,334.04 352.4683,334.04 350.6973,335.811" id="Fill-29" fill="#1D1B1C"></path>
                <path d="M356.6583,362.0776 L356.6583,362.0776 C354.8873,360.3066 352.0153,360.3066 350.2443,362.0776 L259.9143,452.4076 C259.4473,452.8746 259.1063,453.4196 258.8863,453.9996 L271.1493,453.9996 L356.6583,368.4916 C358.4293,366.7206 358.4293,363.8486 356.6583,362.0776" id="Fill-31" fill="#1D1B1C"></path>
                <g id="Group-35" transform="translate(284.000000, 386.000000)">
                    <mask id="mask-12" fill="white">
                        <use xlink:href="#path-11"></use>
                    </mask>
                    <g id="Clip-34"></g>
                    <path d="M72.6231,1.8052 L72.6231,1.8052 C70.8521,0.0342 67.9801,0.0342 66.2091,1.8052 L0.0141,68.0002 L12.8421,68.0002 L72.6231,8.2192 C74.3941,6.4482 74.3941,3.5762 72.6231,1.8052" id="Fill-33" fill="#1D1B1C" mask="url(#mask-12)"></path>
                </g>
                <g id="Group-38" transform="translate(258.000000, 0.000000)">
                    <mask id="mask-14" fill="white">
                        <use xlink:href="#path-13"></use>
                    </mask>
                    <g id="Clip-37"></g>
                    <path d="M1.9146,5.2778 L1.9146,5.2778 C3.6856,7.0488 6.5576,7.0488 8.3286,5.2778 L13.1496,0.4568 L0.8856,0.4568 C0.2696,2.0748 0.6106,3.9738 1.9146,5.2778" id="Fill-36" fill="#1D1B1C" mask="url(#mask-14)"></path>
                </g>
                <g id="Group-41" transform="translate(258.000000, 0.000000)">
                    <mask id="mask-16" fill="white">
                        <use xlink:href="#path-15"></use>
                    </mask>
                    <g id="Clip-40"></g>
                    <path d="M1.9146,30.9702 L1.9146,30.9702 C3.6856,32.7412 6.5576,32.7412 8.3286,30.9702 L38.8426,0.4562 L26.0146,0.4562 L1.9146,24.5562 C0.1436,26.3272 0.1436,29.1992 1.9146,30.9702" id="Fill-39" fill="#1D1B1C" mask="url(#mask-16)"></path>
                </g>
                <path d="M371.7906,316.6191 L371.7906,316.6191 C369.2856,316.6191 367.2546,318.6501 367.2546,321.1551 L367.2546,373.5241 C367.2546,376.0291 369.2856,378.0591 371.7906,378.0591 C374.2956,378.0591 376.3256,376.0291 376.3256,373.5241 L376.3256,321.1551 C376.3256,318.6501 374.2956,316.6191 371.7906,316.6191" id="Fill-42" fill="#1D1B1C"></path>
                <path d="M389.2305,299.1792 L389.2305,299.1792 C386.7255,299.1792 384.6945,301.2102 384.6945,303.7152 L384.6945,356.0842 C384.6945,358.5892 386.7255,360.6192 389.2305,360.6192 C391.7355,360.6192 393.7655,358.5892 393.7655,356.0842 L393.7655,303.7152 C393.7655,301.2102 391.7355,299.1792 389.2305,299.1792" id="Fill-44" fill="#1D1B1C"></path>
                <g id="Group-48" transform="translate(385.000000, 0.000000)">
                    <mask id="mask-18" fill="white">
                        <use xlink:href="#path-17"></use>
                    </mask>
                    <g id="Clip-47"></g>
                    <path d="M5.0943,58.3696 L5.0943,58.3696 C7.5993,58.3696 9.6303,56.3396 9.6303,53.8336 L9.6303,0.4566 L0.5593,0.4566 L0.5593,53.8336 C0.5593,56.3396 2.5893,58.3696 5.0943,58.3696" id="Fill-46" fill="#1D1B1C" mask="url(#mask-18)"></path>
                </g>
                <path d="M390.0943,402.6108 L390.0943,402.6108 C387.5893,402.6108 385.5593,404.6408 385.5593,407.1458 L385.5593,453.9998 L394.6303,453.9998 L394.6303,407.1458 C394.6303,404.6408 392.5993,402.6108 390.0943,402.6108" id="Fill-49" fill="#1D1B1C"></path>
                <g id="Group-53" transform="translate(276.000000, 0.000000)">
                    <mask id="mask-20" fill="white">
                        <use xlink:href="#path-19"></use>
                    </mask>
                    <g id="Clip-52"></g>
                    <path d="M2.2315,64.7383 C4.0025,66.5093 6.8745,66.5093 8.6455,64.7383 L72.9275,0.4563 L60.0995,0.4563 L2.2315,58.3243 C0.4605,60.0953 0.4605,62.9673 2.2315,64.7383" id="Fill-51" fill="#1D1B1C" mask="url(#mask-20)"></path>
                </g>
                <path d="M356.8687,439.644 L356.8687,439.644 C355.0977,437.873 352.2257,437.873 350.4547,439.644 L336.0987,454 L348.9277,454 L356.8687,446.058 C358.6397,444.287 358.6397,441.415 356.8687,439.644" id="Fill-54" fill="#1D1B1C"></path>
                <path d="M278.2315,89.4931 C280.0025,91.2641 282.8745,91.2641 284.6455,89.4931 L356.8685,17.2701 C358.6405,15.4991 358.6405,12.6271 356.8685,10.8561 C355.0975,9.0851 352.2265,9.0851 350.4545,10.8561 L278.2315,83.0791 C276.4605,84.8501 276.4605,87.7221 278.2315,89.4931" id="Fill-56" fill="#1D1B1C"></path>
                <path d="M244.8663,152.2592 L244.8663,152.2592 C247.3713,152.2592 249.4023,150.2282 249.4023,147.7242 L249.4023,61.1482 C249.4023,58.6432 247.3713,56.6132 244.8663,56.6132 C242.3613,56.6132 240.3303,58.6432 240.3303,61.1482 L240.3303,147.7242 C240.3303,150.2282 242.3613,152.2592 244.8663,152.2592" id="Fill-58" fill="#1D1B1C"></path>
                <g id="Group-62" transform="translate(0.000000, 163.000000)">
                    <mask id="mask-22" fill="white">
                        <use xlink:href="#path-21"></use>
                    </mask>
                    <g id="Clip-61"></g>
                    <path d="M12.2779,2.209 L12.2779,2.209 C10.5069,0.438 7.6349,0.438 5.8639,2.209 L-0.0001,8.073 L-0.0001,20.901 L12.2779,8.623 C14.0489,6.852 14.0489,3.98 12.2779,2.209" id="Fill-60" fill="#1D1B1C" mask="url(#mask-22)"></path>
                </g>
                <g id="Group-65" transform="translate(0.000000, 189.000000)">
                    <mask id="mask-24" fill="white">
                        <use xlink:href="#path-23"></use>
                    </mask>
                    <g id="Clip-64"></g>
                    <path d="M12.2779,1.9687 L12.2779,1.9687 C10.5069,0.1977 7.6349,0.1977 5.8639,1.9687 L-0.0001,7.8327 L-0.0001,20.6607 L12.2779,8.3827 C14.0489,6.6117 14.0489,3.7397 12.2779,1.9687" id="Fill-63" fill="#1D1B1C" mask="url(#mask-24)"></path>
                </g>
                <g id="Group-68" transform="translate(0.000000, 242.000000)">
                    <mask id="mask-26" fill="white">
                        <use xlink:href="#path-25"></use>
                    </mask>
                    <g id="Clip-67"></g>
                    <path d="M12.2779,1.4702 L12.2779,1.4702 C10.5069,-0.3008 7.6349,-0.3008 5.8639,1.4702 L-0.0001,7.3342 L-0.0001,20.1622 L12.2779,7.8842 C14.0489,6.1132 14.0489,3.2412 12.2779,1.4702" id="Fill-66" fill="#1D1B1C" mask="url(#mask-26)"></path>
                </g>
                <path d="M9.0709,266.3154 L9.0709,266.3154 C6.5659,266.3154 4.5359,268.3454 4.5359,270.8504 L4.5359,288.1904 C4.5359,290.6954 6.5659,292.7264 9.0709,292.7264 C11.5759,292.7264 13.6069,290.6954 13.6069,288.1904 L13.6069,270.8504 C13.6069,268.3454 11.5759,266.3154 9.0709,266.3154" id="Fill-69" fill="#1D1B1C"></path>
                <path d="M63.2984,294.4311 C65.8034,294.4311 67.8334,292.4001 67.8334,289.8951 L67.8334,272.5561 C67.8334,270.0511 65.8034,268.0201 63.2984,268.0201 C60.7934,268.0201 58.7624,270.0511 58.7624,272.5561 L58.7624,289.8951 C58.7624,292.4001 60.7934,294.4311 63.2984,294.4311" id="Fill-71" fill="#1D1B1C"></path>
                <path d="M116.669,278.8594 L116.669,278.8594 C119.174,278.8594 121.204,276.8284 121.204,274.3234 L121.204,164.6074 C121.204,162.1024 119.174,160.0724 116.669,160.0724 C114.164,160.0724 112.133,162.1024 112.133,164.6074 L112.133,274.3234 C112.133,276.8284 114.164,278.8594 116.669,278.8594" id="Fill-73" fill="#1D1B1C"></path>
                <path d="M99.2457,142.6489 C96.7407,142.6489 94.7107,144.6799 94.7107,147.1839 L94.7107,256.9009 C94.7107,259.4049 96.7407,261.4359 99.2457,261.4359 C101.7507,261.4359 103.7817,259.4049 103.7817,256.9009 L103.7817,147.1839 C103.7817,144.6799 101.7507,142.6489 99.2457,142.6489" id="Fill-75" fill="#1D1B1C"></path>
                <path d="M81.6651,125.0683 C79.1601,125.0683 77.1291,127.0983 77.1291,129.6033 L77.1291,239.3193 C77.1291,241.8243 79.1601,243.8553 81.6651,243.8553 C84.1701,243.8553 86.2011,241.8243 86.2011,239.3193 L86.2011,129.6033 C86.2011,127.0983 84.1701,125.0683 81.6651,125.0683" id="Fill-77" fill="#1D1B1C"></path>
                <path d="M30.3043,298.5874 C30.6493,298.2414 30.9313,297.8514 31.1393,297.4384 C31.5553,296.7544 31.7953,295.9474 31.7953,295.0864 L31.7953,228.7504 C31.7953,227.4994 31.2863,226.3634 30.4673,225.5444 C29.6453,224.7214 28.5123,224.2164 27.2613,224.2164 C24.7553,224.2164 22.7233,226.2454 22.7233,228.7504 L22.7233,293.3424 L5.9203,310.1454 L0.0003,316.0664 L0.0003,328.8914 L12.3333,316.5584 L30.3043,298.5874 Z" id="Fill-79" fill="#1D1B1C"></path>
                <g id="Group-83" transform="translate(421.000000, 249.000000)">
                    <mask id="mask-28" fill="white">
                        <use xlink:href="#path-27"></use>
                    </mask>
                    <g id="Clip-82"></g>
                    <path d="M2.0172,37.2744 C3.7882,39.0454 6.6602,39.0454 8.4312,37.2744 L32.5432,13.1624 L32.5432,0.3344 L2.0172,30.8604 C0.2462,32.6314 0.2462,35.5034 2.0172,37.2744" id="Fill-81" fill="#1D1B1C" mask="url(#mask-28)"></path>
                </g>
                <path d="M426.5005,328.8393 L426.5005,328.8393 C429.0055,328.8393 431.0365,326.8093 431.0365,324.3043 L431.0365,306.9643 C431.0365,304.4593 429.0055,302.4283 426.5005,302.4283 C423.9955,302.4283 421.9655,304.4593 421.9655,306.9643 L421.9655,324.3043 C421.9655,326.8093 423.9955,328.8393 426.5005,328.8393" id="Fill-84" fill="#1D1B1C"></path>
                <path d="M384.6949,206.5781 L384.6949,223.9171 C384.6949,226.4231 386.7259,228.4531 389.2309,228.4531 C391.7359,228.4531 393.7659,226.4231 393.7659,223.9171 L393.7659,206.5781 C393.7659,204.0731 391.7359,202.0421 389.2309,202.0421 C386.7259,202.0421 384.6949,204.0731 384.6949,206.5781" id="Fill-86" fill="#1D1B1C"></path>
                <path d="M318.8267,199.1816 C318.8267,201.6866 320.8577,203.7176 323.3627,203.7176 L352.9467,203.7176 C355.4517,203.7176 357.4827,201.6866 357.4827,199.1816 C357.4827,196.6766 355.4517,194.6466 352.9467,194.6466 L323.3627,194.6466 C320.8577,194.6466 318.8267,196.6766 318.8267,199.1816" id="Fill-88" fill="#1D1B1C"></path>
                <path d="M301.6534,217.3237 C301.6534,219.8277 303.6844,221.8587 306.1894,221.8587 L352.9464,221.8587 C355.4514,221.8587 357.4824,219.8277 357.4824,217.3237 C357.4824,214.8187 355.4514,212.7877 352.9464,212.7877 L306.1894,212.7877 C303.6844,212.7877 301.6534,214.8187 301.6534,217.3237" id="Fill-90" fill="#1D1B1C"></path>
                <path d="M408.2281,109.9795 L408.2281,109.9795 C405.7231,109.9795 403.6931,112.0095 403.6931,114.5145 L403.6931,145.2575 C403.6931,147.7625 405.7231,149.7925 408.2281,149.7925 C410.7331,149.7925 412.7641,147.7625 412.7641,145.2575 L412.7641,114.5145 C412.7641,112.0095 410.7331,109.9795 408.2281,109.9795" id="Fill-92" fill="#1D1B1C"></path>
                <path d="M389.3253,128.8823 C386.8203,128.8823 384.7903,130.9123 384.7903,133.4173 L384.7903,164.1603 C384.7903,166.6653 386.8203,168.6953 389.3253,168.6953 C391.8303,168.6953 393.8613,166.6653 393.8613,164.1603 L393.8613,133.4173 C393.8613,130.9123 391.8303,128.8823 389.3253,128.8823" id="Fill-94" fill="#1D1B1C"></path>
                <path d="M371.0889,248.6728 C373.5939,248.6728 375.6239,246.6418 375.6239,244.1368 L375.6239,151.3148 C375.6239,148.8098 373.5939,146.7788 371.0889,146.7788 C368.5839,146.7788 366.5529,148.8098 366.5529,151.3148 L366.5529,244.1368 C366.5529,246.6418 368.5839,248.6728 371.0889,248.6728" id="Fill-96" fill="#1D1B1C"></path>
                <path d="M208.6182,411.6479 C206.1132,411.6479 204.0832,413.6789 204.0832,416.1839 L204.0832,453.9999 L213.1542,453.9999 L213.1542,416.1839 C213.1542,413.6789 211.1232,411.6479 208.6182,411.6479" id="Fill-98" fill="#1D1B1C"></path>
                <path d="M190.5591,411.6479 C188.0541,411.6479 186.0231,413.6789 186.0231,416.1839 L186.0231,453.9999 L195.0941,453.9999 L195.0941,416.1839 C195.0941,413.6789 193.0641,411.6479 190.5591,411.6479" id="Fill-100" fill="#1D1B1C"></path>
                <g id="Group-104" transform="translate(167.000000, 418.000000)">
                    <mask id="mask-30" fill="white">
                        <use xlink:href="#path-29"></use>
                    </mask>
                    <g id="Clip-103"></g>
                    <path d="M5.335,0.9082 L5.335,0.9082 C2.83,0.9082 0.799,2.9392 0.799,5.4442 L0.799,36.0002 L9.87,36.0002 L9.87,5.4442 C9.87,2.9392 7.84,0.9082 5.335,0.9082" id="Fill-102" fill="#1D1B1C" mask="url(#mask-30)"></path>
                </g>
                <path d="M154.1109,436.8325 C151.6059,436.8325 149.5749,438.8635 149.5749,441.3685 L149.5749,453.9995 L158.6469,453.9995 L158.6469,441.3685 C158.6469,438.8635 156.6159,436.8325 154.1109,436.8325" id="Fill-105" fill="#1D1B1C"></path>
                <g id="Group-109" transform="translate(204.000000, 0.000000)">
                    <mask id="mask-32" fill="white">
                        <use xlink:href="#path-31"></use>
                    </mask>
                    <g id="Clip-108"></g>
                    <path d="M4.6182,132.7104 C7.1232,132.7104 9.1542,130.6794 9.1542,128.1744 L9.1542,0.4564 L0.0832,0.4564 L0.0832,128.1744 C0.0832,130.6794 2.1132,132.7104 4.6182,132.7104" id="Fill-107" fill="#1D1B1C" mask="url(#mask-32)"></path>
                </g>
                <g id="Group-112" transform="translate(186.000000, 0.000000)">
                    <mask id="mask-34" fill="white">
                        <use xlink:href="#path-33"></use>
                    </mask>
                    <g id="Clip-111"></g>
                    <path d="M4.5591,114.9507 C7.0641,114.9507 9.0941,112.9197 9.0941,110.4147 L9.0941,0.4567 L0.0231,0.4567 L0.0231,110.4147 C0.0231,112.9197 2.0541,114.9507 4.5591,114.9507" id="Fill-110" fill="#1D1B1C" mask="url(#mask-34)"></path>
                </g>
                <g id="Group-115" transform="translate(167.000000, 0.000000)">
                    <mask id="mask-36" fill="white">
                        <use xlink:href="#path-35"></use>
                    </mask>
                    <g id="Clip-114"></g>
                    <path d="M5.335,96.5161 L5.335,96.5161 C7.84,96.5161 9.87,94.4851 9.87,91.9801 L9.87,0.4561 L0.799,0.4561 L0.799,91.9801 C0.799,94.4851 2.83,96.5161 5.335,96.5161" id="Fill-113" fill="#1D1B1C" mask="url(#mask-36)"></path>
                </g>
                <g id="Group-118" transform="translate(149.000000, 0.000000)">
                    <mask id="mask-38" fill="white">
                        <use xlink:href="#path-37"></use>
                    </mask>
                    <g id="Clip-117"></g>
                    <path d="M5.1109,78.2216 L5.1109,78.2216 C7.6159,78.2216 9.6469,76.1916 9.6469,73.6866 L9.6469,0.4566 L0.5749,0.4566 L0.5749,73.6866 C0.5749,76.1916 2.6059,78.2216 5.1109,78.2216" id="Fill-116" fill="#1D1B1C" mask="url(#mask-38)"></path>
                </g>
                <path d="M136.063,1.1025 C133.558,1.1025 131.527,3.1335 131.527,5.6385 L131.527,55.0555 C131.527,57.5605 133.558,59.5905 136.063,59.5905 C138.568,59.5905 140.599,57.5605 140.599,55.0555 L140.599,5.6385 C140.599,3.1335 138.568,1.1025 136.063,1.1025" id="Fill-119" fill="#1D1B1C"></path>
                <path d="M117.6221,17.936 L117.6221,17.936 C115.1171,17.936 113.0861,19.966 113.0861,22.471 L113.0861,35.48 C113.0861,37.985 115.1171,40.016 117.6221,40.016 C120.1271,40.016 122.1571,37.985 122.1571,35.48 L122.1571,22.471 C122.1571,19.966 120.1271,17.936 117.6221,17.936" id="Fill-121" fill="#1D1B1C"></path>
                <path d="M353.1553,185.5752 C355.6593,185.5752 357.6903,183.5452 357.6903,181.0402 C357.6903,178.5352 355.6593,176.5042 353.1553,176.5042 L340.1463,176.5042 C337.6413,176.5042 335.6103,178.5352 335.6103,181.0402 C335.6103,183.5452 337.6413,185.5752 340.1463,185.5752 L353.1553,185.5752 Z" id="Fill-123" fill="#1D1B1C"></path>
                <path d="M252.9044,357.5317 L233.0954,357.5317 C230.5904,357.5317 228.5604,359.5627 228.5604,362.0677 C228.5604,364.5717 230.5904,366.6027 233.0954,366.6027 L252.9044,366.6027 C255.4094,366.6027 257.4404,364.5717 257.4404,362.0677 C257.4404,359.5627 255.4094,357.5317 252.9044,357.5317" id="Fill-125" fill="#1D1B1C"></path>
                <path d="M317.4805,303.5181 L281.2305,303.5181 C278.7265,303.5181 276.6955,305.5491 276.6955,308.0541 C276.6955,310.5591 278.7265,312.5891 281.2305,312.5891 L317.4805,312.5891 C319.9855,312.5891 322.0155,310.5591 322.0155,308.0541 C322.0155,305.5491 319.9855,303.5181 317.4805,303.5181" id="Fill-127" fill="#1D1B1C"></path>
                <path d="M329.8135,289.9116 C329.8135,287.4076 327.7825,285.3766 325.2775,285.3766 L281.2305,285.3766 C278.7265,285.3766 276.6955,287.4076 276.6955,289.9116 C276.6955,292.4166 278.7265,294.4476 281.2305,294.4476 L325.2775,294.4476 C327.7825,294.4476 329.8135,292.4166 329.8135,289.9116 Z" id="Fill-129" fill="#1D1B1C"></path>
                <path d="M281.231,276.3056 L343.731,276.3056 C346.236,276.3056 348.267,274.2746 348.267,271.7696 C348.267,269.2646 346.236,267.2346 343.731,267.2346 L281.231,267.2346 C278.726,267.2346 276.695,269.2646 276.695,271.7696 C276.695,274.2746 278.726,276.3056 281.231,276.3056" id="Fill-131" fill="#1D1B1C"></path>
                <path d="M281.231,258.1636 L352.947,258.1636 C355.452,258.1636 357.482,256.1336 357.482,253.6286 C357.482,251.1236 355.452,249.0926 352.947,249.0926 L281.231,249.0926 C278.726,249.0926 276.695,251.1236 276.695,253.6286 C276.695,256.1336 278.726,258.1636 281.231,258.1636" id="Fill-133" fill="#1D1B1C"></path>
                <path d="M282.1339,235.4653 L282.1339,235.4653 C282.1339,237.9703 284.0279,240.0003 286.3639,240.0003 L353.2529,240.0003 C355.5889,240.0003 357.4829,237.9703 357.4829,235.4653 C357.4829,232.9603 355.5889,230.9293 353.2529,230.9293 L286.3639,230.9293 C284.0279,230.9293 282.1339,232.9603 282.1339,235.4653" id="Fill-135" fill="#1D1B1C"></path>
                <path d="M208.709,267.9385 L208.709,267.9385 C206.204,267.9385 204.173,269.9685 204.173,272.4735 L204.173,309.6785 C204.173,312.1835 206.204,314.2145 208.709,314.2145 C211.214,314.2145 213.245,312.1835 213.245,309.6785 L213.245,272.4735 C213.245,269.9685 211.214,267.9385 208.709,267.9385" id="Fill-137" fill="#1D1B1C"></path>
                <path d="M190.6324,275.3862 C188.1284,275.3862 186.0974,277.4162 186.0974,279.9212 L186.0974,327.7242 C186.0974,330.2282 188.1284,332.2592 190.6324,332.2592 C193.1374,332.2592 195.1684,330.2282 195.1684,327.7242 L195.1684,279.9212 C195.1684,277.4162 193.1374,275.3862 190.6324,275.3862" id="Fill-139" fill="#1D1B1C"></path>
                <path d="M170.5616,188.5791 C168.0566,188.5791 166.0256,190.6101 166.0256,193.1151 L166.0256,347.5961 C166.0256,350.1001 168.0566,352.1311 170.5616,352.1311 C173.0666,352.1311 175.0966,350.1001 175.0966,347.5961 L175.0966,193.1151 C175.0966,190.6101 173.0666,188.5791 170.5616,188.5791" id="Fill-141" fill="#1D1B1C"></path>
                <path d="M234.6514,375.7851 L214.8424,375.7851 C212.3374,375.7851 210.3064,377.8151 210.3064,380.3201 C210.3064,382.8251 212.3374,384.8561 214.8424,384.8561 L234.6514,384.8561 C237.1564,384.8561 239.1874,382.8251 239.1874,380.3201 C239.1874,377.8151 237.1564,375.7851 234.6514,375.7851" id="Fill-143" fill="#1D1B1C"></path>
                <path d="M216.9302,393.5063 L197.1212,393.5063 C194.6162,393.5063 192.5852,395.5363 192.5852,398.0413 C192.5852,400.5463 194.6162,402.5773 197.1212,402.5773 L216.9302,402.5773 C219.4352,402.5773 221.4652,400.5463 221.4652,398.0413 C221.4652,395.5363 219.4352,393.5063 216.9302,393.5063" id="Fill-145" fill="#1D1B1C"></path>
                <path d="M98.7906,397.3613 L98.7906,397.3613 C101.2956,397.3613 103.3266,395.3303 103.3266,392.8253 L103.3266,307.7173 C103.3266,305.2123 101.2956,303.1813 98.7906,303.1813 C96.2856,303.1813 94.2556,305.2123 94.2556,307.7173 L94.2556,392.8253 C94.2556,395.3303 96.2856,397.3613 98.7906,397.3613" id="Fill-147" fill="#1D1B1C"></path>
                <path d="M297.2545,339.3901 L251.2555,339.3901 C248.7505,339.3901 246.7195,341.4201 246.7195,343.9251 C246.7195,346.4301 248.7505,348.4611 251.2555,348.4611 L297.2545,348.4611 C299.7595,348.4611 301.7905,346.4301 301.7905,343.9251 C301.7905,341.4201 299.7595,339.3901 297.2545,339.3901" id="Fill-149" fill="#1D1B1C"></path>
                <path d="M386.4439,248.1157 L329.8439,304.7157 C328.0729,306.4867 328.0729,309.3587 329.8439,311.1297 C331.6159,312.9007 334.4869,312.9007 336.2579,311.1297 L392.8579,254.5297 C394.6299,252.7587 394.6299,249.8867 392.8579,248.1157 C391.0869,246.3447 388.2149,246.3447 386.4439,248.1157" id="Fill-151" fill="#1D1B1C"></path>
                <path d="M445.0084,310.3315 C447.5134,310.3315 449.5444,308.3015 449.5444,305.7965 L449.5444,288.4565 C449.5444,285.9515 447.5134,283.9205 445.0084,283.9205 C442.5034,283.9205 440.4734,285.9515 440.4734,288.4565 L440.4734,305.7965 C440.4734,308.3015 442.5034,310.3315 445.0084,310.3315" id="Fill-153" fill="#1D1B1C"></path>
                <g id="Group-157" transform="translate(421.000000, 316.000000)">
                    <mask id="mask-40" fill="white">
                        <use xlink:href="#path-39"></use>
                    </mask>
                    <g id="Clip-156"></g>
                    <path d="M0.6905,33.7969 C0.6905,34.9589 1.1325,36.1199 2.0185,37.0039 C3.7885,38.7759 6.6585,38.7759 8.4315,37.0039 L26.4575,18.9779 L32.5435,12.8919 L32.5435,0.0659 L2.0185,30.5899 C1.1325,31.4769 0.6905,32.6389 0.6905,33.7969" id="Fill-155" fill="#1D1B1C" mask="url(#mask-40)"></path>
                </g>
                <path d="M5.8624,310.2002 L0.0004,316.0632 L0.0004,316.0662 L5.9204,310.1452 C5.9014,310.1612 5.8824,310.1812 5.8624,310.2002" id="Fill-158" fill="#1D1B1C"></path>
                <g id="Group-162" transform="translate(403.000000, 145.000000)">
                    <mask id="mask-42" fill="white">
                        <use xlink:href="#path-41"></use>
                    </mask>
                    <g id="Clip-161"></g>
                    <path d="M0.9146,50.1465 C0.8886,50.2135 0.8596,50.2815 0.8346,50.3485 L0.8346,50.3515 C0.8096,50.4215 0.7866,50.4925 0.7646,50.5625 C0.7416,50.6335 0.7226,50.7065 0.7036,50.7775 C0.6616,50.9245 0.6326,51.0745 0.6106,51.2215 C0.5976,51.3085 0.5876,51.3945 0.5786,51.4785 C0.5656,51.6225 0.5596,51.7665 0.5596,51.9135 L0.5596,265.0785 C0.5596,267.5835 2.5876,269.6125 5.0936,269.6125 C7.5996,269.6125 9.6276,267.5835 9.6276,265.0785 L9.6276,53.7915 L50.5436,12.8785 L50.5436,0.0475 L1.8876,48.7065 C1.4586,49.1325 1.1356,49.6255 0.9146,50.1465" id="Fill-160" fill="#1D1B1C" mask="url(#mask-42)"></path>
                </g>
                <g id="Group-165" transform="translate(421.000000, 171.000000)">
                    <mask id="mask-44" fill="white">
                        <use xlink:href="#path-43"></use>
                    </mask>
                    <g id="Clip-164"></g>
                    <path d="M2.0172,37.0132 L2.0172,37.0132 C3.7882,38.7842 6.6602,38.7842 8.4312,37.0132 L32.5432,12.9012 L32.5432,0.0732 L2.0172,30.5992 C0.2462,32.3702 0.2462,35.2422 2.0172,37.0132" id="Fill-163" fill="#1D1B1C" mask="url(#mask-44)"></path>
                </g>
                <g id="Group-168" transform="translate(421.000000, 196.000000)">
                    <mask id="mask-46" fill="white">
                        <use xlink:href="#path-45"></use>
                    </mask>
                    <g id="Clip-167"></g>
                    <path d="M2.0172,37.7729 L2.0172,37.7729 C3.7882,39.5439 6.6602,39.5439 8.4312,37.7729 L32.5432,13.6609 L32.5432,0.8329 L2.0172,31.3589 C0.2462,33.1299 0.2462,36.0019 2.0172,37.7729" id="Fill-166" fill="#1D1B1C" mask="url(#mask-46)"></path>
                </g>
                <path d="M58.9732,9.062 C58.9732,9.218 58.9817,9.372 58.9967,9.523 C59.0037,9.603 59.0157,9.677 59.0267,9.752 C59.0607,9.98 59.1147,10.202 59.1807,10.422 C59.2007,10.487 59.2237,10.555 59.2477,10.621 C59.2727,10.691 59.3007,10.759 59.3297,10.825 C59.3527,10.879 59.3777,10.936 59.4027,10.987 C59.4317,11.048 59.4607,11.109 59.4927,11.168 C59.5137,11.211 59.5357,11.252 59.5577,11.293 C59.5807,11.329 59.6007,11.363 59.6217,11.397 C59.6667,11.474 59.7167,11.551 59.7667,11.624 C59.8007,11.675 59.8367,11.725 59.8747,11.772 C60.0037,11.947 60.1467,12.112 60.3027,12.268 L205.4117,157.378 C207.1837,159.149 210.0537,159.149 211.8247,157.378 C213.5967,155.606 213.5967,152.737 211.8247,150.965 L68.0437,7.184 L68.0437,0.457 L58.9732,0.457 L58.9732,8.953 C58.9732,8.992 58.9732,9.028 58.9732,9.062" id="Fill-169" fill="#1D1B1C"></path>
                <path d="M204.0826,181.7788 L204.0826,254.2818 C204.0826,256.7888 206.1126,258.8188 208.6196,258.8188 C211.1226,258.8188 213.1536,256.7858 213.1536,254.2838 L213.1516,180.0088 C213.1536,179.9708 213.1536,179.9348 213.1516,179.9008 C213.1536,179.7448 213.1446,179.5908 213.1286,179.4388 C213.1226,179.3598 213.1106,179.2848 213.0996,179.2108 C213.0656,178.9818 213.0116,178.7598 212.9456,178.5408 C212.9256,178.4748 212.9026,178.4068 212.8776,178.3418 C212.8536,178.2718 212.8256,178.2038 212.7966,178.1378 C212.7736,178.0838 212.7486,178.0278 212.7236,177.9748 C212.6946,177.9138 212.6656,177.8528 212.6336,177.7938 C212.6126,177.7508 212.5906,177.7108 212.5676,177.6698 C212.5446,177.6328 212.5246,177.5998 212.5046,177.5658 C212.4586,177.4878 212.4096,177.4118 212.3596,177.3398 C212.3256,177.2868 212.2896,177.2368 212.2506,177.1898 C212.1226,177.0158 211.9796,176.8508 211.8236,176.6948 L66.7136,31.5848 C64.9416,29.8128 62.0726,29.8128 60.3016,31.5848 C58.5296,33.3568 58.5296,36.2258 60.3016,37.9978 L204.0826,181.7788 Z" id="Fill-171" fill="#1D1B1C"></path>
                <g id="Group-175" transform="translate(0.000000, 92.000000)">
                    <mask id="mask-48" fill="white">
                        <use xlink:href="#path-47"></use>
                    </mask>
                    <g id="Clip-174"></g>
                    <path d="M48.6089,213.6279 C48.7209,213.5189 48.8229,213.4039 48.9199,213.2859 C48.9709,213.2249 49.0149,213.1639 49.0599,213.1029 C49.1979,212.9179 49.3159,212.7219 49.4249,212.5209 C49.4569,212.4599 49.4889,212.3959 49.5179,212.3319 C49.5499,212.2649 49.5789,212.1969 49.6039,212.1299 C49.6269,212.0759 49.6489,212.0189 49.6679,211.9639 C49.6909,211.8999 49.7129,211.8359 49.7319,211.7719 C49.7479,211.7269 49.7609,211.6819 49.7739,211.6369 C49.7829,211.5959 49.7929,211.5579 49.8029,211.5189 C49.8249,211.4329 49.8439,211.3429 49.8599,211.2569 C49.8729,211.1959 49.8819,211.1349 49.8889,211.0739 C49.9209,210.8599 49.9369,210.6419 49.9369,210.4209 L49.9369,5.2059 C49.9369,2.6999 47.9079,0.6709 45.4019,0.6709 C42.8969,0.6709 40.8679,2.6999 40.8679,5.2059 L40.8679,208.5429 L-0.0001,249.4109 L-0.0001,262.2399 L48.5319,213.7049 C48.5609,213.6789 48.5869,213.6529 48.6089,213.6279" id="Fill-173" fill="#1D1B1C" mask="url(#mask-48)"></path>
                </g>
                <path d="M195.168,187.3969 C195.168,187.2399 195.162,187.0859 195.146,186.9359 C195.139,186.8559 195.126,186.7789 195.117,186.7059 C195.082,186.4789 195.027,186.2539 194.96,186.0369 C194.941,185.9699 194.918,185.9019 194.893,185.8379 C194.867,185.7679 194.842,185.6979 194.813,185.6339 C194.791,185.5789 194.765,185.5219 194.739,185.4709 C194.71,185.4099 194.682,185.3489 194.649,185.2879 C194.627,185.2469 194.605,185.2049 194.583,185.1669 C194.56,185.1279 194.541,185.0959 194.522,185.0609 C194.474,184.9839 194.426,184.9069 194.375,184.8339 C194.342,184.7829 194.304,184.7339 194.266,184.6869 C194.138,184.5109 193.994,184.3469 193.84,184.1899 L125.565,115.9159 L66.739,57.0859 C66.72,57.0669 66.701,57.0479 66.682,57.0319 C64.906,55.3139 62.077,55.3329 60.323,57.0859 C58.554,58.8559 58.554,61.7299 60.323,63.4999 L152.72,155.8959 L156.896,160.0719 L186.099,189.2749 L186.099,261.7779 C186.099,264.2829 188.128,266.3149 190.634,266.3149 C193.139,266.3149 195.168,264.2829 195.168,261.7779 L195.168,187.3969 Z" id="Fill-176" fill="#1D1B1C"></path>
                <g id="Group-180" transform="translate(441.000000, 341.000000)">
                    <mask id="mask-50" fill="white">
                        <use xlink:href="#path-49"></use>
                    </mask>
                    <g id="Clip-179"></g>
                    <path d="M2.1441,17.2261 C3.9141,18.9961 6.7881,18.9961 8.5571,17.2261 L12.5431,13.2401 L12.5431,0.4111 L2.1441,10.8101 C0.3721,12.5831 0.3721,15.4541 2.1441,17.2261" id="Fill-178" fill="#1D1B1C" mask="url(#mask-50)"></path>
                </g>
                <g id="Group-183" transform="translate(387.000000, 0.000000)">
                    <mask id="mask-52" fill="white">
                        <use xlink:href="#path-51"></use>
                    </mask>
                    <g id="Clip-182"></g>
                    <path d="M1.6719,184.0678 C-0.1011,185.8398 -0.1011,188.7108 1.6719,190.4838 C3.4419,192.2538 6.3149,192.2538 8.0849,190.4838 L60.6029,137.9618 C60.6319,137.9368 60.6569,137.9108 60.6799,137.8848 C60.7919,137.7758 60.8939,137.6608 60.9899,137.5428 C61.0419,137.4818 61.0859,137.4218 61.1309,137.3598 C61.2689,137.1748 61.3869,136.9798 61.4959,136.7778 C61.5279,136.7168 61.5599,136.6528 61.5889,136.5888 C61.6209,136.5218 61.6499,136.4548 61.6749,136.3878 C61.6969,136.3338 61.7199,136.2758 61.7389,136.2208 C61.7609,136.1568 61.7839,136.0928 61.8029,136.0288 C61.8189,135.9848 61.8319,135.9398 61.8449,135.8948 C61.8539,135.8538 61.8639,135.8148 61.8729,135.7758 C61.8959,135.6898 61.9149,135.6008 61.9309,135.5138 C61.9439,135.4528 61.9529,135.3928 61.9599,135.3318 C61.9919,135.1168 62.0079,134.8998 62.0079,134.6788 L62.0079,0.4568 L52.9389,0.4568 L52.9389,132.7998 L1.6719,184.0678 Z" id="Fill-181" fill="#1D1B1C" mask="url(#mask-52)"></path>
                </g>
                <path d="M447.6802,369.9536 C446.8572,369.1316 445.7252,368.6256 444.4732,368.6256 C441.9682,368.6256 439.9362,370.6546 439.9362,373.1606 L439.9362,390.5006 C439.9362,390.5396 439.9362,390.5806 439.9392,390.6196 L439.9392,453.9996 L449.0082,453.9996 L449.0082,373.1606 C449.0082,371.9086 448.4992,370.7726 447.6802,369.9536" id="Fill-184" fill="#1D1B1C"></path>
                <path d="M96.5728,447.0083 C98.3448,448.7793 101.2138,448.7793 102.9858,447.0083 L248.0948,301.8993 C248.2518,301.7423 248.3938,301.5773 248.5228,301.4033 C248.5608,301.3553 248.5978,301.3053 248.6318,301.2543 C248.6808,301.1813 248.7308,301.1043 248.7768,301.0273 C248.7968,300.9933 248.8168,300.9603 248.8398,300.9233 C248.8628,300.8833 248.8848,300.8413 248.9058,300.7993 C248.9368,300.7403 248.9668,300.6793 248.9958,300.6183 C249.0208,300.5663 249.0458,300.5093 249.0688,300.4553 C249.0978,300.3893 249.1248,300.3213 249.1498,300.2513 C249.1748,300.1863 249.1978,300.1173 249.2178,300.0523 C249.2828,299.8333 249.3378,299.6113 249.3708,299.3823 C249.3828,299.3083 249.3938,299.2333 249.4008,299.1543 C249.4168,299.0023 249.4258,298.8483 249.4238,298.6923 C249.4258,298.6583 249.4258,298.6223 249.4238,298.5843 L249.4258,224.3093 C249.4258,221.8063 247.3938,219.7753 244.8908,219.7753 C242.3838,219.7753 240.3548,221.8043 240.3548,224.3113 L240.3548,296.8143 L96.5728,440.5953 C94.8018,442.3673 94.8018,445.2373 96.5728,447.0083" id="Fill-186" fill="#1D1B1C"></path>
                <path d="M226.7847,295.5889 C229.2917,295.5889 231.3217,293.5589 231.3217,291.0519 L231.3217,218.5489 L375.1027,74.7679 C376.8747,72.9959 376.8747,70.1269 375.1027,68.3559 C373.3307,66.5839 370.4617,66.5839 368.6897,68.3559 L223.5807,213.4649 C223.4247,213.6209 223.2817,213.7859 223.1527,213.9609 C223.1147,214.0079 223.0777,214.0579 223.0437,214.1099 C222.9947,214.1819 222.9447,214.2589 222.8997,214.3359 C222.8787,214.3699 222.8587,214.4039 222.8357,214.4409 C222.8137,214.4809 222.7907,214.5219 222.7707,214.5649 C222.7387,214.6239 222.7097,214.6849 222.6797,214.7459 C222.6547,214.7979 222.6307,214.8549 222.6077,214.9089 C222.5777,214.9739 222.5507,215.0419 222.5257,215.1119 C222.5007,215.1779 222.4787,215.2459 222.4577,215.3119 C222.3927,215.5309 222.3387,215.7529 222.3047,215.9809 C222.2927,216.0559 222.2817,216.1309 222.2747,216.2099 C222.2597,216.3609 222.2497,216.5149 222.2527,216.6719 C222.2497,216.7049 222.2497,216.7409 222.2527,216.7799 L222.2497,291.0539 C222.2497,293.5569 224.2817,295.5889 226.7847,295.5889" id="Fill-188" fill="#1D1B1C"></path>
                <path d="M380.816,397.0547 L380.816,397.0547 C380.799,397.0707 380.783,397.0877 380.765,397.1027 C380.781,397.0867 380.8,397.0737 380.816,397.0547" id="Fill-190" fill="#1D1B1C"></path>
                <path d="M393.2256,384.6416 C394.0476,383.7716 394.4576,382.6546 394.4576,381.5406 C394.4576,380.3796 394.0126,379.2176 393.1266,378.3316 C391.3566,376.5616 388.4836,376.5616 386.7136,378.3316 L374.4516,390.5936 L311.0446,453.9996 L323.8686,453.9996 L380.7646,397.1026 L393.2256,384.6416 Z" id="Fill-192" fill="#1D1B1C"></path>
                <g id="Group-196" transform="translate(258.000000, 0.000000)">
                    <mask id="mask-54" fill="white">
                        <use xlink:href="#path-53"></use>
                    </mask>
                    <g id="Clip-195"></g>
                    <path d="M1.7379,51.831 C1.6989,51.879 1.6639,51.927 1.6289,51.981 C1.5809,52.052 1.5299,52.129 1.4849,52.206 C1.4659,52.241 1.4439,52.276 1.4209,52.311 C1.3989,52.353 1.3759,52.391 1.3569,52.436 C1.3249,52.494 1.2929,52.554 1.2639,52.615 C1.2419,52.669 1.2159,52.724 1.1939,52.778 C1.1619,52.846 1.1359,52.913 1.1109,52.983 C1.0849,53.05 1.0629,53.118 1.0439,53.182 C0.9759,53.402 0.9249,53.623 0.8899,53.853 C0.8769,53.927 0.8669,54.001 0.8609,54.081 C0.8449,54.231 0.8359,54.385 0.8389,54.541 C0.8359,54.577 0.8359,54.612 0.8389,54.65 L0.8359,128.926 C0.8359,131.428 2.8669,133.46 5.3699,133.46 C7.8759,133.46 9.9069,131.431 9.9069,128.922 L9.9069,56.42 L65.8689,0.456 L53.0449,0.456 L2.1669,51.335 C2.0099,51.492 1.8659,51.658 1.7379,51.831" id="Fill-194" fill="#1D1B1C" mask="url(#mask-54)"></path>
                </g>
                <g id="Group-199" transform="translate(222.000000, 0.000000)">
                    <mask id="mask-56" fill="white">
                        <use xlink:href="#path-55"></use>
                    </mask>
                    <g id="Clip-198"></g>
                    <path d="M1.4713,188.1435 C-0.3007,189.9145 -0.3007,192.7845 1.4713,194.5565 C3.2423,196.3285 6.1123,196.3285 7.8843,194.5565 L152.9933,49.4465 C153.1493,49.2905 153.2923,49.1245 153.4213,48.9515 C153.4593,48.9035 153.4953,48.8535 153.5303,48.8015 C153.5793,48.7285 153.6293,48.6525 153.6743,48.5755 C153.6953,48.5415 153.7153,48.5075 153.7383,48.4715 C153.7603,48.4305 153.7833,48.3895 153.8033,48.3465 C153.8353,48.2885 153.8653,48.2265 153.8943,48.1655 C153.9193,48.1135 153.9443,48.0575 153.9663,48.0025 C153.9953,47.9365 154.0233,47.8695 154.0483,47.7995 C154.0733,47.7335 154.0953,47.6655 154.1163,47.6005 C154.1813,47.3805 154.2353,47.1585 154.2693,46.9305 C154.2813,46.8555 154.2923,46.7815 154.2993,46.7015 C154.3153,46.5505 154.3238,46.3965 154.3238,46.2405 C154.3238,46.2065 154.3238,46.1695 154.3238,46.1315 L154.3238,0.4565 L145.2523,0.4565 L145.2523,44.3625 L1.4713,188.1435 Z" id="Fill-197" fill="#1D1B1C" mask="url(#mask-56)"></path>
                </g>
                <path d="M244.8653,47.542 C247.3723,47.542 249.4023,45.512 249.4023,43.005 L249.4023,0.457 L240.3323,0.457 L240.3303,43.007 C240.3303,45.51 242.3633,47.542 244.8653,47.542" id="Fill-200" fill="#1D1B1C"></path>
                <path d="M263.0543,312.5889 C265.5613,312.5889 267.5913,310.5589 267.5913,308.0519 L267.5913,235.5489 L411.3723,91.7679 C413.1443,89.9959 413.1443,87.1279 411.3723,85.3559 C409.6003,83.5839 406.7313,83.5839 404.9603,85.3559 L259.8503,230.4649 C259.6943,230.6209 259.5523,230.7869 259.4223,230.9609 C259.3843,231.0079 259.3473,231.0579 259.3143,231.1099 C259.2643,231.1829 259.2143,231.2589 259.1693,231.3369 C259.1493,231.3699 259.1283,231.4039 259.1063,231.4409 C259.0833,231.4809 259.0603,231.5219 259.0403,231.5649 C259.0083,231.6239 258.9793,231.6849 258.9503,231.7459 C258.9253,231.7979 258.9003,231.8549 258.8773,231.9089 C258.8473,231.9739 258.8213,232.0419 258.7963,232.1119 C258.7713,232.1779 258.7483,232.2459 258.7283,232.3119 C258.6623,232.5309 258.6083,232.7529 258.5743,232.9819 C258.5623,233.0559 258.5513,233.1309 258.5443,233.2099 C258.5293,233.3609 258.5193,233.5149 258.5223,233.6719 C258.5193,233.7049 258.5193,233.7419 258.5223,233.7799 L258.5193,308.0549 C258.5193,310.5569 260.5523,312.5889 263.0543,312.5889" id="Fill-202" fill="#1D1B1C"></path>
                <g id="Group-206" transform="translate(258.000000, 0.000000)">
                    <mask id="mask-58" fill="white">
                        <use xlink:href="#path-57"></use>
                    </mask>
                    <g id="Clip-205"></g>
                    <path d="M1.8487,203.0693 C0.0767,204.8413 0.0767,207.7103 1.8487,209.4823 C3.6197,211.2543 6.4897,211.2543 8.2617,209.4823 L153.3707,64.3723 C153.5267,64.2163 153.6697,64.0513 153.7987,63.8773 C153.8367,63.8293 153.8727,63.7793 153.9077,63.7273 C153.9567,63.6553 154.0067,63.5783 154.0517,63.5013 C154.0727,63.4673 154.0927,63.4333 154.1157,63.3973 C154.1377,63.3563 154.1607,63.3163 154.1807,63.2733 C154.2127,63.2143 154.2417,63.1523 154.2717,63.0913 C154.2967,63.0393 154.3217,62.9833 154.3437,62.9283 C154.3727,62.8633 154.4007,62.7953 154.4257,62.7253 C154.4507,62.6593 154.4727,62.5913 154.4937,62.5263 C154.5587,62.3063 154.6127,62.0853 154.6467,61.8563 C154.6587,61.7813 154.6697,61.7073 154.6767,61.6283 C154.6927,61.4763 154.70095,61.3223 154.6987,61.1663 C154.70095,61.1323 154.70095,61.0963 154.6987,61.0573 L154.70095,0.4563 L145.6297,0.4563 L145.6297,59.2883 L1.8487,203.0693 Z" id="Fill-204" fill="#1D1B1C" mask="url(#mask-58)"></path>
                </g>
                <path d="M371.7896,420.8657 C369.2826,420.8657 367.2526,422.8957 367.2526,425.4027 L367.2526,453.9997 L376.3226,453.9997 L376.3236,425.4007 C376.3236,422.8977 374.2916,420.8657 371.7896,420.8657" id="Fill-207" fill="#1D1B1C"></path>
                <path d="M408.1666,435.792 C405.6596,435.792 403.6296,437.821 403.6296,440.329 L403.6296,454 L412.7006,454 L412.7016,440.326 C412.7016,437.824 410.6696,435.792 408.1666,435.792" id="Fill-209" fill="#1D1B1C"></path>
                <g id="Group-213" transform="translate(240.000000, 272.000000)">
                    <mask id="mask-60" fill="white">
                        <use xlink:href="#path-59"></use>
                    </mask>
                    <g id="Clip-212"></g>
                    <path d="M153.1837,8.2641 C154.9547,6.4931 154.9547,3.6231 153.1837,1.8511 C151.4117,0.0801 148.5427,0.0801 146.7707,1.8511 L1.6617,146.9611 C1.5057,147.1171 1.3627,147.2831 1.2337,147.4571 C1.1957,147.5041 1.1597,147.5541 1.1247,147.6061 C1.0757,147.6791 1.0257,147.7551 0.9807,147.8321 C0.9597,147.8661 0.9397,147.9001 0.9167,147.9361 C0.8937,147.9771 0.8717,148.0181 0.8507,148.0611 C0.8197,148.1191 0.7897,148.1811 0.7607,148.2421 C0.7357,148.2941 0.7107,148.3501 0.6887,148.4051 C0.6587,148.4711 0.6317,148.5381 0.6067,148.6081 C0.5817,148.6741 0.5597,148.7421 0.5387,148.8071 C0.4737,149.0271 0.4187,149.2491 0.3857,149.4771 C0.3737,149.5521 0.3627,149.6271 0.3557,149.7061 C0.3397,149.8571 0.3312,150.0111 0.3312,150.1671 C0.3312,150.2011 0.3312,150.2381 0.3312,150.2761 L0.3312,182.0001 L9.4027,182.0001 L9.4027,152.0451 L153.1837,8.2641 Z" id="Fill-211" fill="#1D1B1C" mask="url(#mask-60)"></path>
                </g>
                <g id="Group-216" transform="translate(93.000000, 0.000000)">
                    <mask id="mask-62" fill="white">
                        <use xlink:href="#path-61"></use>
                    </mask>
                    <g id="Clip-215"></g>
                    <path d="M1.7823,20.9692 C3.5533,22.7412 6.4233,22.7412 8.1953,20.9692 L28.7073,0.4562 L15.8823,0.4562 L1.7823,14.5562 C0.0103,16.3282 0.0103,19.1982 1.7823,20.9692" id="Fill-214" fill="#1D1B1C" mask="url(#mask-62)"></path>
                </g>
                <g id="Group-219" transform="translate(222.000000, 0.000000)">
                    <mask id="mask-64" fill="white">
                        <use xlink:href="#path-63"></use>
                    </mask>
                    <g id="Clip-218"></g>
                    <path d="M4.6768,170.4594 C7.1818,170.4594 9.2108,168.4304 9.2108,165.9244 L9.2108,0.4564 L0.1428,0.4564 L0.1428,165.9244 C0.1428,168.4304 2.1708,170.4594 4.6768,170.4594" id="Fill-217" fill="#1D1B1C" mask="url(#mask-64)"></path>
                </g>
                <g id="Group-222" transform="translate(222.000000, 357.000000)">
                    <mask id="mask-66" fill="white">
                        <use xlink:href="#path-65"></use>
                    </mask>
                    <g id="Clip-221"></g>
                    <path d="M60.4786,7.8633 C62.2506,6.0913 62.2506,3.2203 60.4786,1.4473 C58.7086,-0.3227 55.8346,-0.3227 54.0656,1.4473 L1.5476,53.9693 C1.5186,53.9943 1.4926,54.0203 1.4706,54.0463 C1.3586,54.1553 1.2556,54.2703 1.1606,54.3883 C1.1086,54.4493 1.0636,54.5093 1.0196,54.5713 C0.8816,54.7563 0.7636,54.9513 0.6546,55.1533 C0.6226,55.2143 0.5906,55.2783 0.5616,55.3423 C0.5296,55.4093 0.5006,55.4763 0.4756,55.5433 C0.4526,55.5973 0.4306,55.6553 0.4116,55.7103 C0.3886,55.7743 0.3666,55.8383 0.3476,55.9023 C0.3316,55.9463 0.3186,55.9913 0.3056,56.0363 C0.2956,56.0773 0.2866,56.1163 0.2766,56.1553 C0.2546,56.2413 0.2356,56.3303 0.2196,56.4173 C0.2066,56.4783 0.1966,56.5383 0.1906,56.5993 C0.1586,56.8143 0.1426,57.0313 0.1426,57.2523 L0.1426,97.0003 L9.2106,97.0003 L9.2106,59.1313 L60.4786,7.8633 Z" id="Fill-220" fill="#1D1B1C" mask="url(#mask-66)"></path>
                </g>
                <g id="Group-225" transform="translate(4.000000, 305.000000)">
                    <mask id="mask-68" fill="white">
                        <use xlink:href="#path-67"></use>
                    </mask>
                    <g id="Clip-224"></g>
                    <path d="M62.7974,8.3193 C63.6804,7.4323 64.1254,6.2713 64.1254,5.1093 C64.1254,3.9513 63.6804,2.7893 62.7974,1.9033 C61.0244,0.1333 58.1544,0.1333 56.3814,1.9033 L1.8634,56.4243 C1.4344,56.8503 1.1104,57.3433 0.8904,57.8643 C0.8644,57.9323 0.8364,57.9993 0.8104,58.0663 L0.8104,58.0693 C0.7844,58.1403 0.7624,58.2103 0.7394,58.2803 C0.7174,58.3513 0.6984,58.4243 0.6794,58.4953 C0.6374,58.6423 0.6094,58.7923 0.5864,58.9403 C0.5734,59.0263 0.5644,59.1123 0.5544,59.1953 C0.5414,59.3403 0.5354,59.4843 0.5354,59.6313 L0.5354,149.0003 L9.6044,149.0003 L9.6044,61.5093 L62.7974,8.3193 Z" id="Fill-223" fill="#1D1B1C" mask="url(#mask-68)"></path>
                </g>
                <path d="M27.2608,438.8096 C24.7558,438.8096 22.7268,440.8386 22.7268,443.3446 L22.7268,453.9996 L31.7958,453.9996 L31.7958,443.3446 C31.7958,440.8386 29.7668,438.8096 27.2608,438.8096" id="Fill-226" fill="#1D1B1C"></path>
                <path d="M27.2125,367.7627 C24.7075,367.7627 22.6775,369.7937 22.6775,372.2987 L22.6775,425.2027 C22.6775,427.7077 24.7075,429.7387 27.2125,429.7387 C29.7175,429.7387 31.7485,427.7077 31.7485,425.2027 L31.7485,372.2987 C31.7485,369.7937 29.7175,367.7627 27.2125,367.7627" id="Fill-228" fill="#1D1B1C"></path>
                <path d="M63.4962,331.6025 L63.4962,331.6025 C60.9912,331.6025 58.9602,333.6335 58.9602,336.1385 L58.9602,370.0815 C58.9602,372.5855 60.9912,374.6165 63.4962,374.6165 C66.0012,374.6165 68.0322,372.5855 68.0322,370.0815 L68.0322,336.1385 C68.0322,333.6335 66.0012,331.6025 63.4962,331.6025" id="Fill-230" fill="#1D1B1C"></path>
                <path d="M116.669,312.8926 L116.669,312.8926 C114.164,312.8926 112.133,314.9236 112.133,317.4286 L112.133,374.9526 C112.133,377.4566 114.164,379.4876 116.669,379.4876 C119.174,379.4876 121.204,377.4566 121.204,374.9526 L121.204,317.4286 C121.204,314.9236 119.174,312.8926 116.669,312.8926" id="Fill-232" fill="#1D1B1C"></path>
                <path d="M129.6255,357.4897 C129.6255,358.7437 130.1315,359.8767 130.9535,360.6967 C131.7725,361.5147 132.9085,362.0237 134.1605,362.0237 C136.6655,362.0237 138.6945,359.9947 138.6945,357.4897 L138.6945,156.7757 C138.6945,156.5547 138.6785,156.3377 138.6465,156.1237 C138.6405,156.0627 138.6305,156.0017 138.6175,155.9407 C138.6015,155.8547 138.5825,155.7647 138.5605,155.6787 C138.5505,155.6397 138.5415,155.6017 138.5315,155.5597 C138.5185,155.5147 138.5055,155.4707 138.4895,155.4257 C138.4705,155.3617 138.4485,155.2977 138.4255,155.2337 C138.4065,155.1787 138.3845,155.1217 138.3615,155.0677 C138.3355,154.9997 138.3075,154.9327 138.2755,154.8657 C138.2465,154.8017 138.2145,154.7377 138.1825,154.6767 C138.0735,154.4747 137.9555,154.2807 137.8175,154.0947 C137.7725,154.0337 137.7285,153.9727 137.6765,153.9117 C137.5815,153.7937 137.4785,153.6787 137.3665,153.5697 C137.3445,153.5437 137.3185,153.5187 137.2895,153.4927 L84.7715,100.9707 C83.0015,99.2017 80.1275,99.2017 78.3585,100.9707 C76.5855,102.7437 76.5855,105.6147 78.3585,107.3867 L129.6255,158.6547 L129.6255,357.4897 Z" id="Fill-234" fill="#1D1B1C"></path>
                <path d="M45.3546,349.8428 L45.3546,349.8428 C42.8496,349.8428 40.8186,351.8728 40.8186,354.3778 L40.8186,434.7068 C40.8186,437.2118 42.8496,439.2418 45.3546,439.2418 C47.8596,439.2418 49.8896,437.2118 49.8896,434.7068 L49.8896,354.3778 C49.8896,351.8728 47.8596,349.8428 45.3546,349.8428" id="Fill-236" fill="#1D1B1C"></path>
                <path d="M81.5909,287.6025 L81.5909,287.6025 C79.0859,287.6025 77.0549,289.6335 77.0549,292.1385 L77.0549,453.9995 L86.1259,453.9995 L86.1259,292.1385 C86.1259,289.6335 84.0949,287.6025 81.5909,287.6025" id="Fill-238" fill="#1D1B1C"></path>
                <path d="M45.3546,448.313 L45.3546,448.313 C42.8496,448.313 40.8186,450.344 40.8186,452.849 L40.8186,454 L49.8896,454 L49.8896,452.849 C49.8896,450.344 47.8596,448.313 45.3546,448.313" id="Fill-240" fill="#1D1B1C"></path>
                <g id="Group-244" transform="translate(58.000000, 383.000000)">
                    <mask id="mask-70" fill="white">
                        <use xlink:href="#path-69"></use>
                    </mask>
                    <g id="Clip-243"></g>
                    <path d="M5.5069,0.6875 C3.0039,0.6875 0.9719,2.7195 0.9719,5.2225 L0.9739,71.0005 L10.0439,71.0005 L10.0439,5.2245 C10.0439,2.7175 8.0139,0.6875 5.5069,0.6875" id="Fill-242" fill="#1D1B1C" mask="url(#mask-70)"></path>
                </g>
                <g id="Group-247" transform="translate(108.000000, 321.000000)">
                    <mask id="mask-72" fill="white">
                        <use xlink:href="#path-71"></use>
                    </mask>
                    <g id="Clip-246"></g>
                    <path d="M209.4791,9.7314 C211.9861,9.7314 214.0161,7.7014 214.0161,5.1944 C214.0161,2.6914 211.9841,0.6604 209.4811,0.6604 L135.2071,0.6624 C135.1681,0.6604 135.1321,0.6604 135.0981,0.6624 C134.9421,0.6604 134.7881,0.6684 134.6371,0.6854 C134.5571,0.6914 134.4821,0.7034 134.4081,0.7144 C134.1791,0.7484 133.9581,0.8024 133.7381,0.8684 C133.6721,0.8884 133.6051,0.9114 133.5391,0.9364 C133.4691,0.9604 133.4011,0.9874 133.3351,1.0174 C133.2811,1.0404 133.2251,1.0644 133.1721,1.0894 C133.1111,1.1194 133.0501,1.1484 132.9911,1.1804 C132.9491,1.2004 132.9081,1.2234 132.8671,1.2464 C132.8311,1.2684 132.7971,1.2894 132.7631,1.3094 C132.6861,1.3544 132.6091,1.4044 132.5371,1.4544 C132.4851,1.4884 132.4351,1.5244 132.3871,1.5624 C132.2131,1.6914 132.0481,1.8344 131.8921,1.9904 L0.8821,133.0004 L13.7081,133.0004 L136.9761,9.7314 L209.4791,9.7314 Z" id="Fill-245" fill="#1D1B1C" mask="url(#mask-72)"></path>
                </g>
                <path d="M380.8165,397.0542 C380.8335,397.0382 380.8515,397.0222 380.8675,397.0062 L393.1265,384.7472 C393.1615,384.7122 393.1935,384.6772 393.2255,384.6412 L380.7645,397.1022 C380.7825,397.0882 380.7985,397.0712 380.8165,397.0542" id="Fill-248" fill="#1D1B1C"></path>
            </g>
        </g>
    </g>
</svg>