<?xml version="1.0" encoding="UTF-8"?>
<svg width="454px" height="456px" viewBox="0 0 454 456" version="1.1" xmlns="http://www.w3.org/2000/svg" xmlns:xlink="http://www.w3.org/1999/xlink">
    <title>Pattern04</title>
    <defs>
        <polygon id="path-1" points="0 0.6935 13.6069 0.6935 13.6069 9.7635 0 9.7635"></polygon>
        <polygon id="path-3" points="0 0.8269 13.6069 0.8269 13.6069 28.0399 0 28.0399"></polygon>
        <polygon id="path-5" points="0 0.4099 31.7485 0.4099 31.7485 27.6219 0 27.6219"></polygon>
        <polygon id="path-7" points="0 0.2765 31.7485 0.2765 31.7485 9.3465 0 9.3465"></polygon>
        <polygon id="path-9" points="0 0.9919 31.7487 0.9919 31.7487 28.2049 0 28.2049"></polygon>
        <polygon id="path-11" points="0.9374 0.9923 14.543 0.9923 14.543 28.2053 0.9374 28.2053"></polygon>
        <polygon id="path-13" points="0.5083 0.3975 9.5793 0.3975 9.5793 14 0.5083 14"></polygon>
        <polygon id="path-15" points="0.9374 0.6935 14.543 0.6935 14.543 9.7635 0.9374 9.7635"></polygon>
        <polygon id="path-17" points="0.9374 0.5519 14.543 0.5519 14.543 9.6219 0.9374 9.6219"></polygon>
        <polygon id="path-19" points="0.9374 0.9689 14.543 0.9689 14.543 10.0399 0.9374 10.0399"></polygon>
        <polygon id="path-21" points="0.9374 0.8273 14.543 0.8273 14.543 9.8983 0.9374 9.8983"></polygon>
        <polygon id="path-23" points="0.9374 0.2765 14.543 0.2765 14.543 9.3465 0.9374 9.3465"></polygon>
        <polygon id="path-25" points="0.9372 0.7013 14.543 0.7013 14.543 46.0553 0.9372 46.0553"></polygon>
        <polygon id="path-27" points="0.9372 0.9757 14.543 0.9757 14.543 46.3297 0.9372 46.3297"></polygon>
        <polygon id="path-29" points="0.9374 0.5597 14.543 0.5597 14.543 9.6307 0.9374 9.6307"></polygon>
    </defs>
    <g id="Page-1" stroke="none" stroke-width="1" fill="none" fill-rule="evenodd">
        <g id="Pattern04">
            <polygon id="Fill-1" fill="#242424" points="0 454.543 453.543 454.543 453.543 1 0 1"></polygon>
            <g id="Group-493" transform="translate(0.000000, 0.543000)">
                <g id="Group-4" transform="translate(0.000000, 222.000000)">
                    <mask id="mask-2" fill="white">
                        <use xlink:href="#path-1"></use>
                    </mask>
                    <g id="Clip-3"></g>
                    <path d="M13.6069,5.2285 C13.6069,2.7235 11.5759,0.6935 9.0709,0.6935 L-0.0001,0.6935 L-0.0001,9.7635 L9.0709,9.7635 C11.5759,9.7635 13.6069,7.7335 13.6069,5.2285" id="Fill-2" fill="#1D1B1C" mask="url(#mask-2)"></path>
                </g>
                <path d="M45.3549,50.3467 C47.8599,50.3467 49.8899,48.3167 49.8899,45.8117 L49.8899,32.2047 L58.9609,32.2047 L58.9609,45.8117 C58.9609,48.3167 60.9919,50.3467 63.4969,50.3467 C66.0009,50.3467 68.0319,48.3167 68.0319,45.8117 L68.0319,27.6697 C68.0319,25.1647 66.0009,23.1347 63.4969,23.1347 L45.3549,23.1347 C42.8499,23.1347 40.8189,25.1647 40.8189,27.6697 L40.8189,45.8117 C40.8189,48.3167 42.8499,50.3467 45.3549,50.3467" id="Fill-5" fill="#1D1B1C"></path>
                <path d="M31.7485,172.8037 L31.7485,154.6617 C31.7485,152.1577 29.7175,150.1257 27.2135,150.1257 L9.0715,150.1257 C6.5665,150.1257 4.5365,152.1577 4.5365,154.6617 C4.5365,157.1667 6.5665,159.1977 9.0715,159.1977 L22.6775,159.1977 L22.6775,168.2687 L9.0715,168.2687 C6.5665,168.2687 4.5365,170.2987 4.5365,172.8037 C4.5365,175.3087 6.5665,177.3387 9.0715,177.3387 L27.2135,177.3387 C29.7175,177.3387 31.7485,175.3087 31.7485,172.8037" id="Fill-7" fill="#1D1B1C"></path>
                <path d="M99.9018,395.04 L99.9018,395.04 C102.4068,395.04 104.4378,393.009 104.4378,390.505 L104.4378,372.362 C104.4378,370.625 103.4588,369.117 102.0238,368.355 C101.3618,367.978 100.5968,367.758 99.7798,367.758 L81.6378,367.758 C79.1328,367.758 77.1028,369.789 77.1028,372.294 C77.1028,374.799 79.1328,376.829 81.6378,376.829 L95.3668,376.829 L95.3668,390.505 C95.3668,393.009 97.3968,395.04 99.9018,395.04" id="Fill-9" fill="#1D1B1C"></path>
                <g id="Group-13" transform="translate(0.000000, 367.000000)">
                    <mask id="mask-4" fill="white">
                        <use xlink:href="#path-3"></use>
                    </mask>
                    <g id="Clip-12"></g>
                    <path d="M13.6069,23.5049 L13.6069,23.5049 L13.6069,5.3619 C13.6069,2.8579 11.5759,0.8269 9.0709,0.8269 L-0.0001,0.8269 L-0.0001,9.8989 L4.5359,9.8989 L4.5359,18.9689 L-0.0001,18.9689 L-0.0001,28.0399 L9.0709,28.0399 C11.5759,28.0399 13.6069,26.0089 13.6069,23.5049" id="Fill-11" fill="#1D1B1C" mask="url(#mask-4)"></path>
                </g>
                <path d="M117.9218,14.0635 L117.9218,14.0635 C120.4268,14.0635 122.4578,12.0335 122.4578,9.5285 L122.4578,0.4575 L113.3858,0.4575 L113.3858,9.5285 C113.3858,12.0335 115.4168,14.0635 117.9218,14.0635" id="Fill-14" fill="#1D1B1C"></path>
                <path d="M136.0634,14.0635 L154.2054,14.0635 C156.7094,14.0635 158.7404,12.0335 158.7404,9.5285 C158.7404,7.0235 156.7094,4.9925 154.2054,4.9925 L136.0634,4.9925 C133.5584,4.9925 131.5284,7.0235 131.5284,9.5285 C131.5284,12.0335 133.5584,14.0635 136.0634,14.0635" id="Fill-16" fill="#1D1B1C"></path>
                <path d="M117.9218,41.2764 L99.7798,41.2764 C97.2758,41.2764 95.2448,43.3064 95.2448,45.8114 C95.2448,48.3164 97.2758,50.3464 99.7798,50.3464 L117.9218,50.3464 C120.4268,50.3464 122.4578,48.3164 122.4578,45.8114 C122.4578,43.3064 120.4268,41.2764 117.9218,41.2764" id="Fill-18" fill="#1D1B1C"></path>
                <path d="M172.3471,50.3467 L190.4891,50.3467 C192.9931,50.3467 195.0241,48.3167 195.0241,45.8117 C195.0241,43.3067 192.9931,41.2767 190.4891,41.2767 L172.3471,41.2767 C169.8421,41.2767 167.8111,43.3067 167.8111,45.8117 C167.8111,48.3167 169.8421,50.3467 172.3471,50.3467" id="Fill-20" fill="#1D1B1C"></path>
                <path d="M281.1972,14.0635 C283.7022,14.0635 285.7332,12.0335 285.7332,9.5285 L285.7332,0.4575 L276.6622,0.4575 L276.6622,9.5285 C276.6622,12.0335 278.6922,14.0635 281.1972,14.0635" id="Fill-22" fill="#1D1B1C"></path>
                <path d="M45.3549,14.0635 C47.8599,14.0635 49.8899,12.0335 49.8899,9.5285 L49.8899,0.4575 L40.8189,0.4575 L40.8189,9.5285 C40.8189,12.0335 42.8499,14.0635 45.3549,14.0635" id="Fill-24" fill="#1D1B1C"></path>
                <path d="M244.914,14.0635 L258.52,14.0635 L258.52,27.6695 C258.52,30.1745 260.551,32.2055 263.056,32.2055 L281.197,32.2055 C283.702,32.2055 285.733,30.1745 285.733,27.6695 C285.733,25.1655 283.702,23.1345 281.197,23.1345 L267.591,23.1345 L267.591,9.5285 C267.591,7.0235 265.56,4.9925 263.056,4.9925 L244.914,4.9925 C242.409,4.9925 240.378,7.0235 240.378,9.5285 C240.378,12.0335 242.409,14.0635 244.914,14.0635" id="Fill-26" fill="#1D1B1C"></path>
                <path d="M81.6381,32.2051 L99.7801,32.2051 C102.2841,32.2051 104.3151,30.1751 104.3151,27.6701 L104.3151,9.5281 C104.3151,7.0231 102.2841,4.9921 99.7801,4.9921 C97.2751,4.9921 95.2441,7.0231 95.2441,9.5281 L95.2441,23.1351 L81.6381,23.1351 C79.1331,23.1351 77.1031,25.1651 77.1031,27.6701 C77.1031,30.1751 79.1331,32.2051 81.6381,32.2051" id="Fill-28" fill="#1D1B1C"></path>
                <path d="M136.0634,41.2764 C133.5584,41.2764 131.5284,43.3064 131.5284,45.8114 L131.5284,59.4184 L117.9214,59.4184 C115.4174,59.4184 113.3864,61.4484 113.3864,63.9534 C113.3864,66.4584 115.4174,68.4884 117.9214,68.4884 L136.0634,68.4884 C138.5684,68.4884 140.5994,66.4584 140.5994,63.9534 L140.5994,45.8114 C140.5994,43.3064 138.5684,41.2764 136.0634,41.2764" id="Fill-30" fill="#1D1B1C"></path>
                <path d="M204.121,100.2363 L204.121,118.3783 C204.121,120.8823 206.151,122.9143 208.656,122.9143 C211.161,122.9143 213.192,120.8823 213.192,118.3783 L213.192,100.2363 C213.192,97.7313 211.161,95.7013 208.656,95.7013 C206.151,95.7013 204.121,97.7313 204.121,100.2363" id="Fill-32" fill="#1D1B1C"></path>
                <path d="M190.4887,104.7725 L190.4887,104.7725 C192.9937,104.7725 195.0247,102.7415 195.0247,100.2365 L195.0247,82.0945 C195.0247,79.5895 192.9937,77.5595 190.4887,77.5595 C187.9837,77.5595 185.9527,79.5895 185.9527,82.0945 L185.9527,100.2365 C185.9527,102.7415 187.9837,104.7725 190.4887,104.7725" id="Fill-34" fill="#1D1B1C"></path>
                <path d="M154.205,41.2764 C151.7,41.2764 149.67,43.3064 149.67,45.8114 L149.67,63.9534 C149.67,66.4584 151.7,68.4884 154.205,68.4884 L167.811,68.4884 L167.811,82.0944 C167.811,84.5994 169.842,86.6304 172.347,86.6304 C174.852,86.6304 176.882,84.5994 176.882,82.0944 L176.882,63.9534 C176.882,61.4484 174.852,59.4184 172.347,59.4184 L158.741,59.4184 L158.741,45.8114 C158.741,43.3064 156.71,41.2764 154.205,41.2764" id="Fill-36" fill="#1D1B1C"></path>
                <path d="M281.1982,113.8428 L281.1982,113.8428 C278.6932,113.8428 276.6632,115.8728 276.6632,118.3778 L276.6632,136.1708 C276.6462,136.3298 276.6362,136.4918 276.6362,136.6568 C276.6362,139.1618 278.6662,141.1928 281.1712,141.1928 L294.7782,141.1928 L294.7782,154.7988 C294.7782,157.3038 296.8082,159.3338 299.3132,159.3338 C301.8182,159.3338 303.8482,157.3038 303.8482,154.7988 L303.8482,136.6568 C303.8482,134.1528 301.8182,132.1208 299.3132,132.1208 L285.7342,132.1208 L285.7342,118.3778 C285.7342,115.8728 283.7032,113.8428 281.1982,113.8428" id="Fill-38" fill="#1D1B1C"></path>
                <path d="M249.5014,118.3779 L249.5014,100.2359 C249.5014,97.7319 247.4704,95.7009 244.9654,95.7009 C242.4604,95.7009 240.4304,97.7319 240.4304,100.2359 L240.4304,113.8429 L226.8244,113.8429 C224.3194,113.8429 222.2884,115.8729 222.2884,118.3779 L222.2884,136.5209 C222.2884,139.0249 224.3194,141.0559 226.8244,141.0559 C229.3294,141.0559 231.3594,139.0249 231.3594,136.5209 L231.3594,122.9139 L244.9654,122.9139 C247.4704,122.9139 249.5014,120.8829 249.5014,118.3779" id="Fill-40" fill="#1D1B1C"></path>
                <path d="M154.205,104.7734 L172.347,104.7734 C174.852,104.7734 176.882,102.7424 176.882,100.2374 C176.882,97.7324 174.852,95.7024 172.347,95.7024 L158.741,95.7024 L158.741,82.0944 C158.741,79.5894 156.71,77.5594 154.205,77.5594 C151.7,77.5594 149.67,79.5894 149.67,82.0944 L149.67,100.2364 L149.67,100.2374 C149.67,102.7424 151.7,104.7734 154.205,104.7734" id="Fill-42" fill="#1D1B1C"></path>
                <path d="M81.6381,113.8438 C79.1331,113.8438 77.1031,115.8738 77.1031,118.3788 L77.1031,136.5208 C77.1031,139.0258 79.1331,141.0558 81.6381,141.0558 L95.2441,141.0558 L95.2441,154.6618 C95.2441,157.1668 97.2751,159.1978 99.7801,159.1978 C102.2841,159.1978 104.3151,157.1668 104.3151,154.6618 L104.3151,136.5208 C104.3151,134.0158 102.2841,131.9858 99.7801,131.9858 L86.1741,131.9858 L86.1741,118.3788 C86.1741,115.8738 84.1431,113.8438 81.6381,113.8438" id="Fill-44" fill="#1D1B1C"></path>
                <path d="M77.103,245.3691 L77.103,245.3691 L77.103,245.3721 L77.103,245.3741 L77.103,263.5151 C77.103,266.0201 79.133,268.0521 81.638,268.0521 C84.143,268.0521 86.174,266.0201 86.174,263.5151 L86.174,249.9051 L99.762,249.9051 C99.768,249.9051 99.774,249.9061 99.78,249.9061 C102.285,249.9061 104.315,247.8751 104.315,245.3701 L104.315,245.3691 L104.315,227.2281 C104.315,224.7231 102.285,222.6931 99.78,222.6931 C97.275,222.6931 95.245,224.7231 95.245,227.2281 L95.245,240.8341 L81.638,240.8341 C79.133,240.8341 77.103,242.8641 77.103,245.3691" id="Fill-46" fill="#1D1B1C"></path>
                <path d="M62.4384,286.1885 C64.9434,286.1885 66.9734,284.1585 66.9734,281.6535 L66.9734,245.3705 C66.9734,242.8655 64.9434,240.8345 62.4384,240.8345 C59.9334,240.8345 57.9024,242.8655 57.9024,245.3705 L57.9024,281.6535 C57.9024,284.1585 59.9334,286.1885 62.4384,286.1885" id="Fill-48" fill="#1D1B1C"></path>
                <path d="M49.8901,172.8037 C49.8901,170.2987 47.8601,168.2687 45.3551,168.2687 C42.8501,168.2687 40.8191,170.2987 40.8191,172.8037 L40.8191,190.9457 L40.8191,190.9467 C40.8191,193.4507 42.8501,195.4817 45.3551,195.4817 L81.6381,195.4817 C84.1431,195.4817 86.1741,193.4507 86.1741,190.9467 L86.1741,190.9457 L86.1741,172.8037 C86.1741,170.2987 84.1431,168.2687 81.6381,168.2687 C79.1331,168.2687 77.1031,170.2987 77.1031,172.8037 L77.1031,186.4107 L49.8901,186.4107 L49.8901,172.8037 Z" id="Fill-50" fill="#1D1B1C"></path>
                <path d="M45.3549,258.9766 C42.8499,258.9766 40.8189,261.0076 40.8189,263.5116 L40.8189,281.6546 C40.8189,284.1596 42.8499,286.1896 45.3549,286.1896 C47.8599,286.1896 49.8899,284.1596 49.8899,281.6546 L49.8899,263.5116 C49.8899,261.0076 47.8599,258.9766 45.3549,258.9766" id="Fill-52" fill="#1D1B1C"></path>
                <path d="M426.331,14.0635 C428.836,14.0635 430.867,12.0335 430.867,9.5285 L430.867,0.4575 L421.796,0.4575 L421.796,9.5285 C421.796,12.0335 423.826,14.0635 426.331,14.0635" id="Fill-54" fill="#1D1B1C"></path>
                <path d="M371.8993,68.4883 L390.0413,68.4883 C392.5453,68.4883 394.5763,66.4583 394.5763,63.9533 C394.5763,61.4483 392.5453,59.4183 390.0413,59.4183 L371.8993,59.4183 C369.3943,59.4183 367.3633,61.4483 367.3633,63.9533 C367.3633,66.4583 369.3943,68.4883 371.8993,68.4883" id="Fill-56" fill="#1D1B1C"></path>
                <path d="M408.1894,68.4883 L408.2024,68.4883 L421.7924,68.4883 L421.7924,82.1083 C421.7924,84.6133 423.8234,86.6433 426.3284,86.6433 C428.8334,86.6433 430.8634,84.6133 430.8634,82.1083 L430.8634,64.0183 C430.8634,63.9973 430.8664,63.9753 430.8664,63.9533 C430.8664,61.4483 428.8354,59.4183 426.3314,59.4183 L412.7374,59.4183 L412.7374,45.8113 C412.7374,43.3063 410.7074,41.2763 408.2024,41.2763 C405.6974,41.2763 403.6664,43.3063 403.6664,45.8113 L403.6664,63.7023 C403.6624,63.7863 403.6544,63.8683 403.6544,63.9533 C403.6544,66.4583 405.6844,68.4883 408.1894,68.4883" id="Fill-58" fill="#1D1B1C"></path>
                <path d="M408.1894,32.2119 L421.7924,32.2119 L421.7924,45.8149 C421.7924,48.3189 423.8234,50.3509 426.3284,50.3509 C428.8334,50.3509 430.8634,48.3189 430.8634,45.8149 L430.8634,27.7419 C430.8634,27.7199 430.8664,27.6979 430.8664,27.6769 C430.8664,26.4229 430.3584,25.2879 429.5364,24.4679 C428.7154,23.6469 427.5814,23.1379 426.3284,23.1379 C426.3054,23.1379 426.2844,23.1409 426.2614,23.1409 L412.7254,23.1409 L412.7254,9.5349 C412.7254,7.0299 410.6944,4.9989 408.1894,4.9989 C405.6844,4.9989 403.6544,7.0299 403.6544,9.5349 L403.6544,27.6769 C403.6544,30.1819 405.6844,32.2119 408.1894,32.2119" id="Fill-60" fill="#1D1B1C"></path>
                <path d="M389.996,123.0518 L426.279,123.0518 C426.29,123.0518 426.3,123.0498 426.31,123.0498 C426.316,123.0498 426.322,123.0508 426.328,123.0508 C428.833,123.0508 430.863,121.0208 430.863,118.5158 L430.863,100.3738 C430.863,97.8688 428.833,95.8378 426.328,95.8378 C423.823,95.8378 421.792,97.8688 421.792,100.3738 L421.792,113.9808 L394.531,113.9808 L394.531,100.3728 C394.531,97.8678 392.5,95.8378 389.996,95.8378 C387.491,95.8378 385.46,97.8678 385.46,100.3728 L385.46,118.5148 L385.46,118.5158 C385.46,121.0208 387.491,123.0518 389.996,123.0518" id="Fill-62" fill="#1D1B1C"></path>
                <path d="M299.3388,104.7725 L299.3388,104.7725 C301.8438,104.7725 303.8748,102.7415 303.8748,100.2365 L303.8748,63.9665 C303.8748,61.4615 301.8438,59.4305 299.3388,59.4305 L299.3388,59.4305 C296.8348,59.4305 294.8038,61.4615 294.8038,63.9665 L294.8038,100.2365 C294.8038,102.7415 296.8348,104.7725 299.3388,104.7725" id="Fill-64" fill="#1D1B1C"></path>
                <path d="M63.4965,14.0635 L63.4965,14.0635 C66.0015,14.0635 68.0325,12.0335 68.0325,9.5285 C68.0325,7.0235 66.0015,4.9925 63.4965,4.9925 C60.9915,4.9925 58.9605,7.0235 58.9605,9.5285 C58.9605,12.0335 60.9915,14.0635 63.4965,14.0635" id="Fill-66" fill="#1D1B1C"></path>
                <path d="M81.6381,14.0635 C84.1431,14.0635 86.1741,12.0335 86.1741,9.5285 L86.1741,0.4575 L77.1031,0.4575 L77.1031,9.5285 C77.1031,12.0335 79.1331,14.0635 81.6381,14.0635" id="Fill-68" fill="#1D1B1C"></path>
                <g id="Group-72" transform="translate(0.000000, 186.000000)">
                    <mask id="mask-6" fill="white">
                        <use xlink:href="#path-5"></use>
                    </mask>
                    <g id="Clip-71"></g>
                    <path d="M31.7485,23.0869 L31.7485,4.9449 C31.7485,2.4409 29.7175,0.4099 27.2135,0.4099 C24.7085,0.4099 22.6775,2.4409 22.6775,4.9449 L22.6775,18.5519 L-0.0005,18.5519 L-0.0005,27.6219 L27.2135,27.6219 C29.7175,27.6219 31.7485,25.5919 31.7485,23.0869" id="Fill-70" fill="#1D1B1C" mask="url(#mask-6)"></path>
                </g>
                <g id="Group-75" transform="translate(0.000000, 41.000000)">
                    <mask id="mask-8" fill="white">
                        <use xlink:href="#path-7"></use>
                    </mask>
                    <g id="Clip-74"></g>
                    <path d="M31.7485,4.8115 L31.7485,4.8115 C31.7485,2.3065 29.7175,0.2765 27.2135,0.2765 L-0.0005,0.2765 L-0.0005,9.3465 L27.2135,9.3465 C29.7175,9.3465 31.7485,7.3165 31.7485,4.8115" id="Fill-73" fill="#1D1B1C" mask="url(#mask-8)"></path>
                </g>
                <path d="M244.914,68.4883 L244.914,68.4883 C247.419,68.4883 249.449,66.4583 249.449,63.9533 L249.449,27.6703 C249.449,25.1653 247.419,23.1343 244.914,23.1343 C242.409,23.1343 240.378,25.1653 240.378,27.6703 L240.378,63.9533 C240.378,66.4583 242.409,68.4883 244.914,68.4883" id="Fill-76" fill="#1D1B1C"></path>
                <path d="M117.9218,32.2051 L154.2048,32.2051 C156.7098,32.2051 158.7408,30.1751 158.7408,27.6701 C158.7408,25.1651 156.7098,23.1351 154.2048,23.1351 L117.9218,23.1351 C115.4168,23.1351 113.3858,25.1651 113.3858,27.6701 C113.3858,30.1751 115.4168,32.2051 117.9218,32.2051" id="Fill-78" fill="#1D1B1C"></path>
                <path d="M258.5204,45.8115 L258.5204,45.8115 C258.5204,48.3165 260.5504,50.3465 263.0554,50.3465 L299.3394,50.3465 C301.8434,50.3465 303.8744,48.3165 303.8744,45.8115 C303.8744,43.3065 301.8434,41.2765 299.3394,41.2765 L263.0554,41.2765 C260.5504,41.2765 258.5204,43.3065 258.5204,45.8115" id="Fill-80" fill="#1D1B1C"></path>
                <path d="M185.953,63.9531 C185.953,66.4581 187.984,68.4881 190.489,68.4881 L226.772,68.4881 C229.277,68.4881 231.307,66.4581 231.307,63.9531 C231.307,61.4481 229.277,59.4181 226.772,59.4181 L190.489,59.4181 C187.984,59.4181 185.953,61.4481 185.953,63.9531" id="Fill-82" fill="#1D1B1C"></path>
                <path d="M190.4887,32.2051 L190.4887,32.2051 C192.9937,32.2051 195.0247,30.1751 195.0247,27.6701 L195.0247,0.4571 L185.9527,0.4571 L185.9527,27.6701 C185.9527,30.1751 187.9837,32.2051 190.4887,32.2051" id="Fill-84" fill="#1D1B1C"></path>
                <path d="M172.3471,32.2051 L172.3471,32.2051 C174.8521,32.2051 176.8821,30.1751 176.8821,27.6701 L176.8821,0.4571 L167.8111,0.4571 L167.8111,27.6701 C167.8111,30.1751 169.8421,32.2051 172.3471,32.2051" id="Fill-86" fill="#1D1B1C"></path>
                <path d="M9.0712,141.0557 C11.5762,141.0557 13.6072,139.0257 13.6072,136.5207 L13.6072,100.2367 C13.6072,97.7317 11.5762,95.7017 9.0712,95.7017 C6.5662,95.7017 4.5362,97.7317 4.5362,100.2367 L4.5362,131.9847 L0.0002,131.9847 L0.0002,141.0557 L9.0712,141.0557 Z" id="Fill-88" fill="#1D1B1C"></path>
                <path d="M299.3398,4.999 C296.8348,4.999 294.8038,7.03 294.8038,9.535 C294.8038,12.039 296.8348,14.07 299.3398,14.07 L335.6228,14.07 C338.1278,14.07 340.1588,12.039 340.1588,9.535 C340.1588,9.445 340.1508,9.358 340.1458,9.27 L340.1458,0.457 L331.0748,0.457 L331.0748,4.999 L299.3398,4.999 Z" id="Fill-90" fill="#1D1B1C"></path>
                <path d="M335.5966,104.7725 L353.7386,104.7725 C356.2426,104.7725 358.2736,102.7415 358.2736,100.2365 C358.2736,97.7315 356.2426,95.7015 353.7386,95.7015 L335.5966,95.7015 C333.0916,95.7015 331.0606,97.7315 331.0606,100.2365 C331.0606,102.7415 333.0916,104.7725 335.5966,104.7725" id="Fill-92" fill="#1D1B1C"></path>
                <path d="M281.1972,59.418 C278.6922,59.418 276.6622,61.448 276.6622,63.953 L276.6622,95.701 L263.0642,95.701 L263.0552,95.701 C260.5512,95.701 258.5202,97.731 258.5202,100.236 L258.5202,136.52 C258.5202,139.024 260.5512,141.055 263.0552,141.055 C265.5602,141.055 267.5912,139.024 267.5912,136.52 L267.5912,104.772 L281.1972,104.772 C283.7022,104.772 285.7332,102.741 285.7332,100.236 L285.7332,63.953 C285.7332,61.448 283.7022,59.418 281.1972,59.418" id="Fill-94" fill="#1D1B1C"></path>
                <path d="M317.4809,32.2051 L353.7639,32.2051 C356.2689,32.2051 358.2999,30.1751 358.2999,27.6701 C358.2999,25.1651 356.2689,23.1351 353.7639,23.1351 L317.4809,23.1351 C314.9759,23.1351 312.9449,25.1651 312.9449,27.6701 C312.9449,30.1751 314.9759,32.2051 317.4809,32.2051" id="Fill-96" fill="#1D1B1C"></path>
                <path d="M371.8993,86.624 L408.1833,86.624 C410.6883,86.624 412.7183,84.593 412.7183,82.088 C412.7183,79.583 410.6883,77.553 408.1833,77.553 L371.8993,77.553 C369.3943,77.553 367.3633,79.583 367.3633,82.088 C367.3633,84.593 369.3943,86.624 371.8993,86.624" id="Fill-98" fill="#1D1B1C"></path>
                <path d="M390.0443,32.208 L390.0443,32.208 C392.5493,32.208 394.5793,30.178 394.5793,27.673 L394.5793,0.457 L385.5083,0.457 L385.5083,27.673 C385.5083,30.178 387.5393,32.208 390.0443,32.208" id="Fill-100" fill="#1D1B1C"></path>
                <path d="M349.2289,9.5273 L349.2289,9.5283 C349.2289,12.0333 351.2589,14.0633 353.7639,14.0633 L353.7729,14.0633 L367.3709,14.0633 L367.3709,45.8113 C367.3709,48.3163 369.4009,50.3463 371.9059,50.3463 C374.4109,50.3463 376.4409,48.3163 376.4409,45.8113 L376.4409,9.5273 C376.4409,7.0223 374.4109,4.9923 371.9059,4.9923 L358.2999,4.9923 L358.2999,0.4573 L349.2289,0.4573 L349.2289,9.5273 Z" id="Fill-102" fill="#1D1B1C"></path>
                <path d="M63.4965,177.3389 C66.0015,177.3389 68.0325,175.3089 68.0325,172.8039 L68.0325,118.3779 C68.0325,115.8729 66.0015,113.8429 63.4965,113.8429 C60.9915,113.8429 58.9605,115.8729 58.9605,118.3779 L58.9605,172.8039 C58.9605,175.3089 60.9915,177.3389 63.4965,177.3389" id="Fill-104" fill="#1D1B1C"></path>
                <path d="M27.2133,122.9141 L27.2223,122.9141 L40.8193,122.9141 L40.8193,154.6611 C40.8193,157.1661 42.8503,159.1971 45.3553,159.1971 C47.8593,159.1971 49.8903,157.1661 49.8903,154.6611 L49.8903,118.3781 C49.8903,115.8731 47.8593,113.8431 45.3553,113.8431 L31.7483,113.8431 L31.7483,82.0951 C31.7483,79.5901 29.7173,77.5601 27.2133,77.5601 C24.7083,77.5601 22.6773,79.5901 22.6773,82.0951 L22.6773,118.3781 L22.6773,118.3791 C22.6773,120.8841 24.7083,122.9141 27.2133,122.9141" id="Fill-106" fill="#1D1B1C"></path>
                <path d="M4.5361,336.0771 C4.5361,338.5821 6.5661,340.6131 9.0711,340.6131 C11.5761,340.6131 13.6071,338.5821 13.6071,336.0771 L13.6071,299.7941 C13.6071,297.2891 11.5761,295.2591 9.0711,295.2591 L0.0001,295.2591 L0.0001,304.3291 L4.5361,304.3291 L4.5361,336.0771 Z" id="Fill-108" fill="#1D1B1C"></path>
                <path d="M27.2133,376.8994 L27.2133,376.8994 C27.4783,376.8994 27.7353,376.8724 27.9883,376.8294 L63.4963,376.8294 C66.0013,376.8294 68.0323,374.7984 68.0323,372.2944 C68.0323,369.7894 66.0013,367.7574 63.4963,367.7574 L31.7483,367.7574 L31.7483,336.0814 C31.7483,333.5764 29.7183,331.5454 27.2133,331.5454 C24.7083,331.5454 22.6773,333.5764 22.6773,336.0814 L22.6773,372.2914 L22.6773,372.2944 L22.6773,372.2954 L22.6773,372.3644 C22.6773,374.8694 24.7083,376.8994 27.2133,376.8994" id="Fill-110" fill="#1D1B1C"></path>
                <path d="M9.0712,86.6309 C11.5762,86.6309 13.6072,84.5999 13.6072,82.0949 L13.6072,68.4879 L27.2132,68.4879 C29.7172,68.4879 31.7482,66.4579 31.7482,63.9529 C31.7482,61.4479 29.7172,59.4179 27.2132,59.4179 L9.0712,59.4179 C6.5662,59.4179 4.5362,61.4479 4.5362,63.9529 L4.5362,77.5599 L0.0002,77.5599 L0.0002,86.6309 L9.0712,86.6309 Z" id="Fill-112" fill="#1D1B1C"></path>
                <path d="M104.3154,63.9531 L104.3154,63.9531 C104.3154,61.4481 102.2844,59.4181 99.7804,59.4181 L63.4964,59.4181 C60.9914,59.4181 58.9614,61.4481 58.9614,63.9531 C58.9614,66.4581 60.9914,68.4881 63.4964,68.4881 L99.7804,68.4881 C102.2844,68.4881 104.3154,66.4581 104.3154,63.9531" id="Fill-114" fill="#1D1B1C"></path>
                <g id="Group-118" transform="translate(0.000000, 4.000000)">
                    <mask id="mask-10" fill="white">
                        <use xlink:href="#path-9"></use>
                    </mask>
                    <g id="Clip-117"></g>
                    <path d="M22.6777,23.6699 C22.6777,26.1749 24.7087,28.2049 27.2137,28.2049 C29.7177,28.2049 31.7487,26.1749 31.7487,23.6699 L31.7487,5.5279 C31.7487,3.0239 29.7177,0.9919 27.2137,0.9919 L-0.0003,0.9919 L-0.0003,10.0639 L22.6777,10.0639 L22.6777,23.6699 Z" id="Fill-116" fill="#1D1B1C" mask="url(#mask-10)"></path>
                </g>
                <g id="Group-121" transform="translate(439.000000, 4.000000)">
                    <mask id="mask-12" fill="white">
                        <use xlink:href="#path-11"></use>
                    </mask>
                    <g id="Clip-120"></g>
                    <path d="M0.9374,5.5283 L0.9374,23.6703 C0.9374,26.1743 2.9684,28.2053 5.4734,28.2053 C7.9784,28.2053 10.0084,26.1743 10.0084,23.6703 L10.0084,10.0633 L14.5434,10.0633 L14.5434,0.9923 L5.4734,0.9923 C2.9684,0.9923 0.9374,3.0233 0.9374,5.5283" id="Fill-119" fill="#1D1B1C" mask="url(#mask-12)"></path>
                </g>
                <path d="M9.0712,23.1348 L9.0712,23.1348 C6.5662,23.1348 4.5362,25.1648 4.5362,27.6698 C4.5362,30.1748 6.5662,32.2048 9.0712,32.2048 C11.5762,32.2048 13.6072,30.1748 13.6072,27.6698 C13.6072,25.1648 11.5762,23.1348 9.0712,23.1348" id="Fill-122" fill="#1D1B1C"></path>
                <path d="M140.599,82.0947 C140.599,79.5897 138.568,77.5597 136.063,77.5597 C133.558,77.5597 131.528,79.5897 131.528,82.0947 L131.528,118.3777 C131.528,120.8827 133.558,122.9137 136.063,122.9137 L172.347,122.9137 C174.852,122.9137 176.882,120.8827 176.882,118.3777 C176.882,115.8727 174.852,113.8427 172.347,113.8427 L140.599,113.8427 L140.599,82.0947 Z" id="Fill-124" fill="#1D1B1C"></path>
                <path d="M81.6381,204.5537 L45.3551,204.5537 C42.8501,204.5537 40.8191,206.5837 40.8191,209.0887 C40.8191,211.5937 42.8501,213.6237 45.3551,213.6237 L81.6381,213.6237 C84.1431,213.6237 86.1741,211.5937 86.1741,209.0887 C86.1741,206.5837 84.1431,204.5537 81.6381,204.5537" id="Fill-126" fill="#1D1B1C"></path>
                <path d="M45.3549,104.7725 L81.6379,104.7725 C84.1429,104.7725 86.1739,102.7415 86.1739,100.2365 L86.1739,82.0945 C86.1739,79.5895 84.1429,77.5595 81.6379,77.5595 C79.1329,77.5595 77.1029,79.5895 77.1029,82.0945 L77.1029,95.7015 L49.8899,95.7015 L49.8899,82.0945 C49.8899,79.5895 47.8599,77.5595 45.3549,77.5595 C42.8499,77.5595 40.8189,79.5895 40.8189,82.0945 L40.8189,100.2365 C40.8189,102.7415 42.8499,104.7725 45.3549,104.7725" id="Fill-128" fill="#1D1B1C"></path>
                <path d="M63.4965,77.5596 C60.9915,77.5596 58.9605,79.5896 58.9605,82.0946 C58.9605,84.5996 60.9915,86.6306 63.4965,86.6306 C66.0015,86.6306 68.0325,84.5996 68.0325,82.0946 C68.0325,79.5896 66.0015,77.5596 63.4965,77.5596" id="Fill-130" fill="#1D1B1C"></path>
                <path d="M99.7802,122.9141 L117.9222,122.9141 C120.4262,122.9141 122.4572,120.8831 122.4572,118.3781 C122.4572,115.8731 120.4262,113.8431 117.9222,113.8431 L104.3152,113.8431 L104.3152,86.6311 L117.9222,86.6311 C120.4262,86.6311 122.4572,84.6001 122.4572,82.0951 C122.4572,79.5901 120.4262,77.5601 117.9222,77.5601 L99.7802,77.5601 C97.2752,77.5601 95.2442,79.5901 95.2442,82.0951 L95.2442,118.3781 C95.2442,120.8831 97.2752,122.9141 99.7802,122.9141" id="Fill-132" fill="#1D1B1C"></path>
                <path d="M49.8901,231.7676 L63.4961,231.7676 C66.0011,231.7676 68.0321,229.7376 68.0321,227.2326 C68.0321,224.7276 66.0011,222.6976 63.4961,222.6976 L45.3551,222.6976 C44.2591,222.6976 43.2541,223.0856 42.4701,223.7326 C41.4621,224.5646 40.8191,225.8236 40.8191,227.2326 L40.8191,245.3736 C40.8191,247.8786 42.8501,249.9096 45.3551,249.9096 C47.8601,249.9096 49.8901,247.8786 49.8901,245.3736 L49.8901,231.7676 Z" id="Fill-134" fill="#1D1B1C"></path>
                <path d="M204.0951,82.0947 L204.0951,82.0947 C204.0951,84.5997 206.1251,86.6307 208.6301,86.6307 L263.0301,86.6307 C265.5341,86.6307 267.5651,84.5997 267.5651,82.0947 C267.5651,79.5897 265.5341,77.5597 263.0301,77.5597 L208.6301,77.5597 C206.1251,77.5597 204.0951,79.5897 204.0951,82.0947" id="Fill-136" fill="#1D1B1C"></path>
                <path d="M117.9218,95.7012 L117.9218,95.7012 C115.4168,95.7012 113.3858,97.7312 113.3858,100.2362 C113.3858,102.7412 115.4168,104.7722 117.9218,104.7722 C120.4268,104.7722 122.4578,102.7412 122.4578,100.2362 C122.4578,97.7312 120.4268,95.7012 117.9218,95.7012" id="Fill-138" fill="#1D1B1C"></path>
                <path d="M185.953,118.3779 C185.953,120.8829 187.984,122.9129 190.489,122.9129 C192.994,122.9129 195.024,120.8829 195.024,118.3779 C195.024,115.8729 192.994,113.8429 190.489,113.8429 C187.984,113.8429 185.953,115.8729 185.953,118.3779" id="Fill-140" fill="#1D1B1C"></path>
                <path d="M226.7719,104.7725 L226.7719,104.7725 C229.2759,104.7725 231.3069,102.7415 231.3069,100.2365 C231.3069,97.7315 229.2759,95.7015 226.7719,95.7015 C224.2669,95.7015 222.2359,97.7315 222.2359,100.2365 C222.2359,102.7415 224.2669,104.7725 226.7719,104.7725" id="Fill-142" fill="#1D1B1C"></path>
                <path d="M244.914,131.9844 L244.914,131.9844 C242.409,131.9844 240.378,134.0154 240.378,136.5204 C240.378,139.0254 242.409,141.0554 244.914,141.0554 C247.419,141.0554 249.449,139.0254 249.449,136.5204 C249.449,134.0154 247.419,131.9844 244.914,131.9844" id="Fill-144" fill="#1D1B1C"></path>
                <path d="M45.3549,68.4883 C47.8599,68.4883 49.8899,66.4583 49.8899,63.9533 C49.8899,61.4483 47.8599,59.4183 45.3549,59.4183 C42.8499,59.4183 40.8189,61.4483 40.8189,63.9533 C40.8189,66.4583 42.8499,68.4883 45.3549,68.4883" id="Fill-146" fill="#1D1B1C"></path>
                <path d="M9.0712,186.4102 L9.0712,186.4102 C6.5662,186.4102 4.5362,188.4402 4.5362,190.9452 C4.5362,193.4502 6.5662,195.4802 9.0712,195.4802 C11.5762,195.4802 13.6072,193.4502 13.6072,190.9452 C13.6072,188.4402 11.5762,186.4102 9.0712,186.4102" id="Fill-148" fill="#1D1B1C"></path>
                <path d="M27.2133,141.0557 C29.7173,141.0557 31.7483,139.0257 31.7483,136.5207 C31.7483,134.0157 29.7173,131.9857 27.2133,131.9857 C24.7083,131.9857 22.6773,134.0157 22.6773,136.5207 C22.6773,139.0257 24.7083,141.0557 27.2133,141.0557" id="Fill-150" fill="#1D1B1C"></path>
                <path d="M81.6381,159.1982 C84.1431,159.1982 86.1741,157.1682 86.1741,154.6632 C86.1741,152.1582 84.1431,150.1272 81.6381,150.1272 C79.1331,150.1272 77.1031,152.1582 77.1031,154.6632 C77.1031,157.1682 79.1331,159.1982 81.6381,159.1982" id="Fill-152" fill="#1D1B1C"></path>
                <path d="M27.2133,231.7637 C29.7173,231.7637 31.7483,229.7337 31.7483,227.2287 C31.7483,224.7237 29.7173,222.6937 27.2133,222.6937 C24.7083,222.6937 22.6773,224.7237 22.6773,227.2287 C22.6773,229.7337 24.7083,231.7637 27.2133,231.7637" id="Fill-154" fill="#1D1B1C"></path>
                <path d="M81.6381,231.7637 C84.1431,231.7637 86.1741,229.7337 86.1741,227.2287 C86.1741,224.7237 84.1431,222.6937 81.6381,222.6937 C79.1331,222.6937 77.1031,224.7237 77.1031,227.2287 C77.1031,229.7337 79.1331,231.7637 81.6381,231.7637" id="Fill-156" fill="#1D1B1C"></path>
                <path d="M99.7802,258.9756 C97.2752,258.9756 95.2442,261.0066 95.2442,263.5116 C95.2442,266.0166 97.2752,268.0466 99.7802,268.0466 C102.2842,268.0466 104.3152,266.0166 104.3152,263.5116 C104.3152,261.0066 102.2842,258.9756 99.7802,258.9756" id="Fill-158" fill="#1D1B1C"></path>
                <path d="M81.6381,50.3467 C84.1431,50.3467 86.1741,48.3167 86.1741,45.8117 C86.1741,43.3067 84.1431,41.2767 81.6381,41.2767 C79.1331,41.2767 77.1031,43.3067 77.1031,45.8117 C77.1031,48.3167 79.1331,50.3467 81.6381,50.3467" id="Fill-160" fill="#1D1B1C"></path>
                <path d="M99.7797,168.2686 L99.7797,168.2686 C97.2747,168.2686 95.2437,170.2986 95.2437,172.8036 L95.2437,190.9456 C95.2437,193.4506 97.2747,195.4816 99.7797,195.4816 C102.2847,195.4816 104.3147,193.4506 104.3147,190.9456 L104.3147,172.8036 C104.3147,170.2986 102.2847,168.2686 99.7797,168.2686" id="Fill-162" fill="#1D1B1C"></path>
                <path d="M136.0634,150.126 L117.9214,150.126 C115.4174,150.126 113.3864,152.157 113.3864,154.662 L113.3864,172.804 C113.3864,175.309 115.4174,177.339 117.9214,177.339 L136.0634,177.339 C138.5684,177.339 140.5994,175.309 140.5994,172.804 C140.5994,170.299 138.5684,168.269 136.0634,168.269 L122.4574,168.269 L122.4574,159.197 L136.0634,159.197 C138.5684,159.197 140.5994,157.167 140.5994,154.662 C140.5994,152.157 138.5684,150.126 136.0634,150.126" id="Fill-164" fill="#1D1B1C"></path>
                <path d="M131.5282,227.2285 C131.5282,229.7335 133.5582,231.7645 136.0632,231.7645 C138.5682,231.7645 140.5992,229.7335 140.5992,227.2285 L140.5992,209.0865 C140.5992,206.5825 138.5682,204.5515 136.0632,204.5515 C133.5582,204.5515 131.5282,206.5825 131.5282,209.0865 L131.5282,227.2285 Z" id="Fill-166" fill="#1D1B1C"></path>
                <path d="M136.0634,313.4023 C133.5584,313.4023 131.5284,315.4323 131.5284,317.9373 L131.5284,336.0793 C131.5284,338.5843 133.5584,340.6143 136.0634,340.6143 C138.5684,340.6143 140.5994,338.5843 140.5994,336.0793 L140.5994,317.9373 C140.5994,315.4323 138.5684,313.4023 136.0634,313.4023" id="Fill-168" fill="#1D1B1C"></path>
                <path d="M113.3862,204.5518 L99.7802,204.5518 C97.2752,204.5518 95.2442,206.5818 95.2442,209.0868 C95.2442,211.5918 97.2752,213.6218 99.7802,213.6218 L117.9222,213.6218 C120.4272,213.6218 122.4572,211.5918 122.4572,209.0868 L122.4572,190.9458 C122.4572,188.4408 120.4272,186.4098 117.9222,186.4098 C115.4172,186.4098 113.3862,188.4408 113.3862,190.9458 L113.3862,204.5518 Z" id="Fill-170" fill="#1D1B1C"></path>
                <path d="M117.9218,322.4834 L117.9218,322.4834 C120.4268,322.4834 122.4578,320.4524 122.4578,317.9474 L122.4578,304.3284 L135.9998,304.3284 C136.0218,304.3284 136.0418,304.3314 136.0638,304.3314 C138.5678,304.3314 140.5988,302.3004 140.5988,299.7964 L140.5988,281.6544 C140.5988,279.1494 138.5678,277.1184 136.0638,277.1184 C133.5588,277.1184 131.5278,279.1494 131.5278,281.6544 L131.5278,295.2564 L117.8958,295.2564 C115.3908,295.2564 113.3598,297.2884 113.3598,299.7934 C113.3598,299.9554 113.3698,300.1144 113.3858,300.2724 L113.3858,317.9474 C113.3858,320.4524 115.4168,322.4834 117.9218,322.4834" id="Fill-172" fill="#1D1B1C"></path>
                <path d="M149.6698,240.835 L136.0638,240.835 C133.5588,240.835 131.5278,242.865 131.5278,245.37 C131.5278,247.875 133.5588,249.906 136.0638,249.906 L154.2048,249.906 C156.7098,249.906 158.7408,247.875 158.7408,245.37 L158.7408,227.229 C158.7408,224.724 156.7098,222.693 154.2048,222.693 C151.6998,222.693 149.6698,224.724 149.6698,227.229 L149.6698,240.835 Z" id="Fill-174" fill="#1D1B1C"></path>
                <path d="M149.6698,281.6543 C149.6698,284.1593 151.6998,286.1893 154.2048,286.1893 L172.3468,286.1893 C174.8518,286.1893 176.8818,284.1593 176.8818,281.6543 C176.8818,279.1493 174.8518,277.1183 172.3468,277.1183 L158.7408,277.1183 L158.7408,263.5113 C158.7408,261.0083 156.7098,258.9763 154.2048,258.9763 L136.0638,258.9763 C133.5588,258.9763 131.5278,261.0083 131.5278,263.5113 C131.5278,266.0173 133.5588,268.0483 136.0638,268.0483 L149.6698,268.0483 L149.6698,281.6543 Z" id="Fill-176" fill="#1D1B1C"></path>
                <path d="M258.496,227.3652 C258.496,229.8702 260.526,231.9012 263.031,231.9012 C265.536,231.9012 267.567,229.8702 267.567,227.3652 L267.567,213.6222 L276.61,213.6222 L276.61,227.3652 C276.61,229.8702 278.641,231.9012 281.145,231.9012 C283.65,231.9012 285.681,229.8702 285.681,227.3652 L285.681,209.9082 C285.73,209.6412 285.759,209.3682 285.759,209.0872 C285.759,206.5822 283.728,204.5522 281.224,204.5522 L263.081,204.5522 C261.152,204.5522 259.509,205.7592 258.853,207.4562 C258.623,208.0002 258.496,208.5962 258.496,209.2232 L258.496,227.3652 Z" id="Fill-178" fill="#1D1B1C"></path>
                <path d="M263.0556,186.4102 C260.5506,186.4102 258.5206,188.4402 258.5206,190.9452 C258.5206,193.4502 260.5506,195.4802 263.0556,195.4802 L281.1976,195.4802 L281.1976,195.4802 L281.1986,195.4802 C283.7026,195.4802 285.7336,193.4502 285.7336,190.9452 L285.7336,154.6622 C285.7336,152.1572 283.7026,150.1262 281.1986,150.1262 L281.1976,150.1262 L281.1976,150.1262 L263.0556,150.1262 C260.5506,150.1262 258.5206,152.1572 258.5206,154.6622 C258.5206,157.1672 260.5506,159.1972 263.0556,159.1972 L276.6626,159.1972 L276.6626,186.4102 L263.0556,186.4102 Z" id="Fill-180" fill="#1D1B1C"></path>
                <path d="M226.7724,186.4102 L208.6304,186.4102 C206.1264,186.4102 204.0954,188.4402 204.0954,190.9452 C204.0954,193.4502 206.1264,195.4802 208.6304,195.4802 L222.2374,195.4802 L222.2374,209.0872 C222.2374,211.5922 224.2674,213.6222 226.7724,213.6222 L244.9144,213.6222 C247.4194,213.6222 249.4494,211.5922 249.4494,209.0872 C249.4494,206.5822 247.4194,204.5522 244.9144,204.5522 L231.3084,204.5522 L231.3084,190.9452 C231.3084,188.4402 229.2774,186.4102 226.7724,186.4102" id="Fill-182" fill="#1D1B1C"></path>
                <path d="M117.9218,222.6934 L117.9218,222.6934 C115.4168,222.6934 113.3858,224.7234 113.3858,227.2284 L113.3858,263.5114 C113.3858,266.0174 115.4168,268.0474 117.9218,268.0474 C120.4268,268.0474 122.4568,266.0174 122.4568,263.5114 L122.4568,227.2284 C122.4568,224.7234 120.4268,222.6934 117.9218,222.6934" id="Fill-184" fill="#1D1B1C"></path>
                <path d="M122.4574,281.6543 L122.4574,281.6543 C122.4574,279.1493 120.4264,277.1183 117.9214,277.1183 L81.6384,277.1183 C79.1334,277.1183 77.1034,279.1493 77.1034,281.6543 C77.1034,284.1593 79.1334,286.1893 81.6384,286.1893 L117.9214,286.1893 C120.4264,286.1893 122.4574,284.1593 122.4574,281.6543" id="Fill-186" fill="#1D1B1C"></path>
                <path d="M204.0947,154.6621 L204.0947,154.6621 C204.0947,157.1671 206.1257,159.1971 208.6307,159.1971 L244.9137,159.1971 C247.4187,159.1971 249.4487,157.1671 249.4487,154.6621 C249.4487,152.1571 247.4187,150.1261 244.9137,150.1261 L213.1657,150.1261 L213.1657,136.5201 C213.1657,134.0161 211.1357,131.9841 208.6307,131.9841 C206.1257,131.9841 204.0947,134.0161 204.0947,136.5201 L204.0947,154.6621 Z" id="Fill-188" fill="#1D1B1C"></path>
                <path d="M204.0947,172.8037 C204.0947,175.3087 206.1257,177.3387 208.6307,177.3387 L263.0557,177.3387 C265.5607,177.3387 267.5917,175.3087 267.5917,172.8037 C267.5917,170.2987 265.5607,168.2687 263.0557,168.2687 L208.6307,168.2687 C206.1257,168.2687 204.0947,170.2987 204.0947,172.8037" id="Fill-190" fill="#1D1B1C"></path>
                <path d="M114.4946,136.5205 C114.4946,139.0255 116.5256,141.0555 119.0306,141.0555 L190.4886,141.0555 C192.9936,141.0555 195.0246,139.0255 195.0246,136.5205 C195.0246,134.0155 192.9936,131.9855 190.4886,131.9855 L119.0306,131.9855 C116.5256,131.9855 114.4946,134.0155 114.4946,136.5205" id="Fill-192" fill="#1D1B1C"></path>
                <path d="M149.6698,209.0869 C149.6698,211.5919 151.6998,213.6219 154.2048,213.6219 C156.7098,213.6219 158.7408,211.5919 158.7408,209.0869 L158.7408,172.8039 C158.7408,170.2989 156.7098,168.2689 154.2048,168.2689 C151.6998,168.2689 149.6698,170.2989 149.6698,172.8039 L149.6698,209.0869 Z" id="Fill-194" fill="#1D1B1C"></path>
                <path d="M172.3471,195.4805 L190.4891,195.4805 C192.9931,195.4805 195.0241,193.4505 195.0241,190.9455 L195.0241,154.6625 C195.0241,152.1575 192.9931,150.1265 190.4891,150.1265 L172.3471,150.1265 C169.8421,150.1265 167.8111,152.1575 167.8111,154.6625 C167.8111,157.1675 169.8421,159.1975 172.3471,159.1975 L185.9531,159.1975 L185.9531,186.4105 L172.3471,186.4105 C169.8421,186.4105 167.8111,188.4405 167.8111,190.9455 C167.8111,193.4505 169.8421,195.4805 172.3471,195.4805" id="Fill-196" fill="#1D1B1C"></path>
                <path d="M172.3471,177.3389 C174.8521,177.3389 176.8821,175.3089 176.8821,172.8039 C176.8821,170.2989 174.8521,168.2689 172.3471,168.2689 C169.8421,168.2689 167.8111,170.2989 167.8111,172.8039 C167.8111,175.3089 169.8421,177.3389 172.3471,177.3389" id="Fill-198" fill="#1D1B1C"></path>
                <path d="M167.8114,209.0869 L167.8114,227.2289 C167.8114,229.7329 169.8424,231.7649 172.3474,231.7649 C174.8524,231.7649 176.8824,229.7329 176.8824,227.2289 L176.8824,213.6219 L204.0954,213.6219 L204.0954,227.2289 C204.0954,229.7329 206.1254,231.7649 208.6304,231.7649 C211.1354,231.7649 213.1654,229.7329 213.1654,227.2289 L213.1654,209.0869 C213.1654,206.5819 211.1354,204.5519 208.6304,204.5519 L172.3474,204.5519 C169.8424,204.5519 167.8114,206.5819 167.8114,209.0869" id="Fill-200" fill="#1D1B1C"></path>
                <path d="M195.0243,227.2285 L195.0243,227.2285 C195.0243,224.7235 192.9933,222.6935 190.4883,222.6935 C187.9833,222.6935 185.9533,224.7235 185.9533,227.2285 C185.9533,229.7335 187.9833,231.7645 190.4883,231.7645 C192.9933,231.7645 195.0243,229.7335 195.0243,227.2285" id="Fill-202" fill="#1D1B1C"></path>
                <path d="M172.3486,258.9805 L172.3486,258.9805 C169.8436,258.9805 167.8136,261.0105 167.8136,263.5155 C167.8136,266.0205 169.8436,268.0505 172.3486,268.0505 C174.8536,268.0505 176.8846,266.0205 176.8846,263.5155 C176.8846,261.0105 174.8536,258.9805 172.3486,258.9805" id="Fill-204" fill="#1D1B1C"></path>
                <path d="M244.914,222.6914 L244.914,222.6914 C242.409,222.6914 240.378,224.7224 240.378,227.2274 C240.378,229.7314 242.409,231.7624 244.914,231.7624 C247.419,231.7624 249.449,229.7314 249.449,227.2274 C249.449,224.7224 247.419,222.6914 244.914,222.6914" id="Fill-206" fill="#1D1B1C"></path>
                <path d="M154.205,159.1973 C156.71,159.1973 158.741,157.1673 158.741,154.6623 C158.741,152.1573 156.71,150.1263 154.205,150.1263 C151.7,150.1263 149.67,152.1573 149.67,154.6623 C149.67,157.1673 151.7,159.1973 154.205,159.1973" id="Fill-208" fill="#1D1B1C"></path>
                <path d="M244.915,195.4805 C247.419,195.4805 249.45,193.4505 249.45,190.9455 C249.45,188.4405 247.419,186.4105 244.915,186.4105 L244.915,186.4105 C242.41,186.4105 240.379,188.4405 240.379,190.9455 C240.379,193.4505 242.41,195.4805 244.915,195.4805 Z" id="Fill-210" fill="#1D1B1C"></path>
                <path d="M136.0634,195.4805 C138.5684,195.4805 140.5994,193.4505 140.5994,190.9455 C140.5994,188.4405 138.5684,186.4105 136.0634,186.4105 C133.5584,186.4105 131.5284,188.4405 131.5284,190.9455 C131.5284,193.4505 133.5584,195.4805 136.0634,195.4805" id="Fill-212" fill="#1D1B1C"></path>
                <path d="M208.6303,50.3467 L226.7723,50.3467 C229.2763,50.3467 231.3073,48.3167 231.3073,45.8117 L231.3073,9.5287 C231.3073,7.0237 229.2763,4.9927 226.7723,4.9927 L208.6303,4.9927 C206.1253,4.9927 204.0953,7.0237 204.0953,9.5287 C204.0953,12.0337 206.1253,14.0637 208.6303,14.0637 L222.2363,14.0637 L222.2363,41.2767 L208.6303,41.2767 C206.1253,41.2767 204.0953,43.3067 204.0953,45.8117 C204.0953,48.3167 206.1253,50.3467 208.6303,50.3467" id="Fill-214" fill="#1D1B1C"></path>
                <path d="M299.3388,32.2051 L299.3388,32.2051 C301.8438,32.2051 303.8748,30.1751 303.8748,27.6701 C303.8748,25.1651 301.8438,23.1351 299.3388,23.1351 L299.3388,23.1351 C296.8348,23.1351 294.8038,25.1651 294.8038,27.6701 C294.8038,30.1751 296.8348,32.2051 299.3388,32.2051" id="Fill-216" fill="#1D1B1C"></path>
                <path d="M267.5912,63.9531 C267.5912,61.4481 265.5602,59.4181 263.0552,59.4181 C260.5502,59.4181 258.5202,61.4481 258.5202,63.9531 C258.5202,66.4581 260.5502,68.4881 263.0552,68.4881 C265.5602,68.4881 267.5912,66.4581 267.5912,63.9531" id="Fill-218" fill="#1D1B1C"></path>
                <path d="M390.0443,50.3467 L390.0443,50.3467 C392.5493,50.3467 394.5793,48.3167 394.5793,45.8117 C394.5793,43.3067 392.5493,41.2767 390.0443,41.2767 C387.5393,41.2767 385.5083,43.3067 385.5083,45.8117 C385.5083,48.3167 387.5393,50.3467 390.0443,50.3467" id="Fill-220" fill="#1D1B1C"></path>
                <path d="M412.7377,100.2305 C412.7377,97.7255 410.7067,95.6945 408.2017,95.6945 C405.6967,95.6945 403.6667,97.7255 403.6667,100.2305 C403.6667,102.7345 405.6967,104.7655 408.2017,104.7655 C410.7067,104.7655 412.7377,102.7345 412.7377,100.2305" id="Fill-222" fill="#1D1B1C"></path>
                <path d="M208.6303,32.2051 C211.1353,32.2051 213.1663,30.1751 213.1663,27.6701 C213.1663,25.1651 211.1353,23.1351 208.6303,23.1351 C206.1253,23.1351 204.0953,25.1651 204.0953,27.6701 C204.0953,30.1751 206.1253,32.2051 208.6303,32.2051" id="Fill-224" fill="#1D1B1C"></path>
                <path d="M317.4286,86.6309 L317.4286,86.6309 C319.9336,86.6309 321.9646,84.5999 321.9646,82.0949 L321.9646,45.8119 C321.9646,43.3069 319.9336,41.2769 317.4286,41.2769 L317.4286,41.2769 C314.9246,41.2769 312.8936,43.3069 312.8936,45.8119 L312.8936,82.0949 C312.8936,84.5999 314.9246,86.6309 317.4286,86.6309" id="Fill-226" fill="#1D1B1C"></path>
                <path d="M335.5966,86.6309 L353.7386,86.6309 C356.2426,86.6309 358.2736,84.5999 358.2736,82.0949 L358.2736,45.8119 C358.2736,43.3069 356.2426,41.2769 353.7386,41.2769 L335.5966,41.2769 C333.0916,41.2769 331.0606,43.3069 331.0606,45.8119 C331.0606,48.3169 333.0916,50.3469 335.5966,50.3469 L349.2026,50.3469 L349.2026,77.5599 L335.5966,77.5599 C333.0916,77.5599 331.0606,79.5899 331.0606,82.0949 C331.0606,84.5999 333.0916,86.6309 335.5966,86.6309" id="Fill-228" fill="#1D1B1C"></path>
                <path d="M335.5966,68.4883 C338.1016,68.4883 340.1316,66.4583 340.1316,63.9533 C340.1316,61.4483 338.1016,59.4183 335.5966,59.4183 C333.0916,59.4183 331.0606,61.4483 331.0606,63.9533 C331.0606,66.4583 333.0916,68.4883 335.5966,68.4883" id="Fill-230" fill="#1D1B1C"></path>
                <path d="M249.456,299.793 C249.456,297.288 247.426,295.257 244.921,295.257 L226.779,295.257 C224.274,295.257 222.244,297.288 222.244,299.793 C222.244,302.297 224.274,304.328 226.779,304.328 L244.921,304.328 C247.426,304.328 249.456,302.297 249.456,299.793" id="Fill-232" fill="#1D1B1C"></path>
                <path d="M208.6181,277.1152 C206.1131,277.1152 204.0821,279.1452 204.0821,281.6502 L204.0821,295.2572 L190.4891,295.2572 C187.9841,295.2572 185.9531,297.2882 185.9531,299.7932 C185.9531,302.2972 187.9841,304.3282 190.4891,304.3282 L208.6301,304.3282 C211.1351,304.3282 213.1661,302.2972 213.1661,299.7932 C213.1661,299.7082 213.1581,299.6252 213.1531,299.5422 L213.1531,281.6502 C213.1531,279.1452 211.1221,277.1152 208.6181,277.1152" id="Fill-234" fill="#1D1B1C"></path>
                <path d="M81.6381,295.2568 L63.4961,295.2568 C60.9921,295.2568 58.9611,297.2878 58.9611,299.7928 C58.9611,302.2968 60.9921,304.3278 63.4961,304.3278 L77.1031,304.3278 L77.1031,313.3388 L63.4961,313.3388 C60.9921,313.3388 58.9611,315.3688 58.9611,317.8738 C58.9611,320.3788 60.9921,322.4088 63.4961,322.4088 L80.8471,322.4088 C81.1041,322.4548 81.3681,322.4838 81.6381,322.4838 C84.1431,322.4838 86.1741,320.4518 86.1741,317.9468 L86.1741,299.8058 C86.1741,299.8038 86.1731,299.8018 86.1731,299.7988 C86.1731,299.7968 86.1741,299.7948 86.1741,299.7928 C86.1741,297.2878 84.1431,295.2568 81.6381,295.2568" id="Fill-236" fill="#1D1B1C"></path>
                <path d="M22.7035,299.793 L22.7035,299.793 C22.7035,302.297 24.7345,304.328 27.2385,304.328 L40.8455,304.328 L40.8455,317.947 C40.8455,320.452 42.8755,322.483 45.3805,322.483 C47.8855,322.483 49.9155,320.452 49.9155,317.947 L49.9155,299.806 L49.9155,299.799 L49.9155,299.793 C49.9155,297.288 47.8855,295.257 45.3805,295.257 L27.2385,295.257 C24.7345,295.257 22.7035,297.288 22.7035,299.793" id="Fill-238" fill="#1D1B1C"></path>
                <path d="M303.8227,245.3691 L303.8227,245.3691 C303.8227,242.8641 301.7917,240.8341 299.2867,240.8341 L263.2907,240.8341 C260.7857,240.8341 258.7557,242.8641 258.7557,245.3691 C258.7557,247.8741 260.7857,249.9051 263.2907,249.9051 L294.7257,249.9051 L294.7257,258.9731 L263.0557,258.9731 C260.5507,258.9731 258.5207,261.0041 258.5207,263.5091 C258.5207,266.0141 260.5507,268.0451 263.0557,268.0451 L299.1297,268.0451 C299.1737,268.0461 299.2167,268.0511 299.2607,268.0511 C299.4267,268.0511 299.5907,268.0411 299.7517,268.0231 C302.0627,267.8141 303.8747,265.8751 303.8747,263.5091 C303.8747,263.2281 303.8457,262.9551 303.7967,262.6881 L303.7967,245.8491 C303.8137,245.6911 303.8227,245.5311 303.8227,245.3691" id="Fill-240" fill="#1D1B1C"></path>
                <path d="M208.6303,240.8389 C206.1253,240.8389 204.0953,242.8689 204.0953,245.3739 L204.0953,258.9809 L190.5583,258.9809 C190.5353,258.9799 190.5143,258.9769 190.4923,258.9769 C189.2383,258.9769 188.1043,259.4849 187.2833,260.3079 C186.4623,261.1279 185.9533,262.2629 185.9533,263.5159 C185.9533,263.5379 185.9563,263.5599 185.9563,263.5809 L185.9563,281.6539 C185.9563,284.1589 187.9873,286.1899 190.4923,286.1899 C192.9973,286.1899 195.0273,284.1589 195.0273,281.6539 L195.0273,268.0509 L208.6303,268.0509 C211.1353,268.0509 213.1663,266.0209 213.1663,263.5159 L213.1663,245.3739 C213.1663,242.8689 211.1353,240.8389 208.6303,240.8389" id="Fill-242" fill="#1D1B1C"></path>
                <path d="M195.0312,245.3691 L195.0312,245.3691 C195.0312,242.8641 193.0002,240.8341 190.4952,240.8341 L172.3542,240.8341 C169.8492,240.8341 167.8182,242.8641 167.8182,245.3691 C167.8182,247.8741 169.8492,249.9051 172.3542,249.9051 L190.4952,249.9051 C193.0002,249.9051 195.0312,247.8741 195.0312,245.3691" id="Fill-244" fill="#1D1B1C"></path>
                <path d="M322.0165,317.9473 L322.0165,299.8053 C322.0165,297.3013 319.9855,295.2703 317.4805,295.2703 C314.9755,295.2703 312.9455,297.3013 312.9455,299.8053 L312.9455,317.9473 C312.9455,320.4523 314.9755,322.4833 317.4805,322.4833 C319.9855,322.4833 322.0165,320.4523 322.0165,317.9473" id="Fill-246" fill="#1D1B1C"></path>
                <path d="M317.4809,358.8486 C319.9859,358.8486 322.0169,356.8186 322.0169,354.3136 L322.0169,336.1716 C322.0169,335.9896 322.0019,335.8116 321.9819,335.6346 C321.7639,333.3336 319.8269,331.5326 317.4679,331.5326 L299.3269,331.5326 C296.8219,331.5326 294.7909,333.5636 294.7909,336.0686 C294.7909,336.3186 294.8169,336.5626 294.8559,336.8016 L294.8559,354.3136 C294.8559,356.8186 296.8859,358.8486 299.3909,358.8486 C301.8959,358.8486 303.9269,356.8186 303.9269,354.3136 L303.9269,340.6036 L312.9459,340.6036 L312.9459,354.3136 C312.9459,356.8186 314.9759,358.8486 317.4809,358.8486" id="Fill-248" fill="#1D1B1C"></path>
                <path d="M249.456,317.9277 C249.456,315.4227 247.426,313.3927 244.921,313.3927 L208.637,313.3927 C206.132,313.3927 204.102,315.4227 204.102,317.9277 C204.102,320.4327 206.132,322.4627 208.637,322.4627 L244.921,322.4627 C247.426,322.4627 249.456,320.4327 249.456,317.9277" id="Fill-250" fill="#1D1B1C"></path>
                <path d="M244.914,240.832 C242.409,240.832 240.378,242.862 240.378,245.367 L240.378,281.65 C240.378,284.155 242.409,286.186 244.914,286.186 C247.419,286.186 249.45,284.155 249.45,281.65 L249.45,245.367 C249.45,242.862 247.419,240.832 244.914,240.832" id="Fill-252" fill="#1D1B1C"></path>
                <path d="M226.7758,268.0479 C229.2808,268.0479 231.3108,266.0179 231.3108,263.5119 L231.3108,227.2289 C231.3108,224.7239 229.2808,222.6939 226.7758,222.6939 C224.2708,222.6939 222.2398,224.7239 222.2398,227.2289 L222.2398,263.5119 C222.2398,266.0179 224.2708,268.0479 226.7758,268.0479" id="Fill-254" fill="#1D1B1C"></path>
                <path d="M317.4809,258.9736 C314.9759,258.9736 312.9459,261.0036 312.9459,263.5086 C312.9459,266.0136 314.9759,268.0446 317.4809,268.0446 C319.9859,268.0446 322.0169,266.0136 322.0169,263.5086 C322.0169,261.0036 319.9859,258.9736 317.4809,258.9736" id="Fill-256" fill="#1D1B1C"></path>
                <path d="M226.7758,286.1865 C229.2808,286.1865 231.3108,284.1555 231.3108,281.6505 C231.3108,279.1455 229.2808,277.1155 226.7758,277.1155 C224.2708,277.1155 222.2398,279.1455 222.2398,281.6505 C222.2398,284.1555 224.2708,286.1865 226.7758,286.1865" id="Fill-258" fill="#1D1B1C"></path>
                <path d="M185.9535,317.9375 C185.9535,320.4425 187.9835,322.4725 190.4885,322.4725 C192.9935,322.4725 195.0245,320.4425 195.0245,317.9375 C195.0245,315.4325 192.9935,313.4025 190.4885,313.4025 C187.9835,313.4025 185.9535,315.4325 185.9535,317.9375" id="Fill-260" fill="#1D1B1C"></path>
                <path d="M299.391,277.1152 C296.886,277.1152 294.856,279.1452 294.856,281.6502 L294.856,317.9342 C294.856,320.4392 296.886,322.4692 299.391,322.4692 C301.896,322.4692 303.927,320.4392 303.927,317.9342 L303.927,281.6502 C303.927,279.1452 301.896,277.1152 299.391,277.1152" id="Fill-262" fill="#1D1B1C"></path>
                <path d="M281.2235,277.1152 L263.0815,277.1152 C260.5765,277.1152 258.5465,279.1452 258.5465,281.6502 L258.5465,317.9342 C258.5465,320.4392 260.5765,322.4692 263.0815,322.4692 L281.2235,322.4692 C283.7285,322.4692 285.7585,320.4392 285.7585,317.9342 C285.7585,315.4292 283.7285,313.3982 281.2235,313.3982 L267.6175,313.3982 L267.6175,286.1862 L281.2235,286.1862 C283.7285,286.1862 285.7585,284.1552 285.7585,281.6502 C285.7585,279.1452 283.7285,277.1152 281.2235,277.1152" id="Fill-264" fill="#1D1B1C"></path>
                <path d="M281.2235,295.2568 C278.7185,295.2568 276.6875,297.2878 276.6875,299.7928 C276.6875,302.2968 278.7185,304.3278 281.2235,304.3278 C283.7285,304.3278 285.7585,302.2968 285.7585,299.7928 C285.7585,297.2878 283.7285,295.2568 281.2235,295.2568" id="Fill-266" fill="#1D1B1C"></path>
                <path d="M258.5463,336.0107 C258.5463,338.5157 260.5763,340.5467 263.0813,340.5467 C265.5863,340.5467 267.6173,338.5157 267.6173,336.0107 C267.6173,333.5057 265.5863,331.4757 263.0813,331.4757 C260.5763,331.4757 258.5463,333.5057 258.5463,336.0107" id="Fill-268" fill="#1D1B1C"></path>
                <path d="M31.7485,281.6533 C31.7485,279.1483 29.7175,277.1173 27.2135,277.1173 L13.6065,277.1173 L13.6065,249.9053 L27.2135,249.9053 C29.7175,249.9053 31.7485,247.8743 31.7485,245.3693 C31.7485,242.8643 29.7175,240.8343 27.2135,240.8343 L9.0715,240.8343 C6.5665,240.8343 4.5365,242.8643 4.5365,245.3693 L4.5365,281.6533 C4.5365,284.1583 6.5665,286.1883 9.0715,286.1883 L27.2135,286.1883 C29.7175,286.1883 31.7485,284.1583 31.7485,281.6533" id="Fill-270" fill="#1D1B1C"></path>
                <path d="M376.3896,154.7988 C376.3896,152.2938 374.3586,150.2638 371.8536,150.2638 C369.3486,150.2638 367.3186,152.2938 367.3186,154.7988 L367.3186,172.9398 L367.3186,172.9408 C367.3186,175.4448 369.3486,177.4758 371.8536,177.4758 C371.8606,177.4758 371.8666,177.4748 371.8716,177.4748 L385.4606,177.4748 L385.4606,191.0858 C385.4606,193.5908 387.4916,195.6208 389.9956,195.6208 C392.5006,195.6208 394.5316,193.5908 394.5316,191.0858 L394.5316,172.9448 L394.5316,172.9418 L394.5316,172.9398 C394.5316,170.4348 392.5006,168.4038 389.9956,168.4038 L376.3896,168.4038 L376.3896,154.7988 Z" id="Fill-272" fill="#1D1B1C"></path>
                <path d="M389.996,141.1943 L426.279,141.1943 C428.784,141.1943 430.815,139.1633 430.815,136.6593 C430.815,134.1533 428.784,132.1233 426.279,132.1233 L389.996,132.1233 C387.491,132.1233 385.46,134.1533 385.46,136.6593 C385.46,139.1633 387.491,141.1943 389.996,141.1943" id="Fill-274" fill="#1D1B1C"></path>
                <path d="M389.996,159.334 C392.5,159.334 394.531,157.303 394.531,154.798 C394.531,152.293 392.5,150.263 389.996,150.263 C387.491,150.263 385.46,152.293 385.46,154.798 C385.46,157.303 387.491,159.334 389.996,159.334" id="Fill-276" fill="#1D1B1C"></path>
                <path d="M426.2792,168.2686 L426.2792,168.2686 C423.7742,168.2686 421.7432,170.2986 421.7432,172.8036 C421.7432,175.3086 423.7742,177.3386 426.2792,177.3386 C428.7842,177.3386 430.8152,175.3086 430.8152,172.8036 C430.8152,170.2986 428.7842,168.2686 426.2792,168.2686" id="Fill-278" fill="#1D1B1C"></path>
                <path d="M376.5194,191.082 C376.5194,188.577 374.4884,186.547 371.9834,186.547 C369.4784,186.547 367.4484,188.577 367.4484,191.082 C367.4484,193.587 369.4784,195.617 371.9834,195.617 C374.4884,195.617 376.5194,193.587 376.5194,191.082" id="Fill-280" fill="#1D1B1C"></path>
                <path d="M371.8544,123.0508 L371.8544,123.0508 C374.3594,123.0508 376.3904,121.0208 376.3904,118.5158 L376.3904,100.3738 C376.3904,97.8688 374.3594,95.8378 371.8544,95.8378 C369.3494,95.8378 367.3194,97.8688 367.3194,100.3738 L367.3194,118.5158 C367.3194,121.0208 369.3494,123.0508 371.8544,123.0508" id="Fill-282" fill="#1D1B1C"></path>
                <path d="M331.0351,154.7988 C331.0351,157.3038 333.0661,159.3338 335.5711,159.3338 C338.0761,159.3338 340.1061,157.3038 340.1061,154.7988 L340.1061,136.6568 C340.1061,134.1528 338.0761,132.1208 335.5711,132.1208 C333.0661,132.1208 331.0351,134.1528 331.0351,136.6568 L331.0351,154.7988 Z" id="Fill-284" fill="#1D1B1C"></path>
                <path d="M299.3129,168.542 C296.8079,168.542 294.7779,170.572 294.7779,173.077 L294.7779,191.219 C294.7779,193.724 296.8079,195.754 299.3129,195.754 C301.8179,195.754 303.8489,193.724 303.8489,191.219 L303.8489,173.077 C303.8489,170.572 301.8179,168.542 299.3129,168.542" id="Fill-286" fill="#1D1B1C"></path>
                <path d="M335.5707,204.6885 C333.0657,204.6885 331.0347,206.7185 331.0347,209.2235 L331.0347,227.3655 C331.0347,229.8705 333.0657,231.9015 335.5707,231.9015 C338.0757,231.9015 340.1057,229.8705 340.1057,227.3655 L340.1057,209.2235 C340.1057,206.7185 338.0757,204.6885 335.5707,204.6885" id="Fill-288" fill="#1D1B1C"></path>
                <path d="M371.8539,132.1211 L358.2479,132.1211 L358.2479,118.5151 C358.2479,116.0111 356.2169,113.9791 353.7119,113.9791 C351.2079,113.9791 349.1769,116.0111 349.1769,118.5151 L349.1769,136.6571 C349.1769,138.0651 349.8189,139.3251 350.8269,140.1561 C351.6109,140.8041 352.6169,141.1921 353.7119,141.1921 L371.8539,141.1921 C374.3589,141.1921 376.3899,139.1621 376.3899,136.6571 C376.3899,134.1521 374.3589,132.1211 371.8539,132.1211" id="Fill-290" fill="#1D1B1C"></path>
                <path d="M349.3065,317.9004 C349.3065,320.4054 351.3375,322.4354 353.8425,322.4354 L371.9835,322.4354 C374.4885,322.4354 376.5195,320.4054 376.5195,317.9004 C376.5195,315.3954 374.4885,313.3654 371.9835,313.3654 L353.8425,313.3654 C351.3375,313.3654 349.3065,315.3954 349.3065,317.9004" id="Fill-292" fill="#1D1B1C"></path>
                <path d="M313.0141,281.582 C313.0141,284.087 315.0451,286.117 317.5501,286.117 L331.2441,286.117 L331.2441,298.905 C331.1941,299.174 331.1651,299.449 331.1651,299.732 C331.1651,302.237 333.1961,304.269 335.7011,304.269 L335.7801,304.269 L353.8421,304.269 C356.3471,304.269 358.3781,302.237 358.3781,299.732 C358.3781,297.228 356.3471,295.197 353.8421,295.197 L340.3151,295.197 L340.3151,281.591 C340.3151,279.228 338.5081,277.289 336.2001,277.077 C336.0331,277.058 335.8641,277.047 335.6911,277.047 L317.5501,277.047 C315.0451,277.047 313.0141,279.077 313.0141,281.582" id="Fill-294" fill="#1D1B1C"></path>
                <path d="M231.3334,354.21 C231.3334,351.705 229.3034,349.674 226.7984,349.674 L213.1534,349.674 L213.1534,336.868 C213.2064,336.592 213.2364,336.308 213.2364,336.016 C213.2364,333.511 211.2054,331.481 208.7004,331.481 L190.5594,331.481 C188.0544,331.481 186.0234,333.511 186.0234,336.016 C186.0234,338.521 188.0544,340.551 190.5594,340.551 L204.0824,340.551 L204.0824,354.185 C204.0824,355.761 204.8874,357.148 206.1074,357.961 C206.8334,358.455 207.7104,358.745 208.6564,358.745 L226.7984,358.745 C229.3034,358.745 231.3334,356.715 231.3334,354.21" id="Fill-296" fill="#1D1B1C"></path>
                <path d="M118.6371,358.7451 L136.7791,358.7451 C139.2831,358.7451 141.3141,356.7151 141.3141,354.2101 C141.3141,351.7051 139.2831,349.6741 136.7791,349.6741 L123.2211,349.6741 L123.2211,336.0431 C123.2211,333.5381 121.1911,331.5071 118.6861,331.5071 C116.1811,331.5071 114.1511,333.5381 114.1511,336.0431 L114.1511,353.5791 C114.1221,353.7861 114.1021,353.9951 114.1021,354.2101 C114.1021,356.7151 116.1321,358.7451 118.6371,358.7451" id="Fill-298" fill="#1D1B1C"></path>
                <path d="M86.1738,354.21 C86.1738,351.705 84.1428,349.674 81.6378,349.674 L68.0318,349.674 L68.0318,336.043 C68.0318,333.792 66.3898,331.929 64.2398,331.573 C63.9438,331.513 63.6368,331.481 63.3228,331.481 L45.1808,331.481 C42.6758,331.481 40.6458,333.511 40.6458,336.016 C40.6458,338.521 42.6758,340.552 45.1808,340.552 L58.9608,340.552 L58.9608,354.185 C58.9608,354.189 58.9618,354.192 58.9618,354.197 C58.9618,354.201 58.9608,354.205 58.9608,354.21 C58.9608,356.715 60.9918,358.745 63.4968,358.745 L81.6378,358.745 C84.1428,358.745 86.1738,356.715 86.1738,354.21" id="Fill-300" fill="#1D1B1C"></path>
                <path d="M280.9208,358.8486 C283.4258,358.8486 285.4568,356.8186 285.4568,354.3136 L285.4568,336.1716 C285.4568,333.6666 283.4258,331.6356 280.9208,331.6356 C278.4158,331.6356 276.3858,333.6666 276.3858,336.1716 L276.3858,349.7776 L262.7788,349.7776 C260.2748,349.7776 258.2438,351.8086 258.2438,354.3136 C258.2438,356.8186 260.2748,358.8486 262.7788,358.8486 L280.9208,358.8486 Z" id="Fill-302" fill="#1D1B1C"></path>
                <path d="M390.1259,331.5322 L371.9839,331.5322 C369.4789,331.5322 367.4489,333.5632 367.4489,336.0682 L367.4489,349.6742 L353.8419,349.6742 C351.3369,349.6742 349.3069,351.7052 349.3069,354.2102 C349.3069,356.7152 351.3369,358.7452 353.8419,358.7452 L371.9839,358.7452 C374.4889,358.7452 376.5199,356.7152 376.5199,354.2102 L376.5199,340.6032 L390.1259,340.6032 C392.6299,340.6032 394.6609,338.5732 394.6609,336.0682 C394.6609,333.5632 392.6299,331.5322 390.1259,331.5322" id="Fill-304" fill="#1D1B1C"></path>
                <path d="M244.811,331.5322 L226.669,331.5322 C224.164,331.5322 222.134,333.5632 222.134,336.0682 C222.134,338.5732 224.164,340.6032 226.669,340.6032 L240.275,340.6032 L240.275,354.3132 C240.275,356.8182 242.306,358.8482 244.811,358.8482 C247.316,358.8482 249.346,356.8182 249.346,354.3132 L249.346,336.1722 C249.346,336.1542 249.344,336.1362 249.344,336.1202 C249.344,336.1022 249.346,336.0862 249.346,336.0682 C249.346,333.5632 247.316,331.5322 244.811,331.5322" id="Fill-306" fill="#1D1B1C"></path>
                <path d="M303.8295,372.2861 C303.8295,369.7811 301.7985,367.7501 299.2935,367.7501 L281.1525,367.7501 C279.8965,367.7501 278.7605,368.2611 277.9385,369.0861 C277.1145,369.9071 276.6025,371.0441 276.6025,372.3001 L276.6025,390.4411 C276.6025,392.9461 278.6335,394.9761 281.1385,394.9761 C283.6435,394.9761 285.6745,392.9461 285.6745,390.4411 L285.6745,376.8211 L299.2935,376.8211 C301.7985,376.8211 303.8295,374.7911 303.8295,372.2861" id="Fill-308" fill="#1D1B1C"></path>
                <path d="M353.8432,286.126 C356.3482,286.126 358.3792,284.096 358.3792,281.591 L358.3792,263.449 C358.3792,260.944 356.3482,258.914 353.8432,258.914 L353.8432,258.914 L353.8422,258.914 L335.7002,258.914 C333.1962,258.914 331.1652,260.944 331.1652,263.449 C331.1652,265.954 333.1962,267.984 335.7002,267.984 L349.3072,267.984 L349.3072,281.591 C349.3072,284.096 351.3382,286.126 353.8432,286.126" id="Fill-310" fill="#1D1B1C"></path>
                <path d="M394.6606,372.2998 L394.6606,372.2998 C394.6606,369.7948 392.6306,367.7648 390.1256,367.7648 L353.8416,367.7648 C351.3366,367.7648 349.3066,369.7948 349.3066,372.2998 L349.3066,372.3088 L349.3066,385.9058 L317.5586,385.9058 C315.0546,385.9058 313.0236,387.9368 313.0236,390.4418 C313.0236,392.9458 315.0546,394.9768 317.5586,394.9768 L353.8426,394.9768 C356.3476,394.9768 358.3776,392.9458 358.3776,390.4418 L358.3776,376.8348 L390.1256,376.8348 C392.6306,376.8348 394.6606,374.8048 394.6606,372.2998" id="Fill-312" fill="#1D1B1C"></path>
                <path d="M267.6332,372.2998 L267.6332,372.2998 C267.6332,369.7948 265.6022,367.7648 263.0972,367.7648 L226.8142,367.7648 C224.3092,367.7648 222.2792,369.7948 222.2792,372.2998 C222.2792,374.8048 224.3092,376.8348 226.8142,376.8348 L263.0972,376.8348 C265.6022,376.8348 267.6332,374.8048 267.6332,372.2998" id="Fill-314" fill="#1D1B1C"></path>
                <path d="M154.205,367.7646 L117.922,367.7646 C115.573,367.7646 113.642,369.5486 113.41,371.8356 C113.39,372.0076 113.377,372.1816 113.377,372.3596 L113.377,390.5006 C113.377,393.0056 115.408,395.0356 117.913,395.0356 C120.417,395.0356 122.448,393.0056 122.448,390.5006 L122.448,376.8346 L149.67,376.8346 L149.67,390.5006 C149.67,393.0056 151.7,395.0356 154.205,395.0356 C156.71,395.0356 158.741,393.0056 158.741,390.5006 L158.741,372.3596 C158.741,372.3486 158.739,372.3386 158.739,372.3286 C158.739,372.3196 158.741,372.3096 158.741,372.2996 C158.741,369.7946 156.71,367.7646 154.205,367.7646" id="Fill-316" fill="#1D1B1C"></path>
                <path d="M371.9838,286.126 C374.4888,286.126 376.5198,284.096 376.5198,281.591 L376.5198,245.308 C376.5198,242.803 374.4888,240.772 371.9838,240.772 C369.4788,240.772 367.4488,242.803 367.4488,245.308 L367.4488,281.591 C367.4488,284.096 369.4788,286.126 371.9838,286.126" id="Fill-318" fill="#1D1B1C"></path>
                <path d="M335.7006,313.3389 C333.1956,313.3389 331.1646,315.3689 331.1646,317.8739 L331.1646,372.2739 C331.1646,374.7779 333.1956,376.8099 335.7006,376.8099 C338.2056,376.8099 340.2356,374.7779 340.2356,372.2739 L340.2356,317.8739 C340.2356,315.3689 338.2056,313.3389 335.7006,313.3389" id="Fill-320" fill="#1D1B1C"></path>
                <path d="M371.9833,304.2686 C374.4883,304.2686 376.5193,302.2376 376.5193,299.7326 C376.5193,297.2276 374.4883,295.1976 371.9833,295.1976 C369.4793,295.1976 367.4483,297.2276 367.4483,299.7326 C367.4483,302.2376 369.4793,304.2686 371.9833,304.2686" id="Fill-322" fill="#1D1B1C"></path>
                <path d="M353.8422,340.5508 C356.3472,340.5508 358.3782,338.5208 358.3782,336.0158 C358.3782,333.5108 356.3472,331.4808 353.8422,331.4808 C351.3372,331.4808 349.3062,333.5108 349.3062,336.0158 C349.3062,338.5208 351.3372,340.5508 353.8422,340.5508" id="Fill-324" fill="#1D1B1C"></path>
                <path d="M390.1259,349.6221 C387.6209,349.6221 385.5899,351.6531 385.5899,354.1581 C385.5899,356.6631 387.6209,358.6931 390.1259,358.6931 C392.6299,358.6931 394.6609,356.6631 394.6609,354.1581 C394.6609,351.6531 392.6299,349.6221 390.1259,349.6221" id="Fill-326" fill="#1D1B1C"></path>
                <path d="M385.5902,317.874 C385.5902,320.379 387.6212,322.409 390.1262,322.409 L403.7322,322.409 L403.7322,354.157 C403.7322,356.662 405.7622,358.693 408.2672,358.693 C410.7722,358.693 412.8022,356.662 412.8022,354.157 L412.8022,317.874 C412.8022,315.369 410.7722,313.339 408.2672,313.339 L390.1262,313.339 C387.6212,313.339 385.5902,315.369 385.5902,317.874" id="Fill-328" fill="#1D1B1C"></path>
                <path d="M390.1264,222.7305 C387.6214,222.7305 385.5904,224.7605 385.5904,227.2655 L385.5904,299.7325 C385.5904,302.2375 387.6214,304.2685 390.1264,304.2685 C392.6304,304.2685 394.6614,302.2375 394.6614,299.7325 L394.6614,227.2655 C394.6614,224.7605 392.6304,222.7305 390.1264,222.7305" id="Fill-330" fill="#1D1B1C"></path>
                <path d="M403.7318,299.168 C403.7088,299.354 403.6928,299.541 403.6928,299.732 C403.6928,302.237 405.7238,304.269 408.2288,304.269 L408.2678,304.269 L421.8738,304.269 L421.8738,317.938 C421.8738,320.442 423.9038,322.473 426.4088,322.473 C428.9138,322.473 430.9438,320.442 430.9438,317.938 L430.9438,299.796 C430.9438,298.856 430.6588,297.983 430.1688,297.26 C429.3598,296.019 427.9618,295.197 426.3708,295.197 L412.8028,295.197 L412.8028,281.591 C412.8028,279.086 410.7728,277.056 408.2678,277.056 C405.7628,277.056 403.7318,279.086 403.7318,281.591 L403.7318,299.168 Z" id="Fill-332" fill="#1D1B1C"></path>
                <path d="M408.2675,249.9063 L408.2675,249.9063 C410.7725,249.9063 412.8025,247.8753 412.8025,245.3703 L412.8025,227.2283 C412.8025,224.7233 410.7725,222.6933 408.2675,222.6933 C405.7625,222.6933 403.7315,224.7233 403.7315,227.2283 L403.7315,245.3703 C403.7315,247.8753 405.7625,249.9063 408.2675,249.9063" id="Fill-334" fill="#1D1B1C"></path>
                <path d="M430.9442,281.7256 L430.9442,263.5836 C430.9442,261.0796 428.9132,259.0486 426.4082,259.0486 C423.9032,259.0486 421.8732,261.0796 421.8732,263.5836 L421.8732,281.7256 C421.8732,284.2306 423.9032,286.2606 426.4082,286.2606 C428.9132,286.2606 430.9442,284.2306 430.9442,281.7256" id="Fill-336" fill="#1D1B1C"></path>
                <path d="M426.4086,204.6885 C426.3956,204.6885 426.3836,204.6905 426.3696,204.6905 C426.3566,204.6905 426.3446,204.6885 426.3306,204.6885 L408.1896,204.6885 C405.6846,204.6885 403.6546,206.7185 403.6546,209.2235 C403.6546,211.7285 405.6846,213.7585 408.1896,213.7585 L421.8736,213.7585 L421.8736,227.3655 C421.8736,229.8705 423.9036,231.9015 426.4086,231.9015 C428.9136,231.9015 430.9446,229.8705 430.9446,227.3655 L430.9446,209.2235 C430.9446,206.7185 428.9136,204.6885 426.4086,204.6885" id="Fill-338" fill="#1D1B1C"></path>
                <path d="M403.7318,263.4492 C403.7318,265.9542 405.7628,267.9842 408.2678,267.9842 C410.7728,267.9842 412.8028,265.9542 412.8028,263.4492 C412.8028,260.9442 410.7728,258.9142 408.2678,258.9142 C405.7628,258.9142 403.7318,260.9442 403.7318,263.4492" id="Fill-340" fill="#1D1B1C"></path>
                <path d="M317.4286,177.4756 L317.4286,177.4756 L335.5706,177.4756 C338.0756,177.4756 340.1056,175.4456 340.1056,172.9406 C340.1056,170.4356 338.0756,168.4056 335.5706,168.4056 L321.9646,168.4056 L321.9646,154.7986 C321.9646,152.2936 319.9336,150.2636 317.4286,150.2636 L317.4286,150.2636 C314.9246,150.2636 312.8936,152.2936 312.8936,154.7986 L312.8936,172.9406 C312.8936,175.4456 314.9246,177.4756 317.4286,177.4756" id="Fill-342" fill="#1D1B1C"></path>
                <path d="M294.7519,209.2236 L294.7519,209.2236 C294.7519,211.7286 296.7819,213.7586 299.2869,213.7586 L317.4289,213.7586 L317.4289,213.7586 C319.9339,213.7586 321.9639,211.7286 321.9639,209.2236 L321.9639,195.6176 L335.5709,195.6176 C338.0759,195.6176 340.1059,193.5866 340.1059,191.0816 C340.1059,188.5776 338.0759,186.5466 335.5709,186.5466 L317.4289,186.5466 L317.4289,186.5466 C316.3329,186.5466 315.3279,186.9356 314.5439,187.5816 C313.5359,188.4136 312.8939,189.6726 312.8939,191.0816 L312.8939,204.6886 L299.2869,204.6886 C296.7819,204.6886 294.7519,206.7186 294.7519,209.2236" id="Fill-344" fill="#1D1B1C"></path>
                <path d="M317.4291,222.6914 L299.2871,222.6914 C296.7821,222.6914 294.7521,224.7224 294.7521,227.2274 C294.7521,229.7314 296.7821,231.7624 299.2871,231.7624 L312.8931,231.7624 L312.8931,245.5064 C312.8931,248.0114 314.9241,250.0434 317.4291,250.0434 L317.4291,250.0434 C319.9331,250.0434 321.9641,248.0114 321.9641,245.5064 L321.9641,227.3654 C321.9641,227.3414 321.9611,227.3194 321.9611,227.2954 C321.9611,227.2734 321.9641,227.2514 321.9641,227.2274 C321.9641,224.7224 319.9331,222.6914 317.4291,222.6914" id="Fill-346" fill="#1D1B1C"></path>
                <path d="M353.7123,195.6172 C356.2173,195.6172 358.2473,193.5872 358.2473,191.0822 L358.2473,154.7992 C358.2473,152.2942 356.2173,150.2632 353.7123,150.2632 C351.2073,150.2632 349.1763,152.2942 349.1763,154.7992 L349.1763,191.0822 C349.1763,193.5872 351.2073,195.6172 353.7123,195.6172" id="Fill-348" fill="#1D1B1C"></path>
                <path d="M349.1767,209.2236 C349.1767,211.7286 351.2077,213.7586 353.7127,213.7586 L389.9957,213.7586 C392.5007,213.7586 394.5307,211.7286 394.5307,209.2236 C394.5307,206.7186 392.5007,204.6886 389.9957,204.6886 L353.7127,204.6886 C351.2077,204.6886 349.1767,206.7186 349.1767,209.2236" id="Fill-350" fill="#1D1B1C"></path>
                <path d="M317.4286,141.1924 L317.4286,141.1924 C319.9336,141.1924 321.9646,139.1624 321.9646,136.6574 L321.9646,100.3734 C321.9646,97.8684 319.9336,95.8384 317.4286,95.8384 L317.4286,95.8384 C314.9246,95.8384 312.8936,97.8684 312.8936,100.3734 L312.8936,136.6574 C312.8936,139.1624 314.9246,141.1924 317.4286,141.1924" id="Fill-352" fill="#1D1B1C"></path>
                <path d="M335.5707,123.0508 C338.0757,123.0508 340.1057,121.0198 340.1057,118.5148 C340.1057,116.0108 338.0757,113.9798 335.5707,113.9798 C333.0657,113.9798 331.0347,116.0108 331.0347,118.5148 C331.0347,121.0198 333.0657,123.0508 335.5707,123.0508" id="Fill-354" fill="#1D1B1C"></path>
                <path d="M299.3393,113.9795 L299.3393,113.9795 C296.8343,113.9795 294.8043,116.0105 294.8043,118.5145 C294.8043,121.0195 296.8343,123.0505 299.3393,123.0505 C301.8443,123.0505 303.8753,121.0195 303.8753,118.5145 C303.8753,116.0105 301.8443,113.9795 299.3393,113.9795" id="Fill-356" fill="#1D1B1C"></path>
                <path d="M27.2133,258.9756 C24.7083,258.9756 22.6773,261.0066 22.6773,263.5116 C22.6773,266.0166 24.7083,268.0466 27.2133,268.0466 C29.7173,268.0466 31.7483,266.0166 31.7483,263.5116 C31.7483,261.0066 29.7173,258.9756 27.2133,258.9756" id="Fill-358" fill="#1D1B1C"></path>
                <path d="M104.2284,354.21 L104.2284,299.732 C104.2284,297.228 102.1984,295.197 99.6934,295.197 C97.1884,295.197 95.1574,297.228 95.1574,299.732 L95.1574,354.21 C95.1574,356.715 97.1884,358.745 99.6934,358.745 C102.1984,358.745 104.2284,356.715 104.2284,354.21" id="Fill-360" fill="#1D1B1C"></path>
                <path d="M172.6982,349.6162 C170.1942,349.6162 168.1632,351.6472 168.1632,354.1512 L168.1632,408.7702 C168.1632,411.2752 170.1942,413.3062 172.6982,413.3062 C175.2032,413.3062 177.2342,411.2752 177.2342,408.7702 L177.2342,354.1512 C177.2342,351.6472 175.2032,349.6162 172.6982,349.6162" id="Fill-362" fill="#1D1B1C"></path>
                <path d="M172.3822,340.5518 C174.8872,340.5518 176.9172,338.5208 176.9172,336.0158 L176.9172,299.7328 C176.9172,297.2278 174.8872,295.1978 172.3822,295.1978 L154.2402,295.1978 C151.7352,295.1978 149.7052,297.2278 149.7052,299.7328 C149.7052,302.2378 151.7352,304.2678 154.2402,304.2678 L167.8462,304.2678 L167.8462,331.4808 L154.2402,331.4808 C151.7352,331.4808 149.7052,333.5108 149.7052,336.0158 C149.7052,338.5208 151.7352,340.5518 154.2402,340.5518 L172.3822,340.5518 Z" id="Fill-364" fill="#1D1B1C"></path>
                <path d="M154.2402,322.4092 C156.7452,322.4092 158.7762,320.3792 158.7762,317.8742 C158.7762,315.3692 156.7452,313.3392 154.2402,313.3392 C151.7352,313.3392 149.7052,315.3692 149.7052,317.8742 C149.7052,320.3792 151.7352,322.4092 154.2402,322.4092" id="Fill-366" fill="#1D1B1C"></path>
                <path d="M13.6069,354.2227 C13.6069,351.7177 11.5759,349.6877 9.0709,349.6877 C6.5659,349.6877 4.5359,351.7177 4.5359,354.2227 C4.5359,356.7277 6.5659,358.7577 9.0709,358.7577 C11.5759,358.7577 13.6069,356.7277 13.6069,354.2227" id="Fill-368" fill="#1D1B1C"></path>
                <path d="M77.103,390.5049 L77.103,390.5049 C77.103,393.0089 79.134,395.0399 81.638,395.0399 C84.143,395.0399 86.174,393.0089 86.174,390.5049 C86.174,387.9989 84.143,385.9689 81.638,385.9689 C79.134,385.9689 77.103,387.9989 77.103,390.5049" id="Fill-370" fill="#1D1B1C"></path>
                <path d="M50.8129,354.1543 C50.8129,351.6493 48.7819,349.6193 46.2769,349.6193 C43.7719,349.6193 41.7419,351.6493 41.7419,354.1543 C41.7419,356.6593 43.7719,358.6903 46.2769,358.6903 C48.7819,358.6903 50.8129,356.6593 50.8129,354.1543" id="Fill-372" fill="#1D1B1C"></path>
                <path d="M81.6381,331.5635 C79.1341,331.5635 77.1031,333.5945 77.1031,336.0995 C77.1031,338.6045 79.1341,340.6345 81.6381,340.6345 C84.1431,340.6345 86.1741,338.6045 86.1741,336.0995 C86.1741,333.5945 84.1431,331.5635 81.6381,331.5635" id="Fill-374" fill="#1D1B1C"></path>
                <path d="M27.2133,322.4707 C29.7173,322.4707 31.7483,320.4407 31.7483,317.9357 C31.7483,315.4307 29.7173,313.4007 27.2133,313.4007 C24.7083,313.4007 22.6773,315.4307 22.6773,317.9357 C22.6773,320.4407 24.7083,322.4707 27.2133,322.4707" id="Fill-376" fill="#1D1B1C"></path>
                <path d="M122.4443,408.6465 C122.4443,406.1415 120.4143,404.1105 117.9093,404.1105 C115.4043,404.1105 113.3743,406.1415 113.3743,408.6465 C113.3743,411.1515 115.4043,413.1815 117.9093,413.1815 C120.4143,413.1815 122.4443,411.1515 122.4443,408.6465" id="Fill-378" fill="#1D1B1C"></path>
                <path d="M153.1093,358.7451 C155.6133,358.7451 157.6443,356.7151 157.6443,354.2101 C157.6443,351.7051 155.6133,349.6741 153.1093,349.6741 C150.6043,349.6741 148.5733,351.7051 148.5733,354.2101 C148.5733,356.7151 150.6043,358.7451 153.1093,358.7451" id="Fill-380" fill="#1D1B1C"></path>
                <path d="M117.9218,440.3945 L117.9218,440.3945 C115.4168,440.3945 113.3858,442.4245 113.3858,444.9295 L113.3858,453.9995 L122.4578,453.9995 L122.4578,444.9295 C122.4578,442.4245 120.4268,440.3945 117.9218,440.3945" id="Fill-382" fill="#1D1B1C"></path>
                <path d="M281.1972,440.3945 C278.6922,440.3945 276.6622,442.4245 276.6622,444.9295 L276.6622,453.9995 L285.7332,453.9995 L285.7332,444.9295 C285.7332,442.4245 283.7022,440.3945 281.1972,440.3945" id="Fill-384" fill="#1D1B1C"></path>
                <path d="M63.4965,449.4648 L63.4965,449.4648 C66.0015,449.4648 68.0325,447.4348 68.0325,444.9298 L68.0325,426.7878 C68.0325,424.2828 66.0015,422.2518 63.4965,422.2518 C60.9915,422.2518 58.9605,424.2828 58.9605,426.7878 L58.9605,440.3948 L45.3545,440.3948 C42.8505,440.3948 40.8195,442.4248 40.8195,444.9298 L40.8195,453.9998 L49.8905,453.9998 L49.8905,449.4648 L63.4965,449.4648 Z" id="Fill-386" fill="#1D1B1C"></path>
                <path d="M9.0712,431.3291 L9.0712,431.3291 C11.5762,431.3291 13.6072,429.2981 13.6072,426.7931 L13.6072,408.6511 C13.6072,406.1461 11.5762,404.1161 9.0712,404.1161 C6.5662,404.1161 4.5362,406.1461 4.5362,408.6511 L4.5362,426.7931 C4.5362,429.2981 6.5662,431.3291 9.0712,431.3291" id="Fill-388" fill="#1D1B1C"></path>
                <path d="M45.3549,404.1162 C42.8499,404.1162 40.8189,406.1462 40.8189,408.6512 L40.8189,422.2522 L31.7489,422.2522 L31.7489,408.6512 C31.7489,406.1462 29.7179,404.1162 27.2129,404.1162 C24.7089,404.1162 22.6779,406.1462 22.6779,408.6512 L22.6779,426.7932 C22.6779,429.2982 24.7089,431.3292 27.2129,431.3292 C27.2499,431.3292 27.2849,431.3242 27.3209,431.3232 L45.2469,431.3232 C45.2829,431.3242 45.3179,431.3292 45.3549,431.3292 C47.8599,431.3292 49.8899,429.2982 49.8899,426.7932 L49.8899,408.6512 C49.8899,406.1462 47.8599,404.1162 45.3549,404.1162" id="Fill-390" fill="#1D1B1C"></path>
                <path d="M27.2133,440.4053 L9.0713,440.4053 C6.5663,440.4053 4.5363,442.4353 4.5363,444.9403 C4.5363,447.4453 6.5663,449.4753 9.0713,449.4753 L27.2133,449.4753 C29.7173,449.4753 31.7483,447.4453 31.7483,444.9403 C31.7483,442.4353 29.7173,440.4053 27.2133,440.4053" id="Fill-392" fill="#1D1B1C"></path>
                <path d="M154.205,404.1104 L140.718,404.1104 L140.718,390.6294 C140.718,388.1244 138.687,386.0934 136.183,386.0934 C133.678,386.0934 131.647,388.1244 131.647,390.6294 L131.647,407.6274 C131.572,407.9554 131.528,408.2954 131.528,408.6464 C131.528,409.9154 132.051,411.0604 132.891,411.8834 C133.717,412.7574 134.885,413.3064 136.183,413.3064 C136.541,413.3064 136.889,413.2604 137.224,413.1814 L149.67,413.1814 L149.67,426.7934 C149.67,429.2974 151.7,431.3294 154.205,431.3294 C156.71,431.3294 158.741,429.2974 158.741,426.7934 L158.741,408.6514 L158.741,408.6484 L158.741,408.6474 C158.741,406.1414 156.71,404.1104 154.205,404.1104" id="Fill-394" fill="#1D1B1C"></path>
                <path d="M444.4731,449.4648 C446.9781,449.4648 449.0081,447.4348 449.0081,444.9298 C449.0081,442.4248 446.9781,440.3948 444.4731,440.3948 L426.3311,440.3948 C423.8261,440.3948 421.7961,442.4248 421.7961,444.9298 L421.7961,453.9998 L430.8671,453.9998 L430.8671,449.4648 L444.4731,449.4648 Z" id="Fill-396" fill="#1D1B1C"></path>
                <path d="M154.205,440.3945 C151.7,440.3945 149.67,442.4245 149.67,444.9295 C149.67,447.4345 151.7,449.4645 154.205,449.4645 C156.71,449.4645 158.741,447.4345 158.741,444.9295 C158.741,442.4245 156.71,440.3945 154.205,440.3945" id="Fill-398" fill="#1D1B1C"></path>
                <path d="M263.0556,440.3945 C260.5506,440.3945 258.5206,442.4245 258.5206,444.9295 C258.5206,447.4345 260.5506,449.4645 263.0556,449.4645 C265.5606,449.4645 267.5916,447.4345 267.5916,444.9295 C267.5916,442.4245 265.5606,440.3945 263.0556,440.3945" id="Fill-400" fill="#1D1B1C"></path>
                <path d="M281.2816,404.1104 C278.7766,404.1104 276.7456,406.1414 276.7456,408.6464 C276.7456,411.1514 278.7766,413.1814 281.2816,413.1814 C283.7866,413.1814 285.8176,411.1514 285.8176,408.6464 C285.8176,406.1414 283.7866,404.1104 281.2816,404.1104" id="Fill-402" fill="#1D1B1C"></path>
                <path d="M317.6342,376.8291 C320.1392,376.8291 322.1692,374.7991 322.1692,372.2941 C322.1692,369.7891 320.1392,367.7581 317.6342,367.7581 C315.1292,367.7581 313.0982,369.7891 313.0982,372.2941 C313.0982,374.7991 315.1292,376.8291 317.6342,376.8291" id="Fill-404" fill="#1D1B1C"></path>
                <path d="M208.7734,367.7646 C206.2684,367.7646 204.2384,369.7946 204.2384,372.2996 C204.2384,374.8046 206.2684,376.8346 208.7734,376.8346 C211.2784,376.8346 213.3094,374.8046 213.3094,372.2996 C213.3094,369.7946 211.2784,367.7646 208.7734,367.7646" id="Fill-406" fill="#1D1B1C"></path>
                <path d="M81.6381,422.252 C79.1331,422.252 77.1031,424.283 77.1031,426.788 L77.1031,454 L86.1741,454 L86.1741,426.788 C86.1741,424.283 84.1431,422.252 81.6381,422.252" id="Fill-408" fill="#1D1B1C"></path>
                <path d="M190.4887,440.3945 L190.4887,440.3945 L172.3467,440.3945 C169.8427,440.3945 167.8117,442.4245 167.8117,444.9295 L167.8117,453.9995 L176.8827,453.9995 L176.8827,449.4645 L185.9527,449.4645 L185.9527,453.9995 L195.0247,453.9995 L195.0247,444.9295 C195.0247,442.4245 192.9937,440.3945 190.4887,440.3945" id="Fill-410" fill="#1D1B1C"></path>
                <path d="M244.956,404.1162 L244.956,404.1162 C242.451,404.1162 240.421,406.1462 240.421,408.6512 L240.421,422.2522 L231.282,422.2522 L231.282,408.6512 C231.282,406.1462 229.252,404.1162 226.747,404.1162 C224.242,404.1162 222.211,406.1462 222.211,408.6512 L222.211,426.7932 C222.211,429.2982 224.242,431.3292 226.747,431.3292 C226.783,431.3292 226.818,431.3242 226.855,431.3232 L244.848,431.3232 C244.884,431.3242 244.919,431.3292 244.956,431.3292 C247.461,431.3292 249.492,429.2982 249.492,426.7932 L249.492,408.6512 C249.492,406.1462 247.461,404.1162 244.956,404.1162" id="Fill-412" fill="#1D1B1C"></path>
                <path d="M340.1586,444.9365 L340.1586,444.9365 C340.1586,443.6805 339.6476,442.5435 338.8236,441.7225 C338.0016,440.8985 336.8656,440.3875 335.6096,440.3875 C335.5206,440.3875 335.4336,440.3955 335.3466,440.4005 L299.3396,440.4005 C296.8346,440.4005 294.8046,442.4315 294.8046,444.9365 C294.8046,447.4415 296.8346,449.4715 299.3396,449.4715 L331.0746,449.4715 L331.0746,453.9995 L340.1456,453.9995 L340.1456,445.2005 C340.1506,445.1125 340.1586,445.0255 340.1586,444.9365" id="Fill-414" fill="#1D1B1C"></path>
                <path d="M231.5224,390.4756 C231.5224,387.9706 229.4914,385.9406 226.9864,385.9406 L195.2684,385.9406 L195.2684,354.1516 C195.2684,351.6476 193.2374,349.6166 190.7324,349.6166 C188.2284,349.6166 186.1974,351.6476 186.1974,354.1516 L186.1974,389.9736 C186.1794,390.1386 186.1684,390.3056 186.1684,390.4756 C186.1684,392.9806 188.1984,395.0106 190.7034,395.0106 L226.9864,395.0106 C229.4914,395.0106 231.5224,392.9806 231.5224,390.4756" id="Fill-416" fill="#1D1B1C"></path>
                <path d="M244.9135,440.3945 L213.1655,440.3945 L213.1655,426.7885 C213.1655,424.2835 211.1355,422.2515 208.6305,422.2515 L172.3475,422.2515 C169.8425,422.2515 167.8115,424.2835 167.8115,426.7885 C167.8115,429.2925 169.8425,431.3235 172.3475,431.3235 L204.0955,431.3235 L204.0955,444.9205 C204.0955,444.9235 204.0945,444.9265 204.0945,444.9295 C204.0945,447.4345 206.1245,449.4645 208.6295,449.4645 L244.9135,449.4645 C247.4185,449.4645 249.4485,447.4345 249.4485,444.9295 C249.4485,442.4245 247.4185,440.3945 244.9135,440.3945" id="Fill-418" fill="#1D1B1C"></path>
                <path d="M353.7641,422.2529 L353.7641,422.2529 C351.2591,422.2529 349.2291,424.2829 349.2291,426.7879 L349.2291,453.9999 L358.3001,453.9999 L358.3001,426.7879 C358.3001,424.2829 356.2691,422.2529 353.7641,422.2529" id="Fill-420" fill="#1D1B1C"></path>
                <g id="Group-424" transform="translate(385.000000, 440.000000)">
                    <mask id="mask-14" fill="white">
                        <use xlink:href="#path-13"></use>
                    </mask>
                    <g id="Clip-423"></g>
                    <path d="M5.0443,0.3975 L5.0443,0.3975 C2.5393,0.3975 0.5083,2.4275 0.5083,4.9325 L0.5083,14.0005 L9.5793,14.0005 L9.5793,4.9325 C9.5793,2.4275 7.5493,0.3975 5.0443,0.3975" id="Fill-422" fill="#1D1B1C" mask="url(#mask-14)"></path>
                </g>
                <path d="M371.9047,404.1123 C369.3997,404.1123 367.3687,406.1423 367.3687,408.6473 L367.3687,444.9303 C367.3687,447.4353 369.3997,449.4663 371.9047,449.4663 C374.4097,449.4663 376.4407,447.4353 376.4407,444.9303 L376.4407,408.6473 C376.4407,406.1423 374.4097,404.1123 371.9047,404.1123" id="Fill-425" fill="#1D1B1C"></path>
                <path d="M136.0634,422.252 L99.7804,422.252 C97.2754,422.252 95.2444,424.283 95.2444,426.788 L95.2444,444.93 C95.2444,447.435 97.2754,449.465 99.7804,449.465 C102.2844,449.465 104.3154,447.435 104.3154,444.93 L104.3154,431.323 L131.5284,431.323 L131.5284,444.93 C131.5284,447.435 133.5584,449.465 136.0634,449.465 C138.5684,449.465 140.5994,447.435 140.5994,444.93 L140.5994,426.788 C140.5994,424.283 138.5684,422.252 136.0634,422.252" id="Fill-427" fill="#1D1B1C"></path>
                <path d="M104.3154,408.6465 C104.3154,406.1415 102.2844,404.1105 99.7804,404.1105 L68.0324,404.1105 L68.0324,390.5045 C68.0324,390.4995 68.0314,390.4955 68.0314,390.4905 C68.0314,390.4855 68.0324,390.4805 68.0324,390.4755 C68.0324,387.9705 66.0014,385.9405 63.4964,385.9405 L27.2134,385.9405 C24.7084,385.9405 22.6774,387.9705 22.6774,390.4755 C22.6774,392.9805 24.7084,395.0105 27.2134,395.0105 L58.9614,395.0105 L58.9614,408.6465 C58.9614,411.1515 60.9914,413.1815 63.4964,413.1815 L99.7804,413.1815 C102.2844,413.1815 104.3154,411.1515 104.3154,408.6465" id="Fill-429" fill="#1D1B1C"></path>
                <g id="Group-433" transform="translate(439.000000, 222.000000)">
                    <mask id="mask-16" fill="white">
                        <use xlink:href="#path-15"></use>
                    </mask>
                    <g id="Clip-432"></g>
                    <path d="M0.9374,5.2285 C0.9374,7.7335 2.9684,9.7635 5.4734,9.7635 L14.5434,9.7635 L14.5434,0.6935 L5.4734,0.6935 C2.9684,0.6935 0.9374,2.7235 0.9374,5.2285" id="Fill-431" fill="#1D1B1C" mask="url(#mask-16)"></path>
                </g>
                <path d="M421.7958,245.3701 C421.7958,247.8751 423.8268,249.9051 426.3318,249.9051 L444.4728,249.9051 C446.9778,249.9051 449.0088,247.8751 449.0088,245.3701 C449.0088,242.8651 446.9778,240.8341 444.4728,240.8341 L426.3318,240.8341 C423.8268,240.8341 421.7958,242.8651 421.7958,245.3701" id="Fill-434" fill="#1D1B1C"></path>
                <path d="M331.2436,245.3701 C331.2436,247.8751 333.2746,249.9051 335.7796,249.9051 L353.1566,249.9051 C353.3386,249.9281 353.5236,249.9421 353.7126,249.9421 C354.0456,249.9421 354.3686,249.9041 354.6806,249.8371 C356.8236,249.4741 358.4566,247.6151 358.4566,245.3701 C358.4566,244.8951 358.3826,244.4381 358.2476,244.0081 L358.2476,231.9011 L371.9196,231.9011 C374.4246,231.9011 376.4546,229.8701 376.4546,227.3651 C376.4546,224.8601 374.4246,222.8301 371.9196,222.8301 L354.6566,222.8301 C354.3516,222.7661 354.0356,222.7301 353.7126,222.7301 C351.2076,222.7301 349.1766,224.7611 349.1766,227.2661 L349.1766,240.8341 L335.7796,240.8341 C333.2746,240.8341 331.2436,242.8651 331.2436,245.3701" id="Fill-436" fill="#1D1B1C"></path>
                <g id="Group-440" transform="translate(439.000000, 204.000000)">
                    <mask id="mask-18" fill="white">
                        <use xlink:href="#path-17"></use>
                    </mask>
                    <g id="Clip-439"></g>
                    <path d="M0.9374,5.0869 C0.9374,7.5919 2.9684,9.6219 5.4734,9.6219 L14.5434,9.6219 L14.5434,0.5519 L5.4734,0.5519 C2.9684,0.5519 0.9374,2.5819 0.9374,5.0869" id="Fill-438" fill="#1D1B1C" mask="url(#mask-18)"></path>
                </g>
                <path d="M430.8666,154.6621 C430.8666,152.1571 428.8356,150.1261 426.3306,150.1261 L408.1896,150.1261 C408.1766,150.1261 408.1636,150.1281 408.1506,150.1281 C408.1376,150.1281 408.1246,150.1261 408.1116,150.1261 C405.6066,150.1261 403.5756,152.1571 403.5756,154.6621 L403.5756,190.9451 C403.5756,191.7671 403.7986,192.5371 404.1816,193.2021 C404.9426,194.6391 406.4506,195.6171 408.1896,195.6171 L426.3306,195.6171 C428.8356,195.6171 430.8666,193.5871 430.8666,191.0821 C430.8666,188.5771 428.8356,186.5471 426.3306,186.5471 L412.6466,186.5471 L412.6466,159.1971 L426.3306,159.1971 C428.8356,159.1971 430.8666,157.1671 430.8666,154.6621" id="Fill-441" fill="#1D1B1C"></path>
                <g id="Group-445" transform="translate(439.000000, 385.000000)">
                    <mask id="mask-20" fill="white">
                        <use xlink:href="#path-19"></use>
                    </mask>
                    <g id="Clip-444"></g>
                    <path d="M0.9374,5.5049 L0.9374,5.5049 C0.9374,8.0089 2.9684,10.0399 5.4734,10.0399 L14.5434,10.0399 L14.5434,0.9689 L5.4734,0.9689 C2.9684,0.9689 0.9374,2.9989 0.9374,5.5049" id="Fill-443" fill="#1D1B1C" mask="url(#mask-20)"></path>
                </g>
                <g id="Group-448" transform="translate(439.000000, 367.000000)">
                    <mask id="mask-22" fill="white">
                        <use xlink:href="#path-21"></use>
                    </mask>
                    <g id="Clip-447"></g>
                    <path d="M0.9374,5.3623 C0.9374,7.8673 2.9684,9.8983 5.4734,9.8983 L14.5434,9.8983 L14.5434,0.8273 L5.4734,0.8273 C2.9684,0.8273 0.9374,2.8573 0.9374,5.3623" id="Fill-446" fill="#1D1B1C" mask="url(#mask-22)"></path>
                </g>
                <path d="M411.0844,393.9922 C412.1304,393.1612 412.8024,391.8812 412.8024,390.4412 L412.8024,372.3002 C412.8024,369.7952 410.7724,367.7642 408.2674,367.7642 C405.7624,367.7642 403.7314,369.7952 403.7314,372.3002 L403.7314,385.9692 L391.1554,385.9692 C390.8674,385.9112 390.5684,385.8802 390.2624,385.8802 C389.6054,385.8802 388.9814,386.0222 388.4174,386.2742 C386.7174,386.9292 385.5084,388.5732 385.5084,390.5052 L385.5084,408.6462 C385.5084,411.1512 387.5394,413.1812 390.0444,413.1812 C390.7014,413.1812 391.3244,413.0392 391.8884,412.7872 C393.5894,412.1332 394.7974,410.4882 394.7974,408.5562 L394.7974,395.0402 L408.1864,395.0402 C409.2884,395.0402 410.2984,394.6462 411.0844,393.9922" id="Fill-449" fill="#1D1B1C"></path>
                <path d="M190.4633,413.1816 L208.6053,413.1816 C211.1093,413.1816 213.1403,411.1516 213.1403,408.6466 C213.1403,406.1416 211.1093,404.1106 208.6053,404.1106 L190.4633,404.1106 C187.9583,404.1106 185.9273,406.1416 185.9273,408.6466 C185.9273,411.1516 187.9583,413.1816 190.4633,413.1816" id="Fill-451" fill="#1D1B1C"></path>
                <path d="M444.4731,195.4805 C446.9781,195.4805 449.0081,193.4505 449.0081,190.9455 L449.0081,154.6625 C449.0081,152.1575 446.9781,150.1265 444.4731,150.1265 C441.9681,150.1265 439.9371,152.1575 439.9371,154.6625 L439.9371,190.9455 C439.9371,193.4505 441.9681,195.4805 444.4731,195.4805" id="Fill-453" fill="#1D1B1C"></path>
                <g id="Group-457" transform="translate(439.000000, 41.000000)">
                    <mask id="mask-24" fill="white">
                        <use xlink:href="#path-23"></use>
                    </mask>
                    <g id="Clip-456"></g>
                    <path d="M0.9374,4.8115 L0.9374,4.8115 C0.9374,7.3165 2.9684,9.3465 5.4734,9.3465 L14.5434,9.3465 L14.5434,0.2765 L5.4734,0.2765 C2.9684,0.2765 0.9374,2.3065 0.9374,4.8115" id="Fill-455" fill="#1D1B1C" mask="url(#mask-24)"></path>
                </g>
                <g id="Group-460" transform="translate(439.000000, 95.000000)">
                    <mask id="mask-26" fill="white">
                        <use xlink:href="#path-25"></use>
                    </mask>
                    <g id="Clip-459"></g>
                    <path d="M10.0082,5.2363 C10.0082,2.7313 7.9782,0.7013 5.4732,0.7013 C2.9682,0.7013 0.9372,2.7313 0.9372,5.2363 L0.9372,41.5203 C0.9372,44.0253 2.9682,46.0553 5.4732,46.0553 L14.5432,46.0553 L14.5432,36.9843 L10.0082,36.9843 L10.0082,5.2363 Z" id="Fill-458" fill="#1D1B1C" mask="url(#mask-26)"></path>
                </g>
                <g id="Group-463" transform="translate(439.000000, 258.000000)">
                    <mask id="mask-28" fill="white">
                        <use xlink:href="#path-27"></use>
                    </mask>
                    <g id="Clip-462"></g>
                    <path d="M10.0082,5.5107 C10.0082,3.0057 7.9782,0.9757 5.4732,0.9757 C2.9682,0.9757 0.9372,3.0057 0.9372,5.5107 L0.9372,41.7937 C0.9372,44.2987 2.9682,46.3297 5.4732,46.3297 C5.4762,46.3297 5.4792,46.3287 5.4822,46.3287 L14.5432,46.3287 L14.5432,37.2587 L10.0082,37.2587 L10.0082,5.5107 Z" id="Fill-461" fill="#1D1B1C" mask="url(#mask-28)"></path>
                </g>
                <path d="M439.9374,354.2178 C439.9374,356.7228 441.9684,358.7538 444.4734,358.7538 C446.9784,358.7538 449.0084,356.7228 449.0084,354.2178 L449.0084,317.9348 C449.0084,315.4298 446.9784,313.3998 444.4734,313.3998 C441.9684,313.3998 439.9374,315.4298 439.9374,317.9348 L439.9374,354.2178 Z" id="Fill-464" fill="#1D1B1C"></path>
                <path d="M430.9355,336.0078 C430.9355,333.5028 428.9055,331.4718 426.4005,331.4718 C423.8955,331.4718 421.8645,333.5028 421.8645,336.0078 L421.8645,372.2908 C421.8645,374.7958 423.8955,376.8258 426.4005,376.8258 C428.9055,376.8258 430.9355,374.7958 430.9355,372.2908 L430.9355,336.0078 Z" id="Fill-466" fill="#1D1B1C"></path>
                <g id="Group-470" transform="translate(439.000000, 77.000000)">
                    <mask id="mask-30" fill="white">
                        <use xlink:href="#path-29"></use>
                    </mask>
                    <g id="Clip-469"></g>
                    <path d="M0.9374,5.0947 C0.9374,7.5997 2.9684,9.6307 5.4734,9.6307 L14.5434,9.6307 L14.5434,0.5597 L5.4734,0.5597 C2.9684,0.5597 0.9374,2.5897 0.9374,5.0947" id="Fill-468" fill="#1D1B1C" mask="url(#mask-30)"></path>
                </g>
                <path d="M444.4731,68.4883 C446.9781,68.4883 449.0081,66.4583 449.0081,63.9533 C449.0081,61.4483 446.9781,59.4183 444.4731,59.4183 C441.9681,59.4183 439.9371,61.4483 439.9371,63.9533 C439.9371,66.4583 441.9681,68.4883 444.4731,68.4883" id="Fill-471" fill="#1D1B1C"></path>
                <path d="M430.8666,408.6465 C430.8666,406.1415 428.8356,404.1105 426.3306,404.1105 L408.1896,404.1105 C405.6846,404.1105 403.6546,406.1415 403.6546,408.6465 C403.6546,411.1515 405.6846,413.1815 408.1896,413.1815 L421.7956,413.1815 L421.7956,426.7885 L421.7956,426.7895 L421.7956,426.7915 C421.7956,429.2945 423.8256,431.3265 426.3306,431.3265 L444.4726,431.3265 C446.9776,431.3265 449.0086,429.2945 449.0086,426.7915 C449.0086,424.2865 446.9776,422.2545 444.4726,422.2545 L430.8666,422.2545 L430.8666,408.6465 Z" id="Fill-473" fill="#1D1B1C"></path>
                <path d="M317.4843,422.2549 L263.0813,422.2549 C260.5763,422.2549 258.5463,424.2859 258.5463,426.7909 C258.5463,429.2949 260.5763,431.3259 263.0813,431.3259 L317.4843,431.3259 C319.9893,431.3259 322.0203,429.2949 322.0203,426.7909 C322.0203,424.2859 319.9893,422.2549 317.4843,422.2549" id="Fill-475" fill="#1D1B1C"></path>
                <path d="M408.1894,422.252 C405.6844,422.252 403.6544,424.283 403.6544,426.788 L403.6544,444.93 C403.6544,447.435 405.6844,449.465 408.1894,449.465 C410.6944,449.465 412.7254,447.435 412.7254,444.93 L412.7254,426.788 C412.7254,424.283 410.6944,422.252 408.1894,422.252" id="Fill-477" fill="#1D1B1C"></path>
                <path d="M263.224,413.1816 L263.224,413.1816 C265.729,413.1816 267.76,411.1516 267.76,408.6466 L267.76,390.5046 C267.76,387.9986 265.729,385.9686 263.224,385.9686 C263.209,385.9686 263.194,385.9706 263.179,385.9716 C263.163,385.9706 263.149,385.9686 263.134,385.9686 L244.992,385.9686 C242.487,385.9686 240.456,387.9986 240.456,390.5046 C240.456,393.0086 242.487,395.0396 244.992,395.0396 L258.689,395.0396 L258.689,408.6466 C258.689,411.1516 260.719,413.1816 263.224,413.1816" id="Fill-479" fill="#1D1B1C"></path>
                <path d="M353.7572,404.1104 L335.6152,404.1104 C334.3622,404.1104 333.2282,404.6194 332.4072,405.4404 C331.5842,406.2614 331.0742,407.3964 331.0742,408.6514 L331.0742,426.7934 C331.0742,429.2974 333.1052,431.3294 335.6102,431.3294 C338.1142,431.3294 340.1452,429.2974 340.1452,426.7934 L340.1452,413.1814 L353.7572,413.1814 C356.2622,413.1814 358.2932,411.1514 358.2932,408.6464 C358.2932,406.1414 356.2622,404.1104 353.7572,404.1104" id="Fill-481" fill="#1D1B1C"></path>
                <path d="M317.559,404.1104 L303.953,404.1104 L303.953,390.5054 C303.953,387.9994 301.922,385.9684 299.417,385.9684 C296.912,385.9684 294.882,387.9994 294.882,390.5054 L294.882,408.6464 C294.882,411.1514 296.912,413.1814 299.417,413.1814 L317.559,413.1814 C320.063,413.1814 322.094,411.1514 322.094,408.6464 C322.094,406.1414 320.063,404.1104 317.559,404.1104" id="Fill-483" fill="#1D1B1C"></path>
                <path d="M444.4731,413.1816 C446.9781,413.1816 449.0081,411.1516 449.0081,408.6466 C449.0081,406.1416 446.9781,404.1106 444.4731,404.1106 C441.9681,404.1106 439.9371,406.1416 439.9371,408.6466 C439.9371,411.1516 441.9681,413.1816 444.4731,413.1816" id="Fill-485" fill="#1D1B1C"></path>
                <path d="M426.331,385.9687 C423.826,385.9687 421.796,387.9987 421.796,390.5047 C421.796,393.0087 423.826,395.0397 426.331,395.0397 C428.836,395.0397 430.867,393.0087 430.867,390.5047 C430.867,387.9987 428.836,385.9687 426.331,385.9687" id="Fill-487" fill="#1D1B1C"></path>
                <path d="M371.9047,385.9687 C369.3997,385.9687 367.3687,387.9987 367.3687,390.5047 C367.3687,393.0087 369.3997,395.0397 371.9047,395.0397 C374.4097,395.0397 376.4407,393.0087 376.4407,390.5047 C376.4407,387.9987 374.4097,385.9687 371.9047,385.9687" id="Fill-489" fill="#1D1B1C"></path>
                <path d="M390.0478,422.2549 C387.5428,422.2549 385.5118,424.2859 385.5118,426.7909 C385.5118,429.2949 387.5428,431.3259 390.0478,431.3259 C392.5528,431.3259 394.5828,429.2949 394.5828,426.7909 C394.5828,424.2859 392.5528,422.2549 390.0478,422.2549" id="Fill-491" fill="#1D1B1C"></path>
            </g>
        </g>
    </g>
</svg>