<?xml version="1.0" encoding="UTF-8"?>
<svg width="454px" height="456px" viewBox="0 0 454 456" version="1.1" xmlns="http://www.w3.org/2000/svg" xmlns:xlink="http://www.w3.org/1999/xlink">
    <title>Pattern08</title>
    <defs>
        <polygon id="path-1" points="0.52445 0.457 24.3127 0.457 24.3127 17.83065 0.52445 17.83065"></polygon>
        <polygon id="path-3" points="0.61965 0.457 24.4069 0.457 24.4069 17.83065 0.61965 17.83065"></polygon>
        <polygon id="path-5" points="0.6229 0.457 37.21315 0.457 37.21315 30.63285 0.6229 30.63285"></polygon>
        <polygon id="path-7" points="0.5167 0.457 37.11795 0.457 37.11795 30.64365 0.5167 30.64365"></polygon>
        <polygon id="path-9" points="0.08065 0.457 23.8839 0.457 23.8839 17.84525 0.08065 17.84525"></polygon>
        <polygon id="path-11" points="0.87745 0.457 24.6807 0.457 24.6807 17.84525 0.87745 17.84525"></polygon>
        <polygon id="path-13" points="0.5147 0.457 37.11995 0.457 37.11995 30.64805 0.5147 30.64805"></polygon>
        <polygon id="path-15" points="0.6922 0.457 37.30845 0.457 37.30845 30.65875 0.6922 30.65875"></polygon>
        <polygon id="path-17" points="0.97275 0.457 21.543 0.457 21.543 17.83065 0.97275 17.83065"></polygon>
        <polygon id="path-19" points="0.0002 0.457 3.2172 0.457 3.2172 3.6735 0.0002 3.6735"></polygon>
        <polygon id="path-21" points="0.935 0.457 37.56625 0.457 37.56625 30.67345 0.935 30.67345"></polygon>
        <polygon id="path-23" points="0.1672 0.38195 41.3041367 0.38195 41.3041367 38 0.1672 38"></polygon>
        <polygon id="path-25" points="0.3019 0.457 10.0889 0.457 10.0889 3.95415 0.3019 3.95415"></polygon>
        <polygon id="path-27" points="0.1957 0.457 9.9957 0.457 9.9957 3.96495 0.1957 3.96495"></polygon>
        <polygon id="path-29" points="0.1937 0.457 9.9997 0.457 9.9997 3.96885 0.1937 3.96885"></polygon>
        <polygon id="path-31" points="0.3712 0.457 10.1892 0.457 10.1892 3.97955 0.3712 3.97955"></polygon>
        <polygon id="path-33" points="0.614 0.457 10.451 0.457 10.451 3.99465 0.614 3.99465"></polygon>
        <polygon id="path-35" points="0.07235 0.03495 17.4506 0.03495 17.4506 11 0.07235 11"></polygon>
        <polygon id="path-37" points="0.0552 0.24785 30.22145 0.24785 30.22145 24 0.0552 24"></polygon>
        <polygon id="path-39" points="0.8521 0.24785 31.01835 0.24785 31.01835 24 0.8521 24"></polygon>
        <polygon id="path-41" points="0.9322 0.3896 10.543 0.3896 10.543 9.9996 0.9322 9.9996"></polygon>
        <polygon id="path-43" points="0.42535 0.07595 17.7636 0.07595 17.7636 11 0.42535 11"></polygon>
    </defs>
    <g id="Page-1" stroke="none" stroke-width="1" fill="none" fill-rule="evenodd">
        <g id="Pattern08">
            <polygon id="Fill-1" fill="#242424" points="0 454.543 453.543 454.543 453.543 1 0 1"></polygon>
            <g id="Group-430" transform="translate(0.000000, 0.543000)">
                <g id="Group-4" transform="translate(70.000000, 0.000000)">
                    <mask id="mask-2" fill="white">
                        <use xlink:href="#path-1"></use>
                    </mask>
                    <g id="Clip-3"></g>
                    <path d="M1.8527,16.5024 L1.8527,16.5024 C3.6237,18.2734 6.4957,18.2734 8.2667,16.5024 L24.3127,0.4564 L11.4837,0.4564 L1.8527,10.0884 C0.0817,11.8594 0.0817,14.7314 1.8527,16.5024" id="Fill-2" fill="#1D1B1C" mask="url(#mask-2)"></path>
                </g>
                <g id="Group-7" transform="translate(161.000000, 0.000000)">
                    <mask id="mask-4" fill="white">
                        <use xlink:href="#path-3"></use>
                    </mask>
                    <g id="Clip-6"></g>
                    <path d="M1.9479,16.5024 C3.7189,18.2734 6.5909,18.2734 8.3619,16.5024 L24.4069,0.4564 L11.5789,0.4564 L1.9479,10.0884 C0.1769,11.8594 0.1769,14.7314 1.9479,16.5024" id="Fill-5" fill="#1D1B1C" mask="url(#mask-4)"></path>
                </g>
                <g id="Group-10" transform="translate(120.000000, 0.000000)">
                    <mask id="mask-6" fill="white">
                        <use xlink:href="#path-5"></use>
                    </mask>
                    <g id="Clip-9"></g>
                    <path d="M35.8849,29.3046 L35.8849,29.3046 C37.6559,27.5336 37.6559,24.6616 35.8849,22.8906 L13.4509,0.4566 L0.6229,0.4566 L29.4709,29.3046 C31.2419,31.0756 34.1139,31.0756 35.8849,29.3046" id="Fill-8" fill="#1D1B1C" mask="url(#mask-6)"></path>
                </g>
                <g id="Group-13" transform="translate(29.000000, 0.000000)">
                    <mask id="mask-8" fill="white">
                        <use xlink:href="#path-7"></use>
                    </mask>
                    <g id="Clip-12"></g>
                    <path d="M35.7897,29.3154 L35.7897,29.3154 C37.5607,27.5444 37.5607,24.6724 35.7897,22.9014 L13.3447,0.4564 L0.5167,0.4564 L29.3757,29.3154 C31.1467,31.0864 34.0187,31.0864 35.7897,29.3154" id="Fill-11" fill="#1D1B1C" mask="url(#mask-8)"></path>
                </g>
                <g id="Group-16" transform="translate(252.000000, 0.000000)">
                    <mask id="mask-10" fill="white">
                        <use xlink:href="#path-9"></use>
                    </mask>
                    <g id="Clip-15"></g>
                    <path d="M1.4089,16.517 C3.1799,18.288 6.0519,18.288 7.8229,16.517 L23.8839,0.456 L11.0549,0.456 L1.4089,10.103 C-0.3621,11.874 -0.3621,14.746 1.4089,16.517" id="Fill-14" fill="#1D1B1C" mask="url(#mask-10)"></path>
                </g>
                <g id="Group-19" transform="translate(341.000000, 0.000000)">
                    <mask id="mask-12" fill="white">
                        <use xlink:href="#path-11"></use>
                    </mask>
                    <g id="Clip-18"></g>
                    <path d="M2.2057,16.517 C3.9767,18.288 6.8487,18.288 8.6197,16.517 L24.6807,0.456 L11.8517,0.456 L2.2057,10.103 C0.4347,11.874 0.4347,14.746 2.2057,16.517" id="Fill-17" fill="#1D1B1C" mask="url(#mask-12)"></path>
                </g>
                <g id="Group-22" transform="translate(301.000000, 0.000000)">
                    <mask id="mask-14" fill="white">
                        <use xlink:href="#path-13"></use>
                    </mask>
                    <g id="Clip-21"></g>
                    <path d="M35.7917,29.3198 L35.7917,29.3198 C37.5627,27.5488 37.5627,24.6768 35.7917,22.9058 L13.3427,0.4568 L0.5147,0.4568 L29.3777,29.3198 C31.1487,31.0908 34.0207,31.0908 35.7917,29.3198" id="Fill-20" fill="#1D1B1C" mask="url(#mask-14)"></path>
                </g>
                <g id="Group-25" transform="translate(211.000000, 0.000000)">
                    <mask id="mask-16" fill="white">
                        <use xlink:href="#path-15"></use>
                    </mask>
                    <g id="Clip-24"></g>
                    <path d="M35.9802,29.3305 C37.7512,27.5595 37.7512,24.6875 35.9802,22.9155 L13.5202,0.4565 L0.6922,0.4565 L29.5662,29.3305 C31.3372,31.1015 34.2092,31.1015 35.9802,29.3305" id="Fill-23" fill="#1D1B1C" mask="url(#mask-16)"></path>
                </g>
                <g id="Group-28" transform="translate(432.000000, 0.000000)">
                    <mask id="mask-18" fill="white">
                        <use xlink:href="#path-17"></use>
                    </mask>
                    <g id="Clip-27"></g>
                    <path d="M2.301,16.5024 C4.072,18.2734 6.944,18.2734 8.715,16.5024 L21.543,3.6734 L21.543,0.4564 L11.932,0.4564 L2.301,10.0884 C0.53,11.8594 0.53,14.7314 2.301,16.5024" id="Fill-26" fill="#1D1B1C" mask="url(#mask-18)"></path>
                </g>
                <g id="Group-31">
                    <mask id="mask-20" fill="white">
                        <use xlink:href="#path-19"></use>
                    </mask>
                    <g id="Clip-30"></g>
                    <polygon id="Fill-29" fill="#1D1B1C" mask="url(#mask-20)" points="0.0002 0.4565 0.0002 3.6735 3.2172 0.4565"></polygon>
                </g>
                <g id="Group-34" transform="translate(391.000000, 0.000000)">
                    <mask id="mask-22" fill="white">
                        <use xlink:href="#path-21"></use>
                    </mask>
                    <g id="Clip-33"></g>
                    <path d="M36.238,29.3452 C38.009,27.5742 38.009,24.7022 36.238,22.9312 L13.763,0.4562 L0.935,0.4562 L29.824,29.3452 C31.595,31.1162 34.467,31.1162 36.238,29.3452" id="Fill-32" fill="#1D1B1C" mask="url(#mask-22)"></path>
                </g>
                <path d="M103.923,404.8818 L71.853,436.9528 C70.082,438.7238 70.082,441.5958 71.853,443.3658 C73.624,445.1378 76.496,445.1378 78.267,443.3658 L110.337,411.2958 C112.109,409.5258 112.109,406.6528 110.337,404.8818 C108.566,403.1108 105.694,403.1108 103.923,404.8818" id="Fill-35" fill="#1D1B1C"></path>
                <path d="M195.0182,404.8818 L162.9482,436.9528 C161.1772,438.7238 161.1772,441.5958 162.9482,443.3658 C164.7192,445.1378 167.5912,445.1378 169.3622,443.3658 L201.4322,411.2958 C203.2042,409.5258 203.2042,406.6528 201.4322,404.8818 C199.6612,403.1108 196.7892,403.1108 195.0182,404.8818" id="Fill-37" fill="#1D1B1C"></path>
                <path d="M155.8849,449.7548 L123.8149,417.6848 C122.0429,415.9138 119.1719,415.9138 117.4009,417.6848 C115.6289,419.4558 115.6289,422.3278 117.4009,424.0988 L147.3019,453.9998 L157.0889,453.9998 C157.4339,452.5228 157.0369,450.9068 155.8849,449.7548" id="Fill-39" fill="#1D1B1C"></path>
                <path d="M64.7897,449.7656 L32.7197,417.6956 C30.9487,415.9246 28.0767,415.9246 26.3057,417.6956 C24.5337,419.4666 24.5337,422.3376 26.3057,424.1096 L56.1957,453.9996 L65.9957,453.9996 C66.3377,452.5256 65.9387,450.9146 64.7897,449.7656" id="Fill-41" fill="#1D1B1C"></path>
                <path d="M291.8932,404.8974 C290.1222,403.1264 287.2502,403.1264 285.4792,404.8974 L253.4092,436.9674 C251.6382,438.7384 251.6382,441.6104 253.4092,443.3814 C255.1802,445.1524 258.0522,445.1524 259.8232,443.3814 L291.8932,411.3114 C293.6642,409.5404 293.6642,406.6684 291.8932,404.8974" id="Fill-43" fill="#1D1B1C"></path>
                <path d="M381.6901,404.8974 C379.9191,403.1264 377.0471,403.1264 375.2761,404.8974 L343.2061,436.9674 C341.4351,438.7384 341.4351,441.6104 343.2061,443.3814 C344.9771,445.1524 347.8491,445.1524 349.6201,443.3814 L381.6901,411.3114 C383.4611,409.5404 383.4611,406.6684 381.6901,404.8974" id="Fill-45" fill="#1D1B1C"></path>
                <path d="M336.7917,449.7704 L304.7217,417.7004 C302.9507,415.9284 300.0787,415.9284 298.3077,417.7004 C296.5367,419.4704 296.5367,422.3424 298.3077,424.1134 L328.1937,453.9994 L337.9997,453.9994 C338.3387,452.5274 337.9397,450.9174 336.7917,449.7704" id="Fill-47" fill="#1D1B1C"></path>
                <g id="Group-51" transform="translate(207.000000, 416.000000)">
                    <mask id="mask-24" fill="white">
                        <use xlink:href="#path-23"></use>
                    </mask>
                    <g id="Clip-50"></g>
                    <path d="M39.9802,33.7802 L7.9102,1.7102 C6.1382,-0.0608 3.2672,-0.0608 1.4962,1.7102 C-0.2758,3.4812 -0.2758,6.3532 1.4962,8.1242 L31.3712,38.0002 L41.1892,38.0002 C41.5252,36.5302 41.1252,34.9262 39.9802,33.7802" id="Fill-49" fill="#1D1B1C" mask="url(#mask-24)"></path>
                </g>
                <path d="M434.301,443.3661 L434.301,443.3661 C436.072,445.1371 438.944,445.1371 440.715,443.3661 L453.543,430.5381 L453.543,417.7101 L434.301,436.9531 C432.53,438.7231 432.53,441.5951 434.301,443.3661" id="Fill-52" fill="#1D1B1C"></path>
                <path d="M19.2424,404.8818 C17.4714,403.1108 14.5994,403.1108 12.8284,404.8818 L0.0004,417.7098 L0.0004,430.5378 L19.2424,411.2958 C21.0134,409.5258 21.0134,406.6528 19.2424,404.8818" id="Fill-54" fill="#1D1B1C"></path>
                <path d="M427.238,449.7958 L395.168,417.7258 C393.396,415.9538 390.525,415.9538 388.754,417.7258 C386.982,419.4958 386.982,422.3678 388.754,424.1398 L418.614,453.9998 L428.451,453.9998 C428.78,452.5338 428.379,450.9368 427.238,449.7958" id="Fill-56" fill="#1D1B1C"></path>
                <g id="Group-60" transform="translate(147.000000, 0.000000)">
                    <mask id="mask-26" fill="white">
                        <use xlink:href="#path-25"></use>
                    </mask>
                    <g id="Clip-59"></g>
                    <path d="M8.8849,2.6259 L8.8849,2.6259 C9.5049,2.0059 9.9029,1.2509 10.0889,0.4569 L0.3019,0.4569 L2.4709,2.6259 C4.2419,4.3969 7.1139,4.3969 8.8849,2.6259" id="Fill-58" fill="#1D1B1C" mask="url(#mask-26)"></path>
                </g>
                <g id="Group-63" transform="translate(56.000000, 0.000000)">
                    <mask id="mask-28" fill="white">
                        <use xlink:href="#path-27"></use>
                    </mask>
                    <g id="Clip-62"></g>
                    <path d="M8.7897,2.6367 L8.7897,2.6367 C9.4127,2.0137 9.8107,1.2557 9.9957,0.4567 L0.1957,0.4567 L2.3757,2.6367 C4.1467,4.4077 7.0187,4.4077 8.7897,2.6367" id="Fill-61" fill="#1D1B1C" mask="url(#mask-28)"></path>
                </g>
                <g id="Group-66" transform="translate(328.000000, 0.000000)">
                    <mask id="mask-30" fill="white">
                        <use xlink:href="#path-29"></use>
                    </mask>
                    <g id="Clip-65"></g>
                    <path d="M8.7917,2.6406 L8.7917,2.6406 C9.4157,2.0176 9.8137,1.2566 9.9997,0.4566 L0.1937,0.4566 L2.3777,2.6406 C4.1487,4.4116 7.0207,4.4116 8.7917,2.6406" id="Fill-64" fill="#1D1B1C" mask="url(#mask-30)"></path>
                </g>
                <g id="Group-69" transform="translate(238.000000, 0.000000)">
                    <mask id="mask-32" fill="white">
                        <use xlink:href="#path-31"></use>
                    </mask>
                    <g id="Clip-68"></g>
                    <path d="M8.9802,2.6513 C9.6062,2.0253 10.0062,1.2603 10.1892,0.4563 L0.3712,0.4563 L2.5662,2.6513 C4.3372,4.4223 7.2092,4.4223 8.9802,2.6513" id="Fill-67" fill="#1D1B1C" mask="url(#mask-32)"></path>
                </g>
                <g id="Group-72" transform="translate(418.000000, 0.000000)">
                    <mask id="mask-34" fill="white">
                        <use xlink:href="#path-33"></use>
                    </mask>
                    <g id="Clip-71"></g>
                    <path d="M9.238,2.6664 C9.868,2.0364 10.269,1.2664 10.451,0.4564 L0.614,0.4564 L2.824,2.6664 C4.595,4.4374 7.467,4.4374 9.238,2.6664" id="Fill-70" fill="#1D1B1C" mask="url(#mask-34)"></path>
                </g>
                <path d="M103.923,4.6967 L71.853,36.7667 C70.082,38.5387 70.082,41.4097 71.853,43.1807 C73.624,44.9527 76.496,44.9527 78.267,43.1807 L110.337,11.1107 C112.109,9.3397 112.109,6.4677 110.337,4.6967 C108.566,2.9257 105.694,2.9257 103.923,4.6967" id="Fill-73" fill="#1D1B1C"></path>
                <path d="M195.0182,4.6967 L162.9482,36.7667 C161.1772,38.5387 161.1772,41.4097 162.9482,43.1807 C164.7192,44.9527 167.5912,44.9527 169.3622,43.1807 L201.4322,11.1107 C203.2042,9.3397 203.2042,6.4677 201.4322,4.6967 C199.6612,2.9257 196.7892,2.9257 195.0182,4.6967" id="Fill-75" fill="#1D1B1C"></path>
                <path d="M123.8147,17.4995 C122.0437,15.7285 119.1717,15.7285 117.4007,17.4995 C115.6287,19.2705 115.6287,22.1425 117.4007,23.9135 L149.4707,55.9835 C151.2417,57.7545 154.1137,57.7545 155.8847,55.9835 C157.6557,54.2125 157.6557,51.3405 155.8847,49.5695 L123.8147,17.4995 Z" id="Fill-77" fill="#1D1B1C"></path>
                <path d="M32.7194,17.5102 C30.9484,15.7392 28.0764,15.7392 26.3054,17.5102 C24.5334,19.2812 24.5334,22.1532 26.3054,23.9242 L58.3754,55.9942 C60.1464,57.7652 63.0184,57.7652 64.7894,55.9942 C66.5604,54.2232 66.5604,51.3512 64.7894,49.5802 L32.7194,17.5102 Z" id="Fill-79" fill="#1D1B1C"></path>
                <path d="M291.8932,4.7114 C290.1222,2.9404 287.2502,2.9404 285.4792,4.7114 L253.4092,36.7824 C251.6382,38.5534 251.6382,41.4244 253.4092,43.1964 C255.1802,44.9674 258.0522,44.9674 259.8232,43.1964 L291.8932,11.1264 C293.6642,9.3544 293.6642,6.4824 291.8932,4.7114" id="Fill-81" fill="#1D1B1C"></path>
                <path d="M381.6901,4.7114 C379.9191,2.9404 377.0471,2.9404 375.2761,4.7114 L343.2061,36.7824 C341.4351,38.5534 341.4351,41.4244 343.2061,43.1964 C344.9771,44.9674 347.8491,44.9674 349.6201,43.1964 L381.6901,11.1264 C383.4611,9.3544 383.4611,6.4824 381.6901,4.7114" id="Fill-83" fill="#1D1B1C"></path>
                <path d="M304.7214,17.5141 C302.9504,15.7431 300.0784,15.7431 298.3074,17.5141 C296.5364,19.2851 296.5364,22.1571 298.3074,23.9281 L330.3774,55.9981 C332.1494,57.7701 335.0204,57.7701 336.7914,55.9981 C338.5634,54.2271 338.5634,51.3561 336.7914,49.5841 L304.7214,17.5141 Z" id="Fill-85" fill="#1D1B1C"></path>
                <path d="M214.9099,17.5248 C213.1389,15.7538 210.2669,15.7538 208.4959,17.5248 C206.7239,19.2958 206.7239,22.1678 208.4959,23.9388 L240.5659,56.0088 C242.3369,57.7808 245.2089,57.7808 246.9799,56.0088 C248.7509,54.2378 248.7509,51.3668 246.9799,49.5948 L214.9099,17.5248 Z" id="Fill-87" fill="#1D1B1C"></path>
                <path d="M434.301,43.1811 C436.072,44.9521 438.944,44.9521 440.715,43.1811 L453.543,30.3531 L453.543,17.5251 L434.301,36.7671 C432.53,38.5381 432.53,41.4101 434.301,43.1811" id="Fill-89" fill="#1D1B1C"></path>
                <path d="M19.2424,4.6967 C17.4714,2.9257 14.5994,2.9257 12.8284,4.6967 L0.0004,17.5247 L0.0004,30.3527 L19.2424,11.1107 C21.0134,9.3397 21.0134,6.4677 19.2424,4.6967" id="Fill-91" fill="#1D1B1C"></path>
                <path d="M395.1677,17.5395 C393.3967,15.7685 390.5247,15.7685 388.7537,17.5395 C386.9817,19.3105 386.9817,22.1825 388.7537,23.9545 L420.8237,56.0245 C422.5947,57.7955 425.4667,57.7955 427.2377,56.0245 C429.0087,54.2525 429.0087,51.3815 427.2377,49.6105 L395.1677,17.5395 Z" id="Fill-93" fill="#1D1B1C"></path>
                <path d="M103.923,31.3759 L71.853,63.4459 C70.082,65.2169 70.082,68.0889 71.853,69.8599 C73.624,71.6309 76.496,71.6309 78.267,69.8599 L110.337,37.7899 C112.109,36.0189 112.109,33.1469 110.337,31.3759 C108.566,29.6049 105.694,29.6049 103.923,31.3759" id="Fill-95" fill="#1D1B1C"></path>
                <path d="M195.0182,31.3759 L162.9482,63.4459 C161.1772,65.2169 161.1772,68.0889 162.9482,69.8599 C164.7192,71.6309 167.5912,71.6309 169.3622,69.8599 L201.4322,37.7899 C203.2042,36.0189 203.2042,33.1469 201.4322,31.3759 C199.6612,29.6049 196.7892,29.6049 195.0182,31.3759" id="Fill-97" fill="#1D1B1C"></path>
                <path d="M123.8147,44.1782 C122.0437,42.4072 119.1717,42.4072 117.4007,44.1782 C115.6287,45.9492 115.6287,48.8212 117.4007,50.5932 L149.4707,82.6632 C151.2417,84.4342 154.1137,84.4342 155.8847,82.6632 C157.6557,80.8912 157.6557,78.0202 155.8847,76.2492 L123.8147,44.1782 Z" id="Fill-99" fill="#1D1B1C"></path>
                <path d="M32.7194,44.1889 C30.9484,42.4179 28.0764,42.4179 26.3054,44.1889 C24.5334,45.9599 24.5334,48.8319 26.3054,50.6029 L58.3754,82.6729 C60.1464,84.4449 63.0184,84.4449 64.7894,82.6729 C66.5604,80.9019 66.5604,78.0309 64.7894,76.2589 L32.7194,44.1889 Z" id="Fill-101" fill="#1D1B1C"></path>
                <path d="M291.8932,31.3906 C290.1222,29.6196 287.2502,29.6196 285.4792,31.3906 L253.4092,63.4606 C251.6382,65.2326 251.6382,68.1036 253.4092,69.8746 C255.1802,71.6466 258.0522,71.6466 259.8232,69.8746 L291.8932,37.8046 C293.6642,36.0336 293.6642,33.1616 291.8932,31.3906" id="Fill-103" fill="#1D1B1C"></path>
                <path d="M381.6901,31.3906 C379.9191,29.6196 377.0471,29.6196 375.2761,31.3906 L343.2061,63.4606 C341.4351,65.2326 341.4351,68.1036 343.2061,69.8746 C344.9771,71.6466 347.8491,71.6466 349.6201,69.8746 L381.6901,37.8046 C383.4611,36.0336 383.4611,33.1616 381.6901,31.3906" id="Fill-105" fill="#1D1B1C"></path>
                <path d="M304.7214,44.1933 C302.9504,42.4223 300.0784,42.4223 298.3074,44.1933 C296.5364,45.9643 296.5364,48.8363 298.3074,50.6073 L330.3774,82.6773 C332.1494,84.4483 335.0204,84.4483 336.7914,82.6773 C338.5634,80.9063 338.5634,78.0343 336.7914,76.2633 L304.7214,44.1933 Z" id="Fill-107" fill="#1D1B1C"></path>
                <path d="M214.9099,44.204 C213.1389,42.433 210.2669,42.433 208.4959,44.204 C206.7239,45.975 206.7239,48.847 208.4959,50.618 L240.5659,82.688 C242.3369,84.459 245.2089,84.459 246.9799,82.688 C248.7509,80.917 248.7509,78.045 246.9799,76.274 L214.9099,44.204 Z" id="Fill-109" fill="#1D1B1C"></path>
                <path d="M434.301,69.8603 L434.301,69.8603 C436.072,71.6313 438.944,71.6313 440.715,69.8603 L453.543,57.0323 L453.543,44.2043 L434.301,63.4463 C432.53,65.2173 432.53,68.0893 434.301,69.8603" id="Fill-111" fill="#1D1B1C"></path>
                <path d="M19.2424,31.3759 C17.4714,29.6049 14.5994,29.6049 12.8284,31.3759 L0.0004,44.2039 L0.0004,57.0319 L19.2424,37.7899 C21.0134,36.0189 21.0134,33.1469 19.2424,31.3759" id="Fill-113" fill="#1D1B1C"></path>
                <path d="M395.1677,44.2187 C393.3967,42.4477 390.5247,42.4477 388.7537,44.2187 C386.9817,45.9897 386.9817,48.8617 388.7537,50.6327 L420.8237,82.7027 C422.5947,84.4747 425.4667,84.4747 427.2377,82.7027 C429.0087,80.9317 429.0087,78.0607 427.2377,76.2887 L395.1677,44.2187 Z" id="Fill-115" fill="#1D1B1C"></path>
                <path d="M110.3371,58.0546 C108.5661,56.2836 105.6941,56.2836 103.9231,58.0546 L71.8531,90.1246 C70.0821,91.8966 70.0821,94.7676 71.8531,96.5386 C73.6241,98.3106 76.4961,98.3106 78.2671,96.5386 L110.3371,64.4686 C112.1081,62.6976 112.1081,59.8256 110.3371,58.0546" id="Fill-117" fill="#1D1B1C"></path>
                <path d="M201.4323,58.0546 C199.6613,56.2836 196.7893,56.2836 195.0183,58.0546 L162.9483,90.1246 C161.1773,91.8966 161.1773,94.7676 162.9483,96.5386 C164.7193,98.3106 167.5913,98.3106 169.3623,96.5386 L201.4323,64.4686 C203.2033,62.6976 203.2033,59.8256 201.4323,58.0546" id="Fill-119" fill="#1D1B1C"></path>
                <path d="M123.8147,70.8574 C122.0437,69.0864 119.1717,69.0864 117.4007,70.8574 C115.6287,72.6284 115.6287,75.5004 117.4007,77.2714 L149.4707,109.3414 C151.2417,111.1134 154.1137,111.1134 155.8847,109.3414 C157.6557,107.5704 157.6557,104.6994 155.8847,102.9274 L123.8147,70.8574 Z" id="Fill-121" fill="#1D1B1C"></path>
                <path d="M32.7194,70.8681 C30.9484,69.0971 28.0764,69.0971 26.3054,70.8681 C24.5334,72.6391 24.5334,75.5111 26.3054,77.2821 L58.3754,109.3521 C60.1464,111.1231 63.0184,111.1231 64.7894,109.3521 C66.5604,107.5811 66.5604,104.7091 64.7894,102.9381 L32.7194,70.8681 Z" id="Fill-123" fill="#1D1B1C"></path>
                <path d="M291.8932,58.0698 C290.1222,56.2988 287.2502,56.2988 285.4792,58.0698 L253.4092,90.1398 C251.6382,91.9108 251.6382,94.7828 253.4092,96.5538 C255.1802,98.3248 258.0522,98.3248 259.8232,96.5538 L291.8932,64.4838 C293.6642,62.7128 293.6642,59.8408 291.8932,58.0698" id="Fill-125" fill="#1D1B1C"></path>
                <path d="M381.6901,58.0698 C379.9191,56.2988 377.0471,56.2988 375.2761,58.0698 L343.2061,90.1398 C341.4351,91.9108 341.4351,94.7828 343.2061,96.5538 C344.9771,98.3248 347.8491,98.3248 349.6201,96.5538 L381.6901,64.4838 C383.4611,62.7128 383.4611,59.8408 381.6901,58.0698" id="Fill-127" fill="#1D1B1C"></path>
                <path d="M304.7214,70.8725 C302.9504,69.1015 300.0784,69.1015 298.3074,70.8725 C296.5364,72.6435 296.5364,75.5155 298.3074,77.2865 L330.3774,109.3565 C332.1494,111.1275 335.0204,111.1275 336.7914,109.3565 C338.5634,107.5855 338.5634,104.7135 336.7914,102.9425 L304.7214,70.8725 Z" id="Fill-129" fill="#1D1B1C"></path>
                <path d="M214.9099,70.8828 C213.1389,69.1118 210.2669,69.1118 208.4959,70.8828 C206.7239,72.6538 206.7239,75.5258 208.4959,77.2968 L240.5659,109.3668 C242.3369,111.1388 245.2089,111.1388 246.9799,109.3668 C248.7509,107.5958 248.7509,104.7248 246.9799,102.9528 L214.9099,70.8828 Z" id="Fill-131" fill="#1D1B1C"></path>
                <path d="M434.301,96.539 C436.072,98.31 438.944,98.31 440.715,96.539 L453.543,83.711 L453.543,70.883 L434.301,90.125 C432.53,91.896 432.53,94.768 434.301,96.539" id="Fill-133" fill="#1D1B1C"></path>
                <path d="M19.2424,58.0546 L19.2424,58.0546 C17.4714,56.2836 14.5994,56.2836 12.8284,58.0546 L0.0004,70.8826 L0.0004,83.7106 L19.2424,64.4686 C21.0134,62.6976 21.0134,59.8256 19.2424,58.0546" id="Fill-135" fill="#1D1B1C"></path>
                <path d="M395.1677,70.8979 C393.3967,69.1269 390.5247,69.1269 388.7537,70.8979 C386.9817,72.6689 386.9817,75.5409 388.7537,77.3119 L420.8237,109.3819 C422.5947,111.1529 425.4667,111.1529 427.2377,109.3819 C429.0087,107.6109 429.0087,104.7389 427.2377,102.9679 L395.1677,70.8979 Z" id="Fill-137" fill="#1D1B1C"></path>
                <path d="M103.923,84.7338 L71.853,116.8038 C70.082,118.5758 70.082,121.4468 71.853,123.2178 C73.624,124.9888 76.496,124.9888 78.267,123.2178 L110.337,91.1478 C112.109,89.3768 112.109,86.5048 110.337,84.7338 C108.566,82.9628 105.694,82.9628 103.923,84.7338" id="Fill-139" fill="#1D1B1C"></path>
                <path d="M195.0182,84.7338 L162.9482,116.8038 C161.1772,118.5758 161.1772,121.4468 162.9482,123.2178 C164.7192,124.9888 167.5912,124.9888 169.3622,123.2178 L201.4322,91.1478 C203.2042,89.3768 203.2042,86.5048 201.4322,84.7338 C199.6612,82.9628 196.7892,82.9628 195.0182,84.7338" id="Fill-141" fill="#1D1B1C"></path>
                <path d="M123.8147,97.5366 C122.0437,95.7656 119.1717,95.7656 117.4007,97.5366 C115.6287,99.3076 115.6287,102.1796 117.4007,103.9506 L149.4707,136.0206 C151.2417,137.7916 154.1137,137.7916 155.8847,136.0206 C157.6557,134.2496 157.6557,131.3776 155.8847,129.6066 L123.8147,97.5366 Z" id="Fill-143" fill="#1D1B1C"></path>
                <path d="M32.7194,97.5473 C30.9484,95.7763 28.0764,95.7763 26.3054,97.5473 C24.5334,99.3183 24.5334,102.1903 26.3054,103.9613 L58.3754,136.0313 C60.1464,137.8023 63.0184,137.8023 64.7894,136.0313 C66.5604,134.2603 66.5604,131.3883 64.7894,129.6173 L32.7194,97.5473 Z" id="Fill-145" fill="#1D1B1C"></path>
                <path d="M291.8932,84.7485 C290.1222,82.9775 287.2502,82.9775 285.4792,84.7485 L253.4092,116.8185 C251.6382,118.5905 251.6382,121.4615 253.4092,123.2335 C255.1802,125.0045 258.0522,125.0045 259.8232,123.2335 L291.8932,91.1625 C293.6642,89.3915 293.6642,86.5195 291.8932,84.7485" id="Fill-147" fill="#1D1B1C"></path>
                <path d="M381.6901,84.7485 C379.9191,82.9775 377.0471,82.9775 375.2761,84.7485 L343.2061,116.8185 C341.4351,118.5905 341.4351,121.4615 343.2061,123.2335 C344.9771,125.0045 347.8491,125.0045 349.6201,123.2335 L381.6901,91.1625 C383.4611,89.3915 383.4611,86.5195 381.6901,84.7485" id="Fill-149" fill="#1D1B1C"></path>
                <path d="M304.7214,97.5512 C302.9504,95.7802 300.0784,95.7802 298.3074,97.5512 C296.5364,99.3222 296.5364,102.1942 298.3074,103.9652 L330.3774,136.0352 C332.1494,137.8072 335.0204,137.8072 336.7914,136.0352 C338.5634,134.2642 338.5634,131.3932 336.7914,129.6212 L304.7214,97.5512 Z" id="Fill-151" fill="#1D1B1C"></path>
                <path d="M214.9099,97.562 C213.1389,95.791 210.2669,95.791 208.4959,97.562 C206.7239,99.333 206.7239,102.205 208.4959,103.976 L240.5659,136.046 C242.3369,137.818 245.2089,137.818 246.9799,136.046 C248.7509,134.275 248.7509,131.403 246.9799,129.632 L214.9099,97.562 Z" id="Fill-153" fill="#1D1B1C"></path>
                <path d="M434.301,123.2182 C436.072,124.9892 438.944,124.9892 440.715,123.2182 L453.543,110.3902 L453.543,97.5622 L434.301,116.8042 C432.53,118.5752 432.53,121.4472 434.301,123.2182" id="Fill-155" fill="#1D1B1C"></path>
                <path d="M19.2424,84.7338 C17.4714,82.9628 14.5994,82.9628 12.8284,84.7338 L0.0004,97.5618 L0.0004,110.3898 L19.2424,91.1478 C21.0134,89.3768 21.0134,86.5048 19.2424,84.7338" id="Fill-157" fill="#1D1B1C"></path>
                <path d="M395.1677,97.5766 C393.3967,95.8056 390.5247,95.8056 388.7537,97.5766 C386.9817,99.3476 386.9817,102.2196 388.7537,103.9906 L420.8237,136.0606 C422.5947,137.8326 425.4667,137.8326 427.2377,136.0606 C429.0087,134.2896 429.0087,131.4186 427.2377,129.6476 L395.1677,97.5766 Z" id="Fill-159" fill="#1D1B1C"></path>
                <path d="M103.923,111.413 L71.853,143.483 C70.082,145.254 70.082,148.126 71.853,149.897 C73.624,151.668 76.496,151.668 78.267,149.897 L110.337,117.827 C112.109,116.056 112.109,113.184 110.337,111.413 C108.566,109.642 105.694,109.642 103.923,111.413" id="Fill-161" fill="#1D1B1C"></path>
                <path d="M195.0182,111.413 L162.9482,143.483 C161.1772,145.254 161.1772,148.126 162.9482,149.897 C164.7192,151.668 167.5912,151.668 169.3622,149.897 L201.4322,117.827 C203.2042,116.056 203.2042,113.184 201.4322,111.413 C199.6612,109.642 196.7892,109.642 195.0182,111.413" id="Fill-163" fill="#1D1B1C"></path>
                <path d="M123.8147,124.2153 C122.0437,122.4443 119.1717,122.4443 117.4007,124.2153 C115.6287,125.9863 115.6287,128.8583 117.4007,130.6293 L149.4707,162.7003 C151.2417,164.4713 154.1137,164.4713 155.8847,162.7003 C157.6557,160.9283 157.6557,158.0573 155.8847,156.2853 L123.8147,124.2153 Z" id="Fill-165" fill="#1D1B1C"></path>
                <path d="M32.7194,124.226 C30.9484,122.455 28.0764,122.455 26.3054,124.226 C24.5334,125.997 24.5334,128.869 26.3054,130.64 L58.3754,162.71 C60.1464,164.482 63.0184,164.482 64.7894,162.71 C66.5604,160.939 66.5604,158.068 64.7894,156.296 L32.7194,124.226 Z" id="Fill-167" fill="#1D1B1C"></path>
                <path d="M291.8932,111.4277 C290.1222,109.6567 287.2502,109.6567 285.4792,111.4277 L253.4092,143.4977 C251.6382,145.2687 251.6382,148.1407 253.4092,149.9117 C255.1802,151.6837 258.0522,151.6837 259.8232,149.9117 L291.8932,117.8417 C293.6642,116.0707 293.6642,113.1987 291.8932,111.4277" id="Fill-169" fill="#1D1B1C"></path>
                <path d="M381.6901,111.4277 C379.9191,109.6567 377.0471,109.6567 375.2761,111.4277 L343.2061,143.4977 C341.4351,145.2687 341.4351,148.1407 343.2061,149.9117 C344.9771,151.6837 347.8491,151.6837 349.6201,149.9117 L381.6901,117.8417 C383.4611,116.0707 383.4611,113.1987 381.6901,111.4277" id="Fill-171" fill="#1D1B1C"></path>
                <path d="M304.7214,124.2304 C302.9504,122.4594 300.0784,122.4594 298.3074,124.2304 C296.5364,126.0014 296.5364,128.8734 298.3074,130.6444 L330.3774,162.7144 C332.1494,164.4854 335.0204,164.4854 336.7914,162.7144 C338.5634,160.9434 338.5634,158.0714 336.7914,156.3004 L304.7214,124.2304 Z" id="Fill-173" fill="#1D1B1C"></path>
                <path d="M214.9099,124.2411 C213.1389,122.4701 210.2669,122.4701 208.4959,124.2411 C206.7239,126.0121 206.7239,128.8841 208.4959,130.6551 L240.5659,162.7251 C242.3369,164.4961 245.2089,164.4961 246.9799,162.7251 C248.7509,160.9541 248.7509,158.0821 246.9799,156.3111 L214.9099,124.2411 Z" id="Fill-175" fill="#1D1B1C"></path>
                <path d="M434.301,149.8974 L434.301,149.8974 C436.072,151.6684 438.944,151.6684 440.715,149.8974 L453.543,137.0694 L453.543,124.2414 L434.301,143.4834 C432.53,145.2544 432.53,148.1264 434.301,149.8974" id="Fill-177" fill="#1D1B1C"></path>
                <path d="M19.2424,111.413 C17.4714,109.642 14.5994,109.642 12.8284,111.413 L0.0004,124.241 L0.0004,137.069 L19.2424,117.827 C21.0134,116.056 21.0134,113.184 19.2424,111.413" id="Fill-179" fill="#1D1B1C"></path>
                <path d="M395.1677,124.2558 C393.3967,122.4848 390.5247,122.4848 388.7537,124.2558 C386.9817,126.0268 386.9817,128.8988 388.7537,130.6698 L420.8237,162.7398 C422.5947,164.5108 425.4667,164.5108 427.2377,162.7398 C429.0087,160.9688 429.0087,158.0978 427.2377,156.3258 L395.1677,124.2558 Z" id="Fill-181" fill="#1D1B1C"></path>
                <path d="M103.923,138.0917 L71.853,170.1617 C70.082,171.9337 70.082,174.8047 71.853,176.5757 C73.624,178.3477 76.496,178.3477 78.267,176.5757 L110.337,144.5057 C112.109,142.7347 112.109,139.8627 110.337,138.0917 C108.566,136.3207 105.694,136.3207 103.923,138.0917" id="Fill-183" fill="#1D1B1C"></path>
                <path d="M195.0182,138.0917 L162.9482,170.1617 C161.1772,171.9337 161.1772,174.8047 162.9482,176.5757 C164.7192,178.3477 167.5912,178.3477 169.3622,176.5757 L201.4322,144.5057 C203.2042,142.7347 203.2042,139.8627 201.4322,138.0917 C199.6612,136.3207 196.7892,136.3207 195.0182,138.0917" id="Fill-185" fill="#1D1B1C"></path>
                <path d="M123.8147,150.8945 C122.0437,149.1235 119.1717,149.1235 117.4007,150.8945 C115.6287,152.6655 115.6287,155.5375 117.4007,157.3085 L149.4707,189.3785 C151.2417,191.1505 154.1137,191.1505 155.8847,189.3785 C157.6557,187.6075 157.6557,184.7355 155.8847,182.9645 L123.8147,150.8945 Z" id="Fill-187" fill="#1D1B1C"></path>
                <path d="M32.7194,150.9052 C30.9484,149.1342 28.0764,149.1342 26.3054,150.9052 C24.5334,152.6762 24.5334,155.5482 26.3054,157.3192 L58.3754,189.3892 C60.1464,191.1602 63.0184,191.1602 64.7894,189.3892 C66.5604,187.6182 66.5604,184.7462 64.7894,182.9752 L32.7194,150.9052 Z" id="Fill-189" fill="#1D1B1C"></path>
                <path d="M291.8932,138.1069 C290.1222,136.3359 287.2502,136.3359 285.4792,138.1069 L253.4092,170.1769 C251.6382,171.9479 251.6382,174.8199 253.4092,176.5909 C255.1802,178.3619 258.0522,178.3619 259.8232,176.5909 L291.8932,144.5209 C293.6642,142.7499 293.6642,139.8779 291.8932,138.1069" id="Fill-191" fill="#1D1B1C"></path>
                <path d="M381.6901,138.1069 C379.9191,136.3359 377.0471,136.3359 375.2761,138.1069 L343.2061,170.1769 C341.4351,171.9479 341.4351,174.8199 343.2061,176.5909 C344.9771,178.3619 347.8491,178.3619 349.6201,176.5909 L381.6901,144.5209 C383.4611,142.7499 383.4611,139.8779 381.6901,138.1069" id="Fill-193" fill="#1D1B1C"></path>
                <path d="M304.7214,150.9091 C302.9504,149.1381 300.0784,149.1381 298.3074,150.9091 C296.5364,152.6801 296.5364,155.5521 298.3074,157.3231 L330.3774,189.3941 C332.1494,191.1651 335.0204,191.1651 336.7914,189.3941 C338.5634,187.6221 338.5634,184.7511 336.7914,182.9801 L304.7214,150.9091 Z" id="Fill-195" fill="#1D1B1C"></path>
                <path d="M214.9099,150.9199 C213.1389,149.1489 210.2669,149.1489 208.4959,150.9199 C206.7239,152.6909 206.7239,155.5629 208.4959,157.3339 L240.5659,189.4039 C242.3369,191.1759 245.2089,191.1759 246.9799,189.4039 C248.7509,187.6329 248.7509,184.7619 246.9799,182.9899 L214.9099,150.9199 Z" id="Fill-197" fill="#1D1B1C"></path>
                <path d="M434.301,176.5761 L434.301,176.5761 C436.072,178.3471 438.944,178.3471 440.715,176.5761 L453.543,163.7481 L453.543,150.9201 L434.301,170.1621 C432.53,171.9331 432.53,174.8051 434.301,176.5761" id="Fill-199" fill="#1D1B1C"></path>
                <path d="M19.2424,138.0917 C17.4714,136.3207 14.5994,136.3207 12.8284,138.0917 L0.0004,150.9197 L0.0004,163.7477 L19.2424,144.5057 C21.0134,142.7347 21.0134,139.8627 19.2424,138.0917" id="Fill-201" fill="#1D1B1C"></path>
                <path d="M395.1677,150.935 C393.3967,149.164 390.5247,149.164 388.7537,150.935 C386.9817,152.706 386.9817,155.578 388.7537,157.349 L420.8237,189.419 C422.5947,191.19 425.4667,191.19 427.2377,189.419 C429.0087,187.648 429.0087,184.776 427.2377,183.005 L395.1677,150.935 Z" id="Fill-203" fill="#1D1B1C"></path>
                <path d="M110.3371,164.7709 C108.5661,162.9999 105.6941,162.9999 103.9231,164.7709 L71.8531,196.8409 C70.0821,198.6119 70.0821,201.4839 71.8531,203.2549 C73.6241,205.0259 76.4961,205.0259 78.2671,203.2549 L110.3371,171.1849 C112.1081,169.4139 112.1081,166.5419 110.3371,164.7709" id="Fill-205" fill="#1D1B1C"></path>
                <path d="M201.4323,164.7709 C199.6613,162.9999 196.7893,162.9999 195.0183,164.7709 L162.9483,196.8409 C161.1773,198.6119 161.1773,201.4839 162.9483,203.2549 C164.7193,205.0259 167.5913,205.0259 169.3623,203.2549 L201.4323,171.1849 C203.2033,169.4139 203.2033,166.5419 201.4323,164.7709" id="Fill-207" fill="#1D1B1C"></path>
                <path d="M123.8147,177.5737 C122.0437,175.8027 119.1717,175.8027 117.4007,177.5737 C115.6287,179.3447 115.6287,182.2167 117.4007,183.9877 L149.4707,216.0577 C151.2417,217.8287 154.1137,217.8287 155.8847,216.0577 C157.6557,214.2867 157.6557,211.4147 155.8847,209.6437 L123.8147,177.5737 Z" id="Fill-209" fill="#1D1B1C"></path>
                <path d="M32.7194,177.5839 C30.9484,175.8129 28.0764,175.8129 26.3054,177.5839 C24.5334,179.3549 24.5334,182.2269 26.3054,183.9979 L58.3754,216.0689 C60.1464,217.8399 63.0184,217.8399 64.7894,216.0689 C66.5604,214.2969 66.5604,211.4259 64.7894,209.6549 L32.7194,177.5839 Z" id="Fill-211" fill="#1D1B1C"></path>
                <path d="M291.8932,164.7856 C290.1222,163.0146 287.2502,163.0146 285.4792,164.7856 L253.4092,196.8556 C251.6382,198.6276 251.6382,201.4986 253.4092,203.2696 C255.1802,205.0416 258.0522,205.0416 259.8232,203.2696 L291.8932,171.1996 C293.6642,169.4286 293.6642,166.5566 291.8932,164.7856" id="Fill-213" fill="#1D1B1C"></path>
                <path d="M381.6901,164.7856 C379.9191,163.0146 377.0471,163.0146 375.2761,164.7856 L343.2061,196.8556 C341.4351,198.6276 341.4351,201.4986 343.2061,203.2696 C344.9771,205.0416 347.8491,205.0416 349.6201,203.2696 L381.6901,171.1996 C383.4611,169.4286 383.4611,166.5566 381.6901,164.7856" id="Fill-215" fill="#1D1B1C"></path>
                <path d="M304.7214,177.5883 C302.9504,175.8173 300.0784,175.8173 298.3074,177.5883 C296.5364,179.3593 296.5364,182.2313 298.3074,184.0023 L330.3774,216.0723 C332.1494,217.8443 335.0204,217.8443 336.7914,216.0723 C338.5634,214.3013 338.5634,211.4303 336.7914,209.6583 L304.7214,177.5883 Z" id="Fill-217" fill="#1D1B1C"></path>
                <path d="M214.9099,177.5991 C213.1389,175.8281 210.2669,175.8281 208.4959,177.5991 C206.7239,179.3701 206.7239,182.2421 208.4959,184.0131 L240.5659,216.0831 C242.3369,217.8541 245.2089,217.8541 246.9799,216.0831 C248.7509,214.3121 248.7509,211.4401 246.9799,209.6691 L214.9099,177.5991 Z" id="Fill-219" fill="#1D1B1C"></path>
                <path d="M434.301,203.2553 C436.072,205.0263 438.944,205.0263 440.715,203.2553 L453.543,190.4273 L453.543,177.5993 L434.301,196.8413 C432.53,198.6123 432.53,201.4843 434.301,203.2553" id="Fill-221" fill="#1D1B1C"></path>
                <path d="M19.2424,164.7709 L19.2424,164.7709 C17.4714,162.9999 14.5994,162.9999 12.8284,164.7709 L0.0004,177.5989 L0.0004,190.4269 L19.2424,171.1849 C21.0134,169.4139 21.0134,166.5419 19.2424,164.7709" id="Fill-223" fill="#1D1B1C"></path>
                <path d="M395.1677,177.6137 C393.3967,175.8427 390.5247,175.8427 388.7537,177.6137 C386.9817,179.3847 386.9817,182.2567 388.7537,184.0277 L420.8237,216.0977 C422.5947,217.8697 425.4667,217.8697 427.2377,216.0977 C429.0087,214.3267 429.0087,211.4557 427.2377,209.6837 L395.1677,177.6137 Z" id="Fill-225" fill="#1D1B1C"></path>
                <path d="M103.923,191.4501 L71.853,223.5201 C70.082,225.2911 70.082,228.1631 71.853,229.9341 C73.624,231.7051 76.496,231.7051 78.267,229.9341 L110.337,197.8641 C112.109,196.0931 112.109,193.2211 110.337,191.4501 C108.566,189.6791 105.694,189.6791 103.923,191.4501" id="Fill-227" fill="#1D1B1C"></path>
                <path d="M195.0182,191.4501 L162.9482,223.5201 C161.1772,225.2911 161.1772,228.1631 162.9482,229.9341 C164.7192,231.7051 167.5912,231.7051 169.3622,229.9341 L201.4322,197.8641 C203.2042,196.0931 203.2042,193.2211 201.4322,191.4501 C199.6612,189.6791 196.7892,189.6791 195.0182,191.4501" id="Fill-229" fill="#1D1B1C"></path>
                <path d="M123.8147,204.2524 C122.0437,202.4814 119.1717,202.4814 117.4007,204.2524 C115.6287,206.0234 115.6287,208.8954 117.4007,210.6664 L149.4707,242.7374 C151.2417,244.5074 154.1137,244.5074 155.8847,242.7374 C157.6557,240.9654 157.6557,238.0934 155.8847,236.3234 L123.8147,204.2524 Z" id="Fill-231" fill="#1D1B1C"></path>
                <path d="M32.7194,204.2631 C30.9484,202.4921 28.0764,202.4921 26.3054,204.2631 C24.5334,206.0341 24.5334,208.9061 26.3054,210.6771 L58.3754,242.7481 C60.1464,244.5181 63.0184,244.5181 64.7894,242.7481 C66.5604,240.9761 66.5604,238.1041 64.7894,236.3341 L32.7194,204.2631 Z" id="Fill-233" fill="#1D1B1C"></path>
                <path d="M291.8932,191.4648 C290.1222,189.6938 287.2502,189.6938 285.4792,191.4648 L253.4092,223.5348 C251.6382,225.3058 251.6382,228.1778 253.4092,229.9488 C255.1802,231.7208 258.0522,231.7208 259.8232,229.9488 L291.8932,197.8788 C293.6642,196.1078 293.6642,193.2358 291.8932,191.4648" id="Fill-235" fill="#1D1B1C"></path>
                <path d="M381.6901,191.4648 C379.9191,189.6938 377.0471,189.6938 375.2761,191.4648 L343.2061,223.5348 C341.4351,225.3058 341.4351,228.1778 343.2061,229.9488 C344.9771,231.7208 347.8491,231.7208 349.6201,229.9488 L381.6901,197.8788 C383.4611,196.1078 383.4611,193.2358 381.6901,191.4648" id="Fill-237" fill="#1D1B1C"></path>
                <path d="M304.7214,204.2675 C302.9504,202.4965 300.0784,202.4965 298.3074,204.2675 C296.5364,206.0385 296.5364,208.9105 298.3074,210.6815 L330.3774,242.7515 C332.1494,244.5235 335.0204,244.5235 336.7914,242.7515 C338.5634,240.9805 338.5634,238.1095 336.7914,236.3375 L304.7214,204.2675 Z" id="Fill-239" fill="#1D1B1C"></path>
                <path d="M214.9099,204.2778 C213.1389,202.5068 210.2669,202.5068 208.4959,204.2778 C206.7239,206.0488 206.7239,208.9208 208.4959,210.6928 L240.5659,242.7628 C242.3369,244.5328 245.2089,244.5328 246.9799,242.7628 C248.7509,240.9908 248.7509,238.1198 246.9799,236.3488 L214.9099,204.2778 Z" id="Fill-241" fill="#1D1B1C"></path>
                <path d="M434.301,229.9345 C436.072,231.7055 438.944,231.7055 440.715,229.9345 L453.543,217.1065 L453.543,204.2775 L434.301,223.5195 C432.53,225.2915 432.53,228.1635 434.301,229.9345" id="Fill-243" fill="#1D1B1C"></path>
                <path d="M19.2424,191.4501 C17.4714,189.6791 14.5994,189.6791 12.8284,191.4501 L0.0004,204.2781 L0.0004,217.1061 L19.2424,197.8641 C21.0134,196.0931 21.0134,193.2211 19.2424,191.4501" id="Fill-245" fill="#1D1B1C"></path>
                <path d="M395.1677,204.2929 C393.3967,202.5219 390.5247,202.5219 388.7537,204.2929 C386.9817,206.0639 386.9817,208.9359 388.7537,210.7069 L420.8237,242.7769 C422.5947,244.5489 425.4667,244.5489 427.2377,242.7769 C429.0087,241.0059 429.0087,238.1349 427.2377,236.3629 L395.1677,204.2929 Z" id="Fill-247" fill="#1D1B1C"></path>
                <path d="M103.923,218.1288 L71.853,250.1988 C70.082,251.9708 70.082,254.8418 71.853,256.6128 C73.624,258.3848 76.496,258.3848 78.267,256.6128 L110.337,224.5428 C112.109,222.7718 112.109,219.8998 110.337,218.1288 C108.566,216.3578 105.694,216.3578 103.923,218.1288" id="Fill-249" fill="#1D1B1C"></path>
                <path d="M195.0182,218.1288 L162.9482,250.1988 C161.1772,251.9708 161.1772,254.8418 162.9482,256.6128 C164.7192,258.3848 167.5912,258.3848 169.3622,256.6128 L201.4322,224.5428 C203.2042,222.7718 203.2042,219.8998 201.4322,218.1288 C199.6612,216.3578 196.7892,216.3578 195.0182,218.1288" id="Fill-251" fill="#1D1B1C"></path>
                <path d="M123.8147,230.9316 C122.0437,229.1606 119.1717,229.1606 117.4007,230.9316 C115.6287,232.7026 115.6287,235.5746 117.4007,237.3456 L149.4707,269.4156 C151.2417,271.1876 154.1137,271.1876 155.8847,269.4156 C157.6557,267.6446 157.6557,264.7736 155.8847,263.0016 L123.8147,230.9316 Z" id="Fill-253" fill="#1D1B1C"></path>
                <path d="M32.7194,230.9423 C30.9484,229.1713 28.0764,229.1713 26.3054,230.9423 C24.5334,232.7133 24.5334,235.5853 26.3054,237.3563 L58.3754,269.4263 C60.1464,271.1983 63.0184,271.1983 64.7894,269.4263 C66.5604,267.6553 66.5604,264.7843 64.7894,263.0123 L32.7194,230.9423 Z" id="Fill-255" fill="#1D1B1C"></path>
                <path d="M291.8932,218.1435 C290.1222,216.3725 287.2502,216.3725 285.4792,218.1435 L253.4092,250.2135 C251.6382,251.9855 251.6382,254.8575 253.4092,256.6275 C255.1802,258.3995 258.0522,258.3995 259.8232,256.6275 L291.8932,224.5575 C293.6642,222.7865 293.6642,219.9145 291.8932,218.1435" id="Fill-257" fill="#1D1B1C"></path>
                <path d="M381.6901,218.1435 C379.9191,216.3725 377.0471,216.3725 375.2761,218.1435 L343.2061,250.2135 C341.4351,251.9855 341.4351,254.8575 343.2061,256.6275 C344.9771,258.3995 347.8491,258.3995 349.6201,256.6275 L381.6901,224.5575 C383.4611,222.7865 383.4611,219.9145 381.6901,218.1435" id="Fill-259" fill="#1D1B1C"></path>
                <path d="M304.7214,230.9462 C302.9504,229.1752 300.0784,229.1752 298.3074,230.9462 C296.5364,232.7172 296.5364,235.5892 298.3074,237.3602 L330.3774,269.4302 C332.1494,271.2022 335.0204,271.2022 336.7914,269.4302 C338.5634,267.6592 338.5634,264.7882 336.7914,263.0162 L304.7214,230.9462 Z" id="Fill-261" fill="#1D1B1C"></path>
                <path d="M214.9099,230.957 C213.1389,229.186 210.2669,229.186 208.4959,230.957 C206.7239,232.728 206.7239,235.6 208.4959,237.371 L240.5659,269.441 C242.3369,271.213 245.2089,271.213 246.9799,269.441 C248.7509,267.67 248.7509,264.799 246.9799,263.027 L214.9099,230.957 Z" id="Fill-263" fill="#1D1B1C"></path>
                <path d="M434.301,256.6132 L434.301,256.6132 C436.072,258.3842 438.944,258.3842 440.715,256.6132 L453.543,243.7852 L453.543,230.9572 L434.301,250.1992 C432.53,251.9702 432.53,254.8422 434.301,256.6132" id="Fill-265" fill="#1D1B1C"></path>
                <path d="M19.2424,218.1288 C17.4714,216.3578 14.5994,216.3578 12.8284,218.1288 L0.0004,230.9568 L0.0004,243.7848 L19.2424,224.5428 C21.0134,222.7718 21.0134,219.8998 19.2424,218.1288" id="Fill-267" fill="#1D1B1C"></path>
                <path d="M395.1677,230.9716 C393.3967,229.2006 390.5247,229.2006 388.7537,230.9716 C386.9817,232.7426 386.9817,235.6156 388.7537,237.3856 L420.8237,269.4556 C422.5947,271.2276 425.4667,271.2276 427.2377,269.4556 C429.0087,267.6856 429.0087,264.8136 427.2377,263.0416 L395.1677,230.9716 Z" id="Fill-269" fill="#1D1B1C"></path>
                <path d="M103.923,244.8076 L71.853,276.8776 C70.082,278.6496 70.082,281.5216 71.853,283.2916 C73.624,285.0636 76.496,285.0636 78.267,283.2916 L110.337,251.2216 C112.109,249.4516 112.109,246.5786 110.337,244.8076 C108.566,243.0366 105.694,243.0366 103.923,244.8076" id="Fill-271" fill="#1D1B1C"></path>
                <path d="M195.0182,244.8076 L162.9482,276.8776 C161.1772,278.6496 161.1772,281.5216 162.9482,283.2916 C164.7192,285.0636 167.5912,285.0636 169.3622,283.2916 L201.4322,251.2216 C203.2042,249.4516 203.2042,246.5786 201.4322,244.8076 C199.6612,243.0366 196.7892,243.0366 195.0182,244.8076" id="Fill-273" fill="#1D1B1C"></path>
                <path d="M123.8147,257.6103 C122.0437,255.8393 119.1717,255.8393 117.4007,257.6103 C115.6287,259.3813 115.6287,262.2543 117.4007,264.0243 L149.4707,296.0943 C151.2417,297.8663 154.1137,297.8663 155.8847,296.0943 C157.6557,294.3243 157.6557,291.4523 155.8847,289.6803 L123.8147,257.6103 Z" id="Fill-275" fill="#1D1B1C"></path>
                <path d="M32.7194,257.621 C30.9484,255.85 28.0764,255.85 26.3054,257.621 C24.5334,259.392 24.5334,262.264 26.3054,264.035 L58.3754,296.105 C60.1464,297.877 63.0184,297.877 64.7894,296.105 C66.5604,294.334 66.5604,291.463 64.7894,289.691 L32.7194,257.621 Z" id="Fill-277" fill="#1D1B1C"></path>
                <path d="M291.8932,244.8232 C290.1222,243.0522 287.2502,243.0522 285.4792,244.8232 L253.4092,276.8932 C251.6382,278.6642 251.6382,281.5362 253.4092,283.3072 C255.1802,285.0782 258.0522,285.0782 259.8232,283.3072 L291.8932,251.2372 C293.6642,249.4662 293.6642,246.5942 291.8932,244.8232" id="Fill-279" fill="#1D1B1C"></path>
                <path d="M381.6901,244.8232 C379.9191,243.0522 377.0471,243.0522 375.2761,244.8232 L343.2061,276.8932 C341.4351,278.6642 341.4351,281.5362 343.2061,283.3072 C344.9771,285.0782 347.8491,285.0782 349.6201,283.3072 L381.6901,251.2372 C383.4611,249.4662 383.4611,246.5942 381.6901,244.8232" id="Fill-281" fill="#1D1B1C"></path>
                <path d="M304.7214,257.6249 C302.9504,255.8539 300.0784,255.8539 298.3074,257.6249 C296.5364,259.3959 296.5364,262.2689 298.3074,264.0399 L330.3774,296.1089 C332.1494,297.8809 335.0204,297.8809 336.7914,296.1089 C338.5634,294.3389 338.5634,291.4669 336.7914,289.6949 L304.7214,257.6249 Z" id="Fill-283" fill="#1D1B1C"></path>
                <path d="M214.9099,257.6357 C213.1389,255.8647 210.2669,255.8647 208.4959,257.6357 C206.7239,259.4067 206.7239,262.2797 208.4959,264.0497 L240.5659,296.1197 C242.3369,297.8917 245.2089,297.8917 246.9799,296.1197 C248.7509,294.3497 248.7509,291.4777 246.9799,289.7057 L214.9099,257.6357 Z" id="Fill-285" fill="#1D1B1C"></path>
                <path d="M434.301,283.2919 C436.072,285.0629 438.944,285.0629 440.715,283.2919 L453.543,270.4639 L453.543,257.6359 L434.301,276.8779 C432.53,278.6489 432.53,281.5209 434.301,283.2919" id="Fill-287" fill="#1D1B1C"></path>
                <path d="M19.2424,244.8076 C17.4714,243.0366 14.5994,243.0366 12.8284,244.8076 L0.0004,257.6356 L0.0004,270.4636 L19.2424,251.2216 C21.0134,249.4516 21.0134,246.5786 19.2424,244.8076" id="Fill-289" fill="#1D1B1C"></path>
                <path d="M395.1677,257.6513 C393.3967,255.8803 390.5247,255.8803 388.7537,257.6513 C386.9817,259.4223 386.9817,262.2943 388.7537,264.0653 L420.8237,296.1353 C422.5947,297.9063 425.4667,297.9063 427.2377,296.1353 C429.0087,294.3643 429.0087,291.4923 427.2377,289.7213 L395.1677,257.6513 Z" id="Fill-291" fill="#1D1B1C"></path>
                <path d="M110.3371,271.4872 C108.5661,269.7162 105.6941,269.7162 103.9231,271.4872 L71.8531,303.5572 C70.0821,305.3282 70.0821,308.2002 71.8531,309.9712 C73.6241,311.7422 76.4961,311.7422 78.2671,309.9712 L110.3371,277.9012 C112.1081,276.1302 112.1081,273.2582 110.3371,271.4872" id="Fill-293" fill="#1D1B1C"></path>
                <path d="M201.4323,271.4872 C199.6613,269.7162 196.7893,269.7162 195.0183,271.4872 L162.9483,303.5572 C161.1773,305.3282 161.1773,308.2002 162.9483,309.9712 C164.7193,311.7422 167.5913,311.7422 169.3623,309.9712 L201.4323,277.9012 C203.2033,276.1302 203.2033,273.2582 201.4323,271.4872" id="Fill-295" fill="#1D1B1C"></path>
                <path d="M123.8147,284.29 C122.0437,282.519 119.1717,282.519 117.4007,284.29 C115.6287,286.061 115.6287,288.933 117.4007,290.704 L149.4707,322.774 C151.2417,324.545 154.1137,324.545 155.8847,322.774 C157.6557,321.003 157.6557,318.131 155.8847,316.36 L123.8147,284.29 Z" id="Fill-297" fill="#1D1B1C"></path>
                <path d="M32.7194,284.2997 C30.9484,282.5287 28.0764,282.5287 26.3054,284.2997 C24.5334,286.0707 24.5334,288.9437 26.3054,290.7147 L58.3754,322.7847 C60.1464,324.5557 63.0184,324.5557 64.7894,322.7847 C66.5604,321.0137 66.5604,318.1417 64.7894,316.3707 L32.7194,284.2997 Z" id="Fill-299" fill="#1D1B1C"></path>
                <path d="M291.8932,271.5019 C290.1222,269.7309 287.2502,269.7309 285.4792,271.5019 L253.4092,303.5719 C251.6382,305.3439 251.6382,308.2149 253.4092,309.9859 C255.1802,311.7579 258.0522,311.7579 259.8232,309.9859 L291.8932,277.9159 C293.6642,276.1449 293.6642,273.2729 291.8932,271.5019" id="Fill-301" fill="#1D1B1C"></path>
                <path d="M381.6901,271.5019 C379.9191,269.7309 377.0471,269.7309 375.2761,271.5019 L343.2061,303.5719 C341.4351,305.3439 341.4351,308.2149 343.2061,309.9859 C344.9771,311.7579 347.8491,311.7579 349.6201,309.9859 L381.6901,277.9159 C383.4611,276.1449 383.4611,273.2729 381.6901,271.5019" id="Fill-303" fill="#1D1B1C"></path>
                <path d="M304.7214,284.3046 C302.9504,282.5336 300.0784,282.5336 298.3074,284.3046 C296.5364,286.0756 296.5364,288.9476 298.3074,290.7186 L330.3774,322.7886 C332.1494,324.5606 335.0204,324.5606 336.7914,322.7886 C338.5634,321.0176 338.5634,318.1466 336.7914,316.3746 L304.7214,284.3046 Z" id="Fill-305" fill="#1D1B1C"></path>
                <path d="M214.9099,284.3154 C213.1389,282.5444 210.2669,282.5444 208.4959,284.3154 C206.7239,286.0864 206.7239,288.9584 208.4959,290.7294 L240.5659,322.7994 C242.3369,324.5704 245.2089,324.5704 246.9799,322.7994 C248.7509,321.0284 248.7509,318.1564 246.9799,316.3854 L214.9099,284.3154 Z" id="Fill-307" fill="#1D1B1C"></path>
                <path d="M434.301,309.9716 C436.072,311.7426 438.944,311.7426 440.715,309.9716 L453.543,297.1436 L453.543,284.3156 L434.301,303.5576 C432.53,305.3276 432.53,308.2006 434.301,309.9716" id="Fill-309" fill="#1D1B1C"></path>
                <path d="M19.2424,271.4872 L19.2424,271.4872 C17.4714,269.7162 14.5994,269.7162 12.8284,271.4872 L0.0004,284.3152 L0.0004,297.1432 L19.2424,277.9012 C21.0134,276.1302 21.0134,273.2582 19.2424,271.4872" id="Fill-311" fill="#1D1B1C"></path>
                <path d="M395.1677,284.33 C393.3967,282.559 390.5247,282.559 388.7537,284.33 C386.9817,286.101 386.9817,288.973 388.7537,290.744 L420.8237,322.814 C422.5947,324.586 425.4667,324.586 427.2377,322.814 C429.0087,321.043 429.0087,318.172 427.2377,316.4 L395.1677,284.33 Z" id="Fill-313" fill="#1D1B1C"></path>
                <path d="M103.923,298.166 L71.853,330.236 C70.082,332.008 70.082,334.879 71.853,336.65 C73.624,338.422 76.496,338.422 78.267,336.65 L110.337,304.58 C112.109,302.809 112.109,299.937 110.337,298.166 C108.566,296.395 105.694,296.395 103.923,298.166" id="Fill-315" fill="#1D1B1C"></path>
                <path d="M195.0182,298.166 L162.9482,330.236 C161.1772,332.008 161.1772,334.879 162.9482,336.65 C164.7192,338.422 167.5912,338.422 169.3622,336.65 L201.4322,304.58 C203.2042,302.809 203.2042,299.937 201.4322,298.166 C199.6612,296.395 196.7892,296.395 195.0182,298.166" id="Fill-317" fill="#1D1B1C"></path>
                <path d="M123.8147,310.9687 C122.0437,309.1977 119.1717,309.1977 117.4007,310.9687 C115.6287,312.7397 115.6287,315.6117 117.4007,317.3827 L149.4707,349.4527 C151.2417,351.2247 154.1137,351.2247 155.8847,349.4527 C157.6557,347.6817 157.6557,344.8107 155.8847,343.0387 L123.8147,310.9687 Z" id="Fill-319" fill="#1D1B1C"></path>
                <path d="M32.7194,310.9794 C30.9484,309.2084 28.0764,309.2084 26.3054,310.9794 C24.5334,312.7504 24.5334,315.6224 26.3054,317.3934 L58.3754,349.4634 C60.1464,351.2354 63.0184,351.2354 64.7894,349.4634 C66.5604,347.6924 66.5604,344.8214 64.7894,343.0494 L32.7194,310.9794 Z" id="Fill-321" fill="#1D1B1C"></path>
                <path d="M291.8932,298.1806 C290.1222,296.4096 287.2502,296.4096 285.4792,298.1806 L253.4092,330.2506 C251.6382,332.0226 251.6382,334.8946 253.4092,336.6646 C255.1802,338.4366 258.0522,338.4366 259.8232,336.6646 L291.8932,304.5946 C293.6642,302.8246 293.6642,299.9516 291.8932,298.1806" id="Fill-323" fill="#1D1B1C"></path>
                <path d="M381.6901,298.1806 C379.9191,296.4096 377.0471,296.4096 375.2761,298.1806 L343.2061,330.2506 C341.4351,332.0226 341.4351,334.8946 343.2061,336.6646 C344.9771,338.4366 347.8491,338.4366 349.6201,336.6646 L381.6901,304.5946 C383.4611,302.8246 383.4611,299.9516 381.6901,298.1806" id="Fill-325" fill="#1D1B1C"></path>
                <path d="M304.7214,310.9833 C302.9504,309.2123 300.0784,309.2123 298.3074,310.9833 C296.5364,312.7543 296.5364,315.6263 298.3074,317.3973 L330.3774,349.4673 C332.1494,351.2393 335.0204,351.2393 336.7914,349.4673 C338.5634,347.6963 338.5634,344.8253 336.7914,343.0533 L304.7214,310.9833 Z" id="Fill-327" fill="#1D1B1C"></path>
                <path d="M214.9099,310.9941 C213.1389,309.2231 210.2669,309.2231 208.4959,310.9941 C206.7239,312.7651 206.7239,315.6371 208.4959,317.4081 L240.5659,349.4781 C242.3369,351.2501 245.2089,351.2501 246.9799,349.4781 C248.7509,347.7071 248.7509,344.8361 246.9799,343.0641 L214.9099,310.9941 Z" id="Fill-329" fill="#1D1B1C"></path>
                <path d="M434.301,336.6503 C436.072,338.4213 438.944,338.4213 440.715,336.6503 L453.543,323.8223 L453.543,310.9943 L434.301,330.2363 C432.53,332.0073 432.53,334.8793 434.301,336.6503" id="Fill-331" fill="#1D1B1C"></path>
                <path d="M19.2424,298.166 C17.4714,296.395 14.5994,296.395 12.8284,298.166 L0.0004,310.994 L0.0004,323.822 L19.2424,304.58 C21.0134,302.809 21.0134,299.937 19.2424,298.166" id="Fill-333" fill="#1D1B1C"></path>
                <path d="M395.1677,311.0087 C393.3967,309.2377 390.5247,309.2377 388.7537,311.0087 C386.9817,312.7797 386.9817,315.6527 388.7537,317.4227 L420.8237,349.4927 C422.5947,351.2647 425.4667,351.2647 427.2377,349.4927 C429.0087,347.7227 429.0087,344.8507 427.2377,343.0787 L395.1677,311.0087 Z" id="Fill-335" fill="#1D1B1C"></path>
                <path d="M103.923,324.8447 L71.853,356.9147 C70.082,358.6867 70.082,361.5587 71.853,363.3287 C73.624,365.1007 76.496,365.1007 78.267,363.3287 L110.337,331.2587 C112.109,329.4887 112.109,326.6157 110.337,324.8447 C108.566,323.0737 105.694,323.0737 103.923,324.8447" id="Fill-337" fill="#1D1B1C"></path>
                <path d="M195.0182,324.8447 L162.9482,356.9147 C161.1772,358.6867 161.1772,361.5587 162.9482,363.3287 C164.7192,365.1007 167.5912,365.1007 169.3622,363.3287 L201.4322,331.2587 C203.2042,329.4887 203.2042,326.6157 201.4322,324.8447 C199.6612,323.0737 196.7892,323.0737 195.0182,324.8447" id="Fill-339" fill="#1D1B1C"></path>
                <path d="M123.8147,337.6474 C122.0437,335.8764 119.1717,335.8764 117.4007,337.6474 C115.6287,339.4184 115.6287,342.2914 117.4007,344.0614 L149.4707,376.1314 C151.2417,377.9034 154.1137,377.9034 155.8847,376.1314 C157.6557,374.3614 157.6557,371.4894 155.8847,369.7174 L123.8147,337.6474 Z" id="Fill-341" fill="#1D1B1C"></path>
                <path d="M32.7194,337.6581 C30.9484,335.8871 28.0764,335.8871 26.3054,337.6581 C24.5334,339.4291 24.5334,342.3011 26.3054,344.0721 L58.3754,376.1421 C60.1464,377.9141 63.0184,377.9141 64.7894,376.1421 C66.5604,374.3711 66.5604,371.5001 64.7894,369.7281 L32.7194,337.6581 Z" id="Fill-343" fill="#1D1B1C"></path>
                <path d="M291.8932,324.8593 C290.1222,323.0883 287.2502,323.0883 285.4792,324.8593 L253.4092,356.9293 C251.6382,358.7013 251.6382,361.5733 253.4092,363.3443 C255.1802,365.1153 258.0522,365.1153 259.8232,363.3443 L291.8932,331.2743 C293.6642,329.5033 293.6642,326.6303 291.8932,324.8593" id="Fill-345" fill="#1D1B1C"></path>
                <path d="M381.6901,324.8593 C379.9191,323.0883 377.0471,323.0883 375.2761,324.8593 L343.2061,356.9293 C341.4351,358.7013 341.4351,361.5733 343.2061,363.3443 C344.9771,365.1153 347.8491,365.1153 349.6201,363.3443 L381.6901,331.2743 C383.4611,329.5033 383.4611,326.6303 381.6901,324.8593" id="Fill-347" fill="#1D1B1C"></path>
                <path d="M304.7214,337.662 C302.9504,335.891 300.0784,335.891 298.3074,337.662 C296.5364,339.433 296.5364,342.306 298.3074,344.076 L330.3774,376.146 C332.1494,377.918 335.0204,377.918 336.7914,376.146 C338.5634,374.376 338.5634,371.504 336.7914,369.732 L304.7214,337.662 Z" id="Fill-349" fill="#1D1B1C"></path>
                <path d="M214.9099,337.6728 C213.1389,335.9018 210.2669,335.9018 208.4959,337.6728 C206.7239,339.4438 206.7239,342.3168 208.4959,344.0868 L240.5659,376.1568 C242.3369,377.9288 245.2089,377.9288 246.9799,376.1568 C248.7509,374.3868 248.7509,371.5148 246.9799,369.7428 L214.9099,337.6728 Z" id="Fill-351" fill="#1D1B1C"></path>
                <path d="M434.301,363.329 L434.301,363.329 C436.072,365.1 438.944,365.1 440.715,363.329 L453.543,350.501 L453.543,337.673 L434.301,356.915 C432.53,358.686 432.53,361.558 434.301,363.329" id="Fill-353" fill="#1D1B1C"></path>
                <path d="M19.2424,324.8447 C17.4714,323.0737 14.5994,323.0737 12.8284,324.8447 L0.0004,337.6727 L0.0004,350.5007 L19.2424,331.2587 C21.0134,329.4887 21.0134,326.6157 19.2424,324.8447" id="Fill-355" fill="#1D1B1C"></path>
                <path d="M395.1677,337.6884 C393.3967,335.9174 390.5247,335.9174 388.7537,337.6884 C386.9817,339.4594 386.9817,342.3314 388.7537,344.1024 L420.8237,376.1724 C422.5947,377.9434 425.4667,377.9434 427.2377,376.1724 C429.0087,374.4014 429.0087,371.5294 427.2377,369.7584 L395.1677,337.6884 Z" id="Fill-357" fill="#1D1B1C"></path>
                <path d="M110.3371,351.5244 C108.5661,349.7534 105.6941,349.7534 103.9231,351.5244 L71.8531,383.5944 C70.0821,385.3654 70.0821,388.2374 71.8531,390.0084 C73.6241,391.7794 76.4961,391.7794 78.2671,390.0084 L110.3371,357.9384 C112.1081,356.1674 112.1081,353.2954 110.3371,351.5244" id="Fill-359" fill="#1D1B1C"></path>
                <path d="M201.4323,351.5244 C199.6613,349.7534 196.7893,349.7534 195.0183,351.5244 L162.9483,383.5944 C161.1773,385.3654 161.1773,388.2374 162.9483,390.0084 C164.7193,391.7794 167.5913,391.7794 169.3623,390.0084 L201.4323,357.9384 C203.2033,356.1674 203.2033,353.2954 201.4323,351.5244" id="Fill-361" fill="#1D1B1C"></path>
                <path d="M123.8147,364.3261 C122.0437,362.5551 119.1717,362.5551 117.4007,364.3261 C115.6287,366.0971 115.6287,368.9701 117.4007,370.7411 L149.4707,402.8111 C151.2417,404.5821 154.1137,404.5821 155.8847,402.8111 C157.6557,401.0401 157.6557,398.1681 155.8847,396.3971 L123.8147,364.3261 Z" id="Fill-363" fill="#1D1B1C"></path>
                <path d="M32.7194,364.3369 C30.9484,362.5659 28.0764,362.5659 26.3054,364.3369 C24.5334,366.1079 24.5334,368.9809 26.3054,370.7509 L58.3754,402.8209 C60.1464,404.5929 63.0184,404.5929 64.7894,402.8209 C66.5604,401.0509 66.5604,398.1789 64.7894,396.4069 L32.7194,364.3369 Z" id="Fill-365" fill="#1D1B1C"></path>
                <path d="M291.8932,351.539 C290.1222,349.768 287.2502,349.768 285.4792,351.539 L253.4092,383.609 C251.6382,385.381 251.6382,388.252 253.4092,390.023 C255.1802,391.795 258.0522,391.795 259.8232,390.023 L291.8932,357.953 C293.6642,356.182 293.6642,353.31 291.8932,351.539" id="Fill-367" fill="#1D1B1C"></path>
                <path d="M381.6901,351.539 C379.9191,349.768 377.0471,349.768 375.2761,351.539 L343.2061,383.609 C341.4351,385.381 341.4351,388.252 343.2061,390.023 C344.9771,391.795 347.8491,391.795 349.6201,390.023 L381.6901,357.953 C383.4611,356.182 383.4611,353.31 381.6901,351.539" id="Fill-369" fill="#1D1B1C"></path>
                <path d="M304.7214,364.3417 C302.9504,362.5707 300.0784,362.5707 298.3074,364.3417 C296.5364,366.1127 296.5364,368.9847 298.3074,370.7557 L330.3774,402.8257 C332.1494,404.5967 335.0204,404.5967 336.7914,402.8257 C338.5634,401.0547 338.5634,398.1827 336.7914,396.4117 L304.7214,364.3417 Z" id="Fill-371" fill="#1D1B1C"></path>
                <path d="M214.9099,364.3525 C213.1389,362.5815 210.2669,362.5815 208.4959,364.3525 C206.7239,366.1235 206.7239,368.9955 208.4959,370.7665 L240.5659,402.8365 C242.3369,404.6075 245.2089,404.6075 246.9799,402.8365 C248.7509,401.0655 248.7509,398.1935 246.9799,396.4225 L214.9099,364.3525 Z" id="Fill-373" fill="#1D1B1C"></path>
                <path d="M434.301,390.0087 C436.072,391.7797 438.944,391.7797 440.715,390.0087 L453.543,377.1807 L453.543,364.3527 L434.301,383.5947 C432.53,385.3647 432.53,388.2377 434.301,390.0087" id="Fill-375" fill="#1D1B1C"></path>
                <path d="M19.2424,351.5244 L19.2424,351.5244 C17.4714,349.7534 14.5994,349.7534 12.8284,351.5244 L0.0004,364.3524 L0.0004,377.1804 L19.2424,357.9384 C21.0134,356.1674 21.0134,353.2954 19.2424,351.5244" id="Fill-377" fill="#1D1B1C"></path>
                <path d="M395.1677,364.3671 C393.3967,362.5961 390.5247,362.5961 388.7537,364.3671 C386.9817,366.1381 386.9817,369.0101 388.7537,370.7811 L420.8237,402.8511 C422.5947,404.6231 425.4667,404.6231 427.2377,402.8511 C429.0087,401.0801 429.0087,398.2091 427.2377,396.4371 L395.1677,364.3671 Z" id="Fill-379" fill="#1D1B1C"></path>
                <path d="M103.923,378.2031 L71.853,410.2731 C70.082,412.0451 70.082,414.9161 71.853,416.6871 C73.624,418.4591 76.496,418.4591 78.267,416.6871 L110.337,384.6171 C112.109,382.8461 112.109,379.9741 110.337,378.2031 C108.566,376.4321 105.694,376.4321 103.923,378.2031" id="Fill-381" fill="#1D1B1C"></path>
                <path d="M195.0182,378.2031 L162.9482,410.2731 C161.1772,412.0451 161.1772,414.9161 162.9482,416.6871 C164.7192,418.4591 167.5912,418.4591 169.3622,416.6871 L201.4322,384.6171 C203.2042,382.8461 203.2042,379.9741 201.4322,378.2031 C199.6612,376.4321 196.7892,376.4321 195.0182,378.2031" id="Fill-383" fill="#1D1B1C"></path>
                <path d="M123.8147,391.0058 C122.0437,389.2348 119.1717,389.2348 117.4007,391.0058 C115.6287,392.7768 115.6287,395.6488 117.4007,397.4198 L149.4707,429.4898 C151.2417,431.2618 154.1137,431.2618 155.8847,429.4898 C157.6557,427.7188 157.6557,424.8478 155.8847,423.0758 L123.8147,391.0058 Z" id="Fill-385" fill="#1D1B1C"></path>
                <path d="M32.7194,391.0165 C30.9484,389.2455 28.0764,389.2455 26.3054,391.0165 C24.5334,392.7875 24.5334,395.6595 26.3054,397.4305 L58.3754,429.5005 C60.1464,431.2715 63.0184,431.2715 64.7894,429.5005 C66.5604,427.7295 66.5604,424.8585 64.7894,423.0865 L32.7194,391.0165 Z" id="Fill-387" fill="#1D1B1C"></path>
                <path d="M291.8932,378.2177 C290.1222,376.4467 287.2502,376.4467 285.4792,378.2177 L253.4092,410.2877 C251.6382,412.0597 251.6382,414.9317 253.4092,416.7017 C255.1802,418.4737 258.0522,418.4737 259.8232,416.7017 L291.8932,384.6317 C293.6642,382.8607 293.6642,379.9887 291.8932,378.2177" id="Fill-389" fill="#1D1B1C"></path>
                <path d="M381.6901,378.2177 C379.9191,376.4467 377.0471,376.4467 375.2761,378.2177 L343.2061,410.2877 C341.4351,412.0597 341.4351,414.9317 343.2061,416.7017 C344.9771,418.4737 347.8491,418.4737 349.6201,416.7017 L381.6901,384.6317 C383.4611,382.8607 383.4611,379.9887 381.6901,378.2177" id="Fill-391" fill="#1D1B1C"></path>
                <path d="M304.7214,391.0204 C302.9504,389.2494 300.0784,389.2494 298.3074,391.0204 C296.5364,392.7914 296.5364,395.6634 298.3074,397.4344 L330.3774,429.5044 C332.1494,431.2764 335.0204,431.2764 336.7914,429.5044 C338.5634,427.7334 338.5634,424.8624 336.7914,423.0904 L304.7214,391.0204 Z" id="Fill-393" fill="#1D1B1C"></path>
                <path d="M214.9099,391.0312 C213.1389,389.2602 210.2669,389.2602 208.4959,391.0312 C206.7239,392.8022 206.7239,395.6742 208.4959,397.4452 L240.5659,429.5152 C242.3369,431.2872 245.2089,431.2872 246.9799,429.5152 C248.7509,427.7442 248.7509,424.8732 246.9799,423.1012 L214.9099,391.0312 Z" id="Fill-395" fill="#1D1B1C"></path>
                <path d="M434.301,416.6874 C436.072,418.4584 438.944,418.4584 440.715,416.6874 L453.543,403.8594 L453.543,391.0314 L434.301,410.2734 C432.53,412.0444 432.53,414.9164 434.301,416.6874" id="Fill-397" fill="#1D1B1C"></path>
                <path d="M19.2424,378.2031 C17.4714,376.4321 14.5994,376.4321 12.8284,378.2031 L0.0004,391.0311 L0.0004,403.8591 L19.2424,384.6171 C21.0134,382.8461 21.0134,379.9741 19.2424,378.2031" id="Fill-399" fill="#1D1B1C"></path>
                <path d="M395.1677,391.0458 C393.3967,389.2748 390.5247,389.2748 388.7537,391.0458 C386.9817,392.8168 386.9817,395.6888 388.7537,397.4598 L420.8237,429.5298 C422.5947,431.3018 425.4667,431.3018 427.2377,429.5298 C429.0087,427.7588 429.0087,424.8878 427.2377,423.1158 L395.1677,391.0458 Z" id="Fill-401" fill="#1D1B1C"></path>
                <path d="M110.3371,431.5615 C108.5661,429.7905 105.6941,429.7905 103.9231,431.5615 L81.4841,453.9995 L94.3131,453.9995 L110.3371,437.9755 C112.1081,436.2045 112.1081,433.3325 110.3371,431.5615" id="Fill-403" fill="#1D1B1C"></path>
                <path d="M201.4323,431.5615 C199.6613,429.7905 196.7893,429.7905 195.0183,431.5615 L172.5793,453.9995 L185.4073,453.9995 L201.4323,437.9755 C203.2033,436.2045 203.2033,433.3325 201.4323,431.5615" id="Fill-405" fill="#1D1B1C"></path>
                <g id="Group-409" transform="translate(116.000000, 443.000000)">
                    <mask id="mask-36" fill="white">
                        <use xlink:href="#path-35"></use>
                    </mask>
                    <g id="Clip-408"></g>
                    <path d="M1.4006,1.3632 C-0.3704,3.1342 -0.3704,6.0072 1.4006,7.7772 L4.6226,11.0002 L17.4506,11.0002 L7.8146,1.3632 C6.0436,-0.4078 3.1716,-0.4078 1.4006,1.3632" id="Fill-407" fill="#1D1B1C" mask="url(#mask-36)"></path>
                </g>
                <path d="M26.3054,444.374 L26.3054,444.374 C24.5344,446.145 24.5344,449.018 26.3054,450.788 L29.5164,454 L42.3454,454 L32.7194,444.374 C30.9484,442.603 28.0764,442.603 26.3054,444.374" id="Fill-410" fill="#1D1B1C"></path>
                <g id="Group-414" transform="translate(263.000000, 430.000000)">
                    <mask id="mask-38" fill="white">
                        <use xlink:href="#path-37"></use>
                    </mask>
                    <g id="Clip-413"></g>
                    <path d="M28.8932,1.5761 L28.8932,1.5761 C27.1222,-0.1949 24.2502,-0.1949 22.4792,1.5761 L0.0552,24.0001 L12.8832,24.0001 L28.8932,7.9901 C30.6642,6.2191 30.6642,3.3471 28.8932,1.5761" id="Fill-412" fill="#1D1B1C" mask="url(#mask-38)"></path>
                </g>
                <g id="Group-417" transform="translate(352.000000, 430.000000)">
                    <mask id="mask-40" fill="white">
                        <use xlink:href="#path-39"></use>
                    </mask>
                    <g id="Clip-416"></g>
                    <path d="M29.6901,1.5761 L29.6901,1.5761 C27.9191,-0.1949 25.0471,-0.1949 23.2761,1.5761 L0.8521,24.0001 L13.6801,24.0001 L29.6901,7.9901 C31.4611,6.2191 31.4611,3.3471 29.6901,1.5761" id="Fill-415" fill="#1D1B1C" mask="url(#mask-40)"></path>
                </g>
                <path d="M298.3073,444.3788 C296.5363,446.1498 296.5363,449.0218 298.3073,450.7928 L301.5153,453.9998 L314.3433,453.9998 L304.7213,444.3788 C302.9503,442.6078 300.0783,442.6078 298.3073,444.3788" id="Fill-418" fill="#1D1B1C"></path>
                <path d="M208.4958,444.3896 L208.4958,444.3896 C206.7248,446.1606 206.7248,449.0326 208.4958,450.8036 L211.6918,453.9996 L224.5198,453.9996 L214.9098,444.3896 C213.1388,442.6186 210.2668,442.6186 208.4958,444.3896" id="Fill-420" fill="#1D1B1C"></path>
                <g id="Group-424" transform="translate(443.000000, 444.000000)">
                    <mask id="mask-42" fill="white">
                        <use xlink:href="#path-41"></use>
                    </mask>
                    <g id="Clip-423"></g>
                    <polygon id="Fill-422" fill="#1D1B1C" mask="url(#mask-42)" points="10.5432 0.3896 0.9322 9.9996 10.5432 9.9996"></polygon>
                </g>
                <path d="M19.2424,431.5615 C17.4714,429.7905 14.5994,429.7905 12.8284,431.5615 L0.0004,444.3895 L0.0004,453.9995 L3.2174,453.9995 L19.2424,437.9755 C21.0134,436.2045 21.0134,433.3325 19.2424,431.5615" id="Fill-425" fill="#1D1B1C"></path>
                <g id="Group-429" transform="translate(387.000000, 443.000000)">
                    <mask id="mask-44" fill="white">
                        <use xlink:href="#path-43"></use>
                    </mask>
                    <g id="Clip-428"></g>
                    <path d="M1.7536,1.4042 L1.7536,1.4042 C-0.0174,3.1752 -0.0174,6.0472 1.7536,7.8182 L4.9356,11.0002 L17.7636,11.0002 L8.1676,1.4042 C6.3966,-0.3668 3.5246,-0.3668 1.7536,1.4042" id="Fill-427" fill="#1D1B1C" mask="url(#mask-44)"></path>
                </g>
            </g>
        </g>
    </g>
</svg>