<?xml version="1.0" encoding="UTF-8"?>
<svg width="454px" height="456px" viewBox="0 0 454 456" version="1.1" xmlns="http://www.w3.org/2000/svg" xmlns:xlink="http://www.w3.org/1999/xlink">
    <title>Pattern10</title>
    <defs>
        <polygon id="path-1" points="0 0.9 13.7908 0.9 13.7908 9.972 0 9.972"></polygon>
        <polygon id="path-3" points="0.6767 0.457 9.7447 0.457 9.7447 14.0013 0.6767 14.0013"></polygon>
        <polygon id="path-5" points="0.0867 0.457 45.4407 0.457 45.4407 41.3397 0.0867 41.3397"></polygon>
        <polygon id="path-7" points="0.9365 0.457 10.0075 0.457 10.0075 32.2044 0.9365 32.2044"></polygon>
        <polygon id="path-9" points="0 0.4091 13.6059 0.4091 13.6059 45.7631 0 45.7631"></polygon>
        <polygon id="path-11" points="0.5183 0.457 45.8723 0.457 45.8723 77.6241 0.5183 77.6241"></polygon>
        <polygon id="path-13" points="0.9521 0.457 10.0211 0.457 10.0211 5.0511 0.9521 5.0511"></polygon>
        <polygon id="path-15" points="0.3847 0.457 45.7377 0.457 45.7377 41.3322 0.3847 41.3322"></polygon>
        <polygon id="path-17" points="0.8095 0.457 9.8805 0.457 9.8805 5.0512 0.8095 5.0512"></polygon>
        <polygon id="path-19" points="0.705 0.457 9.777 0.457 9.777 23.1996 0.705 23.1996"></polygon>
        <polygon id="path-21" points="0.2421 0.457 9.3121 0.457 9.3121 14.122 0.2421 14.122"></polygon>
        <polygon id="path-23" points="0 0.3641 86.4074 0.3641 86.4074 82.0061 0 82.0061"></polygon>
        <polygon id="path-25" points="0.796 0.1276 32.543 0.1276 32.543 45.4776 0.796 45.4776"></polygon>
        <polygon id="path-27" points="0.9324 0.7701 14.543 0.7701 14.543 46.1241 0.9324 46.1241"></polygon>
        <polygon id="path-29" points="0.5048 0.457 9.5728 0.457 9.5728 5.1424 0.5048 5.1424"></polygon>
        <polygon id="path-31" points="0.8183 0.457 46.1713 0.457 46.1713 32.1694 0.8183 32.1694"></polygon>
        <polygon id="path-33" points="0.5357 0.457 45.8897 0.457 45.8897 50.3093 0.5357 50.3093"></polygon>
        <polygon id="path-35" points="0 0.9006 49.8598 0.9006 49.8598 46.2546 0 46.2546"></polygon>
        <polygon id="path-37" points="0.8097 0.457 100.4767 0.457 100.4767 59.4819 0.8097 59.4819"></polygon>
        <polygon id="path-39" points="0.1601 0.457 9.2321 0.457 9.2321 5.013 0.1601 5.013"></polygon>
        <polygon id="path-41" points="0.0937 0.457 9.1647 0.457 9.1647 5.0127 0.0937 5.0127"></polygon>
        <polygon id="path-43" points="0.8045 0.457 27.9235 0.457 27.9235 23.0594 0.8045 23.0594"></polygon>
        <polygon id="path-45" points="0.369 0.457 27.489 0.457 27.489 23.0861 0.369 23.0861"></polygon>
        <polygon id="path-47" points="0.6769 0.1912 46.0299 0.1912 46.0299 32 0.6769 32"></polygon>
        <polygon id="path-49" points="0.5225 0.5322 9.5835 0.5322 9.5835 5 0.5225 5"></polygon>
        <polygon id="path-51" points="0.8095 0.2402 9.8805 0.2402 9.8805 41 0.8095 41"></polygon>
        <polygon id="path-53" points="0 0.0074 31.7477 0.0074 31.7477 9.0794 0 9.0794"></polygon>
        <polygon id="path-55" points="0.4051 0.3865 27.5211 0.3865 27.5211 23 0.4051 23"></polygon>
        <polygon id="path-57" points="0.1602 0.4371 9.2312 0.4371 9.2312 23 0.1602 23"></polygon>
        <polygon id="path-59" points="0.089 0.421 122.543 0.421 122.543 108.971 0.089 108.971"></polygon>
        <polygon id="path-61" points="0.0242 0.3638 31.543 0.3638 31.543 9.4358 0.0242 9.4358"></polygon>
        <polygon id="path-63" points="0.6931 0.1837 68.543 0.1837 68.543 45.5377 0.6931 45.5377"></polygon>
        <polygon id="path-65" points="0.1555 0.9276 31.543 0.9276 31.543 46.0926 0.1555 46.0926"></polygon>
        <polygon id="path-67" points="0.3637 0.4378 86.543 0.4378 86.543 82.0788 0.3637 82.0788"></polygon>
        <polygon id="path-69" points="0.795 0.1408 32.543 0.1408 32.543 27.2578 0.795 27.2578"></polygon>
    </defs>
    <g id="Page-1" stroke="none" stroke-width="1" fill="none" fill-rule="evenodd">
        <g id="Pattern10">
            <polygon id="Fill-1" fill="#242424" points="0 454.543 453.543 454.543 453.543 1 0 1"></polygon>
            <g id="Group-337" transform="translate(0.000000, 0.543000)">
                <path d="M135.949,213.0288 C133.447,213.0288 131.415,215.0608 131.415,217.5638 L131.415,240.8338 L99.664,240.8338 C98.413,240.8338 97.28,241.3418 96.458,242.1618 C95.638,242.9838 95.13,244.1198 95.13,245.3708 C95.13,247.8768 97.162,249.9058 99.664,249.9058 L135.949,249.9058 C138.455,249.9058 140.483,247.8768 140.483,245.3708 L140.483,235.7298 L140.483,217.4478 C140.423,214.9998 138.416,213.0288 135.949,213.0288" id="Fill-2" fill="#1D1B1C"></path>
                <path d="M317.4099,141.1245 L317.4099,141.1245 C319.9149,141.1245 321.9459,139.0935 321.9459,136.5885 L321.9459,18.5985 C321.9459,16.0935 319.9149,14.0625 317.4099,14.0625 C314.9059,14.0625 312.8749,16.0935 312.8749,18.5985 L312.8749,136.5885 C312.8749,139.0935 314.9059,141.1245 317.4099,141.1245" id="Fill-4" fill="#1D1B1C"></path>
                <g id="Group-8" transform="translate(0.000000, 149.000000)">
                    <mask id="mask-2" fill="white">
                        <use xlink:href="#path-1"></use>
                    </mask>
                    <g id="Clip-7"></g>
                    <path d="M13.7908,5.436 L13.7908,5.436 C13.7908,2.931 11.7598,0.9 9.2548,0.9 L-0.0002,0.9 L-0.0002,9.972 L9.2548,9.972 C11.7598,9.972 13.7908,7.941 13.7908,5.436" id="Fill-6" fill="#1D1B1C" mask="url(#mask-2)"></path>
                </g>
                <path d="M153.74,214.3794 L153.74,214.3794 C151.235,214.3794 149.205,216.4104 149.205,218.9144 L149.205,345.0014 C149.205,347.5054 151.235,349.5364 153.74,349.5364 C156.245,349.5364 158.275,347.5054 158.275,345.0014 L158.275,218.9144 C158.275,216.4104 156.245,214.3794 153.74,214.3794" id="Fill-9" fill="#1D1B1C"></path>
                <path d="M408.1892,95.6982 L408.1892,95.6982 C410.6942,95.6982 412.7242,93.6672 412.7242,91.1632 L412.7242,9.6772 C412.7242,7.1732 410.6942,5.1422 408.1892,5.1422 C405.6842,5.1422 403.6542,7.1732 403.6542,9.6772 L403.6542,91.1632 C403.6542,93.6672 405.6842,95.6982 408.1892,95.6982" id="Fill-11" fill="#1D1B1C"></path>
                <g id="Group-15" transform="translate(22.000000, 0.000000)">
                    <mask id="mask-4" fill="white">
                        <use xlink:href="#path-3"></use>
                    </mask>
                    <g id="Clip-14"></g>
                    <path d="M2.0047,12.6733 C2.8227,13.4923 3.9557,14.0013 5.2107,14.0013 C7.7167,14.0013 9.7447,11.9723 9.7447,9.4673 L9.7447,0.4563 L0.6767,0.4563 L0.6767,9.4673 C0.6767,10.7213 1.1857,11.8543 2.0047,12.6733" id="Fill-13" fill="#1D1B1C" mask="url(#mask-4)"></path>
                </g>
                <g id="Group-18" transform="translate(331.000000, 0.000000)">
                    <mask id="mask-6" fill="white">
                        <use xlink:href="#path-5"></use>
                    </mask>
                    <g id="Clip-17"></g>
                    <path d="M0.0867,36.8047 C0.0867,39.3107 2.1157,41.3397 4.6207,41.3397 L40.9057,41.3397 C42.1597,41.3397 43.2927,40.8307 44.1117,40.0117 C44.9317,39.1917 45.4407,38.0587 45.4407,36.8047 C45.4407,34.2997 43.4117,32.2707 40.9057,32.2707 L9.1587,32.2707 L9.1587,0.5197 C9.1587,0.4987 9.1557,0.4777 9.1557,0.4567 L0.0897,0.4567 C0.0897,0.4777 0.0867,0.4987 0.0867,0.5197 L0.0867,36.8047 Z" id="Fill-16" fill="#1D1B1C" mask="url(#mask-6)"></path>
                </g>
                <g id="Group-21" transform="translate(439.000000, 0.000000)">
                    <mask id="mask-8" fill="white">
                        <use xlink:href="#path-7"></use>
                    </mask>
                    <g id="Clip-20"></g>
                    <path d="M2.2635,30.8764 C3.0865,31.6954 4.2225,32.2044 5.4735,32.2044 C7.9795,32.2044 10.0075,30.1724 10.0075,27.6694 L10.0075,0.4564 L0.9365,0.4564 L0.9365,27.6694 C0.9365,28.9214 1.4455,30.0544 2.2635,30.8764" id="Fill-19" fill="#1D1B1C" mask="url(#mask-8)"></path>
                </g>
                <path d="M27.1346,213.3965 L63.4166,213.3965 C64.6676,213.3965 65.8006,212.8915 66.6226,212.0685 C67.0326,211.6555 67.3646,211.1695 67.5956,210.6255 C67.8226,210.0815 67.9506,209.4865 67.9506,208.8585 L67.9506,177.1115 L99.6976,177.1115 C102.2036,177.1115 104.2366,175.0835 104.2366,172.5775 C104.2366,170.0715 102.2036,168.0425 99.6976,168.0425 L63.4166,168.0425 C62.1616,168.0425 61.0296,168.5515 60.2096,169.3715 C59.3916,170.1905 58.8816,171.3235 58.8816,172.5775 L58.8816,204.3245 L27.1346,204.3245 C25.8806,204.3245 24.7476,204.8335 23.9286,205.6525 C23.1096,206.4755 22.6006,207.6115 22.6006,208.8625 C22.6006,211.3645 24.6296,213.3965 27.1346,213.3965" id="Fill-22" fill="#1D1B1C"></path>
                <path d="M85.9099,99.7212 C85.9099,97.2152 83.8819,95.1832 81.3759,95.1832 C78.8699,95.1832 76.8419,97.2152 76.8419,99.7212 L76.8419,136.0032 C76.8419,137.2572 77.3499,138.3902 78.1699,139.2092 C78.9889,140.0282 80.1219,140.5372 81.3759,140.5372 L113.1229,140.5372 L113.1229,172.2842 C113.1229,173.5382 113.6319,174.6712 114.4509,175.4912 C115.2729,176.3102 116.4099,176.8192 117.6609,176.8192 C120.1629,176.8192 122.1949,174.7902 122.1949,172.2842 L122.1949,136.0032 C122.1949,134.7512 121.6889,133.6182 120.8669,132.7962 C120.4539,132.3872 119.9679,132.0542 119.4239,131.8242 C118.8799,131.5962 118.2849,131.4682 117.6579,131.4682 L85.9099,131.4682 L85.9099,99.7212 Z" id="Fill-24" fill="#1D1B1C"></path>
                <path d="M84.8123,230.2519 C85.2213,229.8389 85.5543,229.3529 85.7853,228.8089 C86.0123,228.2649 86.1403,227.6689 86.1403,227.0429 L86.1403,195.2949 L117.8873,195.2949 C120.3933,195.2949 122.4253,193.2659 122.4253,190.7609 C122.4253,188.2549 120.3933,186.2259 117.8873,186.2259 L81.6063,186.2259 C80.3513,186.2259 79.2183,186.7349 78.3993,187.5539 C77.5803,188.3739 77.0713,189.5059 77.0713,190.7609 L77.0713,222.5079 L45.3243,222.5079 C44.0703,222.5079 42.9373,223.0169 42.1183,223.8359 C41.2983,224.6579 40.7903,225.7939 40.7903,227.0449 C40.7903,229.5479 42.8193,231.5799 45.3243,231.5799 L81.6063,231.5799 C82.8573,231.5799 83.9903,231.0739 84.8123,230.2519" id="Fill-26" fill="#1D1B1C"></path>
                <path d="M26.9842,304.2329 L58.7312,304.2329 L58.7312,335.9799 C58.7312,337.2339 59.2402,338.3669 60.0592,339.1869 C60.8812,340.0059 62.0172,340.5149 63.2682,340.5149 C65.7712,340.5149 67.8022,338.4859 67.8022,335.9799 L67.8022,299.6989 C67.8022,298.4469 67.2972,297.3149 66.4752,296.4919 C66.0622,296.0829 65.5762,295.7499 65.0322,295.5199 C64.4882,295.2919 63.8922,295.1639 63.2652,295.1639 L31.5182,295.1639 L31.5182,263.4169 C31.5182,260.9109 29.4892,258.8789 26.9842,258.8789 C24.4782,258.8789 22.4492,260.9109 22.4492,263.4169 L22.4492,299.6989 C22.4492,300.9529 22.9582,302.0859 23.7772,302.9049 C24.5962,303.7239 25.7292,304.2329 26.9842,304.2329" id="Fill-28" fill="#1D1B1C"></path>
                <path d="M9.3015,340.7837 L41.0485,340.7837 L41.0485,372.5317 C41.0485,373.7857 41.5575,374.9187 42.3765,375.7377 C43.1985,376.5567 44.3345,377.0657 45.5855,377.0657 C48.0885,377.0657 50.1205,375.0367 50.1205,372.5317 L50.1205,336.2497 C50.1205,334.9987 49.6145,333.8657 48.7925,333.0427 C48.3795,332.6337 47.8935,332.3007 47.3495,332.0707 C46.8055,331.8437 46.2095,331.7157 45.5825,331.7157 L13.8355,331.7157 L13.8355,299.9677 C13.8355,297.4627 11.8065,295.4297 9.3015,295.4297 C6.7955,295.4297 4.7675,297.4627 4.7675,299.9677 L4.7675,336.2497 C4.7675,337.5037 5.2765,338.6367 6.0945,339.4557 C6.9135,340.2747 8.0465,340.7837 9.3015,340.7837" id="Fill-30" fill="#1D1B1C"></path>
                <path d="M167.8084,236.0278 C167.8084,237.2818 168.3174,238.4148 169.1364,239.2338 C169.9584,240.0528 171.0944,240.5618 172.3454,240.5618 C174.8484,240.5618 176.8804,238.5328 176.8804,236.0278 L176.8804,199.7458 C176.8804,198.4948 176.3744,197.3618 175.5524,196.5398 C175.1394,196.1298 174.6534,195.7978 174.1094,195.5668 C173.5654,195.3398 172.9694,195.2118 172.3424,195.2118 L140.5954,195.2118 L140.5954,163.4648 C140.5954,160.9588 138.5674,158.9268 136.0614,158.9268 C133.5554,158.9268 131.5274,160.9588 131.5274,163.4648 L131.5274,199.7458 C131.5274,201.0008 132.0364,202.1328 132.8544,202.9528 C133.6734,203.7718 134.8064,204.2798 136.0614,204.2798 L167.8084,204.2798 L167.8084,236.0278 Z" id="Fill-32" fill="#1D1B1C"></path>
                <path d="M246.6775,359.2886 C246.1335,359.0606 245.5375,358.9336 244.9105,358.9336 L213.1635,358.9336 L213.1635,327.1856 C213.1635,324.6806 211.1345,322.6486 208.6295,322.6486 C206.1235,322.6486 204.0955,324.6806 204.0955,327.1856 L204.0955,363.4676 C204.0955,364.7226 204.6045,365.8546 205.4225,366.6736 C206.2415,367.4936 207.3745,368.0016 208.6295,368.0016 L240.3765,368.0016 L240.3765,399.7486 C240.3765,401.0036 240.8855,402.1366 241.7045,402.9556 C242.5275,403.7746 243.6625,404.2836 244.9135,404.2836 C247.4165,404.2836 249.4485,402.2546 249.4485,399.7486 L249.4485,363.4676 C249.4485,362.2166 248.9435,361.0836 248.1205,360.2616 C247.7075,359.8516 247.2215,359.5186 246.6775,359.2886" id="Fill-34" fill="#1D1B1C"></path>
                <path d="M353.9041,95.6982 C356.4091,95.6982 358.4381,93.6662 358.4381,91.1602 L358.4381,59.4132 L390.1851,59.4132 C390.8121,59.4132 391.4081,59.2852 391.9521,59.0582 C392.4961,58.8282 392.9821,58.4952 393.3951,58.0852 C394.2171,57.2632 394.7231,56.1302 394.7231,54.8792 L394.7231,18.5972 C394.7231,16.0922 392.6911,14.0632 390.1881,14.0632 C388.9371,14.0632 387.8011,14.5722 386.9791,15.3912 C386.1601,16.2102 385.6511,17.3432 385.6511,18.5972 L385.6511,50.3442 L353.9041,50.3442 C352.6491,50.3442 351.5161,50.8532 350.6971,51.6732 C349.8791,52.4912 349.3691,53.6242 349.3691,54.8792 L349.3691,91.1602 C349.3691,93.6662 351.3981,95.6982 353.9041,95.6982" id="Fill-36" fill="#1D1B1C"></path>
                <g id="Group-40" transform="translate(0.000000, 41.000000)">
                    <mask id="mask-10" fill="white">
                        <use xlink:href="#path-9"></use>
                    </mask>
                    <g id="Clip-39"></g>
                    <path d="M4.5379,41.2251 C4.5379,43.7301 6.5659,45.7631 9.0719,45.7631 C11.5779,45.7631 13.6059,43.7301 13.6059,41.2251 L13.6059,4.9431 C13.6059,3.6891 13.0979,2.5561 12.2779,1.7371 C11.4589,0.9181 10.3259,0.4091 9.0719,0.4091 L-0.0001,0.4091 L-0.0001,9.4781 L4.5379,9.4781 L4.5379,41.2251 Z" id="Fill-38" fill="#1D1B1C" mask="url(#mask-10)"></path>
                </g>
                <g id="Group-43" transform="translate(258.000000, 0.000000)">
                    <mask id="mask-12" fill="white">
                        <use xlink:href="#path-11"></use>
                    </mask>
                    <g id="Clip-42"></g>
                    <path d="M0.5183,36.8081 C0.5183,38.0621 1.0273,39.1951 1.8463,40.0151 C2.6653,40.8331 3.7983,41.3421 5.0523,41.3421 L36.8003,41.3421 L36.8003,73.0901 C36.8003,74.3441 37.3093,75.4771 38.1273,76.2961 C38.9513,77.1151 40.0863,77.6241 41.3373,77.6241 C43.8393,77.6241 45.8723,75.5951 45.8723,73.0901 L45.8723,36.8081 C45.8723,35.5571 45.3673,34.4241 44.5433,33.6011 C44.1313,33.1921 43.6453,32.8591 43.1013,32.6291 C42.5563,32.4021 41.9613,32.2731 41.3343,32.2731 L9.5873,32.2731 L9.5873,0.5261 C9.5873,0.5031 9.5833,0.4801 9.5833,0.4561 L0.5223,0.4561 C0.5213,0.4801 0.5183,0.5031 0.5183,0.5261 L0.5183,36.8081 Z" id="Fill-41" fill="#1D1B1C" mask="url(#mask-12)"></path>
                </g>
                <g id="Group-46" transform="translate(185.000000, 0.000000)">
                    <mask id="mask-14" fill="white">
                        <use xlink:href="#path-13"></use>
                    </mask>
                    <g id="Clip-45"></g>
                    <path d="M2.2801,3.7231 C3.0991,4.5421 4.2351,5.0511 5.4871,5.0511 C7.9921,5.0511 10.0211,3.0191 10.0211,0.5171 L10.0211,0.4561 L0.9521,0.4561 L0.9521,0.5171 C0.9521,1.7681 1.4581,2.9011 2.2801,3.7231" id="Fill-44" fill="#1D1B1C" mask="url(#mask-14)"></path>
                </g>
                <g id="Group-49" transform="translate(113.000000, 0.000000)">
                    <mask id="mask-16" fill="white">
                        <use xlink:href="#path-15"></use>
                    </mask>
                    <g id="Clip-48"></g>
                    <path d="M1.7127,3.7192 C2.1257,4.1292 2.6117,4.4622 3.1557,4.6922 C3.6997,4.9192 4.2947,5.0472 4.9227,5.0472 L36.6697,5.0472 L36.6697,36.7952 C36.6697,39.3002 38.6977,41.3322 41.2037,41.3322 C43.7097,41.3322 45.7377,39.3002 45.7377,36.7952 L45.7377,0.5132 C45.7377,0.4942 45.7347,0.4752 45.7347,0.4562 L0.3847,0.4562 L0.3847,0.5132 C0.3847,1.7642 0.8907,2.8972 1.7127,3.7192" id="Fill-47" fill="#1D1B1C" mask="url(#mask-16)"></path>
                </g>
                <g id="Group-52" transform="translate(167.000000, 0.000000)">
                    <mask id="mask-18" fill="white">
                        <use xlink:href="#path-17"></use>
                    </mask>
                    <g id="Clip-51"></g>
                    <path d="M5.3455,5.0512 C7.8505,5.0512 9.8805,3.0212 9.8805,0.5162 L9.8805,0.4562 L0.8095,0.4562 L0.8095,0.5162 C0.8095,3.0212 2.8405,5.0512 5.3455,5.0512" id="Fill-50" fill="#1D1B1C" mask="url(#mask-18)"></path>
                </g>
                <path d="M172.3455,314.458 C174.8505,314.458 176.8805,312.427 176.8805,309.923 L176.8805,273.639 C176.8805,271.134 174.8505,269.104 172.3455,269.104 C169.8405,269.104 167.8095,271.134 167.8095,273.639 L167.8095,309.923 C167.8095,312.427 169.8405,314.458 172.3455,314.458" id="Fill-53" fill="#1D1B1C"></path>
                <path d="M263.0828,269.1035 C260.5778,269.1035 258.5478,271.1345 258.5478,273.6395 L258.5478,309.9225 C258.5478,312.4275 260.5778,314.4575 263.0828,314.4575 C265.5878,314.4575 267.6188,312.4275 267.6188,309.9225 L267.6188,273.6395 C267.6188,271.1345 265.5878,269.1035 263.0828,269.1035" id="Fill-55" fill="#1D1B1C"></path>
                <path d="M81.6072,394.5063 C84.1122,394.5063 86.1432,392.4753 86.1432,389.9703 L86.1432,299.9653 C86.1432,297.4613 84.1122,295.4303 81.6072,295.4303 C79.1022,295.4303 77.0722,297.4613 77.0722,299.9653 L77.0722,389.9703 C77.0722,392.4753 79.1022,394.5063 81.6072,394.5063" id="Fill-57" fill="#1D1B1C"></path>
                <g id="Group-61" transform="translate(276.000000, 0.000000)">
                    <mask id="mask-20" fill="white">
                        <use xlink:href="#path-19"></use>
                    </mask>
                    <g id="Clip-60"></g>
                    <path d="M2.033,21.8716 C2.855,22.6906 3.988,23.1996 5.239,23.1996 C7.745,23.1996 9.777,21.1676 9.777,18.6626 L9.777,0.4566 L0.705,0.4566 L0.705,18.6626 C0.705,19.9166 1.214,21.0496 2.033,21.8716" id="Fill-59" fill="#1D1B1C" mask="url(#mask-20)"></path>
                </g>
                <path d="M58.8865,154.3925 C58.8865,155.6435 59.3955,156.7765 60.2145,157.5985 C61.0365,158.4175 62.1695,158.9265 63.4245,158.9265 L99.7055,158.9265 C102.2115,158.9265 104.2435,156.8945 104.2435,154.3925 L104.2435,154.3895 C104.2435,151.8865 102.2115,149.8545 99.7055,149.8545 L67.9585,149.8545 L67.9585,136.3445 C67.9585,134.4785 66.8325,132.8725 65.2225,132.1785 C64.8065,131.9985 64.3595,131.8775 63.8885,131.8295 C63.7315,131.8125 63.5725,131.8035 63.4115,131.8035 L27.1295,131.8035 C25.8755,131.8035 24.7425,132.3125 23.9205,133.1315 C23.1015,133.9545 22.5925,135.0865 22.5925,136.3375 C22.5925,138.8435 24.6245,140.8755 27.1295,140.8755 L58.8865,140.8755 L58.8865,154.3925 Z" id="Fill-62" fill="#1D1B1C"></path>
                <path d="M63.6248,122.7329 C66.1308,122.7329 68.1628,120.7009 68.1628,118.1949 L68.1628,86.4389 L81.6798,86.4389 C82.9308,86.4389 84.0628,85.9299 84.8858,85.1099 C85.7048,84.2879 86.2138,83.1549 86.2138,81.9009 L86.2138,45.6189 C86.2138,43.1139 84.1828,41.0819 81.6798,41.0819 L81.6768,41.0819 C79.1738,41.0819 77.1428,43.1139 77.1428,45.6189 L77.1428,77.3659 L63.6318,77.3659 C61.7668,77.3659 60.1598,78.4929 59.4658,80.1029 C59.2858,80.5189 59.1648,80.9659 59.1158,81.4369 C59.1008,81.5939 59.0908,81.7539 59.0908,81.9139 L59.0908,118.1949 C59.0908,119.4499 59.5998,120.5829 60.4188,121.4049 C61.2408,122.2239 62.3738,122.7329 63.6248,122.7329" id="Fill-64" fill="#1D1B1C"></path>
                <path d="M45.3533,122.7329 C47.8583,122.7329 49.8883,120.7019 49.8883,118.1969 L49.8883,81.9139 C49.8883,79.4089 47.8583,77.3789 45.3533,77.3789 C42.8483,77.3789 40.8183,79.4089 40.8183,81.9139 L40.8183,118.1969 C40.8183,120.7019 42.8483,122.7329 45.3533,122.7329" id="Fill-66" fill="#1D1B1C"></path>
                <g id="Group-70" transform="translate(95.000000, 0.000000)">
                    <mask id="mask-22" fill="white">
                        <use xlink:href="#path-21"></use>
                    </mask>
                    <g id="Clip-69"></g>
                    <path d="M4.7771,14.122 L4.7771,14.122 C7.2821,14.122 9.3121,12.092 9.3121,9.587 L9.3121,0.456 L0.2421,0.456 L0.2421,9.587 C0.2421,12.092 2.2721,14.122 4.7771,14.122" id="Fill-68" fill="#1D1B1C" mask="url(#mask-22)"></path>
                </g>
                <path d="M31.742,100.3051 L31.742,68.5581 L63.493,68.5581 C64.747,68.5581 65.884,68.0461 66.702,67.2231 C67.128,66.7981 67.468,66.2891 67.694,65.7261 C67.912,65.1981 68.03,64.6221 68.03,64.0171 L68.03,27.7351 C68.03,26.4811 67.521,25.3481 66.702,24.5261 C65.88,23.7061 64.747,23.1981 63.493,23.1981 C60.99,23.1981 58.959,25.2301 58.959,27.7351 L58.959,59.4861 L27.208,59.4861 C24.702,59.4861 22.674,61.5141 22.674,64.0201 L22.674,95.7671 L0,95.7701 L0,104.8391 L27.208,104.8391 C29.714,104.8391 31.742,102.8101 31.742,100.3051" id="Fill-71" fill="#1D1B1C"></path>
                <g id="Group-75" transform="translate(0.000000, 204.000000)">
                    <mask id="mask-24" fill="white">
                        <use xlink:href="#path-23"></use>
                    </mask>
                    <g id="Clip-74"></g>
                    <path d="M4.7654,41.1831 C4.7654,43.6891 6.7934,45.7181 9.2994,45.7181 L41.0464,45.7181 L41.0464,77.4681 C41.0464,78.7231 41.5594,79.8581 42.3814,80.6781 C42.8064,81.1031 43.3164,81.4421 43.8784,81.6701 C44.4074,81.8871 44.9834,82.0061 45.5874,82.0061 L81.8694,82.0061 C83.1234,82.0061 84.2564,81.4971 85.0784,80.6781 C85.8984,79.8551 86.4074,78.7231 86.4074,77.4681 C86.4074,74.9661 84.3744,72.9331 81.8694,72.9331 L50.1194,72.9331 L50.1194,41.1831 C50.1194,38.6781 48.0894,36.6491 45.5844,36.6491 L13.8374,36.6491 L13.8334,4.9021 C13.8334,2.3961 11.8054,0.3641 9.2994,0.3641 L-0.0006,0.3641 L-0.0006,9.4361 L4.7654,9.4361 L4.7654,41.1831 Z" id="Fill-73" fill="#1D1B1C" mask="url(#mask-24)"></path>
                </g>
                <path d="M258.4812,127.623 L258.4812,159.371 L226.7302,159.371 C225.4762,159.371 224.3402,159.882 223.5212,160.705 C223.0952,161.13 222.7562,161.639 222.5292,162.203 C222.3112,162.73 222.1932,163.307 222.1932,163.911 L222.1932,200.193 C222.1932,201.447 222.7022,202.58 223.5212,203.402 C224.3432,204.222 225.4762,204.73 226.7302,204.73 C229.2332,204.73 231.2652,202.698 231.2652,200.193 L231.2652,168.442 L263.0152,168.442 C265.5212,168.442 267.5492,166.414 267.5492,163.908 L267.5492,132.161 L299.2962,132.158 C301.8022,132.158 303.8352,130.129 303.8352,127.623 L303.8352,91.342 C303.8352,88.836 301.8022,86.804 299.2962,86.804 C296.7942,86.804 294.7622,88.836 294.7622,91.342 L294.7622,123.089 L263.0152,123.089 C260.5092,123.089 258.4812,125.118 258.4812,127.623" id="Fill-76" fill="#1D1B1C"></path>
                <path d="M172.5203,186.5273 C173.7743,186.5273 174.9073,186.0183 175.7303,185.1993 C176.5483,184.3773 177.0583,183.2443 177.0583,181.9893 L177.0583,145.7083 C177.0583,145.1033 176.9393,144.5273 176.7213,143.9993 C176.4953,143.4363 176.1553,142.9273 175.7303,142.5023 C174.9113,141.6793 173.7743,141.1673 172.5203,141.1673 L140.7693,141.1673 L140.7693,109.4203 C140.7693,106.9143 138.7413,104.8853 136.2353,104.8853 L104.4883,104.8853 L104.4883,73.1383 C104.4883,70.6333 102.4563,68.6013 99.9543,68.6013 C97.4483,68.6013 95.4163,70.6333 95.4163,73.1383 L95.4163,109.4203 C95.4163,111.9253 97.4483,113.9543 99.9543,113.9543 L131.7013,113.9583 L131.7013,145.7053 C131.7013,148.2113 133.7303,150.2393 136.2353,150.2393 L167.9863,150.2393 L167.9863,181.9893 C167.9863,184.4953 170.0183,186.5273 172.5203,186.5273" id="Fill-78" fill="#1D1B1C"></path>
                <path d="M172.2703,258.4604 L208.5513,258.4604 C211.0573,258.4604 213.0853,256.4284 213.0853,253.9224 L213.0893,222.1754 L244.8363,222.1754 C247.3423,222.1754 249.3713,220.1464 249.3713,217.6414 L249.3713,185.8904 L281.1223,185.8904 C283.6263,185.8904 285.6593,183.8584 285.6593,181.3564 C285.6593,180.1024 285.1503,178.9694 284.3313,178.1464 C283.5083,177.3274 282.3753,176.8184 281.1223,176.8184 L244.8393,176.8184 C244.2353,176.8184 243.6593,176.9374 243.1303,177.1544 C242.5683,177.3814 242.0593,177.7214 241.6333,178.1464 C240.8113,178.9654 240.2983,180.1024 240.2983,181.3564 L240.2983,213.1064 L208.5513,213.1064 C206.0463,213.1064 204.0173,215.1354 204.0173,217.6414 L204.0173,249.3884 L172.2703,249.3884 C169.7643,249.3884 167.7323,251.4204 167.7323,253.9224 C167.7323,256.4284 169.7643,258.4604 172.2703,258.4604" id="Fill-80" fill="#1D1B1C"></path>
                <g id="Group-84" transform="translate(421.000000, 5.000000)">
                    <mask id="mask-26" fill="white">
                        <use xlink:href="#path-25"></use>
                    </mask>
                    <g id="Clip-83"></g>
                    <path d="M9.868,4.6616 C9.868,3.4076 9.359,2.2746 8.54,1.4556 C7.718,0.6366 6.582,0.1276 5.331,0.1276 C2.828,0.1276 0.796,2.1566 0.796,4.6616 L0.796,40.9436 C0.796,42.1946 1.302,43.3276 2.124,44.1496 C2.537,44.5596 3.023,44.8916 3.567,45.1226 C4.111,45.3496 4.707,45.4776 5.334,45.4776 L32.544,45.4776 L32.544,36.4086 L9.868,36.4086 L9.868,4.6616 Z" id="Fill-82" fill="#1D1B1C" mask="url(#mask-26)"></path>
                </g>
                <g id="Group-87" transform="translate(439.000000, 95.000000)">
                    <mask id="mask-28" fill="white">
                        <use xlink:href="#path-27"></use>
                    </mask>
                    <g id="Clip-86"></g>
                    <path d="M0.9324,5.3051 L0.9324,41.5871 C0.9324,44.0921 2.9634,46.1241 5.4694,46.1241 C7.9724,46.1241 10.0034,44.0921 10.0034,41.5871 L10.0034,9.8391 L14.5434,9.8391 L14.5434,0.7701 L5.4694,0.7701 C2.9634,0.7701 0.9324,2.7991 0.9324,5.3051" id="Fill-85" fill="#1D1B1C" mask="url(#mask-28)"></path>
                </g>
                <g id="Group-90" transform="translate(385.000000, 0.000000)">
                    <mask id="mask-30" fill="white">
                        <use xlink:href="#path-29"></use>
                    </mask>
                    <g id="Clip-89"></g>
                    <path d="M1.8318,3.8144 C2.6508,4.6334 3.7838,5.1424 5.0388,5.1424 C7.5438,5.1424 9.5728,3.1134 9.5728,0.6074 L9.5728,0.4564 L0.5048,0.4564 L0.5048,0.6074 C0.5048,1.8624 1.0128,2.9954 1.8318,3.8144" id="Fill-88" fill="#1D1B1C" mask="url(#mask-30)"></path>
                </g>
                <g id="Group-93" transform="translate(40.000000, 0.000000)">
                    <mask id="mask-32" fill="white">
                        <use xlink:href="#path-31"></use>
                    </mask>
                    <g id="Clip-92"></g>
                    <path d="M2.1453,12.7964 C2.9683,13.6154 4.1013,14.1244 5.3553,14.1244 L37.1023,14.1244 L37.1023,27.6354 C37.1023,28.8894 37.6113,30.0224 38.4303,30.8414 C39.2493,31.6604 40.3823,32.1694 41.6363,32.1694 C44.1423,32.1694 46.1713,30.1404 46.1713,27.6354 L46.1713,9.5874 C46.1713,7.0814 44.1423,5.0524 41.6363,5.0524 L9.8893,5.0524 L9.8893,0.4564 L0.8183,0.4564 L0.8183,9.5874 C0.8183,10.8414 1.3273,11.9744 2.1453,12.7964" id="Fill-91" fill="#1D1B1C" mask="url(#mask-32)"></path>
                </g>
                <g id="Group-96" transform="translate(4.000000, 0.000000)">
                    <mask id="mask-34" fill="white">
                        <use xlink:href="#path-33"></use>
                    </mask>
                    <g id="Clip-95"></g>
                    <path d="M0.6287,28.6133 C0.6577,28.7603 0.6957,28.9043 0.7407,29.0453 C0.9587,29.7563 1.3497,30.3923 1.8637,30.9073 C2.1717,31.2153 2.5237,31.4773 2.9077,31.6883 C3.0387,31.7593 3.1697,31.8223 3.3047,31.8803 C3.8487,32.1083 4.4467,32.2363 5.0707,32.2363 L36.8177,32.2363 L36.8177,45.7753 C36.8177,47.0293 37.3267,48.1623 38.1467,48.9813 C38.9687,49.8003 40.1017,50.3093 41.3557,50.3093 C43.8607,50.3093 45.8897,48.2803 45.8897,45.7753 L45.8897,27.7273 C45.8897,27.6503 45.8867,27.5703 45.8837,27.4933 C45.8807,27.4203 45.8737,27.3423 45.8677,27.2693 C45.6527,24.9653 43.7137,23.1633 41.3557,23.1633 L9.6057,23.1633 L9.6057,0.4563 L0.5357,0.4563 L0.5357,27.6983 C0.5357,28.0113 0.5677,28.3193 0.6287,28.6133" id="Fill-94" fill="#1D1B1C" mask="url(#mask-34)"></path>
                </g>
                <g id="Group-99" transform="translate(0.000000, 149.000000)">
                    <mask id="mask-36" fill="white">
                        <use xlink:href="#path-35"></use>
                    </mask>
                    <g id="Clip-98"></g>
                    <path d="M28.1648,46.1616 C28.3108,46.1326 28.4558,46.0946 28.5968,46.0496 C29.3068,45.8316 29.9428,45.4416 30.4588,44.9266 C30.7668,44.6196 31.0278,44.2666 31.2398,43.8826 C31.3108,43.7516 31.3738,43.6206 31.4318,43.4866 C31.6588,42.9426 31.7868,42.3436 31.7868,41.7196 L31.7868,9.9726 L45.3258,9.9726 C46.5808,9.9726 47.7138,9.4636 48.5328,8.6446 C49.3518,7.8226 49.8598,6.6896 49.8598,5.4346 C49.8598,2.9296 47.8318,0.9006 45.3258,0.9006 L27.2778,0.9006 C27.2008,0.9006 27.1208,0.9036 27.0448,0.9076 C26.9708,0.9106 26.8938,0.9166 26.8198,0.9226 C24.5168,1.1376 22.7148,3.0766 22.7148,5.4346 L22.7148,37.1856 L-0.0002,37.1856 L-0.0002,46.2546 L27.2498,46.2546 C27.5628,46.2546 27.8698,46.2226 28.1648,46.1616" id="Fill-97" fill="#1D1B1C" mask="url(#mask-36)"></path>
                </g>
                <g id="Group-102" transform="translate(149.000000, 0.000000)">
                    <mask id="mask-38" fill="white">
                        <use xlink:href="#path-37"></use>
                    </mask>
                    <g id="Clip-101"></g>
                    <path d="M23.4207,14.1279 C23.1077,14.1279 22.8007,14.1599 22.5057,14.2209 C22.3587,14.2499 22.2147,14.2879 22.0737,14.3329 C21.3627,14.5499 20.7267,14.9409 20.2107,15.4559 C19.9037,15.7629 19.6417,16.1149 19.4307,16.4989 C19.3597,16.6299 19.2957,16.7619 19.2377,16.8959 C19.0117,17.4399 18.8837,18.0389 18.8837,18.6629 L18.8837,50.4099 L5.3447,50.4099 C4.0897,50.4099 2.9567,50.9189 2.1377,51.7379 C1.3177,52.5599 0.8097,53.6929 0.8097,54.9469 C0.8097,57.4529 2.8387,59.4819 5.3447,59.4819 L23.3927,59.4819 C23.4687,59.4819 23.5487,59.4789 23.6257,59.4749 C23.6987,59.4719 23.7757,59.4659 23.8497,59.4589 C26.1537,59.2449 27.9547,57.3059 27.9547,54.9469 L27.9547,23.1969 L95.9397,23.1969 C98.4447,23.1969 100.4767,21.1679 100.4767,18.6629 L100.4767,0.4569 L91.4047,0.4569 L91.4047,14.1279 L23.4207,14.1279 Z" id="Fill-100" fill="#1D1B1C" mask="url(#mask-38)"></path>
                </g>
                <path d="M131.5242,353.7519 C131.5242,356.2569 133.5562,358.2859 136.0622,358.2859 C138.5642,358.2859 140.5962,356.2569 140.5962,353.7519 L140.5962,335.7039 C140.5962,334.4529 140.0872,333.3169 139.2682,332.4979 C138.4462,331.6749 137.3132,331.1689 136.0622,331.1689 L104.3112,331.1689 L104.3112,263.1859 C104.3112,262.8719 104.2792,262.5649 104.2182,262.2709 C104.1902,262.1229 104.1512,261.9789 104.1062,261.8379 C103.8892,261.1279 103.4992,260.4909 102.9832,259.9759 C102.6762,259.6689 102.3242,259.4059 101.9402,259.1949 C101.8092,259.1249 101.6772,259.0609 101.5442,259.0029 C101.0002,258.7759 100.4012,258.6479 99.7772,258.6479 L68.0302,258.6479 L68.0302,245.1089 C68.0302,243.8549 67.5212,242.7219 66.7022,241.9019 C65.8792,241.0829 64.7472,240.5739 63.4922,240.5739 C60.9872,240.5739 58.9582,242.6029 58.9582,245.1089 L58.9582,263.1569 C58.9582,263.2329 58.9612,263.3139 58.9642,263.3899 C58.9672,263.4639 58.9732,263.5409 58.9802,263.6139 C59.1942,265.9189 61.1332,267.7199 63.4922,267.7199 L95.2432,267.7199 L95.2432,335.7039 C95.2432,338.2099 97.2712,340.2419 99.7772,340.2419 L131.5242,340.2419 L131.5242,353.7519 Z" id="Fill-103" fill="#1D1B1C"></path>
                <path d="M320.6883,151.2285 C319.8663,150.4095 318.7333,149.9005 317.4793,149.9005 C314.9733,149.9005 312.9443,151.9295 312.9443,154.4355 L312.9443,172.4825 C312.9443,172.5605 312.9483,172.6395 312.9513,172.7165 C312.9543,172.7905 312.9603,172.8675 312.9663,172.9405 C313.1813,175.2445 315.1213,177.0465 317.4793,177.0465 L349.2293,177.0465 L349.2293,245.0305 C349.2293,247.5355 351.2573,249.5675 353.7633,249.5675 L385.5103,249.5675 L385.5103,263.0785 C385.5103,265.5835 387.5423,267.6125 390.0483,267.6125 C392.5503,267.6125 394.5833,265.5835 394.5833,263.0785 L394.5833,245.0305 C394.5833,243.7785 394.0743,242.6435 393.2543,241.8235 C392.4323,241.0015 391.2993,240.4955 390.0483,240.4955 L358.2973,240.4955 L358.2973,172.5115 C358.2973,172.1985 358.2663,171.8915 358.2053,171.5965 C358.1763,171.4495 358.1383,171.3055 358.0933,171.1645 C357.8763,170.4545 357.4853,169.8175 356.9703,169.3025 C356.6633,168.9955 356.3103,168.7325 355.9263,168.5215 C355.7953,168.4515 355.6653,168.3875 355.5303,168.3295 C354.9863,168.1025 354.3873,167.9745 353.7633,167.9745 L322.0163,167.9745 L322.0163,154.4355 C322.0163,153.1805 321.5073,152.0475 320.6883,151.2285" id="Fill-105" fill="#1D1B1C"></path>
                <path d="M95.3474,54.8437 C95.3474,56.0977 95.8564,57.2307 96.6754,58.0527 C97.4944,58.8727 98.6274,59.3817 99.8814,59.3817 L113.4204,59.3817 L113.4204,91.1287 C113.4204,91.7527 113.5494,92.3507 113.7764,92.8947 C113.8334,93.0297 113.8984,93.1607 113.9684,93.2917 C114.1794,93.6757 114.4424,94.0277 114.7484,94.3347 C115.2644,94.8497 115.9014,95.2407 116.6114,95.4577 C116.7524,95.5027 116.8964,95.5417 117.0434,95.5707 C117.3374,95.6307 117.6454,95.6627 117.9584,95.6627 L185.9434,95.6627 L185.9434,127.4127 C185.9434,128.6647 186.4484,129.7977 187.2704,130.6197 C188.0894,131.4387 189.2264,131.9477 190.4774,131.9477 L208.5254,131.9477 C211.0314,131.9477 213.0594,129.9157 213.0594,127.4127 C213.0594,124.9077 211.0314,122.8757 208.5254,122.8757 L195.0144,122.8757 L195.0144,91.1287 C195.0144,88.6227 192.9834,86.5937 190.4774,86.5937 L122.4934,86.5937 L122.4934,54.8437 C122.4934,52.4857 120.6914,50.5457 118.3874,50.3317 C118.3144,50.3247 118.2374,50.3187 118.1634,50.3157 C118.0864,50.3127 118.0064,50.3087 117.9294,50.3087 L99.8814,50.3087 C97.3764,50.3087 95.3474,52.3377 95.3474,54.8437" id="Fill-107" fill="#1D1B1C"></path>
                <path d="M321.992,255.0928 C321.999,255.0188 322.005,254.9428 322.009,254.8688 C322.012,254.7918 322.014,254.7118 322.014,254.6348 L322.014,236.5878 C322.014,234.0818 319.986,232.0528 317.48,232.0528 C316.225,232.0528 315.093,232.5618 314.27,233.3808 C313.451,234.1998 312.942,235.3328 312.942,236.5878 L312.942,250.1268 L281.195,250.1268 C280.571,250.1268 279.972,250.2548 279.429,250.4818 C279.295,250.5388 279.163,250.6028 279.032,250.6738 C278.648,250.8848 278.296,251.1478 277.989,251.4538 C277.473,251.9698 277.084,252.6068 276.866,253.3168 C276.821,253.4578 276.783,253.6018 276.754,253.7488 C276.693,254.0428 276.661,254.3508 276.661,254.6638 L276.661,322.6478 L244.911,322.6478 C243.659,322.6478 242.526,323.1538 241.704,323.9758 C240.885,324.7948 240.376,325.9308 240.376,327.1818 L240.376,345.2308 C240.376,347.7358 242.408,349.7648 244.911,349.7648 C247.416,349.7648 249.448,347.7358 249.448,345.2308 L249.448,331.7198 L281.195,331.7198 C283.701,331.7198 285.729,329.6878 285.729,327.1818 L285.729,259.1978 L317.48,259.1978 C319.839,259.1978 321.778,257.3968 321.992,255.0928" id="Fill-109" fill="#1D1B1C"></path>
                <g id="Group-113" transform="translate(222.000000, 0.000000)">
                    <mask id="mask-40" fill="white">
                        <use xlink:href="#path-39"></use>
                    </mask>
                    <g id="Clip-112"></g>
                    <path d="M1.4881,3.685 C2.3101,4.504 3.4431,5.013 4.6941,5.013 C7.2001,5.013 9.2321,2.981 9.2321,0.478 L9.2321,0.456 L0.1601,0.456 L0.1601,0.478 C0.1601,1.729 0.6691,2.862 1.4881,3.685" id="Fill-111" fill="#1D1B1C" mask="url(#mask-40)"></path>
                </g>
                <path d="M136.1365,32.3086 L136.1365,32.3086 C133.6315,32.3086 131.6015,34.3396 131.6015,36.8446 L131.6015,54.8916 C131.6015,57.3966 133.6315,59.4266 136.1365,59.4266 C138.6415,59.4266 140.6715,57.3966 140.6715,54.8916 L140.6715,36.8446 C140.6715,34.3396 138.6415,32.3086 136.1365,32.3086" id="Fill-114" fill="#1D1B1C"></path>
                <path d="M154.2039,158.9267 C151.6989,158.9267 149.6679,160.9577 149.6679,163.4627 L149.6679,181.5097 C149.6679,184.0147 151.6989,186.0447 154.2039,186.0447 C156.7089,186.0447 158.7389,184.0147 158.7389,181.5097 L158.7389,163.4627 C158.7389,160.9577 156.7089,158.9267 154.2039,158.9267" id="Fill-116" fill="#1D1B1C"></path>
                <path d="M262.5301,222.3159 C265.0341,222.3159 267.0651,220.2849 267.0651,217.7799 L267.0651,199.7329 C267.0651,197.2279 265.0341,195.1979 262.5301,195.1979 C260.0251,195.1979 257.9941,197.2279 257.9941,199.7329 L257.9941,217.7799 C257.9941,220.2849 260.0251,222.3159 262.5301,222.3159" id="Fill-118" fill="#1D1B1C"></path>
                <path d="M280.4217,222.3159 C282.9267,222.3159 284.9577,220.2849 284.9577,217.7799 L284.9577,199.7329 C284.9577,197.2279 282.9267,195.1979 280.4217,195.1979 C277.9167,195.1979 275.8867,197.2279 275.8867,199.7329 L275.8867,217.7799 C275.8867,220.2849 277.9167,222.3159 280.4217,222.3159" id="Fill-120" fill="#1D1B1C"></path>
                <path d="M390.4529,185.5903 C387.9479,185.5903 385.9179,187.6213 385.9179,190.1263 L385.9179,208.1733 C385.9179,210.6783 387.9479,212.7093 390.4529,212.7093 C392.9579,212.7093 394.9879,210.6783 394.9879,208.1733 L394.9879,190.1263 C394.9879,187.6213 392.9579,185.5903 390.4529,185.5903" id="Fill-122" fill="#1D1B1C"></path>
                <path d="M353.4373,140.8755 L371.4853,140.8755 C372.5763,140.8755 373.5783,140.4915 374.3583,139.8485 C374.3653,139.8445 374.3683,139.8415 374.3723,139.8385 C375.5713,139.0225 376.3583,137.6495 376.3583,136.0875 L376.3583,77.6245 L385.3323,77.6245 L385.3323,136.0875 C385.3323,137.3425 385.8403,138.4755 386.6593,139.2945 C387.4823,140.1135 388.6153,140.6225 389.8693,140.6225 C389.9293,140.6225 389.9913,140.6225 390.0483,140.6165 C390.1093,140.6225 390.1663,140.6225 390.2273,140.6225 L426.3523,140.6225 C426.5023,140.6225 426.6503,140.6165 426.7933,140.6005 C429.0793,140.3665 430.8643,138.4375 430.8643,136.0875 L430.8643,135.6245 L430.8643,68.5175 L440.2653,68.5175 L440.2653,82.1395 C440.2653,83.3905 440.7743,84.5265 441.5933,85.3455 C442.4133,86.1675 443.5453,86.6735 444.8003,86.6735 C447.3053,86.6735 449.3343,84.6455 449.3343,82.1395 L449.3343,64.0915 C449.3343,61.9125 447.8013,60.0945 445.7533,59.6595 C445.3183,59.5185 444.8583,59.4445 444.3773,59.4445 L426.3333,59.4445 C425.8633,59.4445 425.4113,59.5155 424.9863,59.6495 C424.9123,59.6715 424.8413,59.6945 424.7743,59.7205 C424.7043,59.7455 424.6333,59.7745 424.5663,59.8005 C424.0223,60.0305 423.5363,60.3635 423.1243,60.7725 C422.7133,61.1825 422.3803,61.6755 422.1503,62.2165 C421.9203,62.7605 421.7913,63.3585 421.7913,63.9825 L421.7913,131.5535 L394.4033,131.5535 L394.4033,73.2085 L394.4033,73.0325 C394.4033,72.8945 394.3973,72.7605 394.3843,72.6255 C394.3773,72.5525 394.3683,72.4815 394.3583,72.4115 C394.0293,70.2295 392.1473,68.5525 389.8723,68.5525 L371.8243,68.5525 C370.5733,68.5525 369.4373,69.0615 368.6183,69.8795 C367.8463,70.6515 367.3543,71.6975 367.2963,72.8555 L367.2903,73.0895 L367.2903,131.8065 L357.9713,131.8065 L357.9713,109.0965 C357.9713,107.8445 357.4653,106.7085 356.6433,105.8895 C355.8243,105.0675 354.6883,104.5615 353.4373,104.5615 C350.9313,104.5615 348.9023,106.5905 348.9023,109.0965 L348.9023,136.3405 C348.9023,138.8465 350.9313,140.8755 353.4373,140.8755" id="Fill-124" fill="#1D1B1C"></path>
                <path d="M422.1502,62.2163 C422.3802,61.6753 422.7132,61.1823 423.1242,60.7733 C422.7132,61.1823 422.3782,61.6723 422.1502,62.2163" id="Fill-126" fill="#1D1B1C"></path>
                <path d="M394.407,73.0898 C394.407,73.0698 394.407,73.0508 394.403,73.0318 L394.403,73.2078 C394.407,73.1698 394.407,73.1278 394.407,73.0898" id="Fill-128" fill="#1D1B1C"></path>
                <path d="M426.7937,140.6001 C429.0917,140.3791 430.8867,138.4431 430.8867,136.0881 C430.8867,135.9311 430.8807,135.7781 430.8637,135.6241 L430.8637,136.0881 C430.8637,138.4371 429.0787,140.3671 426.7937,140.6001" id="Fill-130" fill="#1D1B1C"></path>
                <path d="M407.2703,268.168 C407.5003,268.203 407.7343,268.223 407.9743,268.223 L444.7363,268.223 C446.4773,268.223 447.9913,267.243 448.7493,265.803 C448.7843,265.739 448.8163,265.675 448.8483,265.608 C449.1363,265.013 449.2963,264.344 449.2963,263.64 L449.2963,245.592 C449.2963,245.509 449.2923,245.426 449.2903,245.342 C449.2923,245.259 449.2963,245.173 449.2963,245.09 L449.2963,227.045 C449.2963,224.54 447.2673,222.507 444.7613,222.507 C442.2563,222.507 440.2243,224.54 440.2243,227.045 L440.2243,245.09 C440.2243,245.173 440.2273,245.259 440.2303,245.342 C440.2273,245.426 440.2243,245.509 440.2243,245.592 L440.2243,259.15 L412.0163,259.15 L412.0163,250.13 L425.6763,250.13 C425.8493,250.13 426.0193,250.12 426.1853,250.101 C426.3523,250.12 426.5223,250.13 426.6913,250.13 C429.1943,250.13 431.2253,248.098 431.2253,245.592 L431.2253,227.544 C431.2253,226.293 430.7163,225.16 429.8983,224.338 C429.0753,223.519 427.9423,223.01 426.6913,223.01 C424.1853,223.01 422.1543,225.042 422.1543,227.544 L422.1543,241.058 L407.6283,241.058 C407.6033,241.058 407.5813,241.058 407.5553,241.061 C407.5303,241.058 407.5043,241.058 407.4783,241.058 C404.9763,241.058 402.9443,243.086 402.9443,245.592 L402.9443,263.64 C402.9443,264.895 403.4533,266.027 404.2723,266.847 C405.0493,267.621 406.1023,268.117 407.2703,268.168" id="Fill-132" fill="#1D1B1C"></path>
                <path d="M371.9041,231.1987 C374.4101,231.1987 376.4421,229.1667 376.4421,226.6637 L376.4421,177.5217 L444.9571,177.5217 C447.4631,177.5217 449.4951,175.4927 449.4951,172.9877 C449.4951,170.4817 447.4631,168.4527 444.9571,168.4527 L372.0001,168.4527 C370.7461,168.4527 369.6131,168.9587 368.7941,169.7807 C368.3201,170.2547 367.9521,170.8307 367.7251,171.4767 C367.4981,172.0207 367.3701,172.6187 367.3701,173.2427 L367.3701,226.6637 C367.3701,227.9157 367.8791,229.0487 368.6981,229.8707 C369.5171,230.6897 370.6501,231.1987 371.9041,231.1987" id="Fill-134" fill="#1D1B1C"></path>
                <path d="M370.5369,303.5239 L408.6909,303.5239 C411.1959,303.5239 413.2269,301.4929 413.2269,298.9879 C413.2269,296.4829 411.1959,294.4529 408.6909,294.4529 L370.5369,294.4529 C368.0319,294.4529 366.0019,296.4829 366.0019,298.9879 C366.0019,301.4929 368.0319,303.5239 370.5369,303.5239" id="Fill-136" fill="#1D1B1C"></path>
                <path d="M280.8221,140.8769 C278.3171,140.8769 276.2871,142.9079 276.2871,145.4129 L276.2871,163.4599 C276.2871,165.9649 278.3171,167.9949 280.8221,167.9949 C283.3271,167.9949 285.3571,165.9649 285.3571,163.4599 L285.3571,145.4129 C285.3571,142.9079 283.3271,140.8769 280.8221,140.8769" id="Fill-138" fill="#1D1B1C"></path>
                <path d="M408.4324,104.6963 C405.9274,104.6963 403.8974,106.7263 403.8974,109.2313 L403.8974,118.6973 C403.8974,121.2023 405.9274,123.2323 408.4324,123.2323 C410.9374,123.2323 412.9674,121.2023 412.9674,118.6973 L412.9674,109.2313 C412.9674,106.7263 410.9374,104.6963 408.4324,104.6963" id="Fill-140" fill="#1D1B1C"></path>
                <path d="M318.1433,203.0386 C315.6383,203.0386 313.6083,205.0686 313.6083,207.5736 L313.6083,219.6716 C313.6083,222.1766 315.6383,224.2066 318.1433,224.2066 C320.6483,224.2066 322.6793,222.1766 322.6793,219.6716 L322.6793,207.5736 C322.6793,205.0686 320.6483,203.0386 318.1433,203.0386" id="Fill-142" fill="#1D1B1C"></path>
                <path d="M304.1121,277.3935 L313.6061,277.3935 L313.6061,328.6005 C313.6061,329.8515 314.1151,330.9835 314.9341,331.8065 C315.7571,332.6255 316.8891,333.1345 318.1441,333.1345 L336.7111,333.1345 C339.2161,333.1345 341.2481,331.1025 341.2481,328.6005 L341.2481,286.4655 L426.5061,286.4655 C429.0081,286.4655 431.0401,284.4335 431.0401,281.9285 C431.0401,279.4255 429.0081,277.3935 426.5061,277.3935 L336.7111,277.3935 C334.2081,277.3935 332.1761,279.4255 332.1761,281.9315 L332.1761,324.0625 L322.6781,324.0625 L322.6781,273.6405 C322.6781,273.5085 322.6731,273.3775 322.6631,273.2495 C322.6731,273.1215 322.6781,272.9905 322.6781,272.8595 C322.6781,270.3535 320.6501,268.3245 318.1441,268.3245 L299.5751,268.3245 C297.0721,268.3245 295.0401,270.3535 295.0401,272.8595 L295.0401,309.7325 C295.0401,310.9875 295.5491,312.1205 296.3681,312.9395 C297.1901,313.7585 298.3231,314.2675 299.5751,314.2675 C302.0801,314.2675 304.1121,312.2385 304.1121,309.7325 L304.1121,277.3935 Z" id="Fill-144" fill="#1D1B1C"></path>
                <path d="M321.9461,381.6079 L321.9461,349.8609 L353.6931,349.8579 C356.1991,349.8579 358.2301,347.8289 358.2301,345.3229 L358.2301,298.9869 C358.2301,297.7359 357.7211,296.6039 356.9021,295.7809 C356.0841,294.9619 354.9511,294.4529 353.6961,294.4529 C351.1901,294.4529 349.1621,296.4849 349.1621,298.9869 L349.1621,308.9269 C349.1591,308.9649 349.1591,309.0039 349.1591,309.0419 L349.1591,340.7889 L317.4111,340.7889 C314.9061,340.7889 312.8771,342.8179 312.8771,345.3229 L312.8771,377.0699 L281.1271,377.0699 C279.8721,377.0699 278.7361,377.5829 277.9171,378.4049 C277.4911,378.8309 277.1521,379.3389 276.9251,379.9019 C276.7081,380.4309 276.5891,381.0059 276.5891,381.6109 L276.5891,417.8929 C276.5891,419.1479 277.0971,420.2799 277.9171,421.1029 C278.7391,421.9219 279.8721,422.4309 281.1271,422.4309 C283.6291,422.4309 285.6611,420.3989 285.6611,417.8929 L285.6611,386.1429 L317.4111,386.1429 C319.9171,386.1429 321.9461,384.1139 321.9461,381.6079" id="Fill-146" fill="#1D1B1C"></path>
                <path d="M208.5242,142.1128 C206.0192,142.1128 203.9892,144.1428 203.9892,146.6478 L203.9892,199.9798 C203.9892,202.4848 206.0192,204.5148 208.5242,204.5148 C211.0292,204.5148 213.0592,202.4848 213.0592,199.9798 L213.0592,146.6478 C213.0592,144.1428 211.0292,142.1128 208.5242,142.1128" id="Fill-148" fill="#1D1B1C"></path>
                <path d="M299.2019,140.7436 C296.6969,140.7436 294.6659,142.7746 294.6659,145.2786 L294.6659,182.6956 C294.6659,180.1906 296.6969,178.1596 299.2019,178.1596 C301.7069,178.1596 303.7369,180.1906 303.7369,182.6956 L303.7369,145.2786 C303.7369,142.7746 301.7069,140.7436 299.2019,140.7436" id="Fill-150" fill="#1D1B1C"></path>
                <path d="M299.2019,178.1596 C296.6969,178.1596 294.6659,180.1906 294.6659,182.6956 L294.6659,198.6106 L294.6659,236.0266 C294.6659,238.5316 296.6969,240.5616 299.2019,240.5616 C301.7069,240.5616 303.7369,238.5316 303.7369,236.0266 L303.7369,198.6106 L303.7369,182.6956 C303.7369,180.1906 301.7069,178.1596 299.2019,178.1596" id="Fill-152" fill="#1D1B1C"></path>
                <path d="M185.7303,145.6596 L185.7303,236.2516 C185.7303,238.7566 187.7603,240.7876 190.2653,240.7876 C192.7703,240.7876 194.8003,238.7566 194.8003,236.2516 L194.8003,145.6596 C194.8003,143.1546 192.7703,141.1246 190.2653,141.1246 C187.7603,141.1246 185.7303,143.1546 185.7303,145.6596" id="Fill-154" fill="#1D1B1C"></path>
                <path d="M140.4832,235.7295 C140.4872,235.6915 140.4872,235.6495 140.4872,235.6115 L140.4872,217.5635 C140.4872,217.5245 140.4872,217.4865 140.4832,217.4485 L140.4832,235.7295 Z" id="Fill-156" fill="#1D1B1C"></path>
                <path d="M44.8328,195.2046 C47.3378,195.2046 49.3688,193.1736 49.3688,190.6696 L49.3688,172.6216 C49.3688,170.1166 47.3378,168.0866 44.8328,168.0866 C42.3278,168.0866 40.2978,170.1166 40.2978,172.6216 L40.2978,190.6696 C40.2978,193.1736 42.3278,195.2046 44.8328,195.2046" id="Fill-158" fill="#1D1B1C"></path>
                <path d="M117.6521,268.3232 L135.7001,268.3232 C138.2051,268.3232 140.2351,266.2932 140.2351,263.7882 C140.2351,261.2832 138.2051,259.2522 135.7001,259.2522 L117.6521,259.2522 C115.1471,259.2522 113.1171,261.2832 113.1171,263.7882 C113.1171,266.2932 115.1471,268.3232 117.6521,268.3232" id="Fill-160" fill="#1D1B1C"></path>
                <path d="M190.49,59.416 L276.659,59.416 L276.659,86.594 L208.631,86.594 C207.38,86.594 206.243,87.103 205.421,87.922 C204.601,88.741 204.093,89.874 204.093,91.128 C204.093,91.205 204.096,91.285 204.099,91.362 L204.099,91.374 C204.096,91.451 204.093,91.531 204.093,91.608 L204.093,109.08 C204.093,109.103 204.093,109.122 204.096,109.144 C204.093,109.163 204.093,109.186 204.093,109.205 C204.093,111.71 206.125,113.739 208.631,113.739 L281.13,113.739 C283.636,113.739 285.664,111.71 285.664,109.205 C285.664,106.699 283.636,104.667 281.13,104.667 L213.165,104.667 L213.165,95.663 L281.194,95.663 C283.699,95.663 285.731,93.634 285.731,91.128 L285.731,54.882 C285.731,54.254 285.603,53.659 285.376,53.115 C285.318,52.981 285.255,52.847 285.184,52.719 C284.694,51.819 283.911,51.103 282.96,50.699 C282.893,50.67 282.823,50.645 282.752,50.619 C282.685,50.594 282.615,50.571 282.541,50.549 C282.115,50.415 281.664,50.344 281.197,50.344 L195.024,50.344 L195.024,41.342 L244.979,41.342 C247.485,41.342 249.517,39.311 249.517,36.805 C249.517,34.303 247.485,32.27 244.979,32.27 L190.49,32.27 C187.984,32.27 185.952,34.303 185.952,36.805 L185.952,54.882 C185.952,54.949 185.952,55.02 185.959,55.086 C186.064,57.493 188.052,59.416 190.49,59.416" id="Fill-162" fill="#1D1B1C"></path>
                <path d="M99.7771,41.0815 L99.7771,41.0815 C102.2821,41.0815 104.3121,39.0505 104.3121,36.5455 L104.3121,27.7335 C104.3121,25.2285 102.2821,23.1975 99.7771,23.1975 C97.2721,23.1975 95.2421,25.2285 95.2421,27.7335 L95.2421,36.5455 C95.2421,39.0505 97.2721,41.0815 99.7771,41.0815" id="Fill-164" fill="#1D1B1C"></path>
                <g id="Group-168" transform="translate(204.000000, 0.000000)">
                    <mask id="mask-42" fill="white">
                        <use xlink:href="#path-41"></use>
                    </mask>
                    <g id="Clip-167"></g>
                    <path d="M4.6297,5.0127 C7.1347,5.0127 9.1647,2.9817 9.1647,0.4767 L9.1647,0.4567 L0.0937,0.4567 L0.0937,0.4767 C0.0937,2.9817 2.1247,5.0127 4.6297,5.0127" id="Fill-166" fill="#1D1B1C" mask="url(#mask-42)"></path>
                </g>
                <g id="Group-171" transform="translate(294.000000, 0.000000)">
                    <mask id="mask-44" fill="white">
                        <use xlink:href="#path-43"></use>
                    </mask>
                    <g id="Clip-170"></g>
                    <path d="M0.8045,18.5254 C0.8045,19.7764 1.3135,20.9094 2.1315,21.7324 C2.9545,22.5504 4.0905,23.0594 5.3415,23.0594 C7.8435,23.0594 9.8755,21.0274 9.8755,18.5254 L9.8755,5.0114 L23.3895,5.0114 C25.8925,5.0114 27.9235,2.9794 27.9235,0.4774 L27.9235,0.4564 L0.8055,0.4564 C0.8055,0.4634 0.8045,0.4704 0.8045,0.4774 L0.8045,18.5254 Z" id="Fill-169" fill="#1D1B1C" mask="url(#mask-44)"></path>
                </g>
                <path d="M358.2254,381.7988 L358.2254,363.7508 C358.2254,361.2448 356.1974,359.2158 353.6914,359.2158 C351.1854,359.2158 349.1574,361.2448 349.1574,363.7508 L349.1574,377.2648 L335.5984,377.2648 C335.5354,377.2648 335.4734,377.2648 335.4104,377.2708 C332.9904,377.3668 331.0604,379.3578 331.0604,381.7988 L331.0604,395.3088 L317.5504,395.3088 C315.0444,395.3088 313.0124,397.3408 313.0124,399.8468 L313.0124,417.8948 C313.0124,419.1458 313.5214,420.2788 314.3404,421.1008 C315.1624,421.9208 316.2994,422.4288 317.5504,422.4288 C320.0524,422.4288 322.0844,420.3978 322.0844,417.8948 L322.0844,404.3818 L335.5984,404.3818 C338.1004,404.3818 340.1324,402.3488 340.1324,399.8468 L340.1324,386.3328 L353.6914,386.3328 C356.1974,386.3328 358.2254,384.3038 358.2254,381.7988" id="Fill-172" fill="#1D1B1C"></path>
                <path d="M13.824,281.4619 L13.824,263.4139 C13.824,260.9079 11.796,258.8789 9.29,258.8789 C6.784,258.8789 4.756,260.9079 4.756,263.4139 L4.756,276.9269 L0,276.9269 L0,285.9959 L9.29,285.9959 C11.796,285.9959 13.824,283.9669 13.824,281.4619" id="Fill-174" fill="#1D1B1C"></path>
                <path d="M285.5037,236.5478 C285.5037,235.2968 284.9947,234.1608 284.1757,233.3388 C283.3537,232.5188 282.2207,232.0098 280.9687,232.0098 L262.9207,232.0098 C260.4157,232.0098 258.3837,234.0418 258.3837,236.5478 L258.3837,250.0578 L244.8727,250.0578 C242.4317,250.0578 240.4407,251.9878 240.3457,254.4068 C240.3387,254.4708 240.3387,254.5318 240.3387,254.5958 L240.3387,268.1538 L226.8247,268.1538 C224.3187,268.1538 222.2907,270.1828 222.2907,272.6888 C222.2907,275.1938 224.3187,277.2228 226.8247,277.2228 L244.8727,277.2228 C247.3787,277.2228 249.4067,275.1938 249.4067,272.6888 L249.4067,259.1308 L262.9207,259.1308 C265.4237,259.1308 267.4557,257.0978 267.4557,254.5958 L267.4557,241.0818 L280.9687,241.0818 C283.4717,241.0818 285.5037,239.0498 285.5037,236.5478" id="Fill-176" fill="#1D1B1C"></path>
                <path d="M231.3074,309.7339 C231.3074,307.2289 229.2784,305.1999 226.7734,305.1999 L213.2144,305.1999 L213.2144,291.6859 C213.2144,289.1839 211.1824,287.1519 208.6804,287.1519 L195.1664,287.1519 L195.1664,273.6379 C195.1664,271.1359 193.1344,269.1039 190.6314,269.1039 C189.3804,269.1039 188.2444,269.6119 187.4224,270.4319 C186.6034,271.2539 186.0944,272.3869 186.0944,273.6379 L186.0944,291.6859 C186.0944,294.1919 188.1264,296.2239 190.6314,296.2239 L204.1424,296.2239 L204.1424,309.7339 C204.1424,312.1759 206.0724,314.1659 208.4914,314.2619 C208.5554,314.2689 208.6164,314.2689 208.6804,314.2689 L222.2384,314.2689 L222.2384,327.7819 C222.2384,330.2879 224.2674,332.3169 226.7734,332.3169 C229.2784,332.3169 231.3074,330.2879 231.3074,327.7819 L231.3074,309.7339 Z" id="Fill-178" fill="#1D1B1C"></path>
                <path d="M31.615,118.542 L31.615,118.539 C31.615,116.036 29.587,114.004 27.081,114.004 L9.033,114.004 C6.527,114.004 4.499,116.036 4.499,118.539 L4.499,136.587 C4.499,137.841 5.008,138.974 5.827,139.796 C6.646,140.616 7.779,141.125 9.033,141.125 C11.539,141.125 13.567,139.092 13.567,136.587 L13.567,123.076 L27.081,123.076 C29.587,123.076 31.615,121.044 31.615,118.542" id="Fill-180" fill="#1D1B1C"></path>
                <path d="M117.9988,231.1977 L118.0018,231.1977 C120.5048,231.1977 122.5358,229.1687 122.5358,226.6637 L122.5358,208.6157 C122.5358,206.1097 120.5048,204.0807 118.0018,204.0807 L99.9538,204.0807 C98.6998,204.0807 97.5658,204.5897 96.7438,205.4087 C95.9248,206.2287 95.4168,207.3617 95.4168,208.6157 C95.4168,211.1207 97.4478,213.1497 99.9538,213.1497 L113.4648,213.1497 L113.4648,226.6637 C113.4648,229.1687 115.4958,231.1977 117.9988,231.1977" id="Fill-182" fill="#1D1B1C"></path>
                <path d="M117.6521,322.5503 L135.7001,322.5503 C138.2061,322.5503 140.2341,320.5183 140.2341,318.0163 L140.2341,299.9673 C140.2341,298.7133 139.7251,297.5803 138.9061,296.7583 C138.0871,295.9393 136.9541,295.4303 135.7001,295.4303 C133.1941,295.4303 131.1661,297.4623 131.1661,299.9673 L131.1661,313.4783 L117.6521,313.4783 C115.1461,313.4783 113.1181,315.5103 113.1181,318.0123 L113.1181,318.0163 C113.1181,320.5183 115.1461,322.5503 117.6521,322.5503" id="Fill-184" fill="#1D1B1C"></path>
                <path d="M140.6687,282.2046 C140.6687,279.7026 138.6397,277.6706 136.1347,277.6706 L118.0867,277.6706 C115.5807,277.6706 113.5517,279.7026 113.5517,282.2046 L113.5517,300.2526 C113.5517,301.5076 114.0607,302.6406 114.8797,303.4626 C115.6987,304.2816 116.8317,304.7906 118.0867,304.7906 C120.5917,304.7906 122.6207,302.7586 122.6207,300.2526 L122.6207,286.7426 L136.1347,286.7426 C138.6397,286.7426 140.6687,284.7106 140.6687,282.2076 L140.6687,282.2046 Z" id="Fill-186" fill="#1D1B1C"></path>
                <path d="M149.6599,127.1758 C149.6599,129.6778 151.6889,131.7108 154.1939,131.7108 L172.2419,131.7108 C174.7479,131.7108 176.7769,129.6778 176.7769,127.1758 L176.7769,109.1278 C176.7769,107.8738 176.2679,106.7408 175.4489,105.9188 C174.6299,105.0988 173.4969,104.5908 172.2419,104.5908 C169.7369,104.5908 167.7079,106.6218 167.7079,109.1278 L167.7079,122.6378 L154.1939,122.6378 C151.6889,122.6378 149.6599,124.6708 149.6599,127.1728 L149.6599,127.1758 Z" id="Fill-188" fill="#1D1B1C"></path>
                <path d="M117.9168,41.1216 C120.4228,41.1216 122.4508,39.0896 122.4508,36.5836 L122.4508,23.0736 L135.9648,23.0736 C138.4708,23.0736 140.4998,21.0416 140.4998,18.5386 L140.4998,18.5366 C140.4998,16.0336 138.4708,14.0016 135.9648,14.0016 L117.9168,14.0016 C115.4108,14.0016 113.3828,16.0336 113.3828,18.5366 L113.3828,36.5836 C113.3828,37.8386 113.8918,38.9716 114.7108,39.7936 C115.5298,40.6126 116.6628,41.1216 117.9168,41.1216" id="Fill-190" fill="#1D1B1C"></path>
                <path d="M244.866,122.7807 L226.818,122.7807 C224.312,122.7807 222.283,124.8127 222.283,127.3147 L222.283,145.3627 C222.283,146.6167 222.792,147.7507 223.611,148.5727 C224.43,149.3917 225.563,149.9007 226.818,149.9007 C229.323,149.9007 231.352,147.8687 231.352,145.3627 L231.352,131.8527 L244.866,131.8527 C247.371,131.8527 249.4,129.8207 249.4,127.3187 L249.4,127.3147 C249.4,124.8127 247.371,122.7807 244.866,122.7807" id="Fill-192" fill="#1D1B1C"></path>
                <path d="M226.8181,258.7451 C229.3231,258.7451 231.3521,256.7131 231.3521,254.2071 L231.3521,240.6971 L244.8661,240.6971 C247.3711,240.6971 249.4001,238.6651 249.4001,236.1621 L249.4001,236.1591 C249.4001,233.6571 247.3711,231.6251 244.8661,231.6251 L226.8181,231.6251 C224.3121,231.6251 222.2831,233.6571 222.2831,236.1591 L222.2831,254.2071 C222.2831,255.4621 222.7921,256.5951 223.6111,257.4171 C224.4301,258.2361 225.5631,258.7451 226.8181,258.7451" id="Fill-194" fill="#1D1B1C"></path>
                <path d="M317.4129,195.5747 L330.9229,195.5747 L330.9229,209.0887 C330.9229,211.5947 332.9549,213.6227 335.4579,213.6227 L335.4609,213.6227 C337.9629,213.6227 339.9949,211.5947 339.9949,209.0887 L339.9949,191.0407 C339.9949,188.5347 337.9629,186.5057 335.4609,186.5057 L317.4129,186.5057 C316.1579,186.5057 315.0249,187.0147 314.2029,187.8337 C313.3839,188.6537 312.8749,189.7857 312.8749,191.0407 C312.8749,193.5457 314.9069,195.5747 317.4129,195.5747" id="Fill-196" fill="#1D1B1C"></path>
                <path d="M244.864,314.2685 L244.867,314.2685 C247.37,314.2685 249.402,312.2395 249.402,309.7335 L249.402,291.6855 C249.402,289.1805 247.37,287.1515 244.867,287.1515 L226.819,287.1515 C225.565,287.1515 224.432,287.6605 223.61,288.4795 C222.791,289.2985 222.282,290.4315 222.282,291.6855 C222.282,294.1915 224.313,296.2205 226.819,296.2205 L240.33,296.2205 L240.33,309.7335 C240.33,312.2395 242.362,314.2685 244.864,314.2685" id="Fill-198" fill="#1D1B1C"></path>
                <path d="M422.0242,336.0234 C422.0242,338.5254 424.0522,340.5574 426.5582,340.5574 L444.6062,340.5574 C447.1122,340.5574 449.1402,338.5254 449.1402,336.0234 L449.1402,317.9754 C449.1402,316.7204 448.6312,315.5874 447.8122,314.7654 C446.9932,313.9464 445.8602,313.4374 444.6062,313.4374 C442.1002,313.4374 440.0722,315.4694 440.0722,317.9754 L440.0722,331.4854 L426.5582,331.4854 C424.0522,331.4854 422.0242,333.5174 422.0242,336.0204 L422.0242,336.0234 Z" id="Fill-200" fill="#1D1B1C"></path>
                <path d="M390.6394,331.6709 L372.5904,331.6709 C371.3364,331.6709 370.2034,332.1799 369.3814,332.9989 C368.5624,333.8179 368.0534,334.9509 368.0534,336.2049 C368.0534,338.7109 370.0854,340.7399 372.5904,340.7399 L386.1014,340.7399 L386.1014,354.2539 C386.1014,356.7589 388.1334,358.7879 390.6354,358.7879 L390.6394,358.7879 C393.1414,358.7879 395.1734,356.7589 395.1734,354.2539 L395.1734,336.2049 C395.1734,333.6999 393.1414,331.6709 390.6394,331.6709" id="Fill-202" fill="#1D1B1C"></path>
                <path d="M32.0603,354.3052 L32.0603,354.3022 C32.0603,351.8002 30.0313,349.7672 27.5263,349.7672 L9.4773,349.7672 C6.9723,349.7672 4.9433,351.8002 4.9433,354.3022 L4.9433,372.3502 C4.9433,373.6042 5.4523,374.7372 6.2713,375.5592 C7.0903,376.3792 8.2233,376.8882 9.4773,376.8882 C11.9833,376.8882 14.0123,374.8552 14.0123,372.3502 L14.0123,358.8402 L27.5263,358.8402 C30.0313,358.8402 32.0603,356.8072 32.0603,354.3052" id="Fill-204" fill="#1D1B1C"></path>
                <path d="M195.5711,327.0884 L195.5711,309.0404 C195.5711,307.7864 195.0621,306.6534 194.2431,305.8304 C193.4241,305.0114 192.2911,304.5034 191.0361,304.5034 C188.5311,304.5034 186.5021,306.5344 186.5021,309.0404 L186.5021,322.5504 L172.9881,322.5504 C170.4831,322.5504 168.4541,324.5834 168.4541,327.0854 L168.4541,327.0884 C168.4541,329.5904 170.4831,331.6224 172.9881,331.6224 L191.0361,331.6224 C193.5421,331.6224 195.5711,329.5904 195.5711,327.0884" id="Fill-206" fill="#1D1B1C"></path>
                <g id="Group-210" transform="translate(349.000000, 0.000000)">
                    <mask id="mask-46" fill="white">
                        <use xlink:href="#path-45"></use>
                    </mask>
                    <g id="Clip-209"></g>
                    <path d="M4.907,5.0381 L18.418,5.0381 L18.418,18.5521 C18.418,21.0571 20.449,23.0861 22.952,23.0861 L22.955,23.0861 C25.458,23.0861 27.489,21.0571 27.489,18.5521 L27.489,0.5041 C27.489,0.4881 27.487,0.4731 27.487,0.4561 L0.372,0.4561 C0.372,0.4731 0.369,0.4881 0.369,0.5041 C0.369,3.0091 2.401,5.0381 4.907,5.0381" id="Fill-208" fill="#1D1B1C" mask="url(#mask-46)"></path>
                </g>
                <g id="Group-213" transform="translate(22.000000, 422.000000)">
                    <mask id="mask-48" fill="white">
                        <use xlink:href="#path-47"></use>
                    </mask>
                    <g id="Clip-212"></g>
                    <path d="M41.4959,9.2632 C42.7469,9.2632 43.8799,8.7542 44.7019,7.9352 C45.5209,7.1132 46.0299,5.9772 46.0299,4.7252 C46.0299,2.2202 43.9979,0.1912 41.4959,0.1912 L5.2109,0.1912 C2.7049,0.1912 0.6769,2.2202 0.6769,4.7252 L0.6769,32.0002 L9.7449,32.0002 L9.7449,9.2632 L41.4959,9.2632 Z" id="Fill-211" fill="#1D1B1C" mask="url(#mask-48)"></path>
                </g>
                <path d="M68.0301,372.3887 C68.0301,371.1347 67.5211,370.0017 66.7021,369.1827 C65.8831,368.3637 64.7501,367.8547 63.4961,367.8547 C60.9901,367.8547 58.9611,369.8837 58.9611,372.3887 L58.9611,404.1367 L27.2111,404.1367 C25.9601,404.1367 24.8271,404.6447 24.0051,405.4637 C23.1851,406.2867 22.6761,407.4227 22.6761,408.6737 C22.6761,411.1797 24.7091,413.2077 27.2111,413.2077 L63.4961,413.2077 C66.0011,413.2077 68.0301,411.1797 68.0301,408.6737 L68.0301,372.3887 Z" id="Fill-214" fill="#1D1B1C"></path>
                <path d="M335.6209,449.5288 C333.1379,449.5288 331.1249,451.5278 331.0899,453.9998 L340.1559,453.9998 C340.1389,452.7748 339.6359,451.6658 338.8309,450.8568 C338.0089,450.0378 336.8729,449.5288 335.6209,449.5288" id="Fill-216" fill="#1D1B1C"></path>
                <path d="M444.4734,440.394 L408.1884,440.394 C406.9344,440.394 405.8014,440.903 404.9824,441.722 C404.1624,442.541 403.6544,443.674 403.6544,444.929 C403.6544,447.434 405.6834,449.463 408.1884,449.463 L439.9364,449.463 L439.9364,454 L449.0074,454 L449.0074,444.929 C449.0074,442.423 446.9794,440.394 444.4734,440.394" id="Fill-218" fill="#1D1B1C"></path>
                <path d="M212.1043,385.1982 C212.9223,384.3792 213.4313,383.2462 213.4313,381.9912 C213.4313,379.4862 211.4033,377.4572 208.8973,377.4572 L177.1503,377.4572 L177.1503,345.7072 C177.1503,344.4552 176.6413,343.3232 175.8223,342.5002 C175.0003,341.6812 173.8643,341.1722 172.6133,341.1722 C170.1073,341.1722 168.0783,343.2042 168.0783,345.7072 L168.0783,381.9912 C168.0783,384.4972 170.1073,386.5262 172.6133,386.5262 L208.8973,386.5262 C210.1523,386.5262 211.2853,386.0172 212.1043,385.1982" id="Fill-220" fill="#1D1B1C"></path>
                <path d="M338.8308,223.8359 C338.0088,223.0169 336.8728,222.5079 335.6208,222.5079 C333.1158,222.5079 331.0868,224.5399 331.0868,227.0429 L331.0868,263.3269 C331.0868,265.8329 333.1158,267.8619 335.6208,267.8619 L371.9058,267.8619 C373.1598,267.8619 374.2928,267.3529 375.1118,266.5339 C375.9318,265.7139 376.4398,264.5819 376.4398,263.3269 C376.4398,260.8219 374.4118,258.7929 371.9058,258.7929 L340.1588,258.7929 L340.1588,227.0429 C340.1588,225.7919 339.6498,224.6589 338.8308,223.8359" id="Fill-222" fill="#1D1B1C"></path>
                <g id="Group-226" transform="translate(258.000000, 449.000000)">
                    <mask id="mask-50" fill="white">
                        <use xlink:href="#path-49"></use>
                    </mask>
                    <g id="Clip-225"></g>
                    <path d="M5.0525,0.5322 C2.5715,0.5322 0.5595,2.5272 0.5225,5.0002 L9.5835,5.0002 C9.5465,2.5272 7.5345,0.5322 5.0525,0.5322" id="Fill-224" fill="#1D1B1C" mask="url(#mask-50)"></path>
                </g>
                <path d="M190.4871,413.2402 C192.9891,413.2402 195.0181,415.2672 195.0221,417.7692 L195.0221,399.6422 C195.0221,398.3872 194.5131,397.2552 193.6941,396.4352 C192.8751,395.6162 191.7421,395.1072 190.4881,395.1072 L158.7401,395.1072 L158.7401,363.3602 C158.7401,362.1062 158.2311,360.9732 157.4131,360.1542 C156.5901,359.3352 155.4541,358.8252 154.2031,358.8252 C151.7011,358.8252 149.6691,360.8552 149.6691,363.3602 L149.6691,399.6422 C149.6691,400.8932 150.1741,402.0262 150.9971,402.8482 C151.4091,403.2582 151.8951,403.5912 152.4391,403.8212 C152.9831,404.0482 153.5791,404.1762 154.2061,404.1762 L185.9531,404.1762 L185.9531,417.7422 C185.9711,415.2532 187.9941,413.2402 190.4871,413.2402" id="Fill-227" fill="#1D1B1C"></path>
                <path d="M154.2039,449.522 L122.4569,449.522 L122.4569,417.775 C122.4569,416.521 121.9479,415.388 121.1289,414.568 C120.3069,413.749 119.1709,413.24 117.9189,413.24 C115.4169,413.24 113.3849,415.269 113.3849,417.775 L113.3849,454 L158.7349,454 C158.7209,452.769 158.2169,451.657 157.4099,450.85 C156.5909,450.031 155.4579,449.522 154.2039,449.522" id="Fill-229" fill="#1D1B1C"></path>
                <g id="Group-233" transform="translate(167.000000, 413.000000)">
                    <mask id="mask-52" fill="white">
                        <use xlink:href="#path-51"></use>
                    </mask>
                    <g id="Clip-232"></g>
                    <path d="M5.3455,0.2402 C2.8405,0.2402 0.8095,2.2712 0.8095,4.7762 L0.8095,41.0002 L9.8805,41.0002 L9.8805,4.7762 C9.8805,2.2712 7.8505,0.2402 5.3455,0.2402" id="Fill-231" fill="#1D1B1C" mask="url(#mask-52)"></path>
                </g>
                <path d="M136.0027,367.8545 C133.4977,367.8545 131.4677,369.8855 131.4677,372.3895 L131.4677,381.2285 C131.4677,383.7325 133.4977,385.7635 136.0027,385.7635 C138.5077,385.7635 140.5387,383.7325 140.5387,381.2285 L140.5387,372.3895 C140.5387,369.8855 138.5077,367.8545 136.0027,367.8545" id="Fill-234" fill="#1D1B1C"></path>
                <path d="M189.4793,341.1723 C186.9743,341.1723 184.9433,343.2033 184.9433,345.7083 L184.9433,362.7053 C184.9433,365.2103 186.9743,367.2403 189.4793,367.2403 C191.9843,367.2403 194.0143,365.2103 194.0143,362.7053 L194.0143,345.7083 C194.0143,343.2033 191.9843,341.1723 189.4793,341.1723" id="Fill-236" fill="#1D1B1C"></path>
                <path d="M195.0222,417.769 C195.0182,415.267 192.9892,413.24 190.4872,413.24 C187.9942,413.24 185.9712,415.253 185.9532,417.742 C185.9532,417.753 185.9522,417.765 185.9522,417.776 L185.9522,454 L195.0222,454 L195.0222,417.776 L195.0222,417.769 Z" id="Fill-238" fill="#1D1B1C"></path>
                <path d="M299.2937,440.4487 C300.5447,440.4487 301.6777,439.9397 302.4997,439.1207 C303.3187,438.2987 303.8277,437.1657 303.8277,435.9107 L303.8277,399.6297 C303.8277,397.1237 301.7957,395.0917 299.2937,395.0917 L299.2907,395.0917 C296.7877,395.0917 294.7557,397.1237 294.7557,399.6297 L294.7557,431.3767 L281.2457,431.3767 C279.3807,431.3767 277.7727,432.5027 277.0797,434.1127 C276.8997,434.5287 276.7787,434.9767 276.7307,435.4477 C276.7147,435.6037 276.7047,435.7637 276.7047,435.9237 L276.7047,453.9997 L285.7767,453.9997 L285.7767,440.4487 L299.2937,440.4487 Z" id="Fill-240" fill="#1D1B1C"></path>
                <path d="M99.7771,422.311 C97.2721,422.311 95.2421,424.342 95.2421,426.847 L95.2421,454 L104.3121,454 L104.3121,426.847 C104.3121,424.342 102.2821,422.311 99.7771,422.311" id="Fill-242" fill="#1D1B1C"></path>
                <g id="Group-246" transform="translate(0.000000, 386.000000)">
                    <mask id="mask-54" fill="white">
                        <use xlink:href="#path-53"></use>
                    </mask>
                    <g id="Clip-245"></g>
                    <path d="M30.4197,7.7514 C31.2387,6.9284 31.7477,5.7954 31.7477,4.5414 C31.7477,2.0394 29.7157,0.0074 27.2097,0.0074 L-0.0003,0.0074 L-0.0003,9.0794 L27.2097,9.0794 C28.4647,9.0794 29.5977,8.5704 30.4197,7.7514" id="Fill-244" fill="#1D1B1C" mask="url(#mask-54)"></path>
                </g>
                <path d="M99.6551,404.1787 L81.6071,404.1787 C79.1021,404.1787 77.0731,406.2077 77.0731,408.7127 L77.0731,440.4597 L63.5591,440.4597 C61.0571,440.4597 59.0251,442.4917 59.0251,444.9947 C59.0251,447.4997 61.0571,449.5327 63.5591,449.5327 L81.6071,449.5327 C82.8621,449.5327 83.9951,449.0237 84.8171,448.2037 C85.6361,447.3817 86.1451,446.2487 86.1451,444.9947 L86.1451,413.2477 L99.6551,413.2477 C100.9101,413.2477 102.0431,412.7387 102.8621,411.9197 C103.6811,411.0997 104.1901,409.9677 104.1901,408.7127 C104.1901,406.2077 102.1611,404.1787 99.6551,404.1787" id="Fill-247" fill="#1D1B1C"></path>
                <path d="M390.0388,431.5688 L358.2918,431.5688 L358.2918,418.0548 C358.2918,415.5528 356.2598,413.5208 353.7568,413.5208 C351.2518,413.5208 349.2198,415.5528 349.2198,418.0548 L349.2198,436.1028 C349.2198,437.3578 349.7278,438.4898 350.5478,439.3128 C351.3698,440.1318 352.5028,440.6408 353.7568,440.6408 L385.5048,440.6408 L385.5048,453.9998 L394.5728,453.9998 L394.5728,436.1028 C394.5728,433.5978 392.5438,431.5688 390.0388,431.5688" id="Fill-249" fill="#1D1B1C"></path>
                <path d="M45.3553,440.5478 C42.8493,440.5478 40.8183,442.5798 40.8183,445.0828 L40.8183,453.9998 L49.8893,453.9998 L49.8893,445.0828 C49.8893,442.5798 47.8583,440.5478 45.3553,440.5478" id="Fill-251" fill="#1D1B1C"></path>
                <path d="M9.0711,404.1855 L0.0001,404.1855 L0.0001,413.2575 L4.5361,413.2575 L4.5361,453.9995 L13.6051,453.9995 L13.6051,408.7235 C13.6051,406.2175 11.5761,404.1855 9.0711,404.1855" id="Fill-253" fill="#1D1B1C"></path>
                <g id="Group-257" transform="translate(240.000000, 431.000000)">
                    <mask id="mask-56" fill="white">
                        <use xlink:href="#path-55"></use>
                    </mask>
                    <g id="Clip-256"></g>
                    <path d="M22.9871,9.4585 C25.4931,9.4585 27.5211,7.4265 27.5211,4.9205 C27.5211,2.4185 25.4931,0.3865 22.9871,0.3865 L4.9391,0.3865 C3.6881,0.3865 2.5511,0.8955 1.7331,1.7145 C0.9101,2.5375 0.4051,3.6695 0.4051,4.9205 L0.4051,23.0005 L9.4761,23.0005 L9.4761,9.4585 L22.9871,9.4585 Z" id="Fill-255" fill="#1D1B1C" mask="url(#mask-56)"></path>
                </g>
                <path d="M226.6961,431.4375 L226.6961,431.4375 C229.2011,431.4375 231.2311,433.4685 231.2311,435.9735 L231.2311,436.7465 C231.2791,436.4825 231.3071,436.2125 231.3071,435.9355 L231.3071,422.3955 L263.0541,422.3955 C263.6781,422.3955 264.2771,422.2675 264.8211,422.0405 C264.9561,421.9825 265.0871,421.9185 265.2181,421.8485 C265.6021,421.6375 265.9541,421.3745 266.2611,421.0675 C266.7761,420.5525 267.1671,419.9155 267.3841,419.2055 C267.4291,419.0645 267.4671,418.9205 267.4971,418.7735 C267.5571,418.4795 267.5901,418.1715 267.5901,417.8575 L267.5901,349.8745 L299.3401,349.8745 C300.5911,349.8745 301.7231,349.3685 302.5461,348.5455 C303.3651,347.7275 303.8741,346.5905 303.8741,345.3395 L303.8741,327.2915 C303.8741,324.7865 301.8421,322.7575 299.3401,322.7575 C296.8341,322.7575 294.8021,324.7865 294.8021,327.2915 L294.8021,340.8025 L263.0541,340.8025 C260.5501,340.8025 258.5201,342.8335 258.5201,345.3395 L258.5201,413.3235 L226.7701,413.3235 C224.4121,413.3235 222.4721,415.1255 222.2591,417.4295 C222.2521,417.5025 222.2451,417.5795 222.2421,417.6535 C222.2391,417.7295 222.2361,417.8105 222.2361,417.8865 L222.2361,435.1685 C222.6161,433.0485 224.4661,431.4375 226.6961,431.4375" id="Fill-258" fill="#1D1B1C"></path>
                <path d="M149.6678,435.8789 C149.6678,438.3839 151.6988,440.4149 154.2038,440.4149 C156.7088,440.4149 158.7388,438.3839 158.7388,435.8789 L158.7388,417.8319 C158.7388,415.3269 156.7088,413.2959 154.2038,413.2959 C151.6988,413.2959 149.6678,415.3269 149.6678,417.8319 L149.6678,435.8789 Z" id="Fill-260" fill="#1D1B1C"></path>
                <path d="M27.5379,313.0215 C25.0329,313.0215 23.0029,315.0515 23.0029,317.5565 C23.0029,320.0615 25.0329,322.0925 27.5379,322.0925 L45.5849,322.0925 C48.0899,322.0925 50.1209,320.0615 50.1209,317.5565 C50.1209,315.0515 48.0899,313.0215 45.5849,313.0215 L27.5379,313.0215 Z" id="Fill-262" fill="#1D1B1C"></path>
                <path d="M100.0174,349.6489 L100.0174,349.6489 C97.5124,349.6489 95.4814,351.6799 95.4814,354.1849 L95.4814,390.0939 C95.4814,392.5989 97.5124,394.6299 100.0174,394.6299 C102.5224,394.6299 104.5524,392.5989 104.5524,390.0939 L104.5524,354.1849 C104.5524,351.6799 102.5224,349.6489 100.0174,349.6489" id="Fill-264" fill="#1D1B1C"></path>
                <path d="M140.2976,397.8384 C139.6036,396.2294 137.9966,395.1024 136.1316,395.1024 L122.6206,395.1024 L122.6206,354.1844 C122.6206,352.9334 122.1116,351.7964 121.2926,350.9774 C120.4706,350.1554 119.3346,349.6504 118.0836,349.6504 C115.5776,349.6504 113.5486,351.6784 113.5486,354.1844 L113.5486,399.6364 C113.5486,400.8914 114.0576,402.0244 114.8766,402.8464 C115.6986,403.6654 116.8316,404.1744 118.0836,404.1744 L131.6006,404.1744 L131.6006,435.9314 C131.6006,438.4374 133.6326,440.4684 136.1376,440.4684 C137.3896,440.4684 138.5226,439.9604 139.3446,439.1414 C140.1636,438.3184 140.6726,437.1854 140.6726,435.9314 L140.6726,399.6504 C140.6726,399.4894 140.6626,399.3294 140.6466,399.1724 C140.5986,398.7024 140.4776,398.2544 140.2976,397.8384" id="Fill-266" fill="#1D1B1C"></path>
                <path d="M281.243,367.8628 L299.29,367.8628 C301.795,367.8628 303.825,365.8328 303.825,363.3278 C303.825,360.8228 301.795,358.7918 299.29,358.7918 L281.243,358.7918 C278.738,358.7918 276.707,360.8228 276.707,363.3278 C276.707,365.8328 278.738,367.8628 281.243,367.8628" id="Fill-268" fill="#1D1B1C"></path>
                <path d="M390.0379,367.9951 L390.0379,367.9951 C387.5329,367.9951 385.5019,370.0261 385.5019,372.5311 L385.5019,419.2841 C385.5019,421.7881 387.5329,423.8191 390.0379,423.8191 C392.5429,423.8191 394.5729,421.7881 394.5729,419.2841 L394.5729,372.5311 C394.5729,370.0261 392.5429,367.9951 390.0379,367.9951" id="Fill-270" fill="#1D1B1C"></path>
                <path d="M371.864,349.7646 C369.359,349.7646 367.329,351.7956 367.329,354.3006 L367.329,419.2806 C367.329,421.7856 369.359,423.8156 371.864,423.8156 C374.369,423.8156 376.399,421.7856 376.399,419.2806 L376.399,354.3006 C376.399,351.7956 374.369,349.7646 371.864,349.7646" id="Fill-272" fill="#1D1B1C"></path>
                <path d="M408.1892,431.4097 L444.6052,431.4097 C447.1102,431.4097 449.1422,429.3807 449.1422,426.8757 C449.1422,424.3697 447.1102,422.3407 444.6052,422.3407 L412.7232,422.3407 L412.7232,377.0637 L426.2372,377.0637 C428.7432,377.0637 430.7712,375.0347 430.7712,372.5297 C430.7712,370.0237 428.7432,367.9947 426.2372,367.9947 L408.1892,367.9947 C405.6832,367.9947 403.6552,370.0237 403.6552,372.5297 L403.6552,426.8757 C403.6552,429.3807 405.6832,431.4097 408.1892,431.4097" id="Fill-274" fill="#1D1B1C"></path>
                <g id="Group-278" transform="translate(222.000000, 431.000000)">
                    <mask id="mask-58" fill="white">
                        <use xlink:href="#path-57"></use>
                    </mask>
                    <g id="Clip-277"></g>
                    <path d="M9.2312,4.9731 C9.2312,2.4681 7.2012,0.4371 4.6962,0.4371 C2.4652,0.4371 0.6162,2.0481 0.2362,4.1691 C0.1892,4.4301 0.1602,4.6981 0.1602,4.9731 L0.1602,23.0001 L9.2312,23.0001 L9.2312,5.7461 L9.2312,4.9731 Z" id="Fill-276" fill="#1D1B1C" mask="url(#mask-58)"></path>
                </g>
                <path d="M208.6297,431.4375 C206.1247,431.4375 204.0937,433.4685 204.0937,435.9735 L204.0937,453.9995 L213.1647,453.9995 L213.1647,435.9735 C213.1647,433.4685 211.1347,431.4375 208.6297,431.4375" id="Fill-279" fill="#1D1B1C"></path>
                <path d="M231.3055,381.7007 C231.3055,380.4467 230.7965,379.3137 229.9775,378.4947 C229.1595,377.6757 228.0265,377.1667 226.7715,377.1667 C224.2655,377.1667 222.2375,379.1957 222.2375,381.7007 L222.2375,395.2527 L208.7745,395.2527 C207.5265,395.2527 206.3975,395.7587 205.5775,396.5747 C205.5755,396.5747 205.5715,396.5777 205.5685,396.5807 L205.5335,396.6167 C204.6465,397.4447 204.0925,398.6257 204.0925,399.9307 L204.0925,417.9797 C204.0925,419.2307 204.6015,420.3667 205.4205,421.1887 C206.2435,422.0087 207.3795,422.5167 208.6305,422.5167 C211.1325,422.5167 213.1645,420.4847 213.1645,417.9797 L213.1645,404.3217 L226.8235,404.3217 C229.3275,404.3217 231.3575,402.2927 231.3575,399.7867 C231.3575,399.5507 231.3375,399.3207 231.3055,399.0967 L231.3055,381.7007 Z" id="Fill-281" fill="#1D1B1C"></path>
                <path d="M335.4822,440.5068 C337.9882,440.5068 340.0162,438.4778 340.0162,435.9728 L340.0162,417.9248 C340.0162,415.4188 337.9882,413.3898 335.4822,413.3898 C332.9762,413.3898 330.9482,415.4188 330.9482,417.9248 L330.9482,431.4378 L317.3892,431.4378 C317.3262,431.4378 317.2642,431.4378 317.2012,431.4448 C314.7822,431.5408 312.8522,433.5308 312.8522,435.9728 L312.8522,449.4828 L299.3412,449.4828 C296.8422,449.4828 294.8162,451.5038 294.8052,453.9998 L321.9232,453.9998 L321.9232,440.5068 L335.4822,440.5068 Z" id="Fill-283" fill="#1D1B1C"></path>
                <path d="M371.9549,449.5127 L353.9069,449.5127 C352.6519,449.5127 351.5189,450.0217 350.6969,450.8407 C349.8889,451.6497 349.3849,452.7647 349.3719,453.9997 L376.4869,453.9997 C376.4619,451.5167 374.4409,449.5127 371.9549,449.5127" id="Fill-285" fill="#1D1B1C"></path>
                <path d="M27.2097,41.4096 C24.7047,41.4096 22.6747,43.4396 22.6747,45.9446 C22.6747,48.4496 24.7047,50.4806 27.2097,50.4806 C29.7147,50.4806 31.7447,48.4496 31.7447,45.9446 C31.7447,43.4396 29.7147,41.4096 27.2097,41.4096" id="Fill-287" fill="#1D1B1C"></path>
                <path d="M154.2039,113.7397 C156.7089,113.7397 158.7389,111.7087 158.7389,109.2037 C158.7389,106.6987 156.7089,104.6687 154.2039,104.6687 C151.6989,104.6687 149.6679,106.6987 149.6679,109.2037 C149.6679,111.7087 151.6989,113.7397 154.2039,113.7397" id="Fill-289" fill="#1D1B1C"></path>
                <path d="M244.9666,140.7436 C242.4616,140.7436 240.4316,142.7746 240.4316,145.2786 C240.4316,147.7836 242.4616,149.8146 244.9666,149.8146 C247.4716,149.8146 249.5016,147.7836 249.5016,145.2786 C249.5016,142.7746 247.4716,140.7436 244.9666,140.7436" id="Fill-291" fill="#1D1B1C"></path>
                <path d="M9.0711,167.748 C6.5661,167.748 4.5351,169.778 4.5351,172.283 C4.5351,174.788 6.5661,176.819 9.0711,176.819 C11.5761,176.819 13.6061,174.788 13.6061,172.283 C13.6061,169.778 11.5761,167.748 9.0711,167.748" id="Fill-293" fill="#1D1B1C"></path>
                <path d="M27.5252,222.6929 C25.0192,222.6929 22.9892,224.7239 22.9892,227.2289 C22.9892,229.7339 25.0192,231.7639 27.5252,231.7639 C30.0292,231.7639 32.0602,229.7339 32.0602,227.2289 C32.0602,224.7239 30.0292,222.6929 27.5252,222.6929" id="Fill-295" fill="#1D1B1C"></path>
                <path d="M81.6072,242.3198 C79.1022,242.3198 77.0722,244.3498 77.0722,246.8548 C77.0722,249.3598 79.1022,251.3908 81.6072,251.3908 C84.1122,251.3908 86.1432,249.3598 86.1432,246.8548 C86.1432,244.3498 84.1122,242.3198 81.6072,242.3198" id="Fill-297" fill="#1D1B1C"></path>
                <path d="M96.6013,226.5889 C96.6013,229.0939 98.6323,231.1249 101.1373,231.1249 C103.6423,231.1249 105.6723,229.0939 105.6723,226.5889 C105.6723,224.0839 103.6423,222.0539 101.1373,222.0539 C98.6323,222.0539 96.6013,224.0839 96.6013,226.5889" id="Fill-299" fill="#1D1B1C"></path>
                <path d="M210.8777,272.8589 C210.8777,270.3539 208.8477,268.3229 206.3427,268.3229 C203.8377,268.3229 201.8077,270.3539 201.8077,272.8589 C201.8077,275.3639 203.8377,277.3949 206.3427,277.3949 C208.8477,277.3949 210.8777,275.3639 210.8777,272.8589" id="Fill-301" fill="#1D1B1C"></path>
                <path d="M226.7722,340.6938 C224.2672,340.6938 222.2362,342.7248 222.2362,345.2298 C222.2362,347.7348 224.2672,349.7648 226.7722,349.7648 C229.2762,349.7648 231.3072,347.7348 231.3072,345.2298 C231.3072,342.7248 229.2762,340.6938 226.7722,340.6938" id="Fill-303" fill="#1D1B1C"></path>
                <path d="M27.5252,367.2934 C25.0192,367.2934 22.9892,369.3244 22.9892,371.8294 C22.9892,374.3344 25.0192,376.3644 27.5252,376.3644 C30.0292,376.3644 32.0602,374.3344 32.0602,371.8294 C32.0602,369.3244 30.0292,367.2934 27.5252,367.2934" id="Fill-305" fill="#1D1B1C"></path>
                <path d="M45.7898,385.5591 C43.2848,385.5591 41.2548,387.5891 41.2548,390.0941 C41.2548,392.5991 43.2848,394.6301 45.7898,394.6301 C48.2948,394.6301 50.3248,392.5991 50.3248,390.0941 C50.3248,387.5891 48.2948,385.5591 45.7898,385.5591" id="Fill-307" fill="#1D1B1C"></path>
                <path d="M63.5965,349.6489 C61.0915,349.6489 59.0615,351.6799 59.0615,354.1849 C59.0615,356.6899 61.0915,358.7199 63.5965,358.7199 C66.1015,358.7199 68.1315,356.6899 68.1315,354.1849 C68.1315,351.6799 66.1015,349.6489 63.5965,349.6489" id="Fill-309" fill="#1D1B1C"></path>
                <path d="M353.8894,395.1079 C351.3844,395.1079 349.3534,397.1389 349.3534,399.6439 C349.3534,402.1489 351.3844,404.1789 353.8894,404.1789 C356.3944,404.1789 358.4244,402.1489 358.4244,399.6439 C358.4244,397.1389 356.3944,395.1079 353.8894,395.1079" id="Fill-311" fill="#1D1B1C"></path>
                <path d="M331.0838,363.3276 C331.0838,365.8326 333.1138,367.8626 335.6188,367.8626 C338.1238,367.8626 340.1548,365.8326 340.1548,363.3276 C340.1548,360.8226 338.1238,358.7916 335.6188,358.7916 C333.1138,358.7916 331.0838,360.8226 331.0838,363.3276" id="Fill-313" fill="#1D1B1C"></path>
                <g id="Group-317" transform="translate(331.000000, 50.000000)">
                    <mask id="mask-60" fill="white">
                        <use xlink:href="#path-59"></use>
                    </mask>
                    <g id="Clip-316"></g>
                    <path d="M9.157,4.955 C9.157,2.45 7.129,0.421 4.623,0.421 C2.117,0.421 0.089,2.45 0.089,4.955 L0.089,104.437 C0.089,105.691 0.597,106.824 1.416,107.643 C2.235,108.462 3.368,108.971 4.623,108.971 C4.645,108.971 4.668,108.971 4.69,108.968 C4.713,108.971 4.734,108.971 4.757,108.971 L122.544,108.971 L122.544,99.899 L9.157,99.899 L9.157,4.955 Z" id="Fill-315" fill="#1D1B1C" mask="url(#mask-60)"></path>
                </g>
                <path d="M131.698,73.1152 L131.698,73.1152 C131.698,75.6202 133.729,77.6512 136.234,77.6512 L262.986,77.6512 C265.491,77.6512 267.521,75.6202 267.521,73.1152 C267.521,70.6102 265.491,68.5802 262.986,68.5802 L136.234,68.5802 C133.729,68.5802 131.698,70.6102 131.698,73.1152" id="Fill-318" fill="#1D1B1C"></path>
                <g id="Group-322" transform="translate(422.000000, 204.000000)">
                    <mask id="mask-62" fill="white">
                        <use xlink:href="#path-61"></use>
                    </mask>
                    <g id="Clip-321"></g>
                    <path d="M0.0242,4.9018 C0.0242,7.4038 2.0552,9.4358 4.5612,9.4358 L31.5442,9.4358 L31.5442,0.3638 L4.5612,0.3638 C2.0552,0.3638 0.0242,2.3958 0.0242,4.9018" id="Fill-320" fill="#1D1B1C" mask="url(#mask-62)"></path>
                </g>
                <g id="Group-325" transform="translate(385.000000, 186.000000)">
                    <mask id="mask-64" fill="white">
                        <use xlink:href="#path-63"></use>
                    </mask>
                    <g id="Clip-324"></g>
                    <path d="M18.7381,4.7187 L18.7381,36.4657 L5.2271,36.4657 C2.7211,36.4657 0.6931,38.4977 0.6931,41.0037 C0.6931,43.5057 2.7211,45.5377 5.2271,45.5377 L23.2751,45.5377 C24.5261,45.5377 25.6631,45.0287 26.4821,44.2097 C27.3041,43.3867 27.8091,42.2547 27.8091,41.0037 L27.8091,9.2527 L68.5441,9.2527 L68.5441,0.1837 L23.2751,0.1837 C20.7691,0.1837 18.7381,2.2127 18.7381,4.7187" id="Fill-323" fill="#1D1B1C" mask="url(#mask-64)"></path>
                </g>
                <g id="Group-328" transform="translate(422.000000, 276.000000)">
                    <mask id="mask-66" fill="white">
                        <use xlink:href="#path-65"></use>
                    </mask>
                    <g id="Clip-327"></g>
                    <path d="M22.5515,0.9336 C20.1325,1.0296 18.2025,3.0196 18.2025,5.4616 L18.2025,18.9726 L4.6925,18.9726 C2.1865,18.9726 0.1555,21.0036 0.1555,23.5096 L0.1555,41.5576 C0.1555,42.8086 0.6635,43.9416 1.4835,44.7646 C2.3055,45.5836 3.4415,46.0926 4.6925,46.0926 C7.1955,46.0926 9.2265,44.0596 9.2265,41.5576 L9.2265,28.0436 L22.7395,28.0436 C25.2425,28.0436 27.2755,26.0126 27.2755,23.5096 L27.2755,9.9966 L31.5435,9.9966 L31.5435,0.9276 L22.7395,0.9276 C22.6765,0.9276 22.6145,0.9276 22.5515,0.9336" id="Fill-326" fill="#1D1B1C" mask="url(#mask-66)"></path>
                </g>
                <g id="Group-331" transform="translate(367.000000, 313.000000)">
                    <mask id="mask-68" fill="white">
                        <use xlink:href="#path-67"></use>
                    </mask>
                    <g id="Clip-330"></g>
                    <path d="M82.0027,41.2568 C82.0027,38.7518 79.9747,36.7228 77.4687,36.7228 L45.7217,36.7228 L45.7177,4.9748 C45.7177,2.4698 43.6897,0.4378 41.1837,0.4378 L4.9017,0.4378 C2.3967,0.4378 0.3637,2.4698 0.3637,4.9748 C0.3637,7.4778 2.3967,9.5098 4.9017,9.5098 L36.6487,9.5098 L36.6487,41.2568 C36.6487,43.7618 38.6777,45.7918 41.1837,45.7918 L72.9307,45.7918 L72.9307,77.5418 C72.9307,78.7958 73.4427,79.9318 74.2657,80.7518 C74.6907,81.1768 75.1997,81.5158 75.7627,81.7428 C76.2907,81.9608 76.8667,82.0788 77.4717,82.0788 L86.5437,82.0788 L86.5437,73.0068 L82.0027,73.0068 L82.0027,41.2568 Z" id="Fill-329" fill="#1D1B1C" mask="url(#mask-68)"></path>
                </g>
                <g id="Group-334" transform="translate(421.000000, 386.000000)">
                    <mask id="mask-70" fill="white">
                        <use xlink:href="#path-69"></use>
                    </mask>
                    <g id="Clip-333"></g>
                    <path d="M9.867,4.6748 C9.867,2.1698 7.835,0.1408 5.329,0.1408 C2.827,0.1408 0.795,2.1698 0.795,4.6748 L0.795,22.7228 C0.795,23.9738 1.304,25.1108 2.123,25.9288 C2.945,26.7518 4.078,27.2578 5.329,27.2578 L32.544,27.2578 L32.544,18.1858 L9.867,18.1858 L9.867,4.6748 Z" id="Fill-332" fill="#1D1B1C" mask="url(#mask-70)"></path>
                </g>
                <path d="M353.9051,14.063 C351.4001,14.063 349.3691,16.094 349.3691,18.599 C349.3691,21.104 351.4001,23.134 353.9051,23.134 C356.4101,23.134 358.4401,21.104 358.4401,18.599 C358.4401,16.094 356.4101,14.063 353.9051,14.063" id="Fill-335" fill="#1D1B1C"></path>
            </g>
        </g>
    </g>
</svg>