<?xml version="1.0" encoding="UTF-8"?>
<svg width="454px" height="456px" viewBox="0 0 454 456" version="1.1" xmlns="http://www.w3.org/2000/svg" xmlns:xlink="http://www.w3.org/1999/xlink">
    <title>Pattern01</title>
    <defs>
        <polygon id="path-1" points="0.19555 0.457 39.0248 0.457 39.0248 32.87215 0.19555 32.87215"></polygon>
        <polygon id="path-3" points="0.7652 0.457 140.9662 0.457 140.9662 70.4557 0.7652 70.4557"></polygon>
        <polygon id="path-5" points="0.3846 0.457 39.14885 0.457 39.14885 33.04695 0.3846 33.04695"></polygon>
        <polygon id="path-7" points="0.9737 0.457 226.6917 0.457 226.6917 51.7848 0.9737 51.7848"></polygon>
        <polygon id="path-9" points="0.6724 0.457 153.6654 0.457 153.6654 33.0728 0.6724 33.0728"></polygon>
        <polygon id="path-11" points="0.27135 0.72785 45.543 0.72785 45.543 46 0.27135 46"></polygon>
        <polygon id="path-13" points="0.6154 0.70205 38.32665 0.70205 38.32665 32 0.6154 32"></polygon>
        <polygon id="path-15" points="0.68385 0.45885 21.6401 0.45885 21.6401 15 0.68385 15"></polygon>
        <polygon id="path-17" points="0.1293 0.457 6.543 0.457 6.543 6.871 0.1293 6.871"></polygon>
        <polygon id="path-19" points="0.7683 0.6994 49.543 0.6994 49.543 123.8554 0.7683 123.8554"></polygon>
        <polygon id="path-21" points="0.967589332 0.7274 33.543 0.7274 33.543 147.1884 0.967589332 147.1884"></polygon>
        <polygon id="path-23" points="0.1335 0.0034 59.543 0.0034 59.543 36.1424 0.1335 36.1424"></polygon>
        <polygon id="path-25" points="0.7651 0.6947 401.543 0.6947 401.543 47.150852 0.7651 47.150852"></polygon>
        <polygon id="path-27" points="0.1525 0.4949 178.543 0.4949 178.543 33.7339 0.1525 33.7339"></polygon>
        <polygon id="path-29" points="0.6571 0.3862 266.543 0.3862 266.543 79.4312 0.6571 79.4312"></polygon>
        <polygon id="path-31" points="0.16435 0.28405 30.543 0.28405 30.543 37.0773 0.16435 37.0773"></polygon>
        <polygon id="path-33" points="0.4455 0.70105 26.15853 0.70105 26.15853 20 0.4455 20"></polygon>
        <polygon id="path-35" points="0.6499 0.837 83.543 0.837 83.543 168.365 0.6499 168.365"></polygon>
        <polygon id="path-37" points="0.6318 0.0866 40.543 0.0866 40.543 28.4271 0.6318 28.4271"></polygon>
    </defs>
    <g id="Page-1" stroke="none" stroke-width="1" fill="none" fill-rule="evenodd">
        <g id="Pattern01">
            <polygon id="Fill-1" fill="#242424" points="0 454.543 453.543 454.543 453.543 1 0 1"></polygon>
            <g id="Group-193" transform="translate(0.000000, 0.543000)">
                <path d="M31.2543,174.8652 C30.4323,174.0472 29.2993,173.5382 28.0453,173.5382 C25.5423,173.5382 23.5103,175.5692 23.5103,178.0752 L23.5103,215.0032 C23.5103,215.3262 23.5453,215.6392 23.6093,215.9442 C23.8273,216.5612 24.1863,217.1402 24.6783,217.6342 L50.5473,243.5032 C52.3163,245.2752 55.1913,245.2752 56.9603,243.5032 C58.7333,241.7322 58.7333,238.8592 56.9603,237.0902 L32.5823,212.7122 L32.5823,178.0752 C32.5823,176.8242 32.0733,175.6882 31.2543,174.8652" id="Fill-2" fill="#1D1B1C"></path>
                <path d="M43.6049,50.418 C44.4269,51.25 45.5679,51.766 46.8299,51.766 L113.0649,51.766 C115.5699,51.766 117.5999,49.735 117.5999,47.23 C117.5999,44.726 115.5699,42.694 113.0649,42.694 L48.6519,42.694 L6.4149,0.457 L0.0009,0.457 L0.0009,6.871 L43.1679,50.038 C43.3059,50.177 43.4539,50.301 43.6049,50.418" id="Fill-4" fill="#1D1B1C"></path>
                <path d="M287.2924,13.085 L299.9214,0.457 L287.0934,0.457 L280.8784,6.671 C279.1074,8.442 279.1074,11.314 280.8784,13.085 C282.6494,14.856 285.5214,14.856 287.2924,13.085" id="Fill-6" fill="#1D1B1C"></path>
                <path d="M314.5971,13.085 L327.2251,0.457 L314.3971,0.457 L308.1831,6.671 C306.4111,8.442 306.4111,11.314 308.1831,13.085 C309.9531,14.856 312.8261,14.856 314.5971,13.085" id="Fill-8" fill="#1D1B1C"></path>
                <path d="M375.4662,47.2949 C375.4662,49.7999 377.4972,51.8309 380.0022,51.8309 L420.9632,51.8309 C423.4682,51.8309 425.4982,49.7999 425.4982,47.2949 C425.4982,44.7899 423.4682,42.7599 420.9632,42.7599 L380.0022,42.7599 C377.4972,42.7599 375.4662,44.7899 375.4662,47.2949" id="Fill-10" fill="#1D1B1C"></path>
                <g id="Group-14" transform="translate(341.000000, 0.000000)">
                    <mask id="mask-2" fill="white">
                        <use xlink:href="#path-1"></use>
                    </mask>
                    <g id="Clip-13"></g>
                    <path d="M1.5238,31.5439 C3.2948,33.3149 6.1668,33.3149 7.9378,31.5439 L39.0248,0.4569 L26.1968,0.4569 L1.5238,25.1309 C-0.2472,26.9009 -0.2472,29.7729 1.5238,31.5439" id="Fill-12" fill="#1D1B1C" mask="url(#mask-2)"></path>
                </g>
                <path d="M158.7348,103.3164 C158.7348,105.8214 160.7648,107.8514 163.2698,107.8514 L215.3988,107.8514 L269.2588,161.7124 C270.0458,163.0594 271.5038,163.9674 273.1748,163.9674 L397.8868,163.9674 L420.9788,187.0584 L420.9788,212.4664 L353.0598,280.3854 C351.2888,282.1564 351.2888,285.0284 353.0598,286.7984 C354.8318,288.5704 357.7028,288.5704 359.4738,286.7984 L428.6208,217.6534 C429.0878,217.1864 429.4268,216.6424 429.6478,216.0624 C429.9038,215.4954 430.0488,214.8674 430.0488,214.2044 L430.0488,185.5544 C430.0488,185.2584 430.0188,184.9704 429.9648,184.6904 C429.8698,183.6744 429.4338,182.6854 428.6568,181.9084 L402.9708,156.2224 C401.9508,155.2024 400.5658,154.7734 399.2358,154.9284 C399.0658,154.9094 398.8938,154.8964 398.7178,154.8964 L275.2718,154.8964 L220.5848,100.2094 C220.2108,99.8354 219.7858,99.5454 219.3348,99.3294 C218.6908,98.9794 217.9548,98.7814 217.1718,98.7814 L163.2698,98.7814 C160.7648,98.7814 158.7348,100.8114 158.7348,103.3164" id="Fill-15" fill="#1D1B1C"></path>
                <path d="M132.2885,348.7725 C134.7935,348.7725 136.8255,346.7445 136.8255,344.2385 L136.8255,239.8345 C136.8775,239.4515 136.8775,239.0605 136.8255,238.6765 C136.7045,237.7165 136.2755,236.7895 135.5365,236.0495 L129.5525,230.0655 L74.5405,175.0545 C72.7675,173.2855 69.8975,173.2855 68.1245,175.0545 C66.3545,176.8275 66.3545,179.6975 68.1245,181.4705 L127.7535,241.0995 L127.7535,344.2385 C127.7535,346.7445 129.7825,348.7725 132.2885,348.7725" id="Fill-17" fill="#1D1B1C"></path>
                <path d="M251.3666,183.0127 C251.2796,182.9077 251.1866,182.8047 251.0916,182.7087 C250.9956,182.6137 250.8926,182.5207 250.7876,182.4337 L251.3666,183.0127 Z" id="Fill-19" fill="#1D1B1C"></path>
                <path d="M170.2914,63.1631 L134.6874,98.7691 L57.3024,98.7691 C54.7974,98.7691 52.7654,100.8021 52.7654,103.3081 C52.7654,105.8091 54.7974,107.8421 57.3024,107.8421 L136.5854,107.8421 C137.7124,107.8421 138.7394,107.4291 139.5324,106.7511 C139.6224,106.6771 139.7094,106.5971 139.7924,106.5141 C139.8754,106.4311 139.9554,106.3441 140.0284,106.2551 L176.7074,69.5791 C177.5944,68.6931 178.0354,67.5311 178.0354,66.3731 C178.0354,65.2111 177.5944,64.0501 176.7074,63.1631 C174.9354,61.3931 172.0634,61.3931 170.2914,63.1631" id="Fill-21" fill="#1D1B1C"></path>
                <path d="M0.0004,421.0273 L0.0004,433.8553 L2.3514,436.2063 C4.1224,437.9773 6.9944,437.9773 8.7654,436.2063 C10.5364,434.4353 10.5364,431.5633 8.7654,429.7933 L0.0004,421.0273 Z" id="Fill-23" fill="#1D1B1C"></path>
                <path d="M64.8852,405.8125 C63.1142,404.0415 60.2422,404.0415 58.4712,405.8125 C56.6992,407.5835 56.6992,410.4555 58.4712,412.2265 L94.1062,447.8615 C95.8772,449.6315 98.7482,449.6315 100.5202,447.8615 C102.2912,446.0895 102.2912,443.2175 100.5202,441.4475 L64.8852,405.8125 Z" id="Fill-25" fill="#1D1B1C"></path>
                <path d="M0.0004,394.3604 L0.0004,407.1884 L2.3514,409.5404 C4.1224,411.3104 6.9944,411.3104 8.7654,409.5404 C10.5364,407.7684 10.5364,404.8964 8.7654,403.1264 L0.0004,394.3604 Z" id="Fill-27" fill="#1D1B1C"></path>
                <path d="M99.6283,331.9404 L99.6283,256.1044 C99.8923,254.6854 99.4763,253.1654 98.3783,252.0674 L50.0733,203.7614 C48.3023,201.9914 45.4303,201.9914 43.6593,203.7614 C41.8883,205.5334 41.8883,208.4054 43.6593,210.1764 L90.5583,257.0754 L90.5583,334.0034 C90.5583,335.1154 90.9593,336.1324 91.6233,336.9214 C91.7483,337.0864 91.8823,337.2494 92.0333,337.4004 L129.0523,374.4194 C130.8223,376.1904 133.6943,376.1904 135.4663,374.4194 L135.5793,374.3054 C137.3503,372.5344 137.3503,369.6624 135.5793,367.8914 L99.6283,331.9404 Z" id="Fill-29" fill="#1D1B1C"></path>
                <path d="M319.0346,434.4258 L319.0346,434.4258 C321.5396,434.4258 323.5696,432.3958 323.5696,429.8908 L323.5696,341.9948 C323.5696,340.8628 323.1526,339.8298 322.4676,339.0348 C322.3596,338.9008 322.2466,338.7698 322.1216,338.6448 L268.6076,285.1308 L268.6076,183.7298 L268.6076,176.4338 C268.6076,175.5158 268.3366,174.6568 267.8626,173.9448 C267.6926,173.6848 267.4976,173.4458 267.2796,173.2278 C267.0626,173.0098 266.8226,172.8148 266.5626,172.6448 L212.7296,118.8118 C211.8976,117.9798 210.8236,117.5448 209.7376,117.4928 C209.5686,117.4748 209.3976,117.4628 209.2246,117.4628 L57.3016,117.4628 C54.7966,117.4628 52.7656,119.4928 52.7656,121.9978 C52.7656,124.5028 54.7966,126.5328 57.3016,126.5328 L207.6266,126.5328 L259.5396,178.4468 L259.5396,286.4488 C259.4976,286.8018 259.4976,287.1598 259.5396,287.5118 C259.6516,288.4888 260.0836,289.4358 260.8356,290.1878 L264.9436,294.2958 L314.4996,343.8478 L314.4996,429.8908 C314.4996,432.3958 316.5296,434.4258 319.0346,434.4258" id="Fill-31" fill="#1D1B1C"></path>
                <path d="M64.683,249.6914 L50.203,264.1714 C48.432,265.9424 48.432,268.8144 50.203,270.5854 C51.974,272.3564 54.846,272.3564 56.617,270.5854 L71.097,256.1054 C72.869,254.3344 72.869,251.4624 71.097,249.6914 C69.326,247.9204 66.454,247.9204 64.683,249.6914" id="Fill-33" fill="#1D1B1C"></path>
                <path d="M49.6488,316.4189 L24.9918,341.0759 C23.2198,342.8479 23.2198,345.7199 24.9918,347.4899 C26.7618,349.2619 29.6338,349.2619 31.4058,347.4899 L56.0628,322.8329 C57.8348,321.0619 57.8348,318.1899 56.0628,316.4189 C54.2918,314.6479 51.4198,314.6479 49.6488,316.4189" id="Fill-35" fill="#1D1B1C"></path>
                <path d="M109.2504,270.7676 L109.2504,325.8436 C109.2504,328.3486 111.2804,330.3786 113.7854,330.3786 C116.2904,330.3786 118.3214,328.3486 118.3214,325.8436 L118.3214,270.7676 C118.3214,270.7606 118.3194,270.7536 118.3194,270.7466 L118.3194,248.8046 L118.3194,247.3136 C118.3194,246.1626 117.8884,245.1096 117.1784,244.3056 C117.1164,244.2386 117.0564,244.1706 116.9924,244.1076 C116.9254,244.0396 116.8574,243.9766 116.7874,243.9146 L50.1114,177.2406 C48.3424,175.4706 45.4694,175.4706 43.6994,177.2406 C41.9264,179.0126 41.9264,181.8836 43.6994,183.6566 L109.2514,249.2076 L109.2514,270.7466 C109.2514,270.7536 109.2504,270.7606 109.2504,270.7676" id="Fill-37" fill="#1D1B1C"></path>
                <path d="M150.9809,414.5674 L150.9809,414.5674 C153.4859,414.5674 155.5159,412.5374 155.5159,410.0324 L155.5159,342.3284 C155.5159,342.3254 155.5169,342.3224 155.5169,342.3184 L155.5169,240.8244 L155.5169,231.6754 C155.5169,230.6444 155.1709,229.6914 154.5889,228.9264 C154.4669,228.7634 154.3329,228.6094 154.1889,228.4654 C154.0449,228.3214 153.8909,228.1874 153.7279,228.0654 L100.7169,175.0544 C98.9479,173.2854 96.0739,173.2854 94.3039,175.0544 C92.5319,176.8274 92.5319,179.6974 94.3039,181.4704 L146.4449,233.6084 L146.4449,342.3184 C146.4449,342.3224 146.4459,342.3274 146.4459,342.3314 L146.4459,410.0324 C146.4459,412.5374 148.4759,414.5674 150.9809,414.5674" id="Fill-39" fill="#1D1B1C"></path>
                <path d="M47.6,390.5947 C47.6,389.6407 47.304,388.7567 46.8,388.0267 C46.608,387.6967 46.375,387.3827 46.092,387.0997 L13.89,354.8977 L13.89,313.3127 L30.237,296.9657 C32.007,295.1957 32.007,292.3237 30.237,290.5517 C28.465,288.7817 25.593,288.7817 23.823,290.5517 L6.148,308.2267 C5.26,309.1147 4.818,310.2787 4.82,311.4417 C4.82,311.4437 4.819,311.4467 4.819,311.4487 L4.819,356.7847 C4.819,356.8387 4.826,356.8907 4.828,356.9447 C4.83,357.0357 4.832,357.1277 4.841,357.2187 C4.853,357.3447 4.872,357.4677 4.895,357.5907 C4.898,357.6097 4.9,357.6277 4.904,357.6477 C5.087,358.5997 5.569,359.4447 6.247,360.0827 L38.529,392.3647 L38.529,417.0117 C38.529,418.2807 39.051,419.4257 39.89,420.2487 C39.915,420.2757 39.937,420.3037 39.963,420.3297 L73.633,453.9997 L86.461,453.9997 L47.6,415.1387 L47.6,390.5947 Z" id="Fill-41" fill="#1D1B1C"></path>
                <path d="M23.019,76.7471 L23.019,76.7471 C24.79,74.9761 24.79,72.1041 23.019,70.3331 L0,47.3141 L0,60.1431 L16.605,76.7471 C18.375,78.5181 21.248,78.5181 23.019,76.7471" id="Fill-43" fill="#1D1B1C"></path>
                <path d="M23.019,103.6387 L23.019,103.6387 C24.79,101.8677 24.79,98.9957 23.019,97.2247 L0,74.2057 L0,87.0347 L16.605,103.6387 C18.375,105.4097 21.248,105.4097 23.019,103.6387" id="Fill-45" fill="#1D1B1C"></path>
                <path d="M23.019,130.3379 L23.019,130.3379 C24.79,128.5669 24.79,125.6939 23.019,123.9239 L0,100.9049 L0,113.7339 L16.605,130.3379 C18.375,132.1089 21.248,132.1089 23.019,130.3379" id="Fill-47" fill="#1D1B1C"></path>
                <path d="M3.4906,237.1523 C2.5326,236.1943 1.2536,235.7583 0.0006,235.8373 L0.0006,247.0563 L3.4906,243.5663 C5.2616,241.7953 5.2616,238.9233 3.4906,237.1523" id="Fill-49" fill="#1D1B1C"></path>
                <path d="M16.7406,250.4023 C14.9696,248.6313 12.0976,248.6313 10.3266,250.4023 L0.0006,260.7293 L0.0006,273.5573 L16.7406,256.8163 C18.5116,255.0453 18.5116,252.1733 16.7406,250.4023" id="Fill-51" fill="#1D1B1C"></path>
                <path d="M43.5375,250.5029 C41.7665,248.7319 38.8935,248.7319 37.1235,250.5029 L0.0005,287.6259 L0.0005,300.4539 L43.5375,256.9169 C45.3085,255.1459 45.3085,252.2739 43.5375,250.5029" id="Fill-53" fill="#1D1B1C"></path>
                <path d="M4.8188,222.0664 C4.7688,222.5464 4.7978,223.0324 4.9008,223.5054 C5.1228,224.6774 5.7948,225.6874 6.7308,226.3534 L23.8808,243.5034 C25.6508,245.2744 28.5228,245.2744 30.2948,243.5034 C32.0648,241.7314 32.0648,238.8604 30.2948,237.0884 L13.8898,220.6854 L13.8898,171.0284 C14.1858,169.5854 13.7768,168.0254 12.6568,166.9064 L0.0008,154.2494 L0.0008,167.0774 L4.8188,171.8964 L4.8188,222.0664 Z" id="Fill-55" fill="#1D1B1C"></path>
                <path d="M22.2914,162.7217 C22.8954,163.3257 23.6294,163.7267 24.4034,163.9187 L58.5094,163.9187 L77.1014,163.9187 C78.3544,163.9187 79.4874,163.4097 80.3104,162.5907 C81.1294,161.7687 81.6384,160.6357 81.6384,159.3837 C81.6384,156.8787 79.6064,154.8467 77.1014,154.8467 L58.5094,154.8467 L27.2414,154.8467 L0.0004,127.6017 L0.0004,140.4327 L19.6224,160.0527 L22.2914,162.7217 Z" id="Fill-57" fill="#1D1B1C"></path>
                <path d="M34.0746,135.1143 C34.0746,137.6193 36.1046,139.6493 38.6096,139.6493 C41.1146,139.6493 43.1446,137.6193 43.1446,135.1143 L43.1446,65.8173 L43.1446,65.6413 C43.1446,65.6303 43.1426,65.6173 43.1426,65.6043 C43.1426,65.4643 43.1356,65.3243 43.1216,65.1833 C43.1216,65.1793 43.1206,65.1763 43.1206,65.1713 C43.0196,64.1683 42.5946,63.1923 41.8256,62.4243 L0.0006,20.5973 L0.0006,33.4263 L34.0746,67.5003 L34.0746,135.1143 Z" id="Fill-59" fill="#1D1B1C"></path>
                <g id="Group-63" transform="translate(52.000000, 0.000000)">
                    <mask id="mask-4" fill="white">
                        <use xlink:href="#path-3"></use>
                    </mask>
                    <g id="Clip-62"></g>
                    <path d="M5.3022,61.3877 C2.7972,61.3877 0.7652,63.4157 0.7652,65.9217 C0.7652,68.4277 2.7972,70.4557 5.3022,70.4557 L69.1582,70.4557 C70.1662,70.4557 71.0982,70.1297 71.8502,69.5737 C72.0312,69.4387 72.2042,69.2877 72.3652,69.1277 C72.5192,68.9747 72.6622,68.8117 72.7902,68.6357 L72.8002,68.6257 L140.9662,0.4567 L128.1382,0.4567 L67.2092,61.3877 L5.3022,61.3877 Z" id="Fill-61" fill="#1D1B1C" mask="url(#mask-4)"></path>
                </g>
                <path d="M154.2856,202.0889 L89.7526,137.5559 C88.9276,136.7309 87.8606,136.2939 86.7796,136.2379 C86.5006,136.1849 86.2136,136.1539 85.9186,136.1539 L57.3016,136.1539 C54.7976,136.1539 52.7656,138.1859 52.7656,140.6909 C52.7656,143.1939 54.7976,145.2259 57.3016,145.2259 L84.5946,145.2259 L147.8716,208.5029 C149.6426,210.2749 152.5146,210.2749 154.2856,208.5029 C156.0566,206.7319 156.0566,203.8599 154.2856,202.0889" id="Fill-64" fill="#1D1B1C"></path>
                <path d="M303.5072,349.791 L248.7392,295.022 L248.7392,185.915 C248.7392,184.821 248.3492,183.816 247.7022,183.032 L247.6872,183.013 L247.1072,182.434 L247.0882,182.418 L202.2182,137.547 C200.4472,135.774 197.5742,135.774 195.8052,137.547 C194.0312,139.317 194.0312,142.19 195.8052,143.96 L239.6672,187.822 L239.6672,296.189 C239.4682,297.559 239.8892,299.001 240.9432,300.054 L295.8162,354.927 L295.8162,445.277 L287.0932,454 L299.9212,454 L303.4082,450.513 C304.3152,449.684 304.8862,448.495 304.8862,447.17 L304.8862,353.555 C304.8862,353.323 304.8632,353.098 304.8302,352.876 C304.8002,351.756 304.3612,350.645 303.5072,349.791" id="Fill-66" fill="#1D1B1C"></path>
                <path d="M78.6957,32.2344 C79.4527,32.8004 80.3887,33.1404 81.4077,33.1404 L131.7907,33.1404 C134.2957,33.1404 136.3267,31.1104 136.3267,28.6054 C136.3267,26.1004 134.2957,24.0704 131.7907,24.0704 L83.2537,24.0704 L59.6397,0.4574 L46.8117,0.4574 L78.0727,31.7184 C78.2677,31.9134 78.4767,32.0824 78.6957,32.2344" id="Fill-68" fill="#1D1B1C"></path>
                <path d="M86.1313,12.9414 C86.9593,13.8264 88.1333,14.3814 89.4403,14.3814 L150.0753,14.3814 C150.8583,14.4724 151.6583,14.3614 152.3933,14.0454 C152.5243,13.9904 152.6523,13.9284 152.7773,13.8604 C153.3413,13.5654 153.8393,13.1614 154.2343,12.6674 L166.4443,0.4574 L153.6153,0.4574 L148.7613,5.3104 L91.3163,5.3104 L86.4613,0.4574 L73.6333,0.4574 L85.9903,12.8144 C86.0363,12.8594 86.0843,12.8984 86.1313,12.9414" id="Fill-70" fill="#1D1B1C"></path>
                <g id="Group-74" transform="translate(20.000000, 0.000000)">
                    <mask id="mask-6" fill="white">
                        <use xlink:href="#path-5"></use>
                    </mask>
                    <g id="Clip-73"></g>
                    <path d="M1.1586,1.4707 L31.4066,31.7187 C33.1776,33.4897 36.0496,33.4897 37.8206,31.7187 C39.5916,29.9477 39.5916,27.0747 37.8206,25.3047 L12.9726,0.4567 L8.1406,0.4567 L0.3846,0.4567 C0.4386,0.5467 0.4956,0.6367 0.5556,0.7227 C0.7266,0.9877 0.9276,1.2397 1.1586,1.4707" id="Fill-72" fill="#1D1B1C" mask="url(#mask-6)"></path>
                </g>
                <g id="Group-77" transform="translate(180.000000, 0.000000)">
                    <mask id="mask-8" fill="white">
                        <use xlink:href="#path-7"></use>
                    </mask>
                    <g id="Clip-76"></g>
                    <path d="M89.6537,42.7148 L72.2857,25.3468 C72.1617,25.2228 72.0307,25.1098 71.8967,25.0018 C71.1037,24.3228 70.0757,23.9098 68.9497,23.9098 L5.5087,23.9098 C3.0047,23.9098 0.9737,25.9408 0.9737,28.4448 C0.9737,30.9498 3.0047,32.9808 5.5087,32.9808 L67.0917,32.9808 L84.5577,50.4468 C85.1877,51.0758 85.9567,51.4778 86.7647,51.6598 C87.1007,51.7388 87.4497,51.7848 87.8097,51.7848 L173.1447,51.7848 C173.3707,51.7848 173.5907,51.7638 173.8067,51.7318 C174.8727,51.6658 175.9187,51.2308 176.7317,50.4168 L226.6917,0.4568 L213.8637,0.4568 L171.6057,42.7148 L89.6537,42.7148 Z" id="Fill-75" fill="#1D1B1C" mask="url(#mask-8)"></path>
                </g>
                <g id="Group-80" transform="translate(199.000000, 0.000000)">
                    <mask id="mask-10" fill="white">
                        <use xlink:href="#path-9"></use>
                    </mask>
                    <g id="Clip-79"></g>
                    <path d="M5.2074,14.3818 L56.6994,14.3818 L73.8654,31.5478 C74.6964,32.4818 75.9034,33.0728 77.2524,33.0728 L118.8644,33.0728 C118.9204,33.0728 118.9754,33.0678 119.0304,33.0658 C120.2374,33.1028 121.4564,32.6648 122.3784,31.7428 L153.6654,0.4568 L140.8374,0.4568 L117.2914,24.0028 L79.1484,24.0028 L61.7854,6.6398 C60.8804,5.7348 59.6884,5.2948 58.5034,5.3148 C58.4784,5.3148 58.4554,5.3108 58.4324,5.3108 L5.2074,5.3108 C2.7024,5.3108 0.6724,7.3418 0.6724,9.8468 C0.6724,12.3518 2.7024,14.3818 5.2074,14.3818" id="Fill-78" fill="#1D1B1C" mask="url(#mask-10)"></path>
                </g>
                <polygon id="Fill-81" fill="#1D1B1C" points="0.0004 454 6.4144 454 0.0004 447.586"></polygon>
                <g id="Group-85" transform="translate(408.000000, 408.000000)">
                    <mask id="mask-12" fill="white">
                        <use xlink:href="#path-11"></use>
                    </mask>
                    <g id="Clip-84"></g>
                    <path d="M8.7846,2.8271 L8.0136,2.0561 C6.2426,0.2851 3.3706,0.2851 1.5996,2.0561 C-0.1714,3.8271 -0.1714,6.6991 1.5996,8.4711 L2.3706,9.2411 L5.2786,12.1491 L39.1296,46.0001 L45.5436,46.0001 L45.5436,39.5861 L8.7846,2.8271 Z" id="Fill-83" fill="#1D1B1C" mask="url(#mask-12)"></path>
                </g>
                <path d="M278.5453,381.2051 L261.2613,398.4881 C259.4893,400.2601 259.4893,403.1321 261.2613,404.9021 C263.0323,406.6741 265.9033,406.6741 267.6753,404.9021 L284.9593,387.6191 C286.7303,385.8481 286.7303,382.9761 284.9593,381.2051 C283.1883,379.4341 280.3163,379.4341 278.5453,381.2051" id="Fill-86" fill="#1D1B1C"></path>
                <path d="M263.9535,342.8506 L240.6345,366.8196 C238.8875,368.6146 238.9275,371.4856 240.7225,373.2326 C242.5165,374.9796 245.3895,374.9396 247.1355,373.1446 L270.4555,349.1756 C272.2025,347.3796 272.1625,344.5086 270.3675,342.7616 C268.5715,341.0156 265.7005,341.0546 263.9535,342.8506" id="Fill-88" fill="#1D1B1C"></path>
                <path d="M277.3217,356.123 L249.0577,384.387 C247.2867,386.158 247.2867,389.03 249.0577,390.801 C250.8297,392.572 253.7017,392.572 255.4717,390.801 L283.7357,362.537 C285.5077,360.767 285.5077,357.894 283.7357,356.123 C281.9657,354.352 279.0927,354.352 277.3217,356.123" id="Fill-90" fill="#1D1B1C"></path>
                <path d="M173.7436,417.8457 L173.7436,196.0347 C173.7436,194.9867 173.3846,194.0247 172.7876,193.2567 C172.5766,192.8457 172.3026,192.4587 171.9576,192.1147 L117.3896,137.5467 C115.6176,135.7757 112.7466,135.7757 110.9746,137.5467 C109.2036,139.3177 109.2036,142.1897 110.9746,143.9597 L164.6726,197.6577 L164.6726,416.2547 L139.4806,441.4477 C137.7096,443.2177 137.7096,446.0897 139.4806,447.8617 C141.2516,449.6317 144.1236,449.6317 145.8946,447.8617 L172.4286,421.3277 C173.3836,420.3717 173.8186,419.0967 173.7436,417.8457" id="Fill-92" fill="#1D1B1C"></path>
                <g id="Group-96" transform="translate(153.000000, 422.000000)">
                    <mask id="mask-14" fill="white">
                        <use xlink:href="#path-13"></use>
                    </mask>
                    <g id="Clip-95"></g>
                    <path d="M36.9984,2.0303 C35.2274,0.2593 32.3554,0.2593 30.5844,2.0303 L0.6154,32.0003 L13.4434,32.0003 L36.9984,8.4443 C38.7694,6.6743 38.7694,3.8013 36.9984,2.0303" id="Fill-94" fill="#1D1B1C" mask="url(#mask-14)"></path>
                </g>
                <path d="M341.4047,439.5068 C341.9667,438.7508 342.3037,437.8188 342.3037,436.8038 L342.3037,333.9548 C342.3037,333.6888 342.2767,333.4298 342.2327,333.1768 C342.2017,332.0588 341.7627,330.9488 340.9087,330.0948 L287.2997,276.4858 L287.2997,178.1228 C287.2997,175.6178 285.2697,173.5888 282.7647,173.5888 C280.2587,173.5888 278.2307,175.6178 278.2307,178.1228 L278.2307,277.2278 C278.0737,277.8998 278.0737,278.6008 278.2307,279.2728 C278.4127,280.0718 278.8197,280.8338 279.4437,281.4578 L283.5717,285.5858 L333.2327,335.2468 L333.2327,435.1638 L314.3967,453.9998 L327.2247,453.9998 L340.5727,440.6528 C340.9187,440.3078 341.1937,439.9188 341.4047,439.5068" id="Fill-97" fill="#1D1B1C"></path>
                <path d="M410.4359,437.4277 L394.2759,453.5877 C394.1449,453.7187 394.0269,453.8577 393.9149,453.9997 L406.6919,453.9997 L416.8499,443.8417 C418.6219,442.0717 418.6219,439.1987 416.8499,437.4277 C415.0789,435.6567 412.2069,435.6567 410.4359,437.4277" id="Fill-99" fill="#1D1B1C"></path>
                <path d="M403.517,424.0947 C401.746,422.3237 398.873,422.3237 397.103,424.0947 L367.197,453.9997 L380.025,453.9997 L403.517,430.5087 C405.288,428.7377 405.288,425.8657 403.517,424.0947" id="Fill-101" fill="#1D1B1C"></path>
                <path d="M403.7387,396.5127 L403.7387,396.5127 C401.9677,394.7417 399.0947,394.7417 397.3247,396.5127 L339.8377,453.9997 L352.6657,453.9997 L403.7387,402.9267 C405.5097,401.1567 405.5097,398.2837 403.7387,396.5127" id="Fill-103" fill="#1D1B1C"></path>
                <g id="Group-107" transform="translate(38.000000, 439.000000)">
                    <mask id="mask-16" fill="white">
                        <use xlink:href="#path-15"></use>
                    </mask>
                    <g id="Clip-106"></g>
                    <path d="M2.0121,1.7871 C0.2411,3.5581 0.2411,6.4301 2.0121,8.2011 L8.8121,15.0001 L21.6401,15.0001 L8.4261,1.7871 C6.6561,0.0161 3.7831,0.0161 2.0121,1.7871" id="Fill-105" fill="#1D1B1C" mask="url(#mask-16)"></path>
                </g>
                <path d="M28.7982,398.7246 C28.7982,398.2816 28.7322,397.8536 28.6122,397.4486 C28.4812,396.5056 28.0582,395.5966 27.3332,394.8716 L0.0002,367.5386 L0.0002,380.3676 L19.7272,400.0936 L19.7272,451.6576 C19.7272,452.5156 19.9702,453.3156 20.3842,453.9996 L28.1412,453.9996 L32.9732,453.9996 L28.7982,449.8256 L28.7982,398.7246 Z" id="Fill-108" fill="#1D1B1C"></path>
                <g id="Group-112" transform="translate(447.000000, 0.000000)">
                    <mask id="mask-18" fill="white">
                        <use xlink:href="#path-17"></use>
                    </mask>
                    <g id="Clip-111"></g>
                    <polygon id="Fill-110" fill="#1D1B1C" mask="url(#mask-18)" points="0.1293 0.457 6.5433 6.871 6.5433 0.457"></polygon>
                </g>
                <path d="M393.0912,383.6592 C395.5962,383.6592 397.6262,381.6292 397.6262,379.1242 L397.6262,334.8072 C397.6262,332.3032 395.5962,330.2722 393.0912,330.2722 C390.5862,330.2722 388.5562,332.3032 388.5562,334.8072 L388.5562,379.1242 C388.5562,381.6292 390.5862,383.6592 393.0912,383.6592" id="Fill-113" fill="#1D1B1C"></path>
                <path d="M337.8891,173.5889 C335.3841,173.5889 333.3541,175.6189 333.3541,178.1239 L333.3541,307.0499 C333.3541,309.5549 335.3841,311.5849 337.8891,311.5849 C340.3941,311.5849 342.4251,309.5549 342.4251,307.0499 L342.4251,178.1239 C342.4251,175.6189 340.3941,173.5889 337.8891,173.5889" id="Fill-115" fill="#1D1B1C"></path>
                <g id="Group-119" transform="translate(404.000000, 310.000000)">
                    <mask id="mask-20" fill="white">
                        <use xlink:href="#path-19"></use>
                    </mask>
                    <g id="Clip-118"></g>
                    <path d="M9.8383,5.2344 C9.8383,2.7294 7.8083,0.6994 5.3033,0.6994 C2.7983,0.6994 0.7683,2.7294 0.7683,5.2344 L0.7683,72.8504 C0.7683,74.1114 1.2823,75.2524 2.1133,76.0744 C2.3283,76.5124 2.6133,76.9254 2.9793,77.2904 L49.5433,123.8554 L49.5433,111.0274 L9.8383,71.3224 L9.8383,5.2344 Z" id="Fill-117" fill="#1D1B1C" mask="url(#mask-20)"></path>
                </g>
                <g id="Group-122" transform="translate(420.000000, 260.000000)">
                    <mask id="mask-22" fill="white">
                        <use xlink:href="#path-21"></use>
                    </mask>
                    <g id="Clip-121"></g>
                    <path d="M1.9584,32.3154 C1.3444,33.0864 0.9794,34.0624 0.9794,35.1284 L0.9794,37.3684 L0.9794,62.1044 C0.9794,62.1114 0.9784,62.1184 0.9784,62.1254 L0.9784,112.2444 C0.9784,112.2814 0.9824,112.3164 0.9834,112.3534 C0.8764,113.6364 1.3124,114.9574 2.2944,115.9394 L33.5434,147.1884 L33.5434,134.3604 L10.0494,110.8664 L10.0494,62.1254 C10.0494,62.1184 10.0484,62.1114 10.0484,62.1044 L10.0484,37.0544 L33.5434,13.5594 L33.5434,0.7274 L2.6754,31.5954 C2.4094,31.8034 2.1664,32.0464 1.9584,32.3154" id="Fill-120" fill="#1D1B1C" mask="url(#mask-22)"></path>
                </g>
                <g id="Group-125" transform="translate(394.000000, 24.000000)">
                    <mask id="mask-24" fill="white">
                        <use xlink:href="#path-23"></use>
                    </mask>
                    <g id="Clip-124"></g>
                    <path d="M37.2865,1.1104 C36.4915,0.4224 35.4575,0.0034 34.3225,0.0034 L4.6685,0.0034 C2.1645,0.0034 0.1335,2.0334 0.1335,4.5384 C0.1335,7.0434 2.1645,9.0734 4.6685,9.0734 L32.4745,9.0734 L59.5435,36.1424 L59.5435,23.3144 L37.7015,1.4724 C37.5695,1.3404 37.4305,1.2224 37.2865,1.1104" id="Fill-123" fill="#1D1B1C" mask="url(#mask-24)"></path>
                </g>
                <g id="Group-128" transform="translate(52.000000, 42.000000)">
                    <mask id="mask-26" fill="white">
                        <use xlink:href="#path-25"></use>
                    </mask>
                    <g id="Clip-127"></g>
                    <path d="M388.8451,20.0557 C388.2631,19.7837 387.6161,19.6277 386.9311,19.6277 L209.6341,19.6277 L192.0311,2.0237 C191.1411,1.1337 189.9731,0.6917 188.8071,0.6957 C188.8021,0.6957 188.7971,0.6947 188.7921,0.6947 L114.8771,0.6947 C114.7981,0.6947 114.7221,0.7017 114.6441,0.7057 C113.4011,0.6377 112.1341,1.0737 111.1841,2.0247 L75.1291,38.0777 L5.3021,38.0777 C2.7971,38.0777 0.7651,40.1107 0.7651,42.6137 C0.7651,45.1177 2.7971,47.150852 5.3021,47.150852 L77.6251,47.150852 C78.1471,47.150852 78.8281,47.1657 79.1161,46.8977 C79.1201,46.8977 79.1231,46.8947 79.1231,46.8947 C79.1991,46.8267 79.2701,46.7637 79.3441,46.6897 L81.8981,44.1357 L89.8371,36.1977 L96.6401,29.3937 L116.2711,9.7657 L186.9451,9.7657 L204.2761,27.0977 C205.0151,27.8357 205.9461,28.2617 206.9081,28.3847 C207.4191,28.5847 207.9741,28.6987 208.5571,28.6987 L385.2071,28.6987 L401.5431,45.0347 L401.5431,32.2057 L390.4111,21.0757 C389.9511,20.6147 389.4151,20.2767 388.8451,20.0557" id="Fill-126" fill="#1D1B1C" mask="url(#mask-26)"></path>
                </g>
                <g id="Group-131" transform="translate(275.000000, 80.000000)">
                    <mask id="mask-28" fill="white">
                        <use xlink:href="#path-27"></use>
                    </mask>
                    <g id="Clip-130"></g>
                    <path d="M156.7465,0.5889 C156.4485,0.5269 156.1405,0.4949 155.8245,0.4949 L4.6875,0.4949 C2.1835,0.4949 0.1525,2.5259 0.1525,5.0299 C0.1525,7.5349 2.1835,9.5659 4.6875,9.5659 L154.3765,9.5659 L178.5435,33.7339 L178.5435,20.9049 L159.5355,1.8979 C158.7565,1.1179 157.7645,0.6829 156.7465,0.5889" id="Fill-129" fill="#1D1B1C" mask="url(#mask-28)"></path>
                </g>
                <g id="Group-134" transform="translate(187.000000, 61.000000)">
                    <mask id="mask-30" fill="white">
                        <use xlink:href="#path-29"></use>
                    </mask>
                    <g id="Clip-133"></g>
                    <path d="M235.4731,37.7822 C235.4661,37.7822 235.4581,37.7812 235.4521,37.7812 L86.1661,37.7812 L50.2161,1.8302 C49.6201,1.2352 48.9011,0.8442 48.1401,0.6492 C47.6671,0.4822 47.1611,0.3862 46.6311,0.3862 L5.1921,0.3862 C2.6871,0.3862 0.6571,2.4182 0.6571,4.9232 C0.6571,7.4282 2.6871,9.4582 5.1921,9.4582 L45.0161,9.4582 L80.9021,45.3442 C81.1551,45.5962 81.4321,45.8092 81.7241,45.9902 C82.4701,46.5302 83.3841,46.8512 84.3751,46.8512 L233.9631,46.8512 L266.5431,79.4312 L266.5431,66.6032 L239.0341,39.0942 C238.0581,38.1182 236.7481,37.6822 235.4731,37.7822" id="Fill-132" fill="#1D1B1C" mask="url(#mask-30)"></path>
                </g>
                <g id="Group-137" transform="translate(423.000000, 130.000000)">
                    <mask id="mask-32" fill="white">
                        <use xlink:href="#path-31"></use>
                    </mask>
                    <g id="Clip-136"></g>
                    <path d="M1.4926,1.6123 L1.4926,1.6123 C-0.2784,3.3833 -0.2784,6.2553 1.4926,8.0263 L30.5436,37.0773 L30.5436,24.2493 L7.9066,1.6123 C6.1356,-0.1587 3.2636,-0.1587 1.4926,1.6123" id="Fill-135" fill="#1D1B1C" mask="url(#mask-32)"></path>
                </g>
                <path d="M387.1928,117.4727 L265.4588,117.4727 L229.5458,81.5597 C229.3908,81.4057 229.2268,81.2697 229.0568,81.1427 C228.2688,80.4807 227.2528,80.0787 226.1418,80.0787 L184.7028,80.0787 C182.1978,80.0787 180.1678,82.1107 180.1678,84.6157 C180.1678,87.1197 182.1978,89.1507 184.7028,89.1507 L224.3078,89.1507 L260.2308,125.0737 C260.9268,125.7697 261.7958,126.1887 262.6988,126.3367 C263.1278,126.4707 263.5828,126.5437 264.0548,126.5437 L387.1928,126.5437 C389.6978,126.5437 391.7288,124.5127 391.7288,122.0087 C391.7288,119.5027 389.6978,117.4727 387.1928,117.4727" id="Fill-138" fill="#1D1B1C"></path>
                <path d="M354.2563,206.3955 C356.0273,208.1665 358.8993,208.1665 360.6703,206.3955 L385.9363,181.1295 C387.7073,179.3585 387.7073,176.4865 385.9363,174.7155 C384.1653,172.9445 381.2933,172.9445 379.5223,174.7155 L354.2563,199.9815 C352.4853,201.7525 352.4853,204.6245 354.2563,206.3955" id="Fill-140" fill="#1D1B1C"></path>
                <path d="M353.2953,233.4385 C355.0663,235.2095 357.9393,235.2095 359.7093,233.4385 L403.2083,189.9395 C404.9803,188.1685 404.9803,185.2965 403.2083,183.5255 C401.4373,181.7545 398.5663,181.7545 396.7943,183.5255 L353.2953,227.0245 C351.5243,228.7955 351.5243,231.6675 353.2953,233.4385" id="Fill-142" fill="#1D1B1C"></path>
                <g id="Group-146" transform="translate(179.000000, 434.000000)">
                    <mask id="mask-34" fill="white">
                        <use xlink:href="#path-33"></use>
                    </mask>
                    <g id="Clip-145"></g>
                    <path d="M24.8305,2.0293 C23.0595,0.2583 20.1875,0.2583 18.4165,2.0293 L0.4455,20.0003 L13.2735,20.0003 L13.9665,20.0003 L24.2605,9.7063 C24.8325,9.1333 25.2175,8.4463 25.4195,7.7183 C26.5725,5.9593 26.3765,3.5753 24.8305,2.0293" id="Fill-144" fill="#1D1B1C" mask="url(#mask-34)"></path>
                </g>
                <g id="Group-149" transform="translate(370.000000, 235.000000)">
                    <mask id="mask-36" fill="white">
                        <use xlink:href="#path-35"></use>
                    </mask>
                    <g id="Clip-148"></g>
                    <path d="M1.9809,80.79 C1.0939,81.677 0.6499,82.839 0.6499,84 L0.6499,163.827 C0.6499,166.333 2.6779,168.365 5.1839,168.365 C7.6899,168.365 9.7179,166.333 9.7179,163.827 L9.7179,85.882 L83.5439,12.057 L83.5439,0.837 C82.4789,0.903 81.4329,1.338 80.6209,2.15 L1.9809,80.79 Z" id="Fill-147" fill="#1D1B1C" mask="url(#mask-36)"></path>
                </g>
                <path d="M440.017,301.709 C439.794,302.245 439.67,302.832 439.67,303.448 L439.67,364.002 C439.5,365.346 439.927,366.75 440.958,367.782 L453.543,380.367 L453.543,367.539 L448.742,362.736 L448.742,305.256 L453.543,300.454 L453.543,287.626 L441.042,300.127 C440.578,300.592 440.238,301.133 440.017,301.709" id="Fill-150" fill="#1D1B1C"></path>
                <path d="M448.7416,177.3945 C448.7416,176.6795 448.5716,176.0055 448.2766,175.4045 C448.0546,174.8535 447.7216,174.3365 447.2756,173.8895 L417.8506,144.4655 C416.0796,142.6945 413.2086,142.6945 411.4366,144.4655 C409.6656,146.2365 409.6656,149.1085 411.4366,150.8795 L439.6706,179.1135 L439.6706,221.2095 L353.5376,307.3425 C353.2456,307.6345 353.0066,307.9575 352.8106,308.3005 C352.3046,309.0325 352.0076,309.9175 352.0076,310.8745 L352.0076,417.4695 C352.0076,419.9745 354.0386,422.0045 356.5436,422.0045 C359.0486,422.0045 361.0786,419.9745 361.0786,417.4695 L361.0786,312.6295 L447.4176,226.2905 C448.3706,225.3375 448.8056,224.0665 448.7336,222.8185 C448.7346,222.7655 448.7416,222.7125 448.7416,222.6595 L448.7416,177.3945 Z" id="Fill-152" fill="#1D1B1C"></path>
                <path d="M415.9535,118.8008 C414.1825,117.0298 411.3105,117.0298 409.5395,118.8008 L392.1365,136.2048 L280.6855,136.2048 C278.1815,136.2048 276.1505,138.2358 276.1505,140.7398 C276.1505,143.2448 278.1815,145.2758 280.6855,145.2758 L393.8645,145.2758 C394.9605,145.2758 395.9665,144.8868 396.7495,144.2388 C397.0455,144.0578 397.3255,143.8428 397.5825,143.5868 L415.9535,125.2148 C417.7245,123.4448 417.7245,120.5718 415.9535,118.8008" id="Fill-154" fill="#1D1B1C"></path>
                <path d="M300.9809,173.5889 C298.4759,173.5889 296.4459,175.6189 296.4459,178.1239 L296.4459,269.8869 C296.4459,272.3919 298.4759,274.4219 300.9809,274.4219 C303.4859,274.4219 305.5159,272.3919 305.5159,269.8869 L305.5159,178.1239 C305.5159,175.6189 303.4859,173.5889 300.9809,173.5889" id="Fill-156" fill="#1D1B1C"></path>
                <path d="M319.1977,173.5889 C316.6927,173.5889 314.6627,175.6189 314.6627,178.1239 L314.6627,288.2439 C314.6627,290.7489 316.6927,292.7789 319.1977,292.7789 C321.7027,292.7789 323.7327,290.7489 323.7327,288.2439 L323.7327,178.1239 C323.7327,175.6189 321.7027,173.5889 319.1977,173.5889" id="Fill-158" fill="#1D1B1C"></path>
                <path d="M353.2826,259.9824 C355.0536,261.7534 357.9256,261.7534 359.6966,259.9824 L408.6616,211.0164 C410.4326,209.2454 410.4326,206.3744 408.6616,204.6024 C406.8906,202.8314 404.0186,202.8314 402.2486,204.6024 L353.2826,253.5684 C351.5116,255.3384 351.5116,258.2114 353.2826,259.9824" id="Fill-160" fill="#1D1B1C"></path>
                <g id="Group-164" transform="translate(413.000000, 5.000000)">
                    <mask id="mask-38" fill="white">
                        <use xlink:href="#path-37"></use>
                    </mask>
                    <g id="Clip-163"></g>
                    <path d="M26.3598,1.4141 C25.6018,0.6561 24.6448,0.2241 23.6598,0.1151 C23.3198,0.0771 22.9808,0.0771 22.6448,0.1151 L5.1668,0.1151 C2.6608,0.1151 0.6318,2.1471 0.6318,4.6491 C0.6318,7.1551 2.6608,9.1871 5.1668,9.1871 L21.3038,9.1871 L40.5438,28.4271 L40.5438,15.5981 L31.9158,6.9701 L26.3598,1.4141 Z" id="Fill-162" fill="#1D1B1C" mask="url(#mask-38)"></path>
                </g>
                <path d="M192.435,400.0156 L192.435,322.3786 L192.435,322.3666 L192.435,191.4356 L192.435,188.0876 C192.435,186.9456 192.013,185.9056 191.319,185.1096 C191.251,185.0326 191.181,184.9546 191.107,184.8816 C191.037,184.8116 190.963,184.7446 190.89,184.6796 L145.501,139.2906 C143.728,137.5186 140.858,137.5186 139.088,139.2906 C137.315,141.0606 137.315,143.9346 139.088,145.7036 L183.364,189.9796 L183.364,322.3666 L183.364,322.3766 L183.364,401.8436 C183.364,402.8046 183.664,403.6946 184.174,404.4286 C184.349,404.7026 184.553,404.9616 184.792,405.2016 L226.703,447.1116 C228.474,448.8826 231.345,448.8826 233.117,447.1116 C234.888,445.3406 234.888,442.4686 233.117,440.6976 L192.435,400.0156 Z" id="Fill-165" fill="#1D1B1C"></path>
                <path d="M211.1273,392.416 L211.1273,207.32 C211.1273,204.815 209.0963,202.785 206.5913,202.785 C204.0863,202.785 202.0563,204.815 202.0563,207.32 L202.0563,394.27 C202.0563,395.473 202.5263,396.562 203.2903,397.374 C203.3883,397.494 203.4923,397.61 203.6053,397.723 L252.9933,447.111 C254.7653,448.883 257.6373,448.883 259.4073,447.111 C261.1793,445.341 261.1793,442.469 259.4073,440.697 L211.1273,392.416 Z" id="Fill-167" fill="#1D1B1C"></path>
                <path d="M229.8188,384.8018 L229.8188,193.5608 C229.8188,192.8988 229.6728,192.2708 229.4188,191.7038 C229.2008,191.0858 228.8488,190.5048 228.3548,190.0108 L175.8908,137.5468 C174.1198,135.7758 171.2478,135.7758 169.4768,137.5468 C167.7058,139.3178 167.7058,142.1898 169.4768,143.9598 L220.7488,195.2318 L220.7488,386.1548 C220.7488,386.5858 220.8118,387.0018 220.9248,387.3978 C221.0478,388.3578 221.4738,389.2848 222.2118,390.0228 L276.8398,444.6498 C278.6098,446.4208 281.4818,446.4208 283.2528,444.6498 C285.0238,442.8788 285.0238,440.0068 283.2528,438.2358 L229.8188,384.8018 Z" id="Fill-169" fill="#1D1B1C"></path>
                <path d="M238.0307,317.3506 C236.1527,319.2286 236.1527,322.2746 238.0307,324.1536 C239.9097,326.0326 242.9557,326.0326 244.8347,324.1536 C246.7137,322.2746 246.7137,319.2286 244.8347,317.3506 C242.9557,315.4716 239.9097,315.4716 238.0307,317.3506" id="Fill-171" fill="#1D1B1C"></path>
                <path d="M116.599,441.1377 L116.599,441.1377 C114.72,443.0167 114.72,446.0627 116.599,447.9407 C118.477,449.8197 121.523,449.8197 123.402,447.9407 C125.281,446.0627 125.281,443.0167 123.402,441.1377 C121.523,439.2587 118.477,439.2587 116.599,441.1377" id="Fill-173" fill="#1D1B1C"></path>
                <path d="M357.8432,182.8164 C360.3362,182.8164 362.3572,180.7954 362.3572,178.3024 C362.3572,175.8104 360.3362,173.7894 357.8432,173.7894 C355.3512,173.7894 353.3302,175.8104 353.3302,178.3024 C353.3302,180.7954 355.3512,182.8164 357.8432,182.8164" id="Fill-175" fill="#1D1B1C"></path>
                <path d="M278.766,407.3193 L274.429,411.6563 C272.658,413.4273 272.658,416.2983 274.429,418.0703 C276.201,419.8413 279.072,419.8413 280.843,418.0703 L285.18,413.7333 C286.952,411.9623 286.952,409.0903 285.18,407.3193 C283.409,405.5483 280.537,405.5483 278.766,407.3193" id="Fill-177" fill="#1D1B1C"></path>
                <path d="M63.2338,283.2861 L63.2338,283.2871 C65.0048,285.0571 67.8768,285.0571 69.6478,283.2871 L79.8878,273.0461 C81.6598,271.2751 81.6598,268.4031 79.8878,266.6321 C78.1168,264.8611 75.2458,264.8611 73.4738,266.6321 L63.2338,276.8731 C61.4628,278.6431 61.4628,281.5151 63.2338,283.2861" id="Fill-179" fill="#1D1B1C"></path>
                <path d="M42.559,303.9619 C40.788,302.1909 37.915,302.1909 36.145,303.9619 L24.79,315.3159 C23.019,317.0869 23.019,319.9589 24.79,321.7299 C26.562,323.5009 29.433,323.5009 31.205,321.7299 L42.559,310.3759 C44.33,308.6049 44.33,305.7329 42.559,303.9619" id="Fill-181" fill="#1D1B1C"></path>
                <path d="M50.3051,342.2227 L35.5881,356.9387 C33.8181,358.7097 33.8181,361.5817 35.5881,363.3527 C37.3601,365.1237 40.2321,365.1237 42.0021,363.3527 L56.7191,348.6367 C58.4911,346.8657 58.4911,343.9937 56.7191,342.2227 C54.9481,340.4517 52.0761,340.4517 50.3051,342.2227" id="Fill-183" fill="#1D1B1C"></path>
                <path d="M116.2025,407.6299 C117.9735,405.8589 117.9735,402.9859 116.2025,401.2159 L70.2105,355.2239 C68.4385,353.4519 65.5665,353.4519 63.7965,355.2239 C62.0245,356.9949 62.0245,359.8659 63.7965,361.6379 L109.7885,407.6299 C111.5585,409.4009 114.4315,409.4009 116.2025,407.6299" id="Fill-185" fill="#1D1B1C"></path>
                <path d="M56.5268,368.5059 C54.7558,366.7349 51.8838,366.7349 50.1128,368.5059 C48.3408,370.2769 48.3408,373.1489 50.1128,374.9199 L106.9388,431.7459 C108.7108,433.5179 111.5828,433.5179 113.3528,431.7459 C115.1248,429.9749 115.1248,427.1039 113.3528,425.3319 L56.5268,368.5059 Z" id="Fill-187" fill="#1D1B1C"></path>
                <path d="M135.3803,394.0244 L81.2163,339.8614 L81.2163,317.2384 C81.3523,315.9264 80.9183,314.5684 79.9133,313.5644 L43.4623,277.1124 C41.6913,275.3414 38.8183,275.3414 37.0483,277.1124 C35.2763,278.8834 35.2763,281.7554 37.0483,283.5264 L72.1463,318.6244 L72.1463,341.6834 C72.1463,342.0004 72.1783,342.3074 72.2393,342.6054 C72.4033,343.4684 72.8193,344.2924 73.4863,344.9604 L127.7543,399.2264 L127.7543,429.2094 C127.7543,431.7134 129.7843,433.7454 132.2893,433.7454 C134.7943,433.7454 136.8243,431.7134 136.8243,429.2094 L136.8243,397.5284 C136.8243,396.8754 136.6853,396.2554 136.4363,395.6954 C136.2173,395.0864 135.8683,394.5124 135.3803,394.0244" id="Fill-189" fill="#1D1B1C"></path>
                <path d="M250.8754,329.6768 L240.7694,339.7828 C238.9974,341.5548 238.9974,344.4258 240.7694,346.1978 C242.5394,347.9688 245.4114,347.9688 247.1834,346.1978 L257.2894,336.0908 C259.0604,334.3198 259.0604,331.4478 257.2894,329.6768 C255.5184,327.9058 252.6464,327.9058 250.8754,329.6768" id="Fill-191" fill="#1D1B1C"></path>
            </g>
        </g>
    </g>
</svg>