<?xml version="1.0" encoding="UTF-8"?>
<svg width="454px" height="456px" viewBox="0 0 454 456" version="1.1" xmlns="http://www.w3.org/2000/svg" xmlns:xlink="http://www.w3.org/1999/xlink">
    <title>Pattern03</title>
    <defs>
        <polygon id="path-1" points="0 0.4574 43.02015 0.4574 43.02015 43.47665 0 43.47665"></polygon>
        <polygon id="path-3" points="0.52335 0.4574 43.543 0.4574 43.543 43.4764017 0.52335 43.4764017"></polygon>
        <polygon id="path-5" points="0.58225 0.03875 42.543 0.03875 42.543 42 0.58225 42"></polygon>
        <polygon id="path-7" points="0.105084832 0.457 86.14435 0.457 86.14435 235.88415 0.105084832 235.88415"></polygon>
        <polygon id="path-9" points="0.9328 0.457 11.9819731 0.457 11.9819731 5.09485 0.9328 5.09485"></polygon>
        <polygon id="path-11" points="0.990579885 0.457 12.001 0.457 12.001 5.05485 0.990579885 5.05485"></polygon>
        <polygon id="path-13" points="0.9578 0.457 88.86505 0.457 88.86505 120.45705 0.9578 120.45705"></polygon>
        <polygon id="path-15" points="0.6243 0.457 37.25555 0.457 37.25555 30.67295 0.6243 30.67295"></polygon>
        <polygon id="path-17" points="0.308 0.457 24.10325 0.457 24.10325 17.83805 0.308 17.83805"></polygon>
        <polygon id="path-19" points="0.5597 0.457 62.78095 0.457 62.78095 56.26375 0.5597 56.26375"></polygon>
        <polygon id="path-21" points="0.8977 0.457 24.69595 0.457 24.69595 43.43485 0.8977 43.43485"></polygon>
        <polygon id="path-23" points="0 0.424639866 42.57385 0.424639866 42.57385 35.30095 0 35.30095"></polygon>
        <polygon id="path-25" points="0 0.3793 4.31415 0.3793 4.31415 11.0973 0 11.0973"></polygon>
        <polygon id="path-27" points="0 0.09265 25.61005 0.09265 25.61005 32.1159 0 32.1159"></polygon>
        <polygon id="path-29" points="0 0.9319 132.91895 0.9319 132.91895 100.20615 0 100.20615"></polygon>
        <polygon id="path-31" points="0 0.8315 30.14615 0.8315 30.14615 37.39175 0 37.39175"></polygon>
        <polygon id="path-33" points="0.1499 0.457 5.2979 0.457 5.2979 1.3575 0.1499 1.3575"></polygon>
        <polygon id="path-35" points="0.105173154 0.45105 11.0682 0.45105 11.0682 5 0.105173154 5"></polygon>
        <polygon id="path-37" points="0.37555 0.0031 35.10905 0.0031 35.10905 43 0.37555 43"></polygon>
        <polygon id="path-39" points="0 0.7658 12.55685 0.7658 12.55685 17.9958 0 17.9958"></polygon>
        <polygon id="path-41" points="0.00095 0.565593243 4.543 0.565593243 4.543 11.5216 0.00095 11.5216"></polygon>
        <polygon id="path-43" points="0.14935 0.2725 17.543 0.2725 17.543 22.239 0.14935 22.239"></polygon>
        <polygon id="path-45" points="0.93595 0.843310175 5.543 0.843310175 5.543 11.8619 0.93595 11.8619"></polygon>
        <polygon id="path-47" points="0.47405 0.8177 18.543 0.8177 18.543 25.30095 0.47405 25.30095"></polygon>
        <polygon id="path-49" points="0.39495 0.889782469 5.543 0.889782469 5.543 12.4469 0.39495 12.4469"></polygon>
        <polygon id="path-51" points="0.34735 0.1039 69.543 0.1039 69.543 101.1009 0.34735 101.1009"></polygon>
        <polygon id="path-53" points="0.07805 0.7473 43.543 0.7473 43.543 48.52755 0.07805 48.52755"></polygon>
        <polygon id="path-55" points="0.6134 0.2876 22.543 0.2876 22.543 47.9066 0.6134 47.9066"></polygon>
        <polygon id="path-57" points="0.65475 0.485 69.543 0.485 69.543 75.78725 0.65475 75.78725"></polygon>
        <polygon id="path-59" points="0.8879 0.153373094 18.543 0.153373094 18.543 22.12165 0.8879 22.12165"></polygon>
        <polygon id="path-61" points="0.43645 0.13855 56.543 0.13855 56.543 62.6588 0.43645 62.6588"></polygon>
        <polygon id="path-63" points="0.53555 0.08385 69.543 0.08385 69.543 75.5051 0.53555 75.5051"></polygon>
        <polygon id="path-65" points="0.86415 0.9088 5.543 0.9088 5.543 11.9980793 0.86415 11.9980793"></polygon>
        <polygon id="path-67" points="0.810659325 0.40195 32.40945 0.40195 32.40945 53 0.810659325 53"></polygon>
        <polygon id="path-69" points="0.64015 0.44125 56.543 0.44125 56.543 60.8325604 0.64015 60.8325604"></polygon>
        <polygon id="path-71" points="0.0898 0.87195 23.63105 0.87195 23.63105 18 0.0898 18"></polygon>
    </defs>
    <g id="Page-1" stroke="none" stroke-width="1" fill="none" fill-rule="evenodd">
        <g id="Pattern03">
            <polygon id="Fill-1" fill="#242424" points="0 454.543 453.543 454.543 453.543 1 0 1"></polygon>
            <g id="Group-320" transform="translate(0.000000, 0.543000)">
                <g id="Group-4">
                    <mask id="mask-2" fill="white">
                        <use xlink:href="#path-1"></use>
                    </mask>
                    <g id="Clip-3"></g>
                    <path d="M35.2779,42.1484 C37.0489,43.9194 39.9209,43.9194 41.6919,42.1484 C43.4629,40.3774 43.4629,37.5054 41.6919,35.7344 L6.4149,0.4574 L6.4149,0.4574 L-0.0001,0.4574 L-0.0001,6.8724 L0.0009,6.8714 L35.2779,42.1484 Z" id="Fill-2" fill="#1D1B1C" mask="url(#mask-2)"></path>
                </g>
                <g id="Group-7" transform="translate(410.000000, 0.000000)">
                    <mask id="mask-4" fill="white">
                        <use xlink:href="#path-3"></use>
                    </mask>
                    <g id="Clip-6"></g>
                    <path d="M1.8516,35.7344 C0.0806,37.5054 0.0806,40.3774 1.8516,42.1484 C2.7366,43.0344 3.8976,43.4774 5.0596,43.4764017 C6.2196,43.4774 7.3806,43.0344 8.2666,42.1484 L43.5426,6.8724 L43.5436,6.8724 L43.5436,0.4574 L37.1276,0.4574 L37.1286,0.4574 L1.8516,35.7344 Z" id="Fill-5" fill="#1D1B1C" mask="url(#mask-4)"></path>
                </g>
                <path d="M41.692,418.7217 C43.463,416.9507 43.463,414.0787 41.692,412.3077 C39.921,410.5367 37.049,410.5367 35.278,412.3077 L0.001,447.5857 L0,447.5847 L0,453.9997 L6.415,453.9997 L6.415,453.9997 L41.692,418.7217 Z" id="Fill-8" fill="#1D1B1C"></path>
                <g id="Group-12" transform="translate(411.000000, 412.000000)">
                    <mask id="mask-6" fill="white">
                        <use xlink:href="#path-5"></use>
                    </mask>
                    <g id="Clip-11"></g>
                    <path d="M42.5435,35.585 L42.5435,35.585 L8.3245,1.367 C6.5535,-0.404 3.6815,-0.404 1.9105,1.367 C0.1395,3.139 0.1395,6.01 1.9105,7.781 L36.1285,41.999 L36.1285,42 L42.5435,42 L42.5435,35.585 Z" id="Fill-10" fill="#1D1B1C" mask="url(#mask-6)"></path>
                </g>
                <path d="M191.7203,294.3799 L191.7203,294.3799 L191.7203,294.3799 L226.7533,259.3469 L309.2023,341.7959 C310.9733,343.5679 313.8453,343.5679 315.6163,341.7959 C317.3873,340.0249 317.3873,337.1529 315.6163,335.3819 L230.4893,250.2549 C230.3453,250.0539 230.1883,249.8589 230.0083,249.6789 C229.2163,248.8879 228.2053,248.4519 227.1713,248.3679 C225.8583,248.2309 224.4963,248.6639 223.4903,249.6699 C223.2903,249.8699 223.1163,250.0869 222.9603,250.3119 L188.5133,284.7589 L106.0093,202.2539 C104.2373,200.4839 101.3663,200.4839 99.5953,202.2539 C97.8233,204.0259 97.8233,206.8979 99.5953,208.6679 L185.3063,294.3799 C187.0773,296.1509 189.9493,296.1509 191.7203,294.3799" id="Fill-13" fill="#1D1B1C"></path>
                <g id="Group-17" transform="translate(21.000000, 0.000000)">
                    <mask id="mask-8" fill="white">
                        <use xlink:href="#path-7"></use>
                    </mask>
                    <g id="Clip-16"></g>
                    <path d="M75.2061,77.4229 L1.6771,150.9509 C1.5951,151.0239 1.5111,151.0939 1.4331,151.1729 L1.4331,151.1729 C0.5441,152.0619 0.1021,153.2269 0.105084832,154.3919 C0.1021,155.5559 0.5441,156.7219 1.4331,157.6109 C1.5121,157.6889 1.5951,157.7599 1.6781,157.8309 L78.4021,234.5559 C80.1731,236.3269 83.0441,236.3269 84.8161,234.5559 C86.5871,232.7839 86.5871,229.9129 84.8161,228.1419 L11.0661,154.3919 L84.8161,80.6419 C85.7041,79.7529 86.1461,78.5869 86.14435,77.4229 C86.1461,76.2589 85.7041,75.0929 84.8161,74.2039 L11.0681,0.4569 L0.105084832,0.4569 C0.1091,1.6119 0.5511,2.7679 1.4331,3.6499 L75.2061,77.4229 Z" id="Fill-15" fill="#1D1B1C" mask="url(#mask-8)"></path>
                </g>
                <g id="Group-20" transform="translate(326.000000, 0.000000)">
                    <mask id="mask-10" fill="white">
                        <use xlink:href="#path-9"></use>
                    </mask>
                    <g id="Clip-19"></g>
                    <path d="M10.6568,3.7666 C11.5688,2.8546 12.0078,1.6516 11.9808,0.4566 L0.9328,0.4566 L4.2428,3.7666 C6.0138,5.5376 8.8858,5.5376 10.6568,3.7666" id="Fill-18" fill="#1D1B1C" mask="url(#mask-10)"></path>
                </g>
                <g id="Group-23" transform="translate(174.000000, 0.000000)">
                    <mask id="mask-12" fill="white">
                        <use xlink:href="#path-11"></use>
                    </mask>
                    <g id="Clip-22"></g>
                    <path d="M2.317,3.7266 C4.088,5.4976 6.96,5.4976 8.731,3.7266 L12.001,0.4566 L0.991,0.4566 C0.975,1.6386 1.416,2.8246 2.317,3.7266" id="Fill-21" fill="#1D1B1C" mask="url(#mask-12)"></path>
                </g>
                <path d="M223.5816,204.7979 C225.3526,206.5689 228.2246,206.5689 229.9956,204.7979 C231.7666,203.0269 231.7666,200.1549 229.9956,198.3839 L157.1736,125.5629 C155.4026,123.7909 152.5306,123.7909 150.7596,125.5629 L86.6446,189.6769 C84.8736,191.4479 84.8736,194.3199 86.6446,196.0909 C88.4166,197.8619 91.2886,197.8619 93.0596,196.0909 L153.9666,135.1839 L223.5816,204.7979 Z" id="Fill-24" fill="#1D1B1C"></path>
                <path d="M176.4327,106.3037 C178.2037,108.0747 181.0757,108.0747 182.8467,106.3037 L221.3537,67.7967 C223.1247,66.0267 223.1247,63.1547 221.3537,61.3827 C219.5817,59.6117 216.7107,59.6117 214.9397,61.3827 L176.4327,99.8897 C174.6617,101.6607 174.6617,104.5327 176.4327,106.3037" id="Fill-26" fill="#1D1B1C"></path>
                <path d="M111.8702,144.3643 C111.9822,144.5073 112.1002,144.6453 112.2322,144.7773 C113.6752,146.2193 115.8472,146.4863 117.5602,145.5793 C117.9632,145.3703 118.3422,145.0973 118.6802,144.7603 C118.7362,144.7043 118.7842,144.6443 118.8362,144.5873 L153.9622,109.4613 L163.5732,119.0723 C165.3452,120.8433 168.2162,120.8433 169.9872,119.0723 C171.7582,117.3023 171.7582,114.4293 169.9872,112.6583 L157.1952,99.8663 C156.5312,99.2023 155.7112,98.7863 154.8522,98.6213 C153.4122,98.3283 151.8562,98.7383 150.7392,99.8563 L115.4652,135.1303 L105.8882,125.5533 C104.1172,123.7823 101.2452,123.7823 99.4742,125.5533 C97.7032,127.3243 97.7032,130.1963 99.4742,131.9683 L111.8702,144.3643 Z" id="Fill-28" fill="#1D1B1C"></path>
                <path d="M186.0186,64.5762 L163.5926,87.0032 C161.8216,88.7732 161.8216,91.6452 163.5926,93.4162 C165.3636,95.1872 168.2356,95.1872 170.0066,93.4162 L195.7026,67.7212 C197.4736,65.9502 197.4736,63.0782 195.7026,61.3062 C195.4866,61.0912 195.2536,60.9032 195.0096,60.7402 L157.1976,22.9282 C155.4266,21.1572 152.5556,21.1572 150.7836,22.9282 C149.0126,24.6992 149.0126,27.5712 150.7836,29.3422 L186.0186,64.5762 Z" id="Fill-30" fill="#1D1B1C"></path>
                <g id="Group-34" transform="translate(44.000000, 0.000000)">
                    <mask id="mask-14" fill="white">
                        <use xlink:href="#path-13"></use>
                    </mask>
                    <g id="Clip-33"></g>
                    <path d="M42.6158,112.7148 C40.8448,114.4858 40.8448,117.3578 42.6158,119.1288 C44.3868,120.8998 47.2588,120.8998 49.0298,119.1288 L87.5368,80.6218 C89.3078,78.8508 89.3078,75.9788 87.5368,74.2078 L87.5348,74.2058 C87.5338,74.2058 87.5338,74.2048 87.5328,74.2038 L13.7858,0.4568 L0.9578,0.4568 L77.9158,77.4148 L42.6158,112.7148 Z" id="Fill-32" fill="#1D1B1C" mask="url(#mask-14)"></path>
                </g>
                <path d="M112.232,119.1289 C114.003,120.8999 116.875,120.8999 118.646,119.1289 L157.043,80.7319 C157.09,80.6889 157.139,80.6489 157.185,80.6039 C158.956,78.8319 158.956,75.9599 157.185,74.1899 L118.678,35.6829 C116.907,33.9109 114.036,33.9109 112.264,35.6829 C110.493,37.4529 110.493,40.3249 112.264,42.0969 L147.557,77.3899 L112.232,112.7149 C110.461,114.4849 110.461,117.3579 112.232,119.1289" id="Fill-35" fill="#1D1B1C"></path>
                <path d="M189.2393,16.4863 L189.2393,16.4863 C191.0103,18.2573 193.8823,18.2573 195.6533,16.4863 L211.6833,0.4573 L198.8553,0.4573 L189.2393,10.0723 C187.4683,11.8433 187.4683,14.7153 189.2393,16.4863" id="Fill-37" fill="#1D1B1C"></path>
                <path d="M253.2447,29.6914 L253.2447,29.6914 C253.4677,29.9144 253.7077,30.1084 253.9607,30.2754 C255.7217,31.4384 258.1147,31.2454 259.6647,29.6954 C259.6987,29.6624 259.7267,29.6254 259.7587,29.5904 L285.0937,4.2554 C286.1307,3.2194 286.5557,1.8064 286.3787,0.4574 L276.0657,0.4574 L256.4527,20.0694 L236.8407,0.4574 L224.0127,0.4574 L253.2237,29.6674 C253.2307,29.6744 253.2367,29.6834 253.2447,29.6914" id="Fill-39" fill="#1D1B1C"></path>
                <path d="M325.7657,128.3018 L325.7657,128.3018 C327.5367,130.0728 330.4087,130.0728 332.1797,128.3018 L366.5747,93.9068 C368.3457,92.1358 368.3457,89.2648 366.5747,87.4928 C364.8037,85.7218 361.9317,85.7218 360.1607,87.4928 L325.7657,121.8878 C323.9947,123.6588 323.9947,126.5308 325.7657,128.3018" id="Fill-41" fill="#1D1B1C"></path>
                <path d="M208.2847,125.7861 C206.5137,124.0151 203.6417,124.0151 201.8697,125.7861 C200.0987,127.5571 200.0987,130.4291 201.8697,132.2001 L248.9967,179.3261 C250.7677,181.0981 253.6397,181.0981 255.4107,179.3261 C257.1817,177.5561 257.1817,174.6831 255.4107,172.9121 L208.2847,125.7861 Z" id="Fill-43" fill="#1D1B1C"></path>
                <path d="M176.6392,132.1387 L236.4122,191.9107 C238.1832,193.6827 241.0552,193.6827 242.8262,191.9107 C244.5972,190.1407 244.5972,187.2687 242.8262,185.4967 L186.0532,128.7237 L233.9532,80.8247 C235.7242,79.0527 235.7242,76.1807 233.9532,74.4097 C232.1812,72.6387 229.3102,72.6387 227.5392,74.4097 L176.6392,125.3097 C176.5662,125.3737 176.4912,125.4367 176.4212,125.5067 C175.5332,126.3947 175.0912,127.5597 175.093193,128.7237 C175.0912,129.8887 175.5332,131.0527 176.4212,131.9417 C176.4912,132.0117 176.5662,132.0747 176.6392,132.1387" id="Fill-45" fill="#1D1B1C"></path>
                <path d="M253.1959,55.4258 L253.1959,55.4258 L253.1959,55.4258 L253.2209,55.4498 C254.9919,57.2218 257.8639,57.2218 259.6349,55.4498 C259.7639,55.3218 259.8819,55.1848 259.9919,55.0438 L298.2819,16.7528 C300.0539,14.9828 300.0539,12.1108 298.2819,10.3388 C296.5109,8.5688 293.6399,8.5688 291.8689,10.3388 L256.4029,45.8048 L221.0509,10.4518 C219.2799,8.6818 216.4079,8.6818 214.6369,10.4518 C212.8659,12.2238 212.8659,15.0958 214.6369,16.8658 L253.1959,55.4258 Z" id="Fill-47" fill="#1D1B1C"></path>
                <path d="M319.7686,140.7012 L319.7686,140.7012 C321.5396,138.9302 321.5396,136.0582 319.7686,134.2872 L208.4926,23.0112 C206.7216,21.2402 203.8496,21.2402 202.0786,23.0112 C200.3076,24.7822 200.3076,27.6542 202.0786,29.4252 L313.3546,140.7012 C315.1256,142.4722 317.9976,142.4722 319.7686,140.7012" id="Fill-49" fill="#1D1B1C"></path>
                <path d="M370.899,63.8223 L431.005,3.7163 C431.904,2.8173 432.345,1.6343 432.331323,0.4573 L421.437,0.4573 L386.432,35.4623 C386.33,35.5473 386.231,35.6353 386.135,35.7293 L373.236,48.6283 C373.141,48.7233 373.054,48.8233 372.969,48.9253 L367.692,54.2013 L313.947,0.4573 L301.119,0.4573 L364.485,63.8223 C366.256,65.5933 369.128,65.5933 370.899,63.8223" id="Fill-51" fill="#1D1B1C"></path>
                <path d="M178.6729,172.7207 C178.6579,172.7057 178.6409,172.6937 178.6259,172.6777 C178.5929,172.6437 178.5649,172.6077 178.5319,172.5747 L157.1669,151.2097 C155.3959,149.4387 152.5239,149.4387 150.7529,151.2097 C148.9819,152.9807 148.9819,155.8527 150.7529,157.6227 L169.0549,175.9257 L159.4669,185.5137 C159.4609,185.5197 159.4559,185.5267 159.4489,185.5327 C159.4389,185.5427 159.4279,185.5507 159.4179,185.5607 C157.6469,187.3317 157.6469,190.2037 159.4179,191.9757 L185.0149,217.5727 C186.7859,219.3427 189.6569,219.3427 191.4289,217.5727 C193.1999,215.8007 193.1999,212.9287 191.4289,211.1587 L169.0399,188.7687 L178.6729,179.1347 C180.4439,177.3647 180.4439,174.4917 178.6729,172.7207" id="Fill-53" fill="#1D1B1C"></path>
                <path d="M137.9053,189.6992 C136.1343,191.4702 136.1343,194.3432 137.9053,196.1132 L172.1893,230.3972 C173.9603,232.1692 176.8323,232.1692 178.6033,230.3972 C180.3743,228.6262 180.3743,225.7552 178.6033,223.9832 L144.3193,189.6992 C142.5483,187.9282 139.6763,187.9282 137.9053,189.6992" id="Fill-55" fill="#1D1B1C"></path>
                <path d="M112.5699,195.9932 L172.2829,255.7062 C172.3159,255.7402 172.3439,255.7772 172.3779,255.8102 C173.2649,256.6972 174.4279,257.1402 175.5899,257.139202 C176.7529,257.1402 177.9149,256.6972 178.8019,255.8102 C178.8359,255.7772 178.8649,255.7402 178.8979,255.7052 L204.2389,230.3642 C206.0099,228.5932 206.0099,225.7212 204.2389,223.9502 C202.4679,222.1792 199.5959,222.1792 197.8249,223.9502 L175.5899,246.1842 L122.0909,192.6852 L141.1099,173.6672 L146.5579,179.1152 C148.3299,180.8872 151.2009,180.8872 152.9719,179.1152 C154.7439,177.3452 154.7439,174.4722 152.9719,172.7012 L144.4959,164.2252 C144.4399,164.1622 144.3859,164.0972 144.3259,164.0372 C142.5549,162.2652 139.6829,162.2652 137.9119,164.0372 L112.4699,189.4782 L112.4649,189.4832 C110.6939,191.2552 110.6939,194.1272 112.4649,195.8972 C112.4989,195.9312 112.5359,195.9602 112.5699,195.9932" id="Fill-57" fill="#1D1B1C"></path>
                <path d="M67.3936,164.0957 C65.6226,162.3247 62.7506,162.3247 60.9796,164.0957 C59.2086,165.8667 59.2086,168.7387 60.9796,170.5097 L73.7716,183.3017 C75.5426,185.0737 78.4146,185.0737 80.1856,183.3017 C81.9566,181.5307 81.9566,178.6587 80.1856,176.8877 L67.3936,164.0957 Z" id="Fill-59" fill="#1D1B1C"></path>
                <path d="M86.5342,170.4922 C88.3052,172.2632 91.1772,172.2632 92.9482,170.4922 C94.7192,168.7212 94.7192,165.8482 92.9482,164.0772 L67.3322,138.4622 C66.4452,137.5742 65.2802,137.1322 64.1162,137.135185 C62.9522,137.1322 61.7882,137.5742 60.9002,138.4622 L48.1082,151.2552 C46.3362,153.0252 46.3362,155.8972 48.1082,157.6692 C49.8792,159.4392 52.7512,159.4392 54.5222,157.6692 L64.1162,148.0742 L86.5342,170.4922 Z" id="Fill-61" fill="#1D1B1C"></path>
                <path d="M99.4088,157.6172 C101.1798,159.3882 104.0518,159.3882 105.8228,157.6172 C107.5938,155.8462 107.5938,152.9732 105.8228,151.2032 L80.1578,125.5382 C78.3868,123.7662 75.5148,123.7662 73.7438,125.5382 C71.9718,127.3092 71.9718,130.1802 73.7438,131.9522 L99.4088,157.6172 Z" id="Fill-63" fill="#1D1B1C"></path>
                <path d="M253.2252,4.0352 C254.9962,5.8062 257.8682,5.8062 259.6402,4.0352 L263.2182,0.4572 L251.9142,0.4572 C251.8102,1.7382 252.2452,3.0562 253.2252,4.0352" id="Fill-65" fill="#1D1B1C"></path>
                <path d="M253.1739,399.8643 L253.1739,399.8643 C251.4029,401.6353 251.4029,404.5073 253.1739,406.2783 L262.7689,415.8723 L240.3509,438.2903 C238.5799,440.0613 238.5799,442.9323 240.3509,444.7043 C242.1219,446.4753 244.9939,446.4753 246.7649,444.7043 L272.3799,419.0893 C273.2679,418.2013 273.7109,417.0363 273.707915,415.8723 C273.7109,414.7093 273.2679,413.5443 272.3799,412.6563 L259.5879,399.8643 C257.8169,398.0933 254.9449,398.0933 253.1739,399.8643" id="Fill-67" fill="#1D1B1C"></path>
                <path d="M246.7466,412.7354 L246.7466,412.7354 C244.9756,410.9644 242.1036,410.9644 240.3326,412.7354 L227.5406,425.5274 C225.7696,427.2984 225.7696,430.1714 227.5406,431.9424 C229.3116,433.7134 232.1836,433.7134 233.9546,431.9424 L246.7466,419.1494 C248.5176,417.3794 248.5176,414.5064 246.7466,412.7354" id="Fill-69" fill="#1D1B1C"></path>
                <path d="M285.3043,425.5 C283.5333,423.729 280.6613,423.729 278.8903,425.5 L253.2253,451.165 C252.4343,451.956 251.9993,452.966 251.9143,454 L263.2183,454 L285.3043,431.914 C287.0753,430.143 287.0753,427.271 285.3043,425.5" id="Fill-71" fill="#1D1B1C"></path>
                <path d="M24.1602,327.1094 L24.1602,327.1094 C22.3892,325.3384 19.5172,325.3384 17.7462,327.1094 L4.9542,339.9014 C3.1832,341.6724 3.1832,344.5444 4.9542,346.3154 C6.7252,348.0874 9.5972,348.0874 11.3682,346.3154 L24.1602,333.5234 C25.9312,331.7524 25.9312,328.8804 24.1602,327.1094" id="Fill-73" fill="#1D1B1C"></path>
                <path d="M51.1216068,330.2461 C51.1236,329.0821 50.6816,327.9181 49.7936,327.0291 L37.0016,314.2371 C35.2306,312.4661 32.3586,312.4661 30.5876,314.2371 C28.8166,316.0091 28.8166,318.8801 30.5876,320.6511 L40.1816,330.2461 L17.7646,352.6641 C15.9936,354.4341 15.9936,357.3071 17.7646,359.0781 C19.5356,360.8491 22.4076,360.8491 24.1786,359.0781 L49.7936,333.4621 C50.6816,332.5741 51.1236,331.4101 51.1216068,330.2461" id="Fill-75" fill="#1D1B1C"></path>
                <path d="M56.3043,339.873 L30.6393,365.538 C28.8673,367.31 28.8673,370.181 30.6393,371.952 C32.4103,373.724 35.2823,373.724 37.0533,371.952 L62.7183,346.287 C64.4893,344.516 64.4893,341.644 62.7183,339.873 C60.9473,338.102 58.0753,338.102 56.3043,339.873" id="Fill-77" fill="#1D1B1C"></path>
                <g id="Group-81" transform="translate(70.000000, 0.000000)">
                    <mask id="mask-16" fill="white">
                        <use xlink:href="#path-15"></use>
                    </mask>
                    <g id="Clip-80"></g>
                    <path d="M35.9273,29.3447 L35.9273,29.3447 C37.6983,27.5737 37.6983,24.7017 35.9273,22.9307 L13.4523,0.4567 L0.6243,0.4567 L29.5133,29.3447 C31.2843,31.1157 34.1563,31.1157 35.9273,29.3447" id="Fill-79" fill="#1D1B1C" mask="url(#mask-16)"></path>
                </g>
                <path d="M185.0801,268.9199 C186.8511,270.6909 189.7231,270.6909 191.4941,268.9199 L226.7711,233.6429 L262.0491,268.9199 C263.8201,270.6909 266.6921,270.6909 268.4631,268.9199 C270.2341,267.1489 270.2341,264.2769 268.4631,262.5059 L233.1851,227.2289 L268.4631,191.9509 C270.2341,190.1799 270.2341,187.3079 268.4631,185.5369 C266.6921,183.7659 263.8201,183.7659 262.0491,185.5369 L226.7711,220.8149 L191.4941,185.5369 C189.7231,183.7659 186.8511,183.7659 185.0801,185.5369 C183.3091,187.3079 183.3091,190.1799 185.0801,191.9509 L220.3571,227.2289 L185.0801,262.5059 C183.3091,264.2769 183.3091,267.1489 185.0801,268.9199" id="Fill-82" fill="#1D1B1C"></path>
                <g id="Group-86" transform="translate(96.000000, 0.000000)">
                    <mask id="mask-18" fill="white">
                        <use xlink:href="#path-17"></use>
                    </mask>
                    <g id="Clip-85"></g>
                    <path d="M22.775,16.5098 C24.546,14.7388 24.546,11.8658 22.775,10.0958 L13.136,0.4568 L0.308,0.4568 L16.361,16.5098 C18.132,18.2808 21.004,18.2808 22.775,16.5098" id="Fill-84" fill="#1D1B1C" mask="url(#mask-18)"></path>
                </g>
                <g id="Group-89" transform="translate(147.000000, 0.000000)">
                    <mask id="mask-20" fill="white">
                        <use xlink:href="#path-19"></use>
                    </mask>
                    <g id="Clip-88"></g>
                    <path d="M61.4527,54.9355 C63.2237,53.1645 63.2237,50.2925 61.4527,48.5215 L13.3877,0.4565 L0.5597,0.4565 L55.0387,54.9355 C56.8097,56.7065 59.6817,56.7065 61.4527,54.9355" id="Fill-87" fill="#1D1B1C" mask="url(#mask-20)"></path>
                </g>
                <g id="Group-92" transform="translate(121.000000, 0.000000)">
                    <mask id="mask-22" fill="white">
                        <use xlink:href="#path-21"></use>
                    </mask>
                    <g id="Clip-91"></g>
                    <path d="M4.2017,22.8496 C4.1857,22.8656 4.1687,22.8776 4.1537,22.8926 C3.2677,23.7796 2.8257,24.9406 2.8257,26.1026 C2.8257,27.2636 3.2677,28.4256 4.1537,29.3116 C4.1687,29.3276 4.1857,29.3396 4.2017,29.3546 L16.9537,42.1066 C18.7247,43.8776 21.5967,43.8776 23.3677,42.1066 C25.1387,40.3356 25.1387,37.4636 23.3677,35.6926 L13.7777,26.1026 L23.3677,16.5116 C25.1387,14.7416 25.1387,11.8696 23.3677,10.0976 L23.3677,10.0976 L13.7267,0.4566 L0.8977,0.4566 L13.7467,13.3046 L4.2017,22.8496 Z" id="Fill-90" fill="#1D1B1C" mask="url(#mask-22)"></path>
                </g>
                <path d="M35.0811,93.3008 C35.1401,93.3668 35.1971,93.4358 35.2611,93.4998 C37.0321,95.2708 39.9031,95.2708 41.6741,93.4998 L41.6841,93.4898 L41.6851,93.4898 L51.3261,83.8478 L60.9781,93.4998 C62.7491,95.2708 65.6211,95.2708 67.3921,93.4998 C69.1631,91.7288 69.1631,88.8568 67.3921,87.0858 L55.0131,74.7068 C54.8801,74.5268 54.7371,74.3508 54.5731,74.1878 C53.6771,73.2908 52.5001,72.8508 51.3261,72.8608 C50.1521,72.8508 48.9751,73.2908 48.0801,74.1878 C47.9161,74.3508 47.7721,74.5268 47.6391,74.7068 L38.4771,83.8688 L3.5801,48.9718 C3.4771,48.8428 3.3671,48.7178 3.2471,48.5988 C2.3521,47.7018 1.1741,47.2618 0.0001,47.2725988 L0.0001,58.2598 L0.0191,58.2398 L35.0811,93.3008 Z" id="Fill-93" fill="#1D1B1C"></path>
                <path d="M35.2452,119.2217 L35.2452,119.2217 C37.0162,120.9927 39.8882,120.9927 41.6592,119.2217 L54.5572,106.3237 C56.3292,104.5517 56.3292,101.6807 54.5572,99.9097 C52.7872,98.1377 49.9152,98.1377 48.1442,99.9097 L38.5092,109.5427 L3.1352,74.1687 C2.2672,73.3017 1.1362,72.8617 0.0002,72.8437 L0.0002,83.8627 L34.7092,118.5717 C34.8662,118.7997 35.0422,119.0187 35.2452,119.2217" id="Fill-95" fill="#1D1B1C"></path>
                <path d="M99.1314,260.5234 C100.9024,262.2944 103.7744,262.2944 105.5454,260.5234 L118.4434,247.6254 C120.2144,245.8534 120.2144,242.9824 118.4434,241.2114 C116.6724,239.4394 113.8004,239.4394 112.0294,241.2114 L102.3594,250.8804 L3.2344,151.7554 C3.1544,151.6624 3.0744,151.5694 2.9854,151.4814 C2.1564,150.6514 1.0864,150.2164 0.0004,150.1644 L0.0004,161.3494 L98.7944,260.1434 C98.8984,260.2744 99.0094,260.4024 99.1314,260.5234" id="Fill-97" fill="#1D1B1C"></path>
                <g id="Group-101" transform="translate(0.000000, 188.000000)">
                    <mask id="mask-24" fill="white">
                        <use xlink:href="#path-23"></use>
                    </mask>
                    <g id="Clip-100"></g>
                    <path d="M34.8316,33.9727 C36.6026,35.7437 39.4746,35.7437 41.2456,33.9727 C43.0166,32.2017 43.0166,29.3297 41.2456,27.5587 L15.8126,2.1257 C15.7096,1.9967 15.5996,1.8717 15.4796,1.7517 C14.5886,0.8617 13.4196,0.4187 12.2516,0.424639866 C11.0846,0.4187 9.9156,0.8617 9.0246,1.7517 C8.9046,1.8717 8.7946,1.9967 8.6916,2.1257 L-0.0004,10.8177 L-0.0004,23.6457 L12.2516,11.3937 L34.8316,33.9727 Z" id="Fill-99" fill="#1D1B1C" mask="url(#mask-24)"></path>
                </g>
                <path d="M86.3555,273.3271 C88.1265,275.0981 90.9985,275.0981 92.7695,273.3271 C94.5415,271.5561 94.5415,268.6831 92.7695,266.9131 L54.4275,228.5711 C52.6565,226.8001 49.7855,226.8001 48.0135,228.5711 C46.2425,230.3421 46.2425,233.2141 48.0135,234.9851 L86.3555,273.3271 Z" id="Fill-102" fill="#1D1B1C"></path>
                <g id="Group-106" transform="translate(0.000000, 175.000000)">
                    <mask id="mask-26" fill="white">
                        <use xlink:href="#path-25"></use>
                    </mask>
                    <g id="Clip-105"></g>
                    <path d="M2.9859,1.6973 L2.9859,1.6973 C2.1569,0.8683 1.0859,0.4313 -0.0001,0.3793 L-0.0001,11.0973 L2.9859,8.1113 C4.7569,6.3403 4.7569,3.4683 2.9859,1.6973" id="Fill-104" fill="#1D1B1C" mask="url(#mask-26)"></path>
                </g>
                <path d="M79.9454,337.6318 L79.9454,337.6318 C81.7164,335.8608 81.7164,332.9888 79.9454,331.2178 L0.0004,251.2728 L0.0004,264.1008 L73.5314,337.6318 C75.3024,339.4028 78.1744,339.4028 79.9454,337.6318" id="Fill-107" fill="#1D1B1C"></path>
                <path d="M229.9693,358.6338 C231.7403,356.8628 231.7403,353.9908 229.9693,352.2198 L131.7433,253.9928 C131.6923,253.9378 131.6443,253.8788 131.5903,253.8238 C131.2523,253.4868 130.8743,253.2148 130.4723,253.0058 C128.7583,252.0978 126.5853,252.3638 125.1423,253.8078 C125.0123,253.9378 124.8943,254.0758 124.7823,254.2178 L89.5563,289.4448 L15.4413,215.3278 C13.6703,213.5568 10.7983,213.5568 9.0273,215.3278 C7.2563,217.0998 7.2563,219.9708 9.0273,221.7418 L86.2033,298.9188 C86.2283,298.9438 86.2553,298.9638 86.2803,298.9878 C86.3043,299.0138 86.3253,299.0398 86.3493,299.0658 C88.1213,300.8358 90.9923,300.8358 92.7633,299.0658 L128.3753,263.4538 L223.5553,358.6338 C225.3263,360.4048 228.1983,360.4048 229.9693,358.6338" id="Fill-109" fill="#1D1B1C"></path>
                <g id="Group-113" transform="translate(0.000000, 300.000000)">
                    <mask id="mask-28" fill="white">
                        <use xlink:href="#path-27"></use>
                    </mask>
                    <g id="Clip-112"></g>
                    <path d="M24.2818,1.4209 C22.5108,-0.3501 19.6388,-0.3501 17.8678,1.4209 L-0.0002,19.2879 L-0.0002,32.1159 L24.2818,7.8349 C26.0528,6.0639 26.0528,3.1919 24.2818,1.4209" id="Fill-111" fill="#1D1B1C" mask="url(#mask-28)"></path>
                </g>
                <path d="M24.336,384.8271 C26.107,383.0561 26.107,380.1841 24.336,378.4131 L0,354.0781 L0,366.9061 L17.922,384.8271 C19.693,386.5981 22.565,386.5981 24.336,384.8271" id="Fill-114" fill="#1D1B1C"></path>
                <path d="M11.3804,288.5186 L11.3804,288.5186 C9.6094,286.7476 6.7374,286.7476 4.9654,288.5186 L0.0004,293.4856 L0.0004,306.3136 L11.3804,294.9326 C13.1514,293.1616 13.1514,290.2896 11.3804,288.5186" id="Fill-116" fill="#1D1B1C"></path>
                <g id="Group-120" transform="translate(0.000000, 226.000000)">
                    <mask id="mask-30" fill="white">
                        <use xlink:href="#path-29"></use>
                    </mask>
                    <g id="Clip-119"></g>
                    <path d="M86.3497,98.8779 L86.3497,98.8779 C88.1207,100.6489 90.9927,100.6489 92.7637,98.8779 L131.5907,60.0519 C133.3617,58.2799 133.3617,55.4089 131.5907,53.6379 C129.8187,51.8659 126.9477,51.8659 125.1767,53.6379 L89.5977,89.2169 L2.5937,2.2129 C1.8647,1.4839 0.9487,1.0609 -0.0003,0.9319 L-0.0003,12.4469 L85.9057,98.3529 C86.0397,98.5349 86.1847,98.7129 86.3497,98.8779" id="Fill-118" fill="#1D1B1C" mask="url(#mask-30)"></path>
                </g>
                <path d="M131.5904,305.291 L131.5904,305.291 C129.8194,303.52 126.9474,303.52 125.1764,305.291 L78.1244,352.344 C76.3524,354.114 76.3524,356.986 78.1244,358.758 C79.8954,360.528 82.7664,360.528 84.5384,358.758 L131.5904,311.705 C133.3614,309.934 133.3614,307.062 131.5904,305.291" id="Fill-121" fill="#1D1B1C"></path>
                <path d="M138.0435,292.4844 C136.2725,294.2554 136.2725,297.1274 138.0435,298.8984 L210.6675,371.5224 C212.4385,373.2934 215.3105,373.2934 217.0815,371.5224 C218.8525,369.7514 218.8525,366.8794 217.0815,365.1074 L144.4575,292.4844 C142.6865,290.7134 139.8145,290.7134 138.0435,292.4844" id="Fill-123" fill="#1D1B1C"></path>
                <g id="Group-127" transform="translate(0.000000, 96.000000)">
                    <mask id="mask-32" fill="white">
                        <use xlink:href="#path-31"></use>
                    </mask>
                    <g id="Clip-126"></g>
                    <path d="M28.8179,36.0635 L28.8179,36.0635 C30.5889,34.2925 30.5889,31.4195 28.8179,29.6495 L-0.0001,0.8315 L-0.0001,13.6595 L22.4039,36.0635 C24.1749,37.8345 27.0469,37.8345 28.8179,36.0635" id="Fill-125" fill="#1D1B1C" mask="url(#mask-32)"></path>
                </g>
                <path d="M15.9171,145.0088 L15.9171,145.0088 C17.6881,143.2378 17.6881,140.3648 15.9171,138.5938 L0.0001,122.6768 L0.0001,135.5048 L9.5031,145.0088 C11.2741,146.7798 14.1461,146.7798 15.9171,145.0088" id="Fill-128" fill="#1D1B1C"></path>
                <path d="M163.5552,67.708 C165.3262,69.479 168.1982,69.479 169.9692,67.708 C171.7402,65.937 171.7402,63.065 169.9692,61.294 L157.1692,48.494 C155.3982,46.724 152.5262,46.724 150.7552,48.494 C148.9842,50.266 148.9842,53.138 150.7552,54.908 L163.5552,67.708 Z" id="Fill-130" fill="#1D1B1C"></path>
                <path d="M41.7603,67.8682 L41.7603,67.8682 L41.7603,67.8672 L51.4273,58.2012 L73.8293,80.6032 C75.6003,82.3742 78.4723,82.3742 80.2433,80.6032 C82.0143,78.8322 82.0143,75.9602 80.2433,74.1892 L55.0143,48.9602 C54.9043,48.8202 54.7873,48.6842 54.6583,48.5562 C54.0933,47.9902 53.4163,47.6072 52.6993,47.4032 C51.1503,46.9342 49.4003,47.3112 48.1763,48.5362 C48.0033,48.7092 47.8523,48.8942 47.7133,49.0872 L38.5523,58.2472 L3.1993,22.8932 C2.3163,22.0102 1.1583,21.5672 0.0003,21.5652 L0.0003,32.5212 L35.3453,67.8682 C37.1173,69.6392 39.9893,69.6392 41.7603,67.8682" id="Fill-132" fill="#1D1B1C"></path>
                <path d="M364.522,12.4385 L364.522,12.4385 C366.293,14.2095 369.165,14.2095 370.936,12.4385 L382.918,0.4575 L370.089,0.4575 L364.522,6.0245 C362.751,7.7955 362.751,10.6675 364.522,12.4385" id="Fill-134" fill="#1D1B1C"></path>
                <g id="Group-138" transform="translate(352.000000, 0.000000)">
                    <mask id="mask-34" fill="white">
                        <use xlink:href="#path-33"></use>
                    </mask>
                    <g id="Clip-137"></g>
                    <path d="M5.2979,0.457 L0.1499,0.457 C1.6949,1.525 3.7529,1.525 5.2979,0.457" id="Fill-136" fill="#1D1B1C" mask="url(#mask-34)"></path>
                </g>
                <path d="M351.7344,76.6387 C353.5054,78.4097 356.3774,78.4097 358.1484,76.6387 C359.9194,74.8677 359.9194,71.9957 358.1484,70.2257 L311.0164,23.0927 C309.2444,21.3217 306.3734,21.3217 304.6024,23.0927 C302.8314,24.8647 302.8314,27.7357 304.6024,29.5067 L351.7344,76.6387 Z" id="Fill-139" fill="#1D1B1C"></path>
                <path d="M345.2755,89.5117 C347.0465,87.7407 347.0465,84.8687 345.2755,83.0977 L298.1435,35.9657 C296.3725,34.1947 293.5005,34.1947 291.7295,35.9657 C289.9585,37.7377 289.9585,40.6087 291.7295,42.3797 L338.8615,89.5117 C340.6325,91.2827 343.5045,91.2827 345.2755,89.5117" id="Fill-141" fill="#1D1B1C"></path>
                <path d="M332.2672,102.5205 C334.0382,100.7495 334.0382,97.8765 332.2672,96.1065 L285.1352,48.9735 C283.3642,47.2035 280.4922,47.2035 278.7212,48.9735 C276.9502,50.7455 276.9502,53.6175 278.7212,55.3875 L325.8532,102.5205 C327.6242,104.2915 330.4962,104.2915 332.2672,102.5205" id="Fill-143" fill="#1D1B1C"></path>
                <path d="M266.0699,61.625 L266.0699,61.625 C264.2989,63.396 264.2989,66.268 266.0699,68.039 L313.2019,115.171 C314.9739,116.942 317.8449,116.942 319.6159,115.171 C321.3879,113.399 321.3879,110.528 319.6159,108.757 L272.4849,61.625 C270.7129,59.854 267.8409,59.854 266.0699,61.625" id="Fill-145" fill="#1D1B1C"></path>
                <path d="M306.7969,153.5342 C308.5679,151.7632 308.5679,148.8912 306.7969,147.1202 L276.6759,116.9992 C274.9039,115.2272 272.0329,115.2272 270.2619,116.9992 L247.8429,139.4182 L221.2449,112.8192 C219.4739,111.0492 216.6029,111.0492 214.8309,112.8192 C213.0599,114.5912 213.0599,117.4632 214.8309,119.2342 L244.6359,149.0392 C246.4069,150.8092 249.2789,150.8092 251.0499,149.0392 L251.0499,149.0382 L273.4689,126.6202 L300.3819,153.5342 C302.1539,155.3052 305.0259,155.3052 306.7969,153.5342" id="Fill-147" fill="#1D1B1C"></path>
                <g id="Group-151" transform="translate(21.000000, 449.000000)">
                    <mask id="mask-36" fill="white">
                        <use xlink:href="#path-35"></use>
                    </mask>
                    <g id="Clip-150"></g>
                    <path d="M1.4332,1.7793 L1.4332,1.7793 C0.5442,2.6683 0.1012,3.8353 0.105173154,5.0003 L11.0682,5.0003 L7.8472,1.7793 C6.0762,0.0083 3.2042,0.0083 1.4332,1.7793" id="Fill-149" fill="#1D1B1C" mask="url(#mask-36)"></path>
                </g>
                <path d="M80.1954,405.876 C81.9664,404.105 81.9664,401.232 80.1954,399.462 C78.4244,397.69 75.5524,397.69 73.7814,399.462 L35.3074,437.935 C35.3074,437.936 35.3074,437.936 35.3074,437.936 C35.3074,437.936 35.3064,437.936 35.3064,437.937 L35.2744,437.969 C33.5034,439.739 33.5034,442.611 35.2744,444.383 C35.4224,444.53 35.5794,444.661 35.7414,444.784 L44.9574,454 L57.7854,454 L44.9284,441.143 L80.1954,405.876 Z" id="Fill-152" fill="#1D1B1C"></path>
                <path d="M260.0626,374.3008 C259.9506,374.1578 259.8316,374.0188 259.6996,373.8868 C257.9286,372.1148 255.0566,372.1148 253.2856,373.8868 L176.3166,450.8558 C175.4476,451.7258 175.0066,452.8608 174.9916,453.9998 L186.0006,453.9998 L256.4666,383.5328 L326.9336,453.9998 L337.9806,453.9998 C337.9556,452.8738 337.5166,451.7548 336.6566,450.8958 L260.0626,374.3008 Z" id="Fill-154" fill="#1D1B1C"></path>
                <path d="M246.793,360.9795 C245.022,359.2085 242.15,359.2085 240.379,360.9795 L163.41,437.9495 C161.639,439.7195 161.639,442.5915 163.41,444.3635 C165.181,446.1335 168.053,446.1335 169.824,444.3635 L246.793,367.3935 C248.564,365.6235 248.564,362.7505 246.793,360.9795" id="Fill-156" fill="#1D1B1C"></path>
                <path d="M105.9273,405.876 C106.8133,404.989 107.2563,403.828 107.255302,402.667 C107.2563,401.505 106.8133,400.344 105.9273,399.458 L67.4203,360.951 C65.6493,359.18 62.7773,359.18 61.0063,360.951 C59.2353,362.722 59.2353,365.594 61.0063,367.365 L96.3083,402.667 L61.0133,437.961 C61.0113,437.964 61.0093,437.965 61.0063,437.968 C60.1203,438.854 59.6773,440.015 59.6773,441.175 C59.6773,442.336 60.1203,443.497 61.0063,444.383 L61.0133,444.389 L70.6243,454 L83.4523,454 L70.6283,441.175 L105.9273,405.876 Z" id="Fill-158" fill="#1D1B1C"></path>
                <path d="M221.0884,438.1807 C220.1944,437.2857 219.0194,436.8447 217.8474,436.853565 C216.6754,436.8447 215.5014,437.2857 214.6074,438.1807 C214.4574,438.3307 214.3244,438.4907 214.2004,438.6557 L198.8554,453.9997 L211.6834,453.9997 L217.8474,447.8357 L224.0124,453.9997 L236.8404,453.9997 L221.4954,438.6557 C221.3714,438.4907 221.2384,438.3297 221.0884,438.1807" id="Fill-160" fill="#1D1B1C"></path>
                <path d="M278.6797,451.3857 L276.0657,453.9997 L286.3787,453.9997 C286.2537,453.0437 285.8277,452.1197 285.0937,451.3857 C283.3227,449.6147 280.4507,449.6147 278.6797,451.3857" id="Fill-162" fill="#1D1B1C"></path>
                <path d="M424.5914,450.8457 L421.4364,453.9997 L432.3314,453.9997 C432.3184,452.8567 431.8774,451.7177 431.0054,450.8457 C429.2344,449.0747 426.3624,449.0747 424.5914,450.8457" id="Fill-164" fill="#1D1B1C"></path>
                <path d="M291.8257,438.293 L291.8257,438.293 C290.0547,440.064 290.0547,442.936 291.8257,444.707 L301.1187,454 L313.9467,454 L298.2397,438.293 C296.4687,436.522 293.5967,436.522 291.8257,438.293" id="Fill-166" fill="#1D1B1C"></path>
                <g id="Group-170" transform="translate(85.000000, 411.000000)">
                    <mask id="mask-38" fill="white">
                        <use xlink:href="#path-37"></use>
                    </mask>
                    <g id="Clip-169"></g>
                    <path d="M33.7808,7.7461 C35.5518,5.9751 35.5518,3.1031 33.7808,1.3321 C32.0098,-0.4399 29.1378,-0.4399 27.3668,1.3321 L1.8278,26.8711 C1.7868,26.9091 1.7438,26.9421 1.7038,26.9821 C-0.0672,28.7541 -0.0672,31.6251 1.7038,33.3961 L1.7108,33.4021 L11.3078,43.0001 L24.1358,43.0001 L11.3318,30.1951 L33.7808,7.7461 Z" id="Fill-168" fill="#1D1B1C" mask="url(#mask-38)"></path>
                </g>
                <path d="M191.1192,391.0957 L191.1192,391.0957 C189.3482,389.3247 186.4762,389.3247 184.7052,391.0957 L153.9662,421.8347 L109.8052,377.6727 C108.0332,375.9027 105.1612,375.9027 103.3902,377.6727 C101.6192,379.4447 101.6192,382.3167 103.3902,384.0867 L150.7162,431.4127 C151.6132,432.3097 152.7912,432.7507 153.9662,432.739901 C155.1412,432.7507 156.3192,432.3097 157.2162,431.4127 L191.1192,397.5097 C192.8902,395.7387 192.8902,392.8667 191.1192,391.0957" id="Fill-171" fill="#1D1B1C"></path>
                <path d="M197.4464,384.7432 C199.2174,386.5142 202.0894,386.5142 203.8604,384.7432 C205.6314,382.9722 205.6314,380.1002 203.8604,378.3292 L143.7084,318.1772 L143.6944,318.1632 C141.9234,316.3912 139.0514,316.3912 137.2804,318.1632 C137.1884,318.2552 137.1044,318.3512 137.0214,318.4492 L90.6264,364.8452 C88.8544,366.6162 88.8544,369.4882 90.6264,371.2592 C92.3974,373.0302 95.2684,373.0302 97.0404,371.2592 L140.5014,327.7982 L197.4464,384.7432 Z" id="Fill-173" fill="#1D1B1C"></path>
                <path d="M150.9488,405.9795 C152.7198,407.7505 155.5918,407.7505 157.3628,405.9795 L165.6548,397.6885 C167.4258,395.9165 167.4258,393.0445 165.6548,391.2735 C163.8838,389.5025 161.0118,389.5025 159.2408,391.2735 L150.9488,399.5655 C149.1778,401.3365 149.1778,404.2085 150.9488,405.9795 Z" id="Fill-175" fill="#1D1B1C"></path>
                <path d="M139.5172,394.5479 C141.2882,396.3189 144.1602,396.3189 145.9312,394.5479 L154.2232,386.2569 C155.9942,384.4849 155.9942,381.6129 154.2232,379.8429 C152.4522,378.0709 149.5802,378.0709 147.8092,379.8429 L139.5172,388.1349 C137.7462,389.9049 137.7462,392.7769 139.5172,394.5479" id="Fill-177" fill="#1D1B1C"></path>
                <path d="M142.7916,368.4111 C141.0206,366.6401 138.1486,366.6401 136.3776,368.4111 L128.0856,376.7031 C126.3146,378.4741 126.3146,381.3461 128.0856,383.1171 C129.8566,384.8881 132.7286,384.8881 134.4996,383.1171 L142.7916,374.8251 C144.5626,373.0541 144.5626,370.1821 142.7916,368.4111" id="Fill-179" fill="#1D1B1C"></path>
                <path d="M48.0533,405.9463 L48.0533,405.9463 C49.8243,407.7173 52.6963,407.7173 54.4673,405.9463 L66.8473,393.5663 C68.6193,391.7953 68.6193,388.9243 66.8473,387.1523 C65.0763,385.3813 62.2053,385.3813 60.4333,387.1523 L48.0533,399.5323 C46.2823,401.3033 46.2823,404.1753 48.0533,405.9463" id="Fill-181" fill="#1D1B1C"></path>
                <path d="M178.524,384.9199 C180.295,383.1489 180.295,380.2769 178.524,378.5059 L143.862,343.8449 C143.844,343.8259 143.828,343.8049 143.809,343.7859 C142.922,342.8989 141.761,342.4569 140.599,342.4569 C139.438,342.4569 138.275,342.8989 137.389,343.7859 C137.37,343.8049 137.355,343.8249 137.336,343.8449 L116.163,365.0189 C114.391,366.7889 114.391,369.6609 116.163,371.4319 C117.934,373.2029 120.805,373.2029 122.577,371.4319 L140.599,353.4089 L172.11,384.9199 C173.881,386.6909 176.753,386.6909 178.524,384.9199" id="Fill-183" fill="#1D1B1C"></path>
                <g id="Group-187" transform="translate(0.000000, 389.000000)">
                    <mask id="mask-40" fill="white">
                        <use xlink:href="#path-39"></use>
                    </mask>
                    <g id="Clip-186"></g>
                    <path d="M11.2286,8.5088 C12.9996,6.7378 12.9996,3.8658 11.2286,2.0948 C9.4576,0.3228 6.5856,0.3228 4.8146,2.0948 L-0.0004,6.9088 L-0.0004,17.9958 C1.1126,17.9608 2.2146,17.5238 3.0626,16.6738 L11.2286,8.5088 Z" id="Fill-185" fill="#1D1B1C" mask="url(#mask-40)"></path>
                </g>
                <path d="M54.5323,380.1836 C56.3033,378.4126 56.3033,375.5396 54.5323,373.7696 C52.7613,371.9976 49.8893,371.9976 48.1183,373.7696 L0.0003,421.8876 L0.0003,432.831602 C1.1613,432.8326 2.3233,432.3926 3.2103,431.5056 L54.5323,380.1836 Z" id="Fill-188" fill="#1D1B1C"></path>
                <path d="M437.1846,145.0361 C438.9556,146.8071 441.8276,146.8071 443.5986,145.0361 C445.3696,143.2651 445.3696,140.3931 443.5986,138.6221 L430.8066,125.8301 C429.0356,124.0581 426.1636,124.0581 424.3926,125.8301 L424.3926,125.8301 C422.6216,127.6011 422.6216,130.4731 424.3926,132.2441 L437.1846,145.0361 Z" id="Fill-190" fill="#1D1B1C"></path>
                <path d="M417.9859,138.6641 C416.2149,136.8931 413.3429,136.8931 411.5719,138.6641 L398.6359,151.6011 C396.8649,153.3711 396.8649,156.2431 398.6359,158.0151 C400.4079,159.7851 403.2789,159.7851 405.0499,158.0151 L417.9859,145.0781 C419.7569,143.3081 419.7569,140.4351 417.9859,138.6641 Z" id="Fill-192" fill="#1D1B1C"></path>
                <path d="M398.2955,228.4023 L398.2955,228.4023 C396.5245,230.1733 396.5245,233.0453 398.2955,234.8163 L442.3615,278.8823 L398.2955,322.9493 C396.5245,324.7203 396.5245,327.5913 398.2955,329.3633 C400.0665,331.1343 402.9385,331.1343 404.7095,329.3633 L451.9265,282.1453 C451.9465,282.1273 451.9665,282.1113 451.9855,282.0923 C452.8725,281.2063 453.3155,280.0443 453.314502,278.8823 C453.3155,277.7203 452.8725,276.5593 451.9855,275.6733 C451.9665,275.6533 451.9455,275.6373 451.9265,275.6193 L404.7095,228.4023 C402.9385,226.6313 400.0665,226.6313 398.2955,228.4023" id="Fill-194" fill="#1D1B1C"></path>
                <g id="Group-198" transform="translate(449.000000, 21.000000)">
                    <mask id="mask-42" fill="white">
                        <use xlink:href="#path-41"></use>
                    </mask>
                    <g id="Clip-197"></g>
                    <path d="M1.3292,1.8936 C-0.4418,3.6646 -0.4418,6.5366 1.3292,8.3076 L4.5432,11.5216 L4.5432,0.565593243 C3.3802,0.5636 2.2162,1.0056 1.3292,1.8936" id="Fill-196" fill="#1D1B1C" mask="url(#mask-42)"></path>
                </g>
                <path d="M431.0235,55.042 L443.9215,42.144 C445.6935,40.373 445.6935,37.501 443.9215,35.73 C442.1505,33.959 439.2795,33.959 437.5075,35.73 L424.6095,48.628 C422.8385,50.399 422.8385,53.271 424.6095,55.042 C426.3805,56.813 429.2525,56.813 431.0235,55.042" id="Fill-199" fill="#1D1B1C"></path>
                <path d="M294.2086,166.5713 L294.2086,166.5713 C295.9796,164.8003 295.9796,161.9283 294.2086,160.1573 L276.6056,142.5543 C274.8346,140.7843 271.9636,140.7843 270.1916,142.5543 C268.4206,144.3263 268.4206,147.1983 270.1916,148.9683 L287.7946,166.5713 C289.5656,168.3423 292.4376,168.3423 294.2086,166.5713" id="Fill-201" fill="#1D1B1C"></path>
                <path d="M227.816,100.1787 L227.816,100.1787 C226.045,101.9497 226.045,104.8227 227.816,106.5927 L244.389,123.1657 C246.161,124.9377 249.032,124.9377 250.803,123.1657 C252.575,121.3957 252.575,118.5237 250.803,116.7517 L234.23,100.1787 C232.459,98.4077 229.587,98.4077 227.816,100.1787" id="Fill-203" fill="#1D1B1C"></path>
                <path d="M247.043,87.3662 C245.272,85.5952 242.4,85.5952 240.629,87.3662 C238.857,89.1372 238.857,92.0102 240.629,93.7802 L257.202,110.3532 C258.973,112.1252 261.845,112.1252 263.616,110.3532 C265.387,108.5822 265.387,105.7112 263.616,103.9392 L247.043,87.3662 Z" id="Fill-205" fill="#1D1B1C"></path>
                <path d="M274.9815,179.3838 C276.7525,181.1548 279.6245,181.1548 281.3955,179.3838 C283.1675,177.6128 283.1675,174.7408 281.3955,172.9698 L263.7935,155.3678 C262.0225,153.5968 259.1505,153.5968 257.3795,155.3678 C255.6075,157.1388 255.6075,160.0108 257.3795,161.7818 L274.9815,179.3838 Z" id="Fill-207" fill="#1D1B1C"></path>
                <g id="Group-211" transform="translate(436.000000, 47.000000)">
                    <mask id="mask-44" fill="white">
                        <use xlink:href="#path-43"></use>
                    </mask>
                    <g id="Clip-210"></g>
                    <path d="M15.8736,0.6035 C15.3176,0.8255 14.7966,1.1595 14.3466,1.6095 C14.2826,1.6725 14.2266,1.7415 14.1666,1.8075 L1.4776,14.4975 C-0.2934,16.2675 -0.2934,19.1395 1.4776,20.9115 C3.2486,22.6815 6.1216,22.6815 7.8926,20.9115 L17.5436,11.2595 L17.5436,0.2725 C16.9756,0.2775 16.4076,0.3865 15.8736,0.6035" id="Fill-209" fill="#1D1B1C" mask="url(#mask-44)"></path>
                </g>
                <g id="Group-214" transform="translate(448.000000, 72.000000)">
                    <mask id="mask-46" fill="white">
                        <use xlink:href="#path-45"></use>
                    </mask>
                    <g id="Clip-213"></g>
                    <path d="M2.2642,2.1689 L2.2642,2.1689 C0.4932,3.9399 0.4932,6.8119 2.2642,8.5829 L5.5432,11.8619 L5.5432,0.8439 C4.3582,0.8249 3.1682,1.2649 2.2642,2.1689" id="Fill-212" fill="#1D1B1C" mask="url(#mask-46)"></path>
                </g>
                <path d="M370.8575,371.3145 L370.8575,371.3145 C372.6285,369.5435 372.6285,366.6705 370.8575,364.9005 L284.5105,278.5535 L379.4705,183.5945 C381.2415,181.8235 381.2415,178.9525 379.4705,177.1805 C377.6985,175.4095 374.8275,175.4095 373.0565,177.1805 L275.6395,274.5975 C275.3405,274.7805 275.0565,274.9975 274.7985,275.2545 C273.2205,276.8335 273.0525,279.2825 274.2855,281.0505 C274.4535,281.3075 274.6495,281.5505 274.8745,281.7755 C274.9755,281.8765 275.0815,281.9695 275.1895,282.0595 L364.4435,371.3145 C366.2145,373.0855 369.0865,373.0855 370.8575,371.3145" id="Fill-215" fill="#1D1B1C"></path>
                <path d="M300.5303,281.8311 C302.3013,283.6021 305.1733,283.6021 306.9443,281.8311 L392.3253,196.4501 C394.0963,194.6791 394.0963,191.8081 392.3253,190.0361 C390.5543,188.2651 387.6823,188.2651 385.9113,190.0361 L300.5303,275.4171 C298.7593,277.1881 298.7593,280.0601 300.5303,281.8311" id="Fill-217" fill="#1D1B1C"></path>
                <path d="M312.8218,294.123 L312.8218,294.123 C314.5928,295.894 317.4648,295.894 319.2358,294.123 L404.6168,208.741 C406.3878,206.971 406.3878,204.099 404.6168,202.327 C402.8458,200.557 399.9738,200.557 398.2028,202.327 L312.8218,287.709 C311.0508,289.479 311.0508,292.352 312.8218,294.123" id="Fill-219" fill="#1D1B1C"></path>
                <g id="Group-223" transform="translate(435.000000, 198.000000)">
                    <mask id="mask-48" fill="white">
                        <use xlink:href="#path-47"></use>
                    </mask>
                    <g id="Clip-222"></g>
                    <path d="M1.8023,23.9727 C3.5733,25.7437 6.4453,25.7437 8.2163,23.9727 L18.5433,13.6457 L18.5433,0.8177 L1.8023,17.5587 C0.0313,19.3297 0.0313,22.2017 1.8023,23.9727" id="Fill-221" fill="#1D1B1C" mask="url(#mask-48)"></path>
                </g>
                <g id="Group-226" transform="translate(448.000000, 226.000000)">
                    <mask id="mask-50" fill="white">
                        <use xlink:href="#path-49"></use>
                    </mask>
                    <g id="Clip-225"></g>
                    <path d="M1.7232,2.2129 C-0.0478,3.9839 -0.0478,6.8569 1.7232,8.6269 L5.5432,12.4469 L5.5432,0.9319 C4.1872,0.7469 2.7652,1.1709 1.7232,2.2129" id="Fill-224" fill="#1D1B1C" mask="url(#mask-50)"></path>
                </g>
                <g id="Group-229" transform="translate(384.000000, 163.000000)">
                    <mask id="mask-52" fill="white">
                        <use xlink:href="#path-51"></use>
                    </mask>
                    <g id="Clip-228"></g>
                    <path d="M45.7296,45.4629 C47.5006,43.6919 47.5006,40.8199 45.7296,39.0489 C45.6526,38.9729 45.5716,38.9039 45.4916,38.8339 L8.0896,1.4329 C6.3186,-0.3391 3.4466,-0.3391 1.6756,1.4329 C-0.0954,3.2029 -0.0954,6.0749 1.6756,7.8469 L36.0966,42.2679 L27.0716,51.2929 C26.8986,51.4219 26.7306,51.5609 26.5736,51.7169 L26.5736,51.7169 C24.8026,53.4879 24.8026,56.3599 26.5736,58.1309 L69.5436,101.1009 L69.5436,88.2729 L36.2316,54.9609 L45.7296,45.4629 Z" id="Fill-227" fill="#1D1B1C" mask="url(#mask-52)"></path>
                </g>
                <g id="Group-232" transform="translate(410.000000, 149.000000)">
                    <mask id="mask-54" fill="white">
                        <use xlink:href="#path-53"></use>
                    </mask>
                    <g id="Clip-231"></g>
                    <path d="M40.1153,27.6973 L30.2343,37.5783 L11.0273,18.3713 L20.9073,8.4903 C22.6793,6.7183 22.6793,3.8463 20.9073,2.0763 C19.1363,0.3043 16.2653,0.3043 14.4933,2.0763 L1.4063,15.1643 C-0.3647,16.9343 -0.3647,19.8063 1.4063,21.5783 C1.4133,21.5853 1.4213,21.5913 1.4283,21.5973 C1.4353,21.6053 1.4413,21.6133 1.4483,21.6203 L27.0273,47.1993 C28.7983,48.9703 31.6703,48.9703 33.4413,47.1993 L43.5433,37.0973 L43.5433,26.3793 C42.3103,26.3193 41.0573,26.7553 40.1153,27.6973" id="Fill-230" fill="#1D1B1C" mask="url(#mask-54)"></path>
                </g>
                <path d="M249.2813,230.4053 L249.2813,230.4053 C249.4063,230.5303 249.5373,230.6433 249.6723,230.7513 L262.2053,243.2843 C263.9763,245.0543 266.8483,245.0543 268.6193,243.2843 C270.3903,241.5123 270.3903,238.6403 268.6193,236.8703 L258.9253,227.1763 L392.1243,93.9753 C392.2683,93.8633 392.4083,93.7443 392.5403,93.6123 C394.3113,91.8413 394.3113,88.9683 392.5403,87.1983 L379.6723,74.3293 C377.9003,72.5573 375.0293,72.5573 373.2583,74.3293 C371.4863,76.1003 371.4863,78.9713 373.2583,80.7433 L382.8933,90.3793 L249.2813,223.9913 C247.5103,225.7613 247.5103,228.6343 249.2813,230.4053" id="Fill-233" fill="#1D1B1C"></path>
                <path d="M274.9254,256.0488 L274.9254,256.0488 C276.6964,257.8198 279.5684,257.8198 281.3394,256.0488 L418.0704,119.3188 C419.8424,117.5468 419.8424,114.6758 418.0704,112.9038 C416.2994,111.1328 413.4274,111.1328 411.6564,112.9038 L274.9254,249.6348 C273.1544,251.4058 273.1544,254.2778 274.9254,256.0488" id="Fill-235" fill="#1D1B1C"></path>
                <path d="M274.9761,230.4355 C276.7471,232.2065 279.6191,232.2065 281.3901,230.4355 L405.2881,106.5375 C407.0601,104.7655 407.0601,101.8935 405.2881,100.1235 C403.5181,98.3515 400.6461,98.3515 398.8741,100.1235 L274.9761,224.0215 C273.2051,225.7925 273.2051,228.6645 274.9761,230.4355" id="Fill-237" fill="#1D1B1C"></path>
                <g id="Group-241" transform="translate(431.000000, 319.000000)">
                    <mask id="mask-56" fill="white">
                        <use xlink:href="#path-55"></use>
                    </mask>
                    <g id="Clip-240"></g>
                    <path d="M0.9454,22.3906 C0.2814,24.0286 0.6134,25.9756 1.9414,27.3046 L22.5434,47.9066 L22.5434,35.0776 L11.5624,24.0966 L22.5434,13.1166 L22.5434,0.2876 L1.9414,20.8896 C1.4984,21.3326 1.1664,21.8446 0.9454,22.3906" id="Fill-239" fill="#1D1B1C" mask="url(#mask-56)"></path>
                </g>
                <g id="Group-244" transform="translate(384.000000, 293.000000)">
                    <mask id="mask-58" fill="white">
                        <use xlink:href="#path-57"></use>
                    </mask>
                    <g id="Clip-243"></g>
                    <path d="M1.983,74.459 C3.754,76.23 6.626,76.23 8.397,74.459 L69.544,13.313 L69.544,0.485 L1.983,68.045 C0.212,69.816 0.212,72.688 1.983,74.459" id="Fill-242" fill="#1D1B1C" mask="url(#mask-58)"></path>
                </g>
                <g id="Group-247" transform="translate(435.000000, 150.000000)">
                    <mask id="mask-60" fill="white">
                        <use xlink:href="#path-59"></use>
                    </mask>
                    <g id="Clip-246"></g>
                    <path d="M15.0889,1.4814 C15.0009,1.5694 14.9199,1.6624 14.8399,1.7554 L2.2169,14.3794 C0.4449,16.1504 0.4449,19.0224 2.2169,20.7934 C3.9879,22.5644 6.8599,22.5644 8.6309,20.7934 L18.3089,11.1154 L18.5439,11.3494 L18.5439,0.1644 C18.4649,0.1604 18.3869,0.153373094 18.3089,0.153373094 C17.1439,0.1494 15.9779,0.5914 15.0889,1.4814" id="Fill-245" fill="#1D1B1C" mask="url(#mask-60)"></path>
                </g>
                <g id="Group-250" transform="translate(397.000000, 47.000000)">
                    <mask id="mask-62" fill="white">
                        <use xlink:href="#path-61"></use>
                    </mask>
                    <g id="Clip-249"></g>
                    <path d="M1.7647,1.4668 L1.7647,1.4668 C-0.0063,3.2378 -0.0063,6.1098 1.7647,7.8808 L56.5437,62.6588 L56.5437,49.8308 L8.1787,1.4668 C6.4077,-0.3042 3.5357,-0.3042 1.7647,1.4668" id="Fill-248" fill="#1D1B1C" mask="url(#mask-62)"></path>
                </g>
                <g id="Group-253" transform="translate(384.000000, 60.000000)">
                    <mask id="mask-64" fill="white">
                        <use xlink:href="#path-63"></use>
                    </mask>
                    <g id="Clip-252"></g>
                    <path d="M1.8638,1.4121 C0.0928,3.1831 0.0928,6.0551 1.8638,7.8261 L69.5438,75.5051 L69.5438,62.6771 L8.2778,1.4121 C6.5068,-0.3589 3.6348,-0.3589 1.8638,1.4121" id="Fill-251" fill="#1D1B1C" mask="url(#mask-64)"></path>
                </g>
                <g id="Group-256" transform="translate(448.000000, 395.000000)">
                    <mask id="mask-66" fill="white">
                        <use xlink:href="#path-65"></use>
                    </mask>
                    <g id="Clip-255"></g>
                    <path d="M2.1924,10.6738 C3.1144,11.5968 4.3354,12.0338 5.5434,11.9958 L5.5434,0.9088 L2.1924,4.2598 C0.4214,6.0308 0.4214,8.9028 2.1924,10.6738" id="Fill-254" fill="#1D1B1C" mask="url(#mask-66)"></path>
                </g>
                <path d="M437.4962,392.9785 C439.2672,394.7495 442.1392,394.7495 443.9102,392.9785 L452.0762,384.8125 C453.8472,383.0415 453.8472,380.1695 452.0762,378.3985 C450.3042,376.6275 447.4332,376.6275 445.6622,378.3985 L437.4962,386.5645 C435.7252,388.3345 435.7252,391.2075 437.4962,392.9785" id="Fill-257" fill="#1D1B1C"></path>
                <path d="M424.6964,380.1777 C426.4674,381.9487 429.3394,381.9487 431.1104,380.1777 L439.2754,372.0127 C441.0474,370.2407 441.0474,367.3697 439.2754,365.5987 C437.5044,363.8267 434.6334,363.8267 432.8614,365.5987 L424.6964,373.7637 C422.9254,375.5347 422.9254,378.4067 424.6964,380.1777" id="Fill-259" fill="#1D1B1C"></path>
                <path d="M418.2066,367.2744 L426.3726,359.1094 C428.1436,357.3374 428.1436,354.4664 426.3726,352.6954 C424.6016,350.9234 421.7296,350.9234 419.9576,352.6954 L411.7926,360.8604 C410.0216,362.6314 410.0216,365.5034 411.7926,367.2744 C413.5636,369.0454 416.4356,369.0454 418.2066,367.2744" id="Fill-261" fill="#1D1B1C"></path>
                <path d="M377.2203,377.8701 L338.3393,416.7521 C336.5673,418.5231 336.5673,421.3941 338.3393,423.1661 C338.4733,423.3011 338.6163,423.4211 338.7623,423.5351 L344.1703,428.9431 L339.2323,433.8821 C337.4613,435.6531 337.4613,438.5241 339.2323,440.2961 C341.0033,442.0671 343.8753,442.0671 345.6463,440.2961 L353.4403,432.5021 C353.5683,432.3991 353.6923,432.2901 353.8113,432.1711 C354.7023,431.2801 355.1443,430.1111 355.1383,428.9431 C355.1443,427.7761 354.7023,426.6071 353.8113,425.7171 C353.6923,425.5981 353.5683,425.4881 353.4403,425.3861 L347.9873,419.9321 L383.6343,384.2841 C385.4063,382.5141 385.4063,379.6411 383.6343,377.8701 C381.8633,376.0991 378.9913,376.0991 377.2203,377.8701" id="Fill-263" fill="#1D1B1C"></path>
                <g id="Group-267" transform="translate(387.000000, 401.000000)">
                    <mask id="mask-68" fill="white">
                        <use xlink:href="#path-67"></use>
                    </mask>
                    <g id="Clip-266"></g>
                    <path d="M30.8692,43.7432 C30.9402,43.6812 31.0132,43.6202 31.0812,43.5522 C32.8522,41.7802 32.8522,38.9082 31.0812,37.1382 L11.6402,17.6962 L21.1932,8.1442 C22.9642,6.3732 22.9642,3.5012 21.1932,1.7302 C19.4222,-0.0408 16.5502,-0.0408 14.7792,1.7302 L2.1352,14.3742 C0.8712,15.6382 0.5142,17.4612 1.0542,19.0462 C1.2492,19.8052 1.6392,20.5232 2.2332,21.1182 L21.4512,40.3352 L8.7862,53.0002 L21.6152,53.0002 L30.8472,43.7672 C30.8552,43.7602 30.8612,43.7512 30.8692,43.7432" id="Fill-265" fill="#1D1B1C" mask="url(#mask-68)"></path>
                </g>
                <path d="M358.1451,384.3242 C359.9161,382.5532 359.9161,379.6812 358.1451,377.9102 L328.6001,348.3662 C326.8291,346.5952 323.9571,346.5952 322.1861,348.3662 C320.4151,350.1362 320.4151,353.0092 322.1861,354.7802 L351.7311,384.3242 C353.5021,386.0952 356.3741,386.0952 358.1451,384.3242" id="Fill-268" fill="#1D1B1C"></path>
                <path d="M335.5504,385.4629 L335.5504,385.4629 C337.3214,383.6919 337.3214,380.8199 335.5504,379.0489 L294.8974,338.3969 C293.1264,336.6249 290.2544,336.6249 288.4834,338.3969 C286.7124,340.1679 286.7124,343.0389 288.4834,344.8109 L329.1364,385.4629 C330.9074,387.2339 333.7794,387.2339 335.5504,385.4629" id="Fill-270" fill="#1D1B1C"></path>
                <path d="M277.002,349.6357 C275.231,351.4067 275.231,354.2787 277.002,356.0497 L317.666,396.7137 C319.437,398.4847 322.309,398.4847 324.08,396.7137 C325.851,394.9427 325.851,392.0707 324.08,390.2987 L283.416,349.6357 C281.645,347.8647 278.773,347.8647 277.002,349.6357" id="Fill-272" fill="#1D1B1C"></path>
                <path d="M271.4825,360.8857 C269.7115,359.1147 266.8395,359.1147 265.0685,360.8857 C263.2975,362.6567 263.2975,365.5287 265.0685,367.2997 L306.1845,408.4147 C307.9555,410.1867 310.8275,410.1867 312.5985,408.4147 C314.3695,406.6437 314.3695,403.7727 312.5985,402.0007 L271.4825,360.8857 Z" id="Fill-274" fill="#1D1B1C"></path>
                <path d="M345.5591,390.6553 C343.7881,388.8843 340.9161,388.8843 339.1451,390.6553 L316.9311,412.8703 C316.7281,413.0723 316.5521,413.2913 316.3961,413.5183 C314.7321,415.2973 314.7631,418.0853 316.4971,419.8193 L325.5251,428.8473 C327.2971,430.6193 330.1681,430.6193 331.9401,428.8473 C333.7111,427.0763 333.7111,424.2053 331.9401,422.4333 L326.0671,416.5613 L345.5591,397.0693 C347.3301,395.2993 347.3301,392.4263 345.5591,390.6553" id="Fill-276" fill="#1D1B1C"></path>
                <path d="M280.9088,326.0059 L280.9088,326.0059 C279.1378,324.2349 276.2658,324.2349 274.4948,326.0059 L252.2808,348.2199 C250.5098,349.9899 250.5098,352.8619 252.2808,354.6339 L252.2808,354.6339 C254.0518,356.4039 256.9238,356.4039 258.6948,354.6339 L280.9088,332.4189 C282.6798,330.6489 282.6798,327.7769 280.9088,326.0059" id="Fill-278" fill="#1D1B1C"></path>
                <path d="M242.2667,345.792 L268.2737,319.785 C270.0447,318.014 270.0447,315.142 268.2737,313.371 C266.5027,311.6 263.6307,311.6 261.8597,313.371 L235.8527,339.378 C234.0817,341.149 234.0817,344.021 235.8527,345.792 C237.6237,347.563 240.4957,347.563 242.2667,345.792" id="Fill-280" fill="#1D1B1C"></path>
                <path d="M223.106,333.0449 C224.877,334.8159 227.749,334.8159 229.52,333.0449 L255.527,307.0379 C257.298,305.2669 257.298,302.3959 255.527,300.6239 C253.756,298.8529 250.884,298.8529 249.113,300.6239 L223.106,326.6309 C221.335,328.4019 221.335,331.2739 223.106,333.0449" id="Fill-282" fill="#1D1B1C"></path>
                <path d="M210.3062,320.2451 C212.0772,322.0161 214.9492,322.0161 216.7202,320.2451 L242.7272,294.2381 C244.4982,292.4671 244.4982,289.5951 242.7272,287.8241 C240.9562,286.0531 238.0842,286.0531 236.3132,287.8241 L210.3062,313.8311 C208.5352,315.6021 208.5352,318.4741 210.3062,320.2451 Z" id="Fill-284" fill="#1D1B1C"></path>
                <path d="M230.0342,275.1309 L230.0342,275.1309 C228.2632,273.3599 225.3912,273.3599 223.6192,275.1309 L197.6122,301.1379 C195.8412,302.9089 195.8412,305.7809 197.6122,307.5519 C199.3842,309.3229 202.2552,309.3229 204.0272,307.5519 L230.0342,281.5449 C231.8052,279.7739 231.8052,276.9019 230.0342,275.1309" id="Fill-286" fill="#1D1B1C"></path>
                <path d="M385.5279,335.7168 L376.3289,344.9158 L367.1829,335.7708 C365.4119,333.9988 362.5409,333.9988 360.7699,335.7708 L360.7689,335.7708 C358.9979,337.5408 358.9979,340.4128 360.7689,342.1848 L373.1319,354.5478 C374.9039,356.3188 377.7759,356.3188 379.5469,354.5478 L379.5469,354.5478 C379.6179,354.4768 379.6809,354.4008 379.7469,354.3258 L391.9419,342.1308 C393.7129,340.3598 393.7129,337.4878 391.9419,335.7168 C390.1709,333.9458 387.2989,333.9458 385.5279,335.7168" id="Fill-288" fill="#1D1B1C"></path>
                <path d="M412.438,289.54 C414.209,291.311 417.081,291.311 418.852,289.54 L424.57,283.821 C426.342,282.05 426.342,279.179 424.57,277.407 C422.799,275.636 419.928,275.636 418.156,277.407 L412.438,283.126 C410.667,284.897 410.667,287.769 412.438,289.54" id="Fill-290" fill="#1D1B1C"></path>
                <path d="M406.4068,265.6582 L400.6888,271.3762 C398.9178,273.1472 398.9178,276.0192 400.6888,277.7902 C402.4598,279.5612 405.3318,279.5612 407.1028,277.7902 L412.8208,272.0722 C414.5928,270.3012 414.5928,267.4292 412.8208,265.6582 C411.0498,263.8872 408.1778,263.8872 406.4068,265.6582" id="Fill-292" fill="#1D1B1C"></path>
                <path d="M401.0714,253.9082 C399.3004,252.1372 396.4284,252.1372 394.6574,253.9082 L388.9394,259.6272 C387.1684,261.3982 387.1684,264.2692 388.9394,266.0412 C390.7104,267.8122 393.5824,267.8122 395.3534,266.0412 L401.0714,260.3222 C402.8424,258.5522 402.8424,255.6792 401.0714,253.9082" id="Fill-294" fill="#1D1B1C"></path>
                <path d="M383.2545,242.5059 L377.5365,248.2239 C375.7655,249.9949 375.7655,252.8669 377.5365,254.6379 C379.3075,256.4089 382.1795,256.4089 383.9505,254.6379 L389.6695,248.9199 C391.4405,247.1489 391.4405,244.2769 389.6695,242.5059 C387.8975,240.7349 385.0255,240.7349 383.2545,242.5059" id="Fill-296" fill="#1D1B1C"></path>
                <path d="M325.7798,300.7803 L325.7798,300.7803 C324.0088,302.5513 324.0088,305.4243 325.7798,307.1943 L348.0658,329.4803 C349.8368,331.2523 352.7088,331.2523 354.4798,329.4803 C356.2508,327.7103 356.2508,324.8383 354.4798,323.0663 L332.1938,300.7803 C330.4228,299.0093 327.5508,299.0093 325.7798,300.7803" id="Fill-298" fill="#1D1B1C"></path>
                <path d="M379.4966,328.6572 C381.2676,326.8862 381.2676,324.0142 379.4966,322.2432 L345.1136,287.8602 C343.3426,286.0902 340.4716,286.0902 338.6996,287.8602 C336.9286,289.6322 336.9286,292.5042 338.6996,294.2742 L373.0826,328.6572 C374.8536,330.4282 377.7256,330.4282 379.4966,328.6572" id="Fill-300" fill="#1D1B1C"></path>
                <path d="M358.0338,274.9404 C356.2628,273.1694 353.3908,273.1694 351.6198,274.9404 C349.8488,276.7114 349.8488,279.5844 351.6198,281.3544 L386.0028,315.7374 C387.7738,317.5084 390.6458,317.5084 392.4168,315.7374 C394.1878,313.9654 394.1878,311.0944 392.4168,309.3234 L358.0338,274.9404 Z" id="Fill-302" fill="#1D1B1C"></path>
                <path d="M364.9,261.6611 C363.129,263.4321 363.129,266.3041 364.9,268.0751 L399.283,302.4571 C401.054,304.2281 403.925,304.2281 405.697,302.4571 C407.468,300.6861 407.468,297.8141 405.697,296.0431 L371.314,261.6611 C369.543,259.8901 366.671,259.8901 364.9,261.6611" id="Fill-304" fill="#1D1B1C"></path>
                <g id="Group-308" transform="translate(397.000000, 372.000000)">
                    <mask id="mask-70" fill="white">
                        <use xlink:href="#path-69"></use>
                    </mask>
                    <g id="Clip-307"></g>
                    <path d="M8.3824,1.7695 C6.6114,-0.0015 3.7394,-0.0015 1.9684,1.7695 C0.1974,3.5405 0.1974,6.4125 1.9684,8.1835 L53.2914,59.5055 C54.1824,60.3975 55.3534,60.8385 56.5224,60.8325604 C56.5294,60.8325604 56.5364,60.8325604 56.5434,60.8325604 L56.5434,49.8875 L56.5224,49.9095 L8.3824,1.7695 Z" id="Fill-306" fill="#1D1B1C" mask="url(#mask-70)"></path>
                </g>
                <path d="M125.1412,425.168 C123.3702,426.939 123.3702,429.811 125.1412,431.582 L147.5592,454 L160.3882,454 L131.5562,425.168 C129.7842,423.397 126.9122,423.397 125.1412,425.168" id="Fill-309" fill="#1D1B1C"></path>
                <path d="M112.3106,437.998 L112.3106,437.998 C110.5396,439.769 110.5396,442.642 112.3106,444.412 L121.8976,454 L134.7266,454 L118.7246,437.998 C116.9536,436.227 114.0816,436.227 112.3106,437.998" id="Fill-311" fill="#1D1B1C"></path>
                <g id="Group-315" transform="translate(370.000000, 436.000000)">
                    <mask id="mask-72" fill="white">
                        <use xlink:href="#path-71"></use>
                    </mask>
                    <g id="Clip-314"></g>
                    <path d="M22.3028,2.2002 C20.5318,0.4292 17.6598,0.4292 15.8888,2.2002 L0.0898,18.0002 L12.9178,18.0002 L22.3028,8.6142 C24.0738,6.8442 24.0738,3.9712 22.3028,2.2002" id="Fill-313" fill="#1D1B1C" mask="url(#mask-72)"></path>
                </g>
                <path d="M379.4913,431.916 C381.2623,430.145 381.2623,427.273 379.4913,425.502 L373.7873,419.798 L396.4683,397.118 C398.2393,395.347 398.2393,392.475 396.4683,390.704 C394.6963,388.933 391.8243,388.933 390.0543,390.704 L364.2153,416.542 C363.1983,417.56 362.7683,418.939 362.9193,420.266 C363.0113,421.288 363.4463,422.285 364.2283,423.067 L369.8703,428.709 L351.5163,447.062 C349.7453,448.834 349.7453,451.705 351.5163,453.477 C351.7143,453.674 351.9283,453.847 352.1493,454 L357.2983,454 C357.5203,453.847 357.7333,453.674 357.9303,453.477 L379.4913,431.916 Z" id="Fill-316" fill="#1D1B1C"></path>
                <path d="M349.4385,10.2324 C347.6675,8.4614 344.7955,8.4614 343.0245,10.2324 C341.2535,12.0034 341.2535,14.8764 343.0245,16.6464 L364.3385,37.9614 C364.3955,38.0234 364.4485,38.0884 364.5085,38.1484 C365.3965,39.0374 366.5605,39.4794 367.7245,39.4764152 C368.8885,39.4794 370.0525,39.0374 370.9405,38.1484 C371.0005,38.0884 371.0545,38.0234 371.1105,37.9614 L408.6145,0.4574 L395.7865,0.4574 L367.7245,28.5184 L349.4385,10.2324 Z" id="Fill-318" fill="#1D1B1C"></path>
            </g>
        </g>
    </g>
</svg>